<?xml version="1.0" standalone="no"?>
<!DOCTYPE svg PUBLIC "-//W3C//DTD SVG 1.1//EN" "http://www.w3.org/Graphics/SVG/1.1/DTD/svg11.dtd" >
<svg xmlns="http://www.w3.org/2000/svg">
<metadata></metadata>
<defs>
<font id="autopiaautopia_bold_italic" horiz-adv-x="1147" >
<font-face units-per-em="2048" ascent="1638" descent="-410" />
<missing-glyph horiz-adv-x="430" />
<glyph horiz-adv-x="0" />
<glyph horiz-adv-x="682" />
<glyph unicode=" "  horiz-adv-x="430" />
<glyph unicode="&#x09;" horiz-adv-x="430" />
<glyph unicode="&#xa0;" horiz-adv-x="430" />
<glyph unicode="!" horiz-adv-x="584" d="M143 137q0 96 60 150q55 53 137 53q88 -2 131 -47q41 -45 41 -113q-2 -94 -55 -147q-54 -56 -135 -58q-91 2 -134 50q-45 45 -45 112zM257 465q25 133 54 263t56 262q9 45 17 87t19 82t28 78t45 76l269 60q-25 -34 -40.5 -70.5t-25 -75t-16.5 -78.5t-16 -80 q-27 -132 -56 -262t-54 -263z" />
<glyph unicode="&#x22;" horiz-adv-x="932" d="M196 870q26 26 50.5 53.5t45.5 58.5q18 25 36.5 64t33 82.5t22.5 86t5 75.5l283 95q4 -36 -3.5 -70.5t-18.5 -69.5q-8 -29 -16.5 -57t-20.5 -55q-29 -65 -73 -119t-92 -105zM585 870q26 26 50.5 53.5t45.5 58.5q18 25 36.5 64t33 82.5t22.5 86t5 75.5l283 95 q4 -36 -3.5 -70.5t-18.5 -69.5q-8 -29 -16.5 -57t-20.5 -55q-29 -65 -73 -119t-92 -105z" />
<glyph unicode="#" d="M169 -16q29 83 60 164.5t57 165.5q9 29 12.5 60t8.5 61h-114l185 131q11 62 24.5 122t26.5 121q-26 0 -53 1t-54 1l180 128l1 2q11 86 41 167.5t64 159.5l280 79q-31 -72 -57 -144.5t-43 -148.5q0 -1 -1.5 -9.5t-4 -20l-5 -23t-3.5 -17.5l-1 -11q-2 -11 0.5 -20.5 t3.5 -15.5l37 6q18 2 36 3.5t36 1.5l3 18q8 36 21.5 70t25.5 68q17 47 31.5 93t38.5 90l269 60q-13 -23 -22 -48t-17 -51t-16 -51.5t-18 -49.5q-6 -15 -11 -29.5t-10 -29.5l-6 -20l-4 -16q0 -3 -0.5 -5.5t-0.5 -4.5q-1 -13 -1.5 -25t-2.5 -25q-3 -30 -10 -49h132l-186 -132 h-24q-11 -41 -22.5 -80.5t-20.5 -80.5q-1 -9 -1.5 -12t-0.5 -5t-1 -5t-2 -11q-2 -13 -3 -25.5t-4 -24.5h136l-186 -132h-15q-3 -20 -9 -39q-25 -85 -54.5 -167t-58.5 -166l-280 -79q29 84 59 166t54 167q8 29 12 59t8 59h-114q-3 -23 -9 -42q-26 -85 -57 -166t-60 -164z M647 569q0 -2 4 -2h103q2 12 4 20q14 57 31.5 111.5t22.5 112.5h-121q-14 -59 -27 -122t-17 -120z" />
<glyph unicode="$" d="M131 190l278 109q12 -28 28 -54t37 -49q12 57 25.5 113.5t25.5 113.5q9 41 13.5 67t7.5 42.5t7 26.5t11 20t20 23.5t35 36.5q-3 5 -6 10.5t-8 10.5q-15 14 -30 22.5t-23 29.5l2 1q-21 2 -39 9q2 -3 0 -2.5t-6 2t-8.5 4t-7.5 3.5q-11 4 -19 7.5t-19 8.5q-29 16 -52 38.5 t-42 49.5q-24 37 -32 77.5t-4 82t17.5 81.5t31.5 78q25 52 66 92t91 70t105.5 50t110.5 34q6 32 10 43l10 35l280 79q-5 -20 -10.5 -39.5t-7.5 -40.5q-2 -9 -2.5 -17.5t-1.5 -16.5q-1 -4 -2.5 -14t0.5 -15q0 -1 0.5 -1.5t0.5 -1.5q2 0 4 -0.5t4 -0.5q69 0 125 -35t96 -90 q11 -15 23 -29t20 -31l-278 -109q-20 40 -55 78q-2 -10 -4.5 -19t-4.5 -19q-7 -35 -14 -69t-16 -68l-9 -34v-3q-1 -6 -1.5 -12.5t-2.5 -12.5q-2 -14 -4 -28.5t-7 -28.5q-5 -15 -16 -27.5t-21 -24.5q-15 -18 -31 -31q8 -17 22 -25t29 -21q7 -6 10.5 -12t8.5 -14q9 -5 17 -8 q5 -1 9.5 -1.5t7.5 -0.5q35 -5 61.5 -19t53.5 -37q39 -33 62.5 -64t34 -65t10.5 -73.5t-8 -88.5q-5 -35 -15.5 -69t-27.5 -66q-29 -57 -74 -100t-100 -74t-116.5 -51.5t-122.5 -32.5q-4 -35 -12.5 -69t-17.5 -66l-280 -79q16 52 23 101q5 26 6.5 52t9.5 49l-2 2h-3 q-6 1 -8 1h-10q-46 1 -87 18.5t-75.5 46t-61.5 65.5t-45 76zM605.5 1043q2.5 -55 37.5 -107l13 54q11 50 23.5 99.5t20.5 99.5q5 32 6.5 54t7.5 41l-4 2h-14q-26 -26 -42 -57t-28 -65q-23 -66 -20.5 -121zM724 112l17 -7l39 6q37 38 57 83.5t30 96.5q16 77 3 138t-59 108 l-6 -35q-21 -98 -44.5 -194t-36.5 -196zM932 732q2 0 4 -0.5t0 0.5h-4z" />
<glyph unicode="%" horiz-adv-x="1835" d="M282 906q3 87 30 163.5t74 139.5t112.5 110t146.5 76q45 16 91 26t94 12q47 2 92.5 -14.5t74.5 -55.5q7 -10 13 -19t11 -20q42 9 79.5 6.5t81.5 -2.5h277q5 0 10 0.5t10 1.5l12 12l252 39q-20 -19 -38 -38.5t-38 -38.5q-11 -9 -24.5 -15.5t-21.5 -18.5q-6 -9 -9 -19.5 l-6 -21t-6.5 -20.5t-9.5 -19q-67 -93 -139.5 -180t-144.5 -176q-160 -201 -318 -399.5t-319 -399.5l-269 -60q160 201 318 399.5t319 399.5q69 88 140.5 173t137.5 176q11 14 14.5 33t11.5 36q-6 5 -12 5.5t-15 1.5q-66 -3 -130 -4t-128 0q-3 -74 -13.5 -147t-38.5 -142 q-23 -56 -60 -102t-83.5 -82.5t-101 -62t-111.5 -39.5q-37 -9 -76 -16.5t-77.5 -7t-75 11.5t-67.5 39q-23 21 -37 53.5t-21.5 69.5t-10 73t-1.5 63zM566 966.5q2 -59.5 15 -116.5q7 -29 22 -58.5t41 -45.5q12 -8 24 -12q36 38 57 92t32 112.5t14 117t4 106.5 q-12 16 -21.5 35.5t-21 38t-25.5 33.5t-34 23q-39 -46 -63 -99t-35 -110t-9 -116.5zM1073 218q2 35 10.5 71t18.5 69q24 81 61 143.5t88.5 109t117.5 78.5t148 53l-43 -77l125 89q34 3 67.5 1.5t65.5 -15.5q52 -23 81.5 -68.5t41 -101t9 -113.5t-12.5 -105 q-19 -85 -56 -152.5t-90 -118.5t-121.5 -86.5t-150.5 -56.5q-29 -8 -64 -12.5t-71 -3.5t-70 9t-60 26t-44 50t-29.5 69t-16.5 74.5t-5 67.5zM1358 281q2 -26 8 -59q5 -32 15.5 -63t29.5 -58q24 -33 61 -42q16 19 30 40t24 43q11 23 18.5 43t14.5 43q14 44 20 90 q4 33 2.5 78.5t-13 90t-35 81t-62.5 50.5l-13 -17q-26 -38 -44 -79t-32 -85q-9 -32 -15 -57t-8.5 -49t-0.5 -50zM1529 56q2 0 3.5 0.5t3.5 0.5q-2 0 -3.5 -0.5t-3.5 -0.5zM1545 58q4 0 6 0.5t0 0.5q-2 -1 -6 -1z" />
<glyph unicode="&#x26;" horiz-adv-x="1540" d="M196 314.5q-1 31.5 4 60.5q7 46 25.5 92t46 87.5t61.5 77t73 61.5q23 15 46.5 28t49.5 22l11 12l5 6q-5 45 -18.5 87.5t-17.5 87.5q-3 43 2.5 89.5t19 90.5t36 84t53.5 72q29 30 64.5 51.5t72.5 39.5q43 20 87.5 34.5t91.5 25.5q29 7 60 9.5t61.5 -0.5t59.5 -11.5 t55 -24.5q33 -20 52 -53.5t30 -68.5q17 -55 16 -104t-18.5 -93.5t-48.5 -84.5t-74 -77q-40 -34 -86 -63.5t-95 -49.5l-19 -9l3 3l-3 -3l-10 -12l-14 -13q4 -16 7.5 -32.5t11.5 -31.5q13 -25 30.5 -45.5t32.5 -43.5q32 -48 65.5 -93.5t71.5 -89.5q11 -13 23 -25l25 -25 q14 20 27.5 40.5t24.5 43.5q21 40 35 82.5t29.5 84.5t35.5 81.5t52 73.5l252 39q-25 -26 -40.5 -58t-27 -66.5t-22 -70t-24.5 -66.5q-38 -86 -99 -159t-127 -138q79 -76 165.5 -128t195.5 -69l-245 -127q-94 15 -173.5 55.5t-151.5 98.5q-50 -32 -111 -55q-26 -11 -56.5 -22 t-62.5 -20t-64 -15t-60 -6l-5 -1h-5l-3 -1h-4q-79 -18 -157.5 -9.5t-144.5 43t-113.5 94.5t-63.5 147q-5 29 -6 60.5zM479 408q1 -44 12.5 -85.5t33 -78t52 -66.5t70.5 -49q17 -8 35 -15.5t37 -10.5q31 -5 62 -1t62 7l-1 1q-3 2 0 2.5t8.5 0.5h11.5t10 1l7 5q12 13 25.5 27 t28.5 22l11 10q1 2 1 6q-18 28 -41.5 51t-46.5 46q-30 32 -57.5 66t-53.5 69q-14 20 -28 39.5t-28 38.5l-9 14l-14 17q-6 9 -12.5 17.5t-13.5 16.5q-20 28 -28.5 56.5t-18.5 59.5q-6 -7 -12 -13t-14 -11q-11 -14 -20 -28t-18 -29q-24 -42 -38.5 -89t-12.5 -97zM677 519v2v-2 zM767 1013q6 -41 17.5 -80t16.5 -80l30 11l13 9q28 21 53 48.5t41 58.5q19 39 22 88.5t-9.5 96t-42 83.5t-76.5 49q-38 -63 -57 -136.5t-8 -147.5zM866 111h3q1 0 2 1q-1 0 -2 -0.5t-3 -0.5zM890 883q2 0 3 1l-1 -1h-2z" />
<glyph unicode="'" horiz-adv-x="504" d="M226 830q26 26 50.5 53.5t45.5 58.5q18 25 36.5 64t33 82.5t22.5 86t5 75.5l283 95q4 -36 -3.5 -70.5t-18.5 -69.5q-8 -29 -16.5 -57t-20.5 -55q-29 -65 -73 -119t-92 -105z" />
<glyph unicode="(" horiz-adv-x="717" d="M229 95q3 -43 9 -92t18.5 -97t33.5 -92t53 -76q11 -11 19.5 -17.5t16.5 -11t17 -8.5t23 -11l265 120q-22 11 -35.5 17t-29.5 23q-36 36 -57 84.5t-32 102t-15.5 107.5t-5.5 102q-5 125 14 244.5t48 239.5q21 85 48 168.5t63 164.5q17 37 38 78.5t46.5 81t56.5 73.5t67 58 q50 14 97.5 36.5t87.5 54.5l-227 -18q4 2 7.5 4t8.5 5l25 11q5 2 9.5 3.5t9.5 3.5l-30 -8q-33 -11 -65.5 -24t-63.5 -30q-48 -28 -88 -58t-73.5 -65t-63.5 -75t-58 -87q-56 -93 -93.5 -194t-66.5 -205q-42 -152 -64 -303.5t-13 -309.5zM908 1454l11 3zM919 1457l1 1z M920 1458l17 5q4 1 -4 -1.5t-13 -3.5z" />
<glyph unicode=")" horiz-adv-x="717" d="M-7 -322l60 109l-4 -2q-3 -1 -1.5 0t6.5 3l2 3l32 11q8 5 14.5 10t11.5 10q21 17 39 37.5t35 41.5q52 67 90.5 140.5t65.5 153.5q18 51 33 102t28 103q2 9 7 30t10.5 43.5t9.5 40.5t4 21q26 127 38 253.5t-5 255.5q-5 39 -13.5 78.5t-24 76.5t-39 69t-57.5 55 q-11 8 -23.5 14t-25.5 13l265 120q31 -17 54.5 -32t47.5 -41q47 -51 71 -126t32 -157.5t4.5 -164.5t-11.5 -148q-9 -69 -22.5 -136t-29.5 -135q-21 -93 -49.5 -187.5t-69.5 -183.5t-96.5 -169t-130.5 -144q-78 -65 -169.5 -103.5t-188.5 -64.5z" />
<glyph unicode="*" horiz-adv-x="1024" d="M316 896q60 42 122.5 74.5t128.5 61.5q3 1 5.5 2.5t5.5 2.5q-24 21 -50.5 36.5t-54 29.5t-55 29t-52.5 33l265 120l6 -5q7 25 18.5 47.5t30.5 44.5l269 60q-24 -28 -33 -55.5t-11 -56t-1.5 -58.5t-4.5 -63l79 38l120 -46q-46 -23 -91.5 -45.5t-93.5 -42.5l-6 -3 q49 -35 96.5 -69.5t95.5 -71.5l-262 -119q-11 -43 -36 -75l-269 -60q16 21 24 48t11.5 56t3.5 58v54v13q-17 -10 -32.5 -20t-31.5 -21zM589 1027h1h-1z" />
<glyph unicode="+" horiz-adv-x="1229" d="M239 444l186 132h169v296l283 95v-391h373l-186 -132h-187v-307q-71 -23 -141 -47t-142 -48v402h-355z" />
<glyph unicode="," horiz-adv-x="573" d="M-33 -329q38 38 73.5 76.5t63.5 85.5q6 10 17.5 43.5t23.5 73t21 76t10 53.5q1 12 -1 22t-2 21l278 109q7 -19 8 -39t-2.5 -40.5t-9.5 -40t-12 -38.5q-12 -44 -23 -88t-34 -84q-32 -54 -73.5 -100t-85.5 -91z" />
<glyph unicode="-" horiz-adv-x="803" d="M217 416l41 194h539l-41 -194h-539z" />
<glyph unicode="." horiz-adv-x="573" d="M137 137q0 96 60 150q55 53 137 53q88 -2 131 -47q41 -45 41 -113q-2 -94 -55 -147q-54 -56 -136 -58q-90 2 -133 50q-45 45 -45 112z" />
<glyph unicode="/" horiz-adv-x="532" d="M34 1q133 345 264 684.5t263 683.5l280 79q-132 -344 -263.5 -684t-263.5 -684z" />
<glyph unicode="0" d="M205 508q5 67 19 142t36.5 152.5t53.5 154t70 146t87 128.5t104 102q66 50 140 77t153 44q26 3 60.5 4.5t70 -2t67.5 -12t53 -24.5q23 -17 41.5 -36.5t31.5 -44.5q18 -33 31.5 -80.5t21.5 -99t11 -102.5t-1 -90q-9 -91 -28 -181t-44 -178q-32 -114 -75.5 -218t-108 -188 t-156 -142.5t-218.5 -81.5q-34 -6 -70 -9t-72 0t-70 12.5t-65 29.5q-38 26 -59.5 63t-37.5 79q-31 84 -42 175.5t-4 179.5zM488.5 614.5q-8.5 -91.5 3.5 -170.5q6 -38 12 -77.5t16.5 -78t27.5 -74.5t44 -65q20 -22 46 -31.5t54 -15.5q1 -1 5 -1q28 30 55 69q42 60 71 127.5 t52 136.5q17 47 29 95t23 96q7 29 13.5 58t11.5 58q17 90 19.5 173t-14.5 171q-6 31 -13 60.5t-18.5 57.5t-28.5 52.5t-43 44.5q-17 13 -38.5 18t-43.5 7l-18 -19q-36 -37 -65 -83.5t-52 -91.5q-35 -68 -66 -154.5t-52.5 -178.5t-30 -183.5z" />
<glyph unicode="1" d="M179 -1l186 132h56t57 2l3 3q10 38 10 81.5t8 84.5q8 42 18.5 82t18.5 81q27 128 54 254t55 254q8 32 14 63t9 63q0 2 1 17t2 33t2.5 35t4.5 25q-16 15 -30.5 31t-32.5 27q-9 6 -21 5.5t-23 0.5q-28 1 -55.5 0t-55.5 -2l186 132q14 0 40 2t56.5 2t61.5 -2.5t55 -9.5 q4 4 8 7t9 7l228 18q-27 -22 -51.5 -46t-50.5 -48q-10 -8 -19.5 -15.5t-18.5 -16.5l-1 -1q-2 -4 -4 -8.5t-2 -9.5q-1 -23 -2 -43t-4 -45q-6 -57 -18.5 -112t-25.5 -111q-23 -107 -45.5 -213.5t-45.5 -213.5q-8 -42 -18.5 -81.5t-18.5 -81.5q-3 -18 -4 -36.5t-4 -36.5 q0 -21 -0.5 -46.5t-8.5 -46.5q12 -12 23 -24.5t23 -23.5t26 -20t31 -15q16 -5 35 -5.5t38.5 0.5t39 2.5t36.5 1.5l-186 -132q-31 0 -64 -2.5t-65.5 -2t-64.5 6.5t-60 22q-23 13 -40 31q-85 -33 -173.5 -44t-181.5 -11z" />
<glyph unicode="2" d="M153.5 33.5q-0.5 12.5 2.5 26.5t7.5 26.5t6.5 17.5q11 30 19.5 56t19 50t25.5 47t40 47q17 17 35 33.5t38 31.5q14 11 28.5 22.5t29.5 22.5q-4 0 -1 2.5t9 6.5t13.5 8t11.5 7q21 14 36 24.5t28 19t26.5 17t30.5 19.5q36 24 73 48t72 50t67.5 55t60.5 62q39 48 61 96.5 t36 108.5q5 18 2.5 37t-7.5 36q-2 8 -4 15.5t-4 15.5q-2 4 -2 10q-1 1 -1 3q-11 37 -23.5 71.5t-31.5 61.5t-48 46t-73 26q-9 1 -13.5 2t-7 1.5t-5 0t-7.5 -0.5q-37 -35 -64.5 -73.5t-53.5 -82.5l-269 -60q19 33 39 65t46 61q45 52 102.5 93t122.5 69.5t134.5 44t138.5 16.5 q45 2 95.5 -9t87.5 -38q27 -20 45.5 -44t31 -51t21.5 -56.5t18 -60.5q5 -17 9.5 -35.5t5.5 -37.5q2 -27 -5.5 -57.5t-15.5 -53.5q-22 -68 -63.5 -125.5t-93.5 -106.5t-110.5 -91t-115.5 -80q-40 -27 -80.5 -53t-80.5 -53l-15 -10q1 0 1 0.5t1 0.5l-7 -4h1q-2 -2 -3 -2 q5 2 -1 -3q-31 -23 -59.5 -45.5t-54.5 -51.5q-13 -17 -24 -40t-20 -48.5t-17 -50.5t-14 -47v-7q48 5 96 2t97 -3h272q18 26 32.5 54t31.5 55l269 60q-13 -21 -25 -43t-25 -43.5t-28 -41t-35 -36.5q-48 -40 -100.5 -66.5t-108.5 -42t-114.5 -22t-119.5 -6.5h-414 q-24 -4 -52.5 -3t-50.5 15q-8 6 -8.5 18.5zM377 390q0 -1 4 2t9 7q5 3 12 8t15 10q2 2 3 2l7 6l-11 -8l4 3l-6 -4q-4 -2 -8 -2q-5 -4 -14 -11.5t-14 -11.5q0 1 1 1t2 1zM381 393q1 0 9 6q5 4 12 8.5t14 9.5h1q-2 0 -3 -1l-33 -23l22 15zM390 130h4.5t5.5 1q-4 -1 -10 -1z M417 417l1 1q0 -1 -1 -1zM430 426l2 2q1 0 3 2zM432 428l5 3q-1 0 -2 -1l4 3l-1 -1l2 2q0 -1 -1 -1q1 0 1.5 1t1.5 1q4 2 5.5 3.5t-0.5 0.5l-9 -6q4 2 5.5 3t-0.5 0l-8 -6q-1 0 -3 -2zM555.5 384.5q-7.5 -4.5 0.5 0.5l21 13q-14 -9 -21.5 -13.5zM558 386.5q6 3.5 18 11.5 l-16 -10q-8 -5 -2 -1.5zM564 391q2 1 3.5 2t3.5 2q-5 -2 -7 -3.5t0 -0.5zM577 398l8 5zM631 431l1 1z" />
<glyph unicode="3" d="M106 176l278 109q16 -37 35 -68.5t42.5 -57t53.5 -45.5t69 -34q21 -8 42 -10.5t43 -2.5q7 0 12 1l11 7q18 14 32 30t28 35q33 47 47 106.5t12 116.5q-2 44 -12.5 92.5t-37.5 84.5q-11 15 -26.5 30t-31 31t-28 33.5t-17.5 36.5h-45t-44 2l-44 2t-44 1h-20.5t-20.5 1h-1h-8 t-10 1l23 3l69 25l-117 45q30 14 62.5 26.5t66.5 21.5t68.5 12t68.5 -3q20 0 41 -0.5t41 -1.5l41 25l32 17l1 1l11 10q14 15 26 30.5t24 32.5q29 42 30.5 90.5t-12.5 94.5l-4 15q-2 2 -2 4l-6 19q-6 15 -12.5 29.5t-15.5 28.5q-27 46 -72.5 72.5t-100.5 22.5 q-26 -26 -46 -55t-44 -57l-1 -1l-280 -79q1 2 5 9t8 13t6 8.5t-2 -5.5l4 7q3 6 10.5 16t15 20.5t14.5 19t9 11.5q26 32 57 61t66 51q51 33 104 56q51 22 119 39t137 19.5t132.5 -15t106.5 -64.5q16 -17 32.5 -46t29.5 -62t21 -66t6 -57q-8 -90 -62 -161q-55 -75 -132 -125 q-13 -8 -27.5 -15.5t-28.5 -14.5q-4 -8 -4 -8.5t-2 -8.5q2 -24 15 -42t29.5 -34l33 -32t26.5 -36q23 -45 36 -94t15.5 -100t-7.5 -101t-34 -96q-35 -69 -90.5 -122.5t-122.5 -92.5t-141.5 -63t-147.5 -34q-39 -5 -79.5 -5.5t-80.5 5.5t-77.5 20t-71.5 37q-48 34 -79.5 80 t-55.5 98zM322 1117l1 1q-1 0 -1 -1zM801 837q1 0 3 2q-1 -1 -2 -1q-2 -1 -1 -1zM933 800q1 0 5 2z" />
<glyph unicode="4" d="M135 440q1 11 5 20.5t7 18.5q14 40 35.5 76.5t46.5 71t52.5 67t53.5 65.5q18 23 36.5 46t38.5 46q29 35 57.5 69t57.5 68t58.5 67.5t58.5 67.5q38 44 84.5 73t98.5 52q10 4 16.5 7t11 5t9.5 3.5t13 4.5l5 2q11 5 20.5 8t22.5 7l4 5l269 60q-18 -26 -33 -52.5t-26 -56.5 q-10 -29 -9.5 -58.5t-2.5 -58.5q-2 -22 -6 -44.5t-9 -44.5q-14 -78 -33 -153t-36 -152q-5 -26 -7.5 -52.5t-6.5 -52.5q0 -5 -1 -9t-3 -9v-3q0 -6 -2 -10q0 -2 -0.5 -5.5t-0.5 -1.5q1 5 1 9.5t2 9.5v1v-2v-1q-1 -2 -1 -5.5v-5.5q0 -12 3 -22q5 -17 20.5 -28.5t29.5 -18.5 q19 -8 34 -8h36q5 1 10.5 1h10.5q4 1 12.5 1.5t6.5 -1.5q5 1 10 1h10l-178 -127l15 2q2 0 -0.5 -0.5t-4.5 -0.5l-14 -3l-4 -3q-5 0 -13 -1t-10 0q-9 -1 -18.5 -1h-18.5q-2 -27 -6 -54q-2 -17 -3 -33.5t-3 -33.5q0 -14 -2 -23.5t-2 -18t4 -17t15 -19.5q10 -7 17.5 -15.5 t17.5 -15.5q29 -19 57 -22.5t61 -3.5l-186 -132h-55.5t-55.5 5q-18 3 -35.5 9.5t-34.5 14.5q-5 3 -13 8t-17 12q-7 -3 -13.5 -6t-13.5 -5q-45 -18 -94 -28t-97 -11h-83h-16.5t-16.5 1q-1 0 -3.5 0.5t-0.5 0.5h15l185 131q6 0 12.5 0.5t12.5 -1.5h54l2 1q-1 13 1 25.5t4 26.5 q5 39 7.5 78.5t3.5 78.5q-9 6 -16 14t-14 15.5t-14.5 13t-16.5 6.5q-81 0 -160.5 2t-160.5 -2q-17 -1 -45 -3.5t-54 0.5t-44.5 15.5t-16.5 41.5zM418 531q0 -10 2 -15q4 -2 9 -2q78 8 157 9t157 -1l2 14q5 37 10 73t13 71q17 75 35 149.5t31 149.5q5 31 6 65t5 66l-51 -62 q-44 -52 -95 -113.5t-95 -115.5q-20 -25 -39 -50.5t-40 -49.5l-18 -23q-31 -38 -53.5 -77.5t-35.5 -87.5zM613 97l2 1zM881 142h2q1 0 1 1q-1 -1 -3 -1zM916 1281q2 0 3 0.5t0 0.5q-1 -1 -3 -1z" />
<glyph unicode="5" d="M132 197l278 109q32 -79 84 -129t135 -72q17 -2 33.5 -3t33.5 -1l2 2q21 19 36 37t32 41q32 47 51.5 102t25.5 112q5 44 2 92t-16.5 94t-37.5 86.5t-60 69.5q-35 29 -75 36.5t-84 2.5l-17 -3q-52 -21 -105 -42.5t-110 -30.5l-94 14l-10 -2q2 2 2.5 4t2.5 4q5 85 24 165.5 t42 161.5q6 22 12 45t13 45t17 43t25 40q19 24 48 45.5t62 38t67 28t63 16.5q45 8 92.5 14t92.5 -2h349l-186 -132h-338h-9l-12 -37q-1 -5 -1.5 -9t-2.5 -9q0 -3 -1 -5q-5 -32 -15.5 -62.5t-18.5 -61.5q-13 -48 -22.5 -94t-14.5 -94q45 16 90.5 29t94.5 19q31 4 64 6.5 t65.5 0.5t64 -9.5t59.5 -23.5q66 -36 103 -99.5t50.5 -137t6 -149.5t-31.5 -139q-23 -64 -63.5 -122t-93.5 -103q-103 -85 -229.5 -125t-258.5 -32q-45 2 -89.5 13t-83.5 35q-49 32 -84.5 78t-58.5 100zM564 776q1 0 1 0.5t1 0.5zM670 86q-2 -1 1 -0.5t5 1.5q-2 0 -3 -0.5 t-3 -0.5z" />
<glyph unicode="6" d="M176 481q7 60 22 116.5t26 115.5l11 3q-2 6 -2 8q-6 23 0.5 61t19.5 78t28 76.5t24 57.5q12 27 25.5 53.5t28.5 51.5q37 63 76.5 111.5t85.5 86.5t101 68t124 56q75 28 158 36.5t161 -19.5q75 -26 120.5 -80t75.5 -125l-278 -109q-15 36 -36 71t-48 63t-62 46t-78 20 q-41 -32 -77.5 -81t-66 -104.5t-52 -113.5t-35.5 -108q-5 -23 -12 -50.5t0 -50.5q3 -10 10 -20q40 22 84 39q36 13 79.5 26t89.5 21.5t91 10.5t83 -7q39 -9 69 -30t52 -50.5t37 -64t23 -70.5q13 -59 13 -120.5t-12.5 -121.5t-36.5 -116.5t-60 -105.5q-42 -59 -103 -106.5 t-131 -80t-146 -47.5t-148 -9q-36 3 -74 13t-73 28t-64 43.5t-47 59.5q-16 31 -31 81t-26 103t-16.5 103t-2.5 83zM464 618q-11 -73 0.5 -142.5t28.5 -141.5q7 -30 15.5 -64.5t28.5 -60.5q36 -47 82 -74.5t106 -35.5q48 52 81 117.5t48 136t11 143t-29 140.5 q-12 32 -33.5 59t-50.5 46q-10 7 -21 13t-23 8h-17q-6 0 -13 -0.5t-13 -1.5q-32 -22 -65 -43t-70 -34q-10 -4 -25.5 -10t-32.5 -12q-2 -11 -4 -21.5t-4 -21.5zM717 763h4h-4z" />
<glyph unicode="7" d="M209 1026q22 41 46 80t57 71q73 72 170 111.5t200 44.5q20 2 40.5 -0.5t40.5 -2.5h270q26 0 68 4t84 2.5t77.5 -13.5t48.5 -44q6 -14 1.5 -33t-9.5 -33l-4 -12l-4 -12q-1 -3 -2 -8t-1 -4q-2 -7 -4 -13l-4 -12q-5 -14 -10 -24.5t-12 -23.5q-21 -42 -48 -79t-56 -74 q-41 -54 -85 -106.5t-86.5 -105t-83.5 -107.5t-76 -114q-30 -51 -56 -104.5t-47 -109.5q-14 -38 -26 -75.5t-35 -70.5l-269 -60q12 17 20 37t15 40.5t13 41t14 39.5q43 103 102 202q35 59 75.5 114t83.5 107.5t86.5 105t85.5 106.5q32 43 64.5 87t50.5 95q7 17 13 37t10 37 q2 5 3 12.5t0 12.5v1q0 1 -0.5 1.5t-0.5 1.5q-1 2 -1 3t-1 2q-3 6 -8 10l-10 8q-40 6 -80.5 2.5t-81.5 -3.5q-76 0 -150 -1t-149 1q-17 -21 -31 -44.5t-28 -48.5z" />
<glyph unicode="8" d="M186 340.5q0 28.5 8 59.5q12 50 35.5 99t56.5 91.5t74.5 77t89.5 55.5q4 15 2 27.5t-7.5 24t-13.5 22.5t-15 22q-9 14 -19.5 37t-19.5 48t-16 49t-9 41q-5 42 6.5 81.5t28.5 76.5q33 68 82.5 118t110 86t128.5 59.5t138 38.5q45 7 88.5 7.5t88.5 -7.5q46 -8 80 -24 t58 -41t41 -59t29 -77q14 -46 16.5 -93.5t-12.5 -94.5q-16 -51 -48 -94t-70 -80q-8 -8 -17 -15.5t-18 -14.5l-2 -2l-25 -17l27 20q3 1 1 -0.5l-6 -4.5t-8.5 -6.5t-7.5 -5.5q-4 -2 -7 -5l-6 -6q-3 -5 -8.5 -16.5t-7.5 -19.5q2 -15 10.5 -29t20 -28t22.5 -27.5t19 -26.5 q9 -16 19.5 -41.5t19 -53.5t14 -54.5t4.5 -44.5q-2 -31 -5.5 -63.5t-12.5 -62.5q-12 -42 -32 -81t-47 -74t-59 -65t-68 -54q-57 -38 -133 -70t-157.5 -47.5t-162 -9t-146.5 45.5q-38 23 -63 58t-41 75l-19 55q-2 7 -4.5 15.5t-1.5 6.5q-2 2 -2 4q-9 27 -15 54q-6 32 -6 60.5 zM468 418q2 -28 10 -54.5t16 -53.5q9 -29 19 -58t27 -55q44 -68 125 -91q16 -5 32 -5.5t32 -1.5h6.5t8.5 1q5 3 8.5 6.5l5.5 5.5q22 23 36 41t31 45q41 67 50 143.5t-16 150.5q-11 32 -22.5 61t-31.5 58q-13 20 -30 36t-24 39q-38 0 -75.5 0.5t-75.5 3.5l-8 -5 q-8 -6 -12.5 -10t-8.5 -8t-7.5 -8t-9.5 -10q-17 -23 -33.5 -51t-28.5 -58t-19 -61t-5 -61zM632.5 1111q0.5 -8 2.5 -22q4 -29 15 -59t22 -57q8 -19 18 -36.5t19.5 -34.5t16.5 -33.5t9 -32.5q45 -12 90 -15l8 6l20 15q5 6 14 15t18 19t17 18t11 12l18 27q2 14 10.5 26.5 t13.5 26.5q11 33 10 78t-13 90t-34.5 83.5t-53.5 59.5q-28 19 -60 25.5t-65 5.5l-1 -1q-2 -1 -6 -5t-9.5 -9t-10 -10.5t-7.5 -8.5q-37 -50 -58 -111q-4 -11 -5.5 -22.5t-7.5 -22.5v-7q-2 -12 -1.5 -20zM756 1341l4 2zM1047 837q1 0 3 2zM1050 839l5 3l-4 -2z" />
<glyph unicode="9" d="M154 183l278 109q14 -28 27.5 -52.5t30.5 -45t38.5 -37.5t51.5 -31q22 -10 42 -15.5t43 -7.5h2l8 6q26 20 46 49t37 57q25 42 48 95.5t41 110.5t29.5 114.5t14.5 108.5l-9 11q-27 -14 -54.5 -26.5t-56.5 -22.5q-35 -13 -73.5 -23t-78 -15t-79 -3t-76.5 13q-34 10 -60 27 t-46 40t-35 51t-27 59q-26 69 -26 143.5t20.5 146t59 136.5t89.5 115q32 32 71 57t81 43q49 21 105 39.5t114 26.5t115 1.5t108 -34.5q43 -23 71 -54t46 -68t29 -78.5t19 -86.5q9 -50 13.5 -101.5t3 -103.5t-11.5 -102.5t-29 -98.5q-4 -74 -25 -160t-55.5 -169.5 t-81.5 -156.5t-103 -119q-43 -35 -98.5 -66.5t-117 -53.5t-126.5 -33t-127 -5.5t-118.5 29.5t-100.5 72q-14 16 -22.5 28t-15.5 23.5t-13 25t-16 32.5zM554.5 971.5q3.5 -66.5 27.5 -128.5q18 -47 47.5 -84t79.5 -54q9 -3 19 -5t21 -2l10 6q8 6 16.5 11.5t16.5 10.5 q26 17 51.5 29t53.5 25l30 11q6 47 5.5 95.5t-5.5 96.5t-15 93.5t-23 86.5q-11 32 -30.5 62t-45.5 53t-58 37.5t-68 16.5q-45 -47 -76 -106t-45.5 -123.5t-11 -131zM876 652l6 3q-2 -1 -3 -1t-2 -1z" />
<glyph unicode=":" horiz-adv-x="573" d="M137 137q0 96 60 150q55 53 137 53q88 -2 131 -47q41 -45 41 -113q-2 -94 -55 -147q-54 -56 -136 -58q-90 2 -133 50q-45 45 -45 112zM276 801q0 96 60 149q55 53 137 53q88 -2 131 -47q41 -45 41 -112q-2 -94 -55 -148q-53 -57 -135 -57q-90 0 -133 49q-46 45 -46 113z " />
<glyph unicode=";" horiz-adv-x="573" d="M9 -289q37 30 63.5 65.5t46.5 74.5t35 81t27 86q11 35 17 72t-5 73l283 95q11 -36 4.5 -74t-15.5 -73q-1 -5 -3 -13.5t-2 -6.5q-2 -11 -5 -20.5t-6 -19.5q-2 -7 -5.5 -17.5t-7.5 -21.5t-7.5 -21.5t-6.5 -16.5q-29 -73 -77 -134t-108 -111zM276 801q0 96 60 149 q55 53 137 53q88 -2 131 -47q41 -45 41 -112q-2 -94 -55 -148q-53 -57 -135 -57q-90 0 -133 49q-46 45 -46 113z" />
<glyph unicode="&#x3c;" horiz-adv-x="1229" d="M183 456q-4 26 8.5 49.5t36 44.5t51 38t55 30t46.5 21q16 7 35.5 13.5t36.5 11.5q103 47 207.5 88t208.5 86l45 20l16 7q-2 -2 -4 -2q3 1 4.5 2t0.5 0l10 5l51 23q42 18 83.5 33.5t84.5 29.5q-5 -26 -8.5 -50.5t-7.5 -49.5q-7 -2 -14 -4.5t-14 -5.5q-63 -26 -125 -54 t-125 -54q-46 -20 -92 -38t-93 -37l-137 -58q-23 -11 -45 -18l29 11q3 2 -3 -0.5t-9 -3.5l-44 -17l-7 -17q2 -10 6 -18q7 -14 17.5 -23.5t23.5 -17.5q32 -19 67 -30t69 -25q89 -33 174.5 -72t173.5 -76q69 -29 137.5 -55t134.5 -59l-265 -120q-87 44 -177.5 78.5 t-180.5 71.5l-171 73l-12 6t-13 5l-20 8q-10 4 -20 8.5t-20 9.5q-31 12 -62.5 22t-61.5 25q-13 7 -26 15t-24 18q-27 26 -31 52zM478 579l20 8q-4 -2 -5 -2zM924 862l1 1z" />
<glyph unicode="=" horiz-adv-x="1229" d="M248 216l186 132h826l-186 -132h-826zM248 666l186 132h826l-186 -132h-826z" />
<glyph unicode="&#x3e;" horiz-adv-x="1229" d="M193 837l265 120q100 -42 197.5 -84.5t196.5 -84.5q90 -38 147 -58.5t92.5 -32t56 -19t38.5 -20.5t39.5 -36.5t59.5 -65.5l-53 -21l39 9q-10 -16 -17.5 -32.5t-21.5 -29.5q-27 -27 -66 -50t-81 -43t-84 -37t-76 -31q-137 -60 -273 -117.5t-273 -116.5l-76 66l546 234 q42 18 64.5 25t35.5 12t21 13.5t21 29.5q-10 15 -20.5 29t-26.5 22q-86 46 -176.5 79t-180.5 71q-99 42 -196.5 84.5t-197.5 84.5z" />
<glyph unicode="?" horiz-adv-x="930" d="M307 137q0 96 60 150q55 53 137 53q88 -2 131 -47q41 -45 41 -113q-2 -94 -56 -147q-53 -56 -135 -58q-90 2 -133 50q-45 45 -45 112zM311 1196q26 42 57 78.5t70 66.5q42 32 96.5 60.5t114 48t119.5 27.5t113 0q22 -2 46 -6t43 -15q22 -12 42.5 -37.5t37 -56.5t27.5 -63 t13 -56q2 -34 -9 -70t-30 -64q-37 -57 -90.5 -99t-109.5 -78q-11 -8 -19 -13t-15.5 -9.5t-15.5 -9t-19 -10.5l-40 -23q-1 0 -1 -1l15 11l-71 -42l-1 -1q16 9 37 19q-2 -1 -8 -4.5t-8 -5.5q-8 -6 -16.5 -12.5t-14.5 -14.5q-9 -15 -19 -32.5t-17 -36t-10.5 -38t-0.5 -37.5 q5 -30 22.5 -50.5t45.5 -31.5q11 -4 19 -6t19 -2h4q12 0 18 2q20 4 40.5 6.5t40.5 4.5l-144 -126l-4 -3l-23 -2h-2q-10 -2 -11 -2q-35 -6 -68.5 -9.5t-68.5 -1.5q-32 1 -65.5 12t-59 32t-39.5 50.5t-7 67.5q11 61 42.5 114t80.5 90q14 11 28 21t28 18l4 3l8 5l24 14 q1 0 1.5 0.5t1.5 0.5l-34 -20q-2 -1 -1 0q2 2 4 3l4 2q3 2 5.5 3.5t4.5 2.5q9 6 18 11.5t18 10.5q25 15 56.5 33t61.5 39.5t54.5 46t35.5 52.5q12 30 15 54.5t-0.5 48t-13 46.5t-22.5 50q-7 16 -16.5 30.5t-22.5 25.5q-5 5 -11 10t-13 8l-4 2q-2 0 -3 1l-29 6h-7q-3 0 -5 1 q-1 0 -2.5 0.5t-0.5 0.5q21 0 27.5 0.5t4 0.5h-12h-20.5q-22 -21 -39 -43.5t-34 -48.5zM562 879q2 2 4 2.5t0 0.5zM692 1372q8 2 12 3.5t-1 -0.5zM721 853l1 1zM731 860l7 5q-3 -2 -6 -4.5t-1 -0.5zM738 865l3 1q-1 0 -1.5 -0.5t-1.5 -0.5zM760 583q2 0 3.5 0.5t-0.5 0.5 q-1 0 -1.5 -0.5t-1.5 -0.5z" />
<glyph unicode="@" horiz-adv-x="1696" d="M204 527q-4 63 2 122t21 119q23 92 67 180t105 161q48 57 110.5 107t135 91.5t152.5 72.5t161 51t161 27t154 0q105 -10 197.5 -44t164.5 -93.5t120.5 -144t66.5 -194.5q8 -51 8.5 -106t-11.5 -106q-7 -31 -12 -53t-11 -42.5t-15.5 -41t-24.5 -48.5q-32 -58 -76 -103.5 t-97 -79.5t-113.5 -56t-124.5 -32q-23 -4 -54 -9t-62.5 -5t-60.5 7t-48 28q-17 19 -25.5 43.5t-10.5 53.5q-42 -35 -91.5 -60.5t-103.5 -37.5q-34 -8 -73.5 -17t-76 -8t-67.5 17t-48 58q-12 33 -17 66q-4 28 -2 57.5t7.5 58.5t13.5 57t17 54q25 71 62.5 136t87.5 119 t111 96.5t133 68.5q67 24 137.5 36.5t141.5 -0.5q30 -5 48.5 -12.5t39.5 -27.5q1 -1 7 -6.5t11 -11t8 -9t0 -0.5l-11 1l-77 -12q-20 -11 -39 -21t-39 -20l137 11l49 16q5 11 12.5 20t7.5 -3q-5 -8 -9 -14.5t-8 -14.5h1l-1 -1q-5 -42 -10 -68.5t-11.5 -53t-17 -60.5 t-26.5 -92l-1 -1q-1 -30 -6 -61t-9.5 -61.5t-6 -61.5t4.5 -62q2 -13 6.5 -26t12.5 -25q2 -2 2.5 -4t2.5 -4t6 -4.5t7 -4.5q2 -1 5 -2t11 -3q54 63 84.5 141t38 161t-8 166.5t-55.5 155.5q-23 43 -53 81t-68 69q-50 42 -118 71.5t-141.5 42.5t-146.5 6t-133 -38 q-83 -43 -147 -113.5t-107 -157t-63.5 -183t-17 -193.5t31.5 -188t84 -165q46 -62 105 -105t125.5 -70t139.5 -38.5t148 -10.5q41 1 82 5t80 16l7 3.5t6 3.5l161 -25q-98 -53 -209 -86.5t-226 -45t-229.5 1.5t-219.5 54q-50 19 -98.5 49.5t-90.5 70t-74.5 86.5t-50.5 98 q-13 39 -22.5 64t-15.5 48.5t-10 50t-7 67.5zM889 546.5q4 -37.5 19 -69.5q7 9 12.5 18.5t11.5 19.5l14 25q1 3 2.5 6.5t2.5 5.5l11 26q11 23 24.5 40t33.5 33q22 18 47 34t52 30q11 38 22.5 76.5t20.5 77.5q4 19 5.5 37.5t3.5 37.5q-11 6 -20.5 15t-17.5 18q-9 11 -18 16 q-1 0 -1.5 1t-2.5 2q-10 4 -15 5l-18 4q-40 -36 -72 -81.5t-55.5 -95.5t-38.5 -103.5t-22 -105.5q-5 -35 -1 -72.5zM1405 436q5 -3 5 -2z" />
<glyph unicode="A" horiz-adv-x="1417" d="M30 -5l173 123l2 14q5 36 20 67t32 63t34 62t34 61l12 21q2 5 5 10l6 10l3 6q4 8 5 12q5 13 11.5 25.5t11.5 24.5q13 26 29 49.5t40 39.5q6 34 19 78t28 88.5t31.5 84t30.5 63.5q5 11 10.5 21.5t11.5 21.5q43 86 85.5 172t94.5 167q20 32 43.5 52t55.5 39q4 2 7.5 4 t8.5 4l6 4l16 8q-2 0 1.5 1.5t8.5 4.5t10.5 6t8.5 5q17 9 35 16.5t35 15.5q31 14 67 25t72 14l113 38q-2 -40 -2 -79q-1 -76 7 -151q12 -114 25 -229q2 -21 4 -64.5t2.5 -92t-3 -94t-10.5 -71.5l4 2q9 -17 13 -44.5t6.5 -57.5t3.5 -59t3 -49q5 -49 9 -97.5t7 -97.5 q2 -28 6 -54t-1 -54q5 -4 9.5 -8t9.5 -8q30 -26 50 -41.5t40 -24.5t44.5 -12t63.5 -3l-186 -132h-52.5t-53 3t-51.5 10.5t-48 21.5q-8 5 -15 10.5t-15 10.5q-26 -11 -56 -20t-43 -13q-45 -15 -93 -19t-96 -4l186 132h15l9 12q3 9 2.5 30t-3 45.5t-5.5 48t-4 35.5 q-3 56 -10 111t-10 111v21q-45 -10 -83 -16q-19 -3 -40.5 -3t-44.5 3q-3 0 -5.5 0.5t-5.5 0.5q-36 0 -88 -2q-37 -2 -74 -2h-31l-9 -18q-8 -15 -17 -30t-17 -29q-14 -25 -31 -53t-32.5 -57.5t-28 -59.5t-16.5 -59q-2 -17 -4.5 -34t-10.5 -32q32 -20 64.5 -21.5t73.5 -1.5 l-186 -132q-49 0 -98.5 1t-94.5 21q-45 -12 -92.5 -17t-107.5 -5zM354 436l3 5zM729 662q4 0 7.5 -0.5t7.5 -0.5l20 -3h9h215q2 10 3.5 21.5t1.5 17.5q-1 13 0.5 43.5t2.5 64.5q2 35 3 65q0 15 0.5 25.5t-0.5 17.5q-9 80 -18.5 159.5t-14.5 160.5q-35 -64 -66.5 -129 t-63.5 -129q-12 -24 -29 -65t-33 -86t-28.5 -88.5t-16.5 -73.5z" />
<glyph unicode="B" horiz-adv-x="1393" d="M37 -5l186 132h58l28 21v7q-1 26 4 51t9 51q4 24 6 48t6 47l6 28t5 28l12 56l23 95q8 32 15.5 63t12.5 63q7 43 15 84t31 78h-1q10 29 10.5 58.5t6.5 58.5q17 78 33 154t20 156q-12 6 -22.5 16t-20 21t-18.5 21.5t-18 18.5q-10 9 -23 12.5t-27 4.5t-28 0t-26 -1l186 132 q24 1 50 1h9q22 0 44 -2q26 -2 49.5 -11t43.5 -27l21 -22q66 28 140 46q45 11 90 11q28 0 56 -4q64 0 128.5 -6.5t121 -28.5t99 -64.5t62.5 -115.5q10 -32 10 -64v-7q0 -29 -4 -58q-5 -41 -21 -80t-40.5 -73t-55.5 -62t-66 -49q-20 -12 -41 -23.5t-43 -19.5l-12 -5l-5 -7 q7 -11 12 -23.5t17 -22.5q6 -6 14 -10.5t15 -9.5q20 -14 38 -29.5t32 -35.5q13 -19 27 -46.5t25 -58.5t17 -61.5t4 -54.5t-8.5 -46t-11.5 -45q-5 -33 -20 -63.5t-35.5 -58t-45.5 -51t-51 -43.5q-58 -44 -127.5 -75.5t-144.5 -51.5t-151.5 -29.5t-147.5 -9.5q-35 0 -68.5 1 t-66 6.5t-62 17t-55.5 32.5q-72 -34 -151 -49.5t-180 -15.5zM305 127q1 0 1.5 0.5t1.5 0.5h-2zM592 272v-11q0 -10 1 -20q3 -20 16.5 -36.5t31.5 -29.5t38 -22.5t37 -13.5q37 -5 75 -5h7q41 0 82 3q20 2 46 4t44 15q17 13 27.5 24t24.5 29q9 12 19.5 36t19.5 52t14.5 55 t4.5 44q-3 45 -18 89.5t-37 82.5q-11 19 -23 32t-25.5 23.5t-28.5 20.5t-30 23q-8 8 -14.5 16t-11.5 19v1q-5 -1 -6 4.5t-3 10.5l-30 2t-31 3h-113q-8 -2 -14.5 -1.5t-14.5 0.5l-12 -50q-14 -60 -28 -118.5t-25 -118.5q-4 -20 -5.5 -41t-4.5 -42l-1 -4q0 -4 -1 -9t-2 -9.5 t-1 -5.5q0 -6 -2 -8l-2 -14q-3 -14 -4 -30zM605 1352h1h-1zM736 937q14 -17 28.5 -34t31.5 -31q8 -6 12.5 -9.5t12.5 -7.5q9 -4 16.5 -5t5.5 -1q-23 3 -28.5 4t-2 1t12 -1t13.5 -1q5 1 9 1h9q6 2 13 1.5t13 -0.5q28 2 55.5 3t55.5 -1q18 10 36.5 18.5t37.5 17.5l13 6 q41 42 64 96q24 56 24 115q0 53 -22 103q-22 52 -72 92q-32 26 -69 37t-77 15q-16 1 -26 1.5t-17.5 1t-15 0.5h-18.5h-35l-10 -8q-5 -68 -17 -133.5t-29 -131.5q-2 -11 -5 -22t-5 -22q-5 -26 -6 -52.5t-8 -52.5zM858 1388q3 2 5 2q1 0 1 1l-1 -1zM1109 812l3 1q-3 0 -3 -1z M1127 913l5 1q-2 0 -3 -0.5t-2 -0.5z" />
<glyph unicode="C" horiz-adv-x="1352" d="M203 628q7 96 28 177q21 79 52.5 154.5t75 144.5t98.5 129t122 108q60 43 125.5 73t133.5 56q55 21 117 34q63 12 127 16q36 3 72 3q28 1 56 -1q64 -4 121 -15q27 -5 57 -14t58 -23t53 -33t42 -43q11 -15 11 -35l-2 -46q0 -48 -4 -96t-4 -97q-71 -23 -141 -47t-142 -48 q0 49 4 97t4 96q0 16 1 31.5t-2 31.5q-8 16 -23 27t-29 20q-52 37 -113.5 49t-124.5 12q-26 0 -53 -0.5t-53 -5.5l-22 -5h-1q-45 -21 -82.5 -52t-69.5 -68t-58 -79t-48 -85q-41 -82 -67.5 -172t-35.5 -183q-4 -44 -4 -88q0 -49 5 -98q10 -93 44 -180q41 -107 111.5 -171.5 t183.5 -88.5q41 -9 81 -9h9q44 1 89 8l23 5l14 6q2 2 5 3.5t5 3.5q15 18 24 41.5t19 44.5q23 49 44 97.5t41 97.5l280 79q-23 -56 -47 -110.5t-50 -109.5q-16 -34 -32 -65t-47 -55q-58 -44 -129 -78.5t-147 -57.5q-76 -24 -154 -34q-61 -8 -118 -8q-16 0 -32 1 q-47 2 -94.5 9t-92.5 21t-86.5 37.5t-75.5 58.5q-63 64 -98 152t-48 184q-8 62 -8 125q0 34 2 68zM1051 125l9 3h1q1 1 -1 0q-4 -1 -9 -3z" />
<glyph unicode="D" horiz-adv-x="1585" d="M48 -6l186 132q3 0 19 0.5t33 0.5q4 3 7.5 6t8.5 5v1q-1 -1 -2 -1q-2 -2 -1.5 -0.5t3.5 3.5q11 145 41.5 286.5t65 282.5t66 282t45.5 286q-22 23 -43 44t-47 38q-23 6 -45 6h-45l186 132h52q4 0 7 1q23 0 45 -3q26 -3 49.5 -11t44.5 -25l20 -18l17 6q117 40 247 44 q19 1 39 1q109 0 213 -20q55 -11 103 -29t94 -50q48 -33 81.5 -82t54.5 -107.5t30 -122.5q9 -66 10 -130v-15q-1 -57 -7 -111q-8 -62 -19 -112q-34 -142 -102.5 -256t-165.5 -200t-217.5 -144.5t-257.5 -89.5q-100 -23 -202 -25h-23q-90 0 -181 13q-26 3 -51 13.5t-45 27.5 q-74 -33 -152 -46t-162 -13zM584 217q14 -8 24.5 -21.5t21.5 -24.5q12 -12 29.5 -18.5t33.5 -11.5q9 -2 25.5 -4t34 -3.5t33.5 -2.5t23 -1h19q62 0 110 11q56 13 103 41t87.5 72t82.5 106q43 64 73 136t47 148q17 78 20 156q1 18 1 36q0 60 -8 118q-5 37 -13 75.5t-21 75.5 t-32 70.5t-46 62.5q-32 34 -70 56.5t-80.5 35.5t-87.5 19t-90 9q-20 2 -41 2h-10q-26 0 -52 -2q-15 -145 -47 -286.5t-66.5 -283t-64.5 -283.5t-39 -288z" />
<glyph unicode="E" horiz-adv-x="1274" d="M46 -10l186 132h50q2 2 4.5 3t4.5 3h-1q-5 -3 1 1.5t14 9.5q-3 24 0.5 48t8.5 50q6 35 9 69t8 68q7 41 17 80.5t20 78.5q9 35 18 69.5t16 69.5q9 42 16 82.5t30 77.5q-4 16 -2.5 33.5t5 35t8.5 34.5t8 32q16 78 30 153t17 154q-1 0 -2 1q-14 6 -24 17t-19.5 23t-20 23.5 t-23.5 18.5q-10 2 -19.5 4t-19.5 2q-12 0 -16.5 -0.5t-7.5 -0.5h-7.5h-16.5l186 132q24 0 50 1h13q19 0 39 -2q26 -3 48.5 -11t42.5 -26q5 -5 9.5 -10t9.5 -10q104 48 216 52q26 2 52.5 0t53.5 -2q45 0 90 1h30q30 0 61 -1q22 0 58.5 -0.5t74 -5t70.5 -15.5t50 -33 q11 -14 11 -34v-37q0 -53 -2.5 -103t-11.5 -102l-280 -79q5 29 8 57t3 57q1 22 0.5 43.5t-0.5 42.5q0 24 -4 37t-13.5 20t-25 9.5t-37.5 4.5q-13 1 -22 1.5t-17 1t-17.5 1t-22.5 1.5q-36 1 -72 1h-37h-54h-54q-11 0 -20.5 0.5t-19.5 0.5q-3 -1 -7 -5q-5 -76 -19.5 -147.5 t-28.5 -146.5q-3 -16 -7.5 -32t-8.5 -32t-5 -32.5t4 -32.5q5 -19 22.5 -36t31.5 -31q5 -4 14 -8.5t17 -7.5q47 3 94 3t94 -1q20 48 29 98l280 79q-11 -60 -36 -114q-15 -32 -26.5 -55.5t-25.5 -40.5v-183q-71 -23 -141 -47t-142 -48v167q-7 0 -13.5 0.5t-12.5 1.5 q-12 1 -24.5 3t-25.5 4l-15 3h-169h-10q-14 -59 -29 -117t-28 -117q-8 -36 -10.5 -72t-8.5 -71q-1 -14 -4.5 -29.5t-5.5 -30.5t-2 -30.5t6 -29.5q15 -36 50.5 -54t78 -25.5t86 -8.5t74.5 0q18 0 40.5 0.5t39.5 0.5l69 3q5 8 8.5 17t7.5 17q26 53 48 105.5t40 107.5l280 79 q-11 -33 -28.5 -80t-39 -95.5t-46.5 -92.5t-50 -72q-8 -8 -18 -14t-19 -12q-36 -26 -79 -43t-88 -28t-91.5 -15.5t-90.5 -4.5q-15 -5 -30.5 -3.5t-31.5 0.5q-41 -2 -80.5 -2t-79.5 1t-81 2.5t-81 8.5q-27 5 -58.5 15t-57.5 27q-77 -35 -155.5 -48t-161.5 -13zM567 1331h1h-1 zM692 718l3 1h-1q-1 0 -1 -0.5t-1 -0.5zM954 752l2 2zM1106 136q1 0 1.5 0.5t1.5 0.5l9 3q-8 -2 -12 -4z" />
<glyph unicode="F" horiz-adv-x="1198" d="M45 -2l186 132h72l6 7q-2 15 -1 34.5t3.5 38t5.5 35.5t5 28q7 39 15.5 77.5t16.5 76.5q12 54 21.5 107.5t21.5 107.5q8 31 15.5 61t15.5 59q3 9 7.5 17.5t9.5 16.5q0 1 1 2t2 3l-2 -3l2 2q8 45 14.5 89.5t14.5 89.5q7 38 15.5 74.5t14.5 73.5q3 16 7 35t7.5 39.5t5.5 40 t-1 35.5q-6 10 -17 22t-23.5 24t-25 23t-22.5 17q-23 5 -45 6t-45 1l186 132h82t81 -16q14 -6 26.5 -17.5t22.5 -22.5l7 -7q64 24 123.5 37t119.5 18q50 4 102 5q10 0 21 -1q63 -1 135 -4q34 -2 62.5 -4t54.5 -6.5t52 -11.5t55 -18q4 -2 7 -5l6 -6q3 -17 7 -33t4 -33v-21 q0 -37 -2 -75q-4 -48 -6 -97q-71 -23 -141 -47t-142 -48q1 49 5 97q3 37 3 75v21q0 14 -1 28t-7 25q-4 7 -12 8t-16 3q-35 5 -70.5 9.5t-71.5 6.5q-39 2 -78 2h-19q-48 0 -96 -2q-9 0 -18.5 0.5t-17.5 -2.5l-4 -2q1 -10 -0.5 -22t-3.5 -27q0 -11 -3 -23.5t-5 -23.5 q-5 -33 -10.5 -65.5t-12.5 -64.5q-12 -60 -20 -119.5t-22 -118.5q-2 -6 -2 -7l3 1q21 -21 40 -45t49 -35q17 -2 35 0q48 5 94.5 4.5t94.5 -1.5q9 25 16.5 50t16.5 50l280 79q-12 -35 -23.5 -70.5t-25.5 -70.5q-8 -20 -21 -36.5t-18 -36.5q-4 -13 0 -26.5t4 -27.5 q-1 -32 -3 -63t-4 -63q-71 -23 -141 -47t-142 -48q2 32 4.5 63t2.5 63q0 11 -2.5 23t-3.5 23q-63 1 -127 5q-40 2 -82 3q-23 0 -46 -1l-61 -4l-35 -170q-6 -29 -13 -58t-13 -58q-5 -28 -7 -56t-7 -56q0 -15 -3.5 -28.5t4.5 -28.5q4 -7 4.5 -7.5t5.5 -6.5l6 -7q1 -1 3 -2.5 t0 -0.5q12 -10 22.5 -20.5l21.5 -21.5q12 -9 25 -14t27 -10q20 -2 40.5 -2h40.5q3 0 9.5 0.5t6.5 -0.5q4 1 8 1h7l-182 -129l19 3q-5 -2 -10.5 -2.5t-10.5 -1.5l-2 -2h-14q-1 0 -2 -0.5t-2 -0.5q-12 -1 -24 -1h-12q-18 1 -37 1q-40 0 -82 7t-74 34q-6 5 -11.5 10.5 t-10.5 11.5q-40 -18 -78 -30t-77 -19t-80 -10t-87 -3zM448 801l1 2zM660 4q4 0 6 1h1l-1 -1h-6z" />
<glyph unicode="G" horiz-adv-x="1487" d="M265 520q-1 28 -1 54t1 51q2 26 4.5 50.5t6.5 48.5q22 137 76 256t136.5 214.5t191 165.5t240.5 111q123 38 255 45q21 1 42 1q110 0 215 -31q21 -6 47 -16.5t50.5 -25.5t44.5 -34t29 -41q8 -17 7.5 -36t-0.5 -38v-179q-71 -23 -141 -47t-142 -48v179q0 12 0.5 24 t-1.5 24q-1 8 -1 10t-2 7q-1 0 -1 1q-6 11 -12.5 18.5t-15.5 15.5q-17 17 -38 28.5t-44 21.5q-33 15 -72 23t-79 10q-16 1 -32 1q-24 0 -47 -2q-40 -3 -75 -10q-21 -5 -43.5 -19.5t-43.5 -33.5t-39.5 -38.5t-30.5 -34.5q-78 -91 -125.5 -204.5t-66.5 -231.5 q-12 -74 -12 -148q0 -19 1 -39q2 -53 12.5 -117.5t31.5 -127.5t53 -117.5t79 -87.5q45 -31 96.5 -49t105.5 -22l25.5 -1.5t15 -0.5t15 0.5t25.5 0.5q2 1 7.5 1t6.5 -1q22 24 38.5 54t28.5 62.5t19.5 66t11.5 64.5q5 39 5 69.5t8 56.5q-12 12 -23.5 26t-24.5 27t-27.5 22.5 t-32.5 12.5l-24.5 3.5t-24.5 0.5q-4 0 -11 -0.5t-13.5 -1t-10.5 -1t-2 0.5h-10l181 128q-17 -2 -33 -4t-32 -5q-9 -2 -5.5 -1t15 3t27.5 5t31 5l2 1h11q1 0 2 0.5t3 0.5q17 2 37 2t36 -1q29 -1 51 -5.5t40 -12.5t33.5 -19.5t30.5 -25.5q3 1 5.5 2t5.5 3q69 30 142 42.5 t148 17.5l-186 -132l-46 -5q-4 -2 -7.5 -4t-7.5 -4q-2 -5 -3 -10.5t-3 -10.5q-2 -23 -1.5 -45.5t-2.5 -45.5q-7 -54 -22.5 -106.5t-41 -100t-61 -88t-81.5 -70.5q-51 -33 -111 -58.5t-120 -36.5q-44 -9 -87 -12q-7 0 -14 -0.5t-14 -0.5h-15q-1 0 -2 -1q-10 -2 -21 -2l-5 1 h-26q-75 0 -148 13.5t-139 49.5q-48 26 -84 67t-62 90.5t-43.5 106t-26.5 113.5t-12 112zM990 80l4 2q-1 -1 -3 -1l-1 -1v0zM1320 1276q0 -2 1 -4q-1 1 -1 3l-1 1h1z" />
<glyph unicode="H" horiz-adv-x="1638" d="M37 -2l186 132q2 0 17 0.5t32 1.5q5 3 9 5.5t8 5.5q-2 23 2.5 45.5t7.5 44.5q10 74 27 146.5t32 144.5q8 36 18.5 75.5t15.5 77.5l10 62t14 60q3 11 8 20l10 18q-4 19 0.5 44.5l7.5 42.5q11 54 22.5 104.5t22.5 103.5q4 17 6.5 34t2.5 34q1 21 0.5 42.5t7.5 40.5 q-9 10 -20 23.5t-23 25.5t-23.5 21.5t-21.5 11.5q-21 5 -41.5 5h-41.5l186 132q40 0 82.5 -0.5t80.5 -17.5q15 -7 28 -17t25 -22q76 31 157 45.5t165 13.5l-186 -131q-36 0 -72 -3l-14 -8q-2 -3 -4 -11q-2 -14 -1.5 -28t-0.5 -28q-1 -9 -1 -13.5t-2 -12.5q-1 -2 -1.5 -4.5 t-0.5 -4.5v-4q0 -3 -1 -10t-2 -14.5t-2.5 -13.5t-1.5 -7q-5 -24 -9.5 -49t-11.5 -48q0 -3 -1 -4q-1 -6 -1 -5.5t-1 -2.5q0 -5 -1 -7q-2 -14 -6 -28t-7 -28l-6 -33l-6 -43q0 -2 -0.5 -3t-0.5 -3q0 -28 13 -49t36 -39q6 -5 12.5 -9.5t13.5 -7.5q2 -2 6 -2h11h21.5t20 -0.5 t6.5 -0.5q42 5 81.5 5h82.5q64 0 128 2q27 1 54 1q37 0 74 -1l10 45q11 51 22.5 101t22.5 101q5 20 9 40.5t4 40.5q1 13 0.5 25.5t-0.5 25.5q0 22 8 43q-17 14 -31 33.5t-31 33.5q-13 12 -29 20q-2 0 -4 2q-7 2 -15.5 3t-16.5 1h-21q-4 0 -10.5 -0.5t-5.5 -0.5h-10l182 129 q-17 -2 -34.5 -4.5t-34.5 -5.5q-9 -2 -4 -1l17.5 3.5t28.5 5t30 4.5l1 1h6q3 1 7 1q13 2 26 2q4 0 9 -1l36 -2q23 -2 40.5 -5.5t32.5 -10.5t29 -17.5t29 -25.5q27 12 54.5 21t55.5 16q53 12 105.5 18.5t107.5 5.5l-186 -131q-2 0 -9.5 -0.5t-18 -1.5t-21.5 -2t-20 -1 q-6 -5 -15 -9l-4 -12q-1 -4 -1 -8v-9v-27q0 -43 -9 -85q-19 -103 -43 -204t-44 -204l-3 -18q-7 -39 -28 -63q-6 -95 -28 -186t-41 -184l-2 -9q-2 -21 -2 -38t-0.5 -32t-2.5 -29t-8 -28q18 -14 32.5 -32.5t31.5 -33.5q25 -19 54 -26q21 -2 42 -1.5t42 0.5l-186 -132h-57 q-4 0 -8 -1q-25 0 -49 3q-28 3 -54.5 11.5t-50.5 26.5q-11 8 -23 22q-72 -32 -150.5 -47t-156.5 -15l186 132q1 0 18 1l34 2q3 2 9 5.5t8 5.5q6 16 7.5 32.5t1.5 34v34.5t3 34q9 47 20 92.5t21 91t17.5 91.5t9.5 94q-12 5 -20.5 15.5t-28.5 31.5q-11 14 -26 23l-7 4h-2 l-58 2q-19 0 -32 0.5t-27 0.5t-33.5 -0.5t-50.5 -0.5q-25 0 -49.5 -1t-49.5 -1q-27 0 -54 1t-54 -1q-15 -1 -30.5 -2t-31.5 -3q-2 -5 -3 -9t-2 -9q-13 -57 -25 -114l-24 -114q-7 -34 -14.5 -67.5t-12.5 -68.5q-3 -20 -4 -41t-7 -41q-2 -20 3.5 -32t19.5 -26 q24 -21 42.5 -33.5t38 -19.5t42.5 -9.5t55 -2.5l-186 -132q-35 0 -71 0.5t-71 10.5q-28 8 -50.5 19.5t-44.5 28.5q-38 -17 -74 -28.5t-73.5 -18.5t-78 -9.5t-87.5 -2.5zM720 989q0 4 2 14q-1 -4 -2 -11v-4.5t0 1.5zM776 1273l1 4q-1 -1 -1 -2v-2zM782 852q1 0 3 -1 q-1 0 -1 0.5t-1 0.5q-2 0 -1 0zM1086 104q3 2 10 7t15 11l-11 -5q-11 -11 -14 -13l-2 -1zM1111 127q1 0 2 0.5t0 0.5q-1 -1 -2 -1zM1122 133h3q4 3 7.5 5.5t5.5 4.5zM1147 719q1 0 1.5 -0.5t1.5 -0.5t0 0.5t-3 0.5zM1240 1374v0q0 1 1 0t3 -1q-2 1 -4 1zM1609 1347l6 3z" />
<glyph unicode="I" horiz-adv-x="790" d="M48 -4l186 132h27.5t27.5 2q2 2 6 4q1 1 -0.5 0t-2.5 -1l6 4l1 1q2 2 5 4q7 23 6 50.5t2 51.5q7 44 16 86.5t18 84.5q21 99 43 196.5t43 195.5q0 1 3.5 17.5t9 40t11.5 52t11.5 54t9.5 44t5 24.5q5 36 13 71.5t13 70.5q4 25 4 48.5t7 46.5q-12 9 -22 20.5t-20.5 23.5 t-22 23.5t-27.5 19.5q-11 7 -29.5 6.5t-30.5 -0.5q-2 0 -5 -0.5t-6 -0.5h-7h-9l186 132l13 1h32h28t25 -2q22 -3 38 -7t30 -11t26.5 -17t26.5 -24q76 33 157.5 48t164.5 15l-186 -132q-35 0 -69 -3l-13 -9l-3 -8q-1 -10 0 -19.5t0 -19.5v-1q1 -1 -0.5 -8t-2.5 -12 q-2 -11 -2.5 -15.5t-2.5 -15.5q-5 -29 -9.5 -57t-10.5 -56l-4 -22q-5 -28 -11 -59t-13.5 -62t-14.5 -61t-13 -57q-11 -50 -22 -98.5t-22 -97.5q-17 -78 -33.5 -155.5t-33.5 -155.5q-4 -18 -7 -37.5t-4 -38.5q-2 -26 -2 -46.5t-6 -38.5l1 1q13 -14 25.5 -27.5t26 -26t29 -22 t35.5 -14.5q21 -2 42 -1.5t42 0.5l-186 -132q-24 0 -51 -1h-18q-18 0 -36 1q-26 2 -51.5 8.5t-47.5 20.5q-11 7 -20 15t-18 17q-73 -31 -150.5 -46t-156.5 -15z" />
<glyph unicode="J" horiz-adv-x="795" d="M-80 -254l180 129q-1 0 -1.5 -0.5t-1.5 -0.5l4 1l5 3q5 1 11 1t11 2q17 7 32 19.5t28.5 27.5t25 31t21.5 31q25 38 43 80t31.5 86.5t24 89t19.5 88.5l116 536q11 49 23.5 97.5t21.5 97.5q5 23 10.5 50.5t7.5 52.5q3 26 3 49.5t8 46.5q-23 23 -44 46.5t-49 41.5 q-5 3 -13 4.5t-16.5 2t-16.5 0t-14 -0.5q-3 0 -8 -0.5t-7 -0.5h-12l186 132l14 1q15 0 30 0.5t30 -0.5q55 -2 87 -18.5t59 -43.5q81 31 157 47.5t165 16.5l-186 -132q-35 0 -68 -3l-16 -12l-3 -11q-2 -14 -1.5 -28t-0.5 -28q-1 -7 -1 -10.5t-1 -6.5q2 1 0.5 -7t-2.5 -13 l-3 -16q-7 -37 -14 -73t-16 -72q-19 -80 -36 -159.5t-35 -160.5q-11 -50 -22.5 -98.5t-21.5 -98.5q-11 -57 -22 -114.5t-24.5 -114t-32 -111.5t-44.5 -107q-55 -111 -150 -197q-41 -36 -99 -66.5t-121.5 -53.5t-129 -37t-121.5 -16z" />
<glyph unicode="K" horiz-adv-x="1409" d="M46 -45l186 132h50l15 10q0 10 2 19t3 19q5 51 14 99.5t18 97.5q20 112 43.5 222t53.5 219l12 3q-5 17 -4 34t5 34.5t9 35.5t9 38q9 43 18.5 84.5t17.5 83.5q3 15 6 31t3 31q1 23 1.5 45t7.5 42q-9 10 -20.5 24t-24 27t-25 23.5t-22.5 12.5q-20 5 -40.5 5h-41.5l186 132 q40 0 82 -0.5t80 -17.5q16 -7 29 -17.5t26 -23.5q76 32 156 47t165 15l-186 -132h-33.5t-33.5 -2q-4 -3 -14 -7q-3 -6 -5 -12.5t-3 -11.5v-1q0 -1 -0.5 -1t-0.5 -1v-1v-21q-1 -20 -2.5 -39t-4.5 -39q-2 -14 -4.5 -28.5t-6.5 -28.5l-9 -40l-1 -5l-2 -11q0 -1 -1 -2v-3 q-1 -7 -2.5 -13.5t-3.5 -12.5q-5 -21 -8.5 -42t-8.5 -41q0 -2 -2 -12t-4.5 -20t-3.5 -16q-3 -5 -5 -16q-1 -13 -1 -15.5t3 -10.5q6 -17 19 -34t27 -28q3 -3 9 -7q8 15 17.5 30.5t23.5 32.5q23 26 49 48.5t52 44.5l18 15l2 2q4 5 8 8.5t9 8.5l75 74q16 16 26.5 27t20.5 20 t20 18.5t24 22.5q18 17 39 34t36 37q8 12 11 27t10 28l4 8q-11 11 -23.5 18.5t-26.5 14.5h-17l186 132q42 0 73.5 -8t60.5 -28l20 3q1 0 3 0.5t4 0.5q1 0 1.5 0.5t2.5 0.5q5 0 13 2q31 10 66.5 16.5t72 10t73 4.5t69.5 1l-186 -132q-34 0 -67 -2.5t-66 -7.5q-7 -20 -19 -34 q-20 -24 -42.5 -44.5t-45.5 -42.5q-48 -43 -92.5 -88.5t-90.5 -90.5q-30 -28 -64 -52.5t-58 -58.5q-18 -26 -26.5 -57.5t-14.5 -61.5q-4 -21 -7.5 -41.5t-10.5 -40.5l3 1q29 -76 61 -155t71.5 -153.5t90.5 -141t119 -116.5q38 -27 86 -43.5t93 -27.5l-245 -127l-10 3 q-48 16 -97.5 30.5t-91.5 44.5q-70 52 -123 119.5t-94 143t-74 155.5t-64 159l2 1h-1l-20 6q-16 5 -30.5 8.5t-31.5 8.5q-17 -77 -31 -153.5t-28 -154.5q-5 -30 -10 -60.5t-7 -60.5q-1 -10 6 -21t12 -16l10 -9q9 -8 17 -16t18 -15q34 -21 68 -26t72 -5l-186 -132 q-30 0 -61 0.5t-61 5.5q-20 3 -40 10.5t-38 15.5q-17 8 -40 25q-71 -31 -145 -44t-165 -13zM721 903v6v-6zM733 603l6 -2l78 31zM747 598q0 -1 2 -1zM792 1308q0 1 0.5 1.5t0.5 2.5v1l-1 -1v-4z" />
<glyph unicode="L" horiz-adv-x="1200" d="M52 -3l186 132q12 0 24 -0.5t24 0.5l23 16q-2 19 2.5 37t6.5 36q8 63 19.5 124.5t24.5 123.5q26 121 51.5 240.5t51.5 240.5q19 84 35.5 165.5t19.5 167.5q-13 8 -24 19.5t-21.5 24t-22 23.5t-26.5 19h-1l-16.5 3t-16.5 2q-20 2 -42.5 -0.5t-42.5 2.5l244 126 q-5 0 -11.5 0.5t-11.5 1t-7 1t2 2.5q7 3 15 2q4 0 8 -1q12 -2 26 -1h16h11.5t11.5 -1t15 -2q27 -3 43.5 -8t28 -11.5t20 -16t20.5 -22.5q78 35 165 48t169 13l-186 -132h-33t-33 -1l-2 -2q-3 -2 -6 -4.5t-5 -4.5l-5 -3q-5 -81 -20.5 -158.5t-32.5 -156.5q-6 -37 -16.5 -86.5 t-21.5 -95.5t-19.5 -80.5t-9.5 -41.5q-11 -48 -20 -96.5t-20 -96.5q-8 -41 -16.5 -80.5t-15.5 -81.5q-3 -17 -5 -34.5t-4 -35.5l-4 -24q0 -2 -1 -6.5t-1 -3.5q-2 -10 -2 -13q-3 -32 10 -55t35 -38t50.5 -23.5t59 -12.5t59 -5t50.5 -1q23 1 47.5 1.5t47.5 2.5l38 4l15 34 q24 50 45 99t39 100l280 79q-20 -57 -43.5 -111.5t-51.5 -108.5q-14 -29 -27.5 -54t-36.5 -50q-14 -14 -31 -25.5t-36 -20.5t-38 -16t-37 -14q-38 -15 -90 -24.5t-107 -15.5t-108 -9t-92 -3q-30 0 -70 1t-82 6.5t-82.5 17.5t-71.5 34q-69 -32 -142.5 -46.5t-170.5 -14.5z M437 1363q0 -1 2 -1zM559 1325q1 0 3 2q-3 -3 -3 -2zM564 1328l1 1zM569 1332q5 5 13 10q1 1 2 1.5t2 2.5l-6 -4z" />
<glyph unicode="M" horiz-adv-x="1886" d="M36 0l160 113l2 49q5 56 15.5 110.5t20.5 109.5q23 121 48.5 239t48.5 238q11 51 19.5 100.5t20.5 98.5q8 33 14.5 66.5t14.5 66.5q4 16 6 29.5t4.5 26t8 25t16.5 26.5q10 13 23 26q-8 8 -15 16t-16 15q-5 5 -7 6.5t-9 4.5q-1 0 -1.5 0.5t-1.5 0.5q-5 2 -10 2.5t-10 1.5 q-16 2 -32 1.5t-32 -0.5l186 132q19 0 40.5 0.5t43.5 -0.5t43 -5t39 -13q16 -8 27.5 -20.5t23.5 -23.5l11 -7h9q12 1 26.5 2.5t29.5 1t28.5 -3.5t24.5 -11q12 -9 18.5 -19t10 -21.5t5 -24t3.5 -26.5l31 -193l4 -25q19 -116 36.5 -232t39.5 -232l22 -120l7 11q25 44 42.5 75 t31 55t25 44.5t24 43t27.5 50t37 67.5l30 54t29 54l36 66t35 66l4 7l7.5 15t6.5 15q8 20 17.5 38.5t20.5 36.5q26 46 71 75t92 50q47 24 96.5 45t102.5 26q8 1 16.5 1.5t16.5 0.5l9 5q81 41 169.5 57t178.5 18l-186 -132q-17 0 -23.5 -0.5t-10.5 -0.5t-10 -0.5t-22 -1.5h-4 l-11 -8q-11 -106 -27 -210t-38 -208q-17 -80 -35 -159.5l-36 -159t-34.5 -159.5t-29.5 -160q0 -21 -6.5 -40.5t-1.5 -42.5q3 -14 12 -24l6 -7q1 -1 3 -2.5t0 -0.5q25 -20 43 -32t35 -18t38 -7.5t54 -1.5l-186 -132h-69.5t-68.5 9q-18 5 -44 16.5t-49 28.5 q-69 -29 -140 -41.5t-156 -12.5l186 132h23t24 1q4 2 6 4q-2 20 2 40.5t7 41.5q11 73 26.5 144t30.5 143q32 155 65.5 306.5t57.5 306.5l-30 -55q-63 -117 -127 -232t-130 -230q-23 -42 -46 -87.5t-55 -80.5q-14 -15 -34.5 -28t-44 -25t-47 -22t-43.5 -17q-2 -10 -2 -14 q-5 -35 -7.5 -71t-7.5 -72l-283 -95q8 55 12 109t22 107l42 19l-45 -15q-7 63 -18.5 123.5t-23.5 122.5q-19 104 -35 207.5t-33 207.5l-15 97q-5 -20 -9 -38.5t-8 -38.5q-34 -169 -70 -335.5t-63 -337.5q-3 -19 -4 -37.5t-4 -37.5q0 -20 -1.5 -42.5t-9.5 -42.5 q30 -14 65 -22q25 -3 50 -3.5t51 -0.5l-186 -132q-57 0 -106 2.5t-98 19.5q-51 -13 -103 -17.5t-106 -4.5zM400 1371h-1l8 -3zM410 1367q3 -1 7 -2.5t6 -2.5zM1351 105h1q1 0 1 0.5t1 0.5zM1352 1120v-1v1q1 2 2 3z" />
<glyph unicode="N" horiz-adv-x="1517" d="M24 -2l163 116q2 23 3.5 45.5t5.5 45.5q13 80 29 159.5t32 157.5q30 146 63.5 288.5t61.5 287.5q4 21 8 43t10 42.5t15.5 39.5t25.5 36q9 10 18 18.5t19 17.5l1 1l2 2q-15 12 -26.5 27.5t-26.5 27.5q-10 9 -23 14h-1q-3 2 -7 2.5t-8 1.5q-18 3 -36.5 3h-36.5l186 132h44 q6 0 12 1q18 1 35 -1q23 -2 45.5 -7.5t41.5 -16.5q22 -12 38.5 -31t33.5 -36q4 -3 8.5 -5t8.5 -4h9.5t9.5 -1q20 -2 35 -6t30 -18q20 -19 33 -43t22.5 -51t17 -54t16.5 -52q16 -44 35.5 -86.5t37.5 -85.5q32 -78 63.5 -155.5t62.5 -155.5q17 -46 36 -91l38 -90l3 12 q27 109 51.5 217.5t45.5 218.5q13 63 25.5 126t20.5 126q3 23 5 48t8 47q5 16 4 28v3q-8 11 -17 17t-23 9q-28 5 -56 5h-57l186 132h42q7 0 14 1q14 0 29 -1q11 0 27.5 -1t34.5 -4t35.5 -8t32.5 -13q102 26 206 26l-180 -128q-18 -147 -47.5 -290.5t-61.5 -286.5 q-17 -74 -32.5 -148t-33.5 -147q-2 -8 -3 -16.5t-3 -16.5l-3 -13q-5 -33 -13.5 -56t-33.5 -46q-10 -8 -22 -16l-18 -12l-7 -5l-2 -1l-11 -7l-1 -1q-5 -3 -8.5 -6.5t-8.5 -7.5l-11 -8l9 -111q-71 -23 -141 -47t-142 -48l-10 125q-22 8 -33 20.5t-22 34.5q-2 4 -4.5 13 t-4.5 11q-1 1 -3 7v2v1q-2 4 0 2q-2 16 -10.5 30t-14.5 28q-28 76 -62 151q-32 74 -60.5 149t-59.5 149q-23 59 -49 116t-48 116q0 2 -3.5 11t-8 19t-8 18.5t-4.5 10.5q-2 2 -2.5 5.5t-2.5 6.5q-26 -111 -49 -221t-47 -221q-11 -53 -21.5 -105.5t-20.5 -105.5 q-9 -54 -19.5 -108t-19.5 -108q-2 -22 -2 -45.5t-8 -44.5q29 -13 63 -21q26 -3 51.5 -3.5t51.5 -0.5l-186 -132q-31 0 -57.5 0.5t-51.5 2.5t-49 6.5t-50 13.5q-48 -14 -97 -18.5t-112 -4.5zM747 1407h-1l3 -1q4 0 6 -1h1q-3 0 -9 2zM1385 333l1 1q4 2 6 4z" />
<glyph unicode="O" horiz-adv-x="1484" d="M202 496q-1 19 -1 37q0 58 6 107q13 97 43.5 197.5t77.5 193.5t111 174.5t145 140.5q81 60 172 96.5t188 59.5l44 9q39 5 78 6h11l67 -5q53 -4 104.5 -17t95.5 -44q45 -32 77 -76.5t54 -97t34.5 -111t17.5 -116.5q4 -49 5 -97q0 -9 -1 -19q-1 -56 -5 -105 q-6 -64 -21.5 -128t-37.5 -125q-44 -123 -111.5 -226.5t-157.5 -182.5t-201.5 -129.5t-243.5 -66.5q-43 -5 -89 -5h-15q-54 1 -106.5 12t-101 32.5t-87.5 56.5q-51 46 -83.5 117.5t-49.5 151.5t-19 160zM482 633q0 -51 6.5 -100.5t16.5 -99.5q10 -54 27.5 -102.5t44.5 -89 t66 -71.5t94 -50q41 -14 86 -20q19 -3 38 -2q25 0 50 4q81 54 143 136.5t104.5 179.5t65 199.5t25.5 195.5q1 16 1 31q0 34 -4 70q-4 50 -12 101q-9 54 -22.5 105.5t-37 96.5t-59 82t-88.5 61q-26 10 -50 14l-42 6q-4 0 -12 0.5t-4 0.5h11q-15 0 -29.5 1t-30.5 3l-21 -2 q-10 -3 -16 -7q-74 -45 -125 -111t-91 -141q-58 -111 -96.5 -237t-38.5 -254z" />
<glyph unicode="P" horiz-adv-x="1352" d="M43 -1l186 132q1 0 8.5 0.5t17 1t20.5 1t20 0.5l15 8l4 10t2 7q3 15 4 29.5t1 28.5q2 47 9.5 90.5t18.5 88.5q11 42 21.5 83.5t19.5 83.5q4 16 7 35t7.5 38t12 36.5t19.5 30.5q4 73 19 145t31.5 143.5t31 143t17.5 144.5l-3 2q-14 8 -24.5 19.5t-20.5 23.5t-21 22.5 t-25 18.5q-23 5 -45.5 5.5t-45.5 0.5l186 132q24 0 50 1h14l40 -2q26 -3 50 -11t43 -26l22 -23l19 9q72 32 148 39q60 5 120 5h35q57 -1 118.5 -10.5t112.5 -38.5q39 -22 68.5 -57t49.5 -76.5t32 -86.5t16 -88q1 -7 1 -15q0 -21 -4 -43q-5 -32 -12 -57q-18 -72 -55 -131.5 t-88.5 -108.5t-113.5 -87t-130 -65t-138 -43.5t-137 -22.5q-32 -3 -70 -5q-16 -1 -33 0l-43 1q-1 -1 -1 -3q-9 -42 -20.5 -82t-19.5 -82q-4 -24 -4.5 -47t-1 -44t-3 -40.5t-10.5 -37.5l3 1q15 -15 28 -29t27 -26.5t30 -22t37 -15.5q22 -3 43.5 -3h44.5q3 0 9.5 0.5t6.5 -0.5 q4 1 8 1h7l-182 -129l19 3q-5 -2 -10.5 -2.5t-10.5 -1.5l-2 -2q-4 0 -10 -0.5t-5 0.5q-1 0 -1.5 -0.5t-1.5 -0.5q-17 -2 -36 -2h-18q-28 2 -55 3q-29 1 -51 6t-40.5 13.5t-34 20.5t-30.5 27q-4 -2 -6 -2q-77 -32 -155 -48.5t-162 -16.5zM592 1341l3 1h-1zM673 5q4 0 6 1 q2 0 -0.5 -0.5t-5.5 -0.5zM698 753q1 2 2 2.5t0 -0.5zM716 782q11 -7 24 -20q10 -9 19.5 -18.5t19 -18t20.5 -15.5t25 -11q32 -3 65 -5q13 -1 26 -1q20 0 39 2q7 1 23 3t25 4l15 4q29 22 53 46.5t45 53.5q57 82 71 164q4 26 4 52q0 59 -21 123q-13 42 -31.5 77.5t-45 63 t-61 45.5t-80.5 25q-32 5 -63 6t-63 1l-8 -7q-5 -73 -20 -144t-31.5 -142t-30.5 -142.5t-16 -144.5q-1 -1 -3 -1z" />
<glyph unicode="Q" horiz-adv-x="1558" d="M264 544q2 67 15.5 131t31.5 127q17 59 38.5 117.5t48.5 115t60.5 109t75.5 98.5q48 53 108 98.5t127 80t139 57.5t143 31q38 4 79 6q16 1 32 1q24 0 48 -2q40 -3 79 -11.5t74 -25.5q55 -26 92.5 -67.5t63 -92t41.5 -106t27 -110.5q10 -47 17 -95q4 -34 4 -67 q0 -15 -1 -30q-2 -29 -7 -59t-11 -59l-6 -28l-3 -16l-12 -51q-25 -103 -63 -196q-57 -139 -153 -251t-230 -181q-11 -21 -21.5 -38t-27.5 -34l-4 -7q5 -38 31 -68t52 -55q31 -30 67.5 -56.5t76 -45t82.5 -26.5q27 -6 55 -6q16 0 33 2l-148 -129q-40 -5 -77 -5q-25 0 -49 2 q-60 6 -114.5 24.5t-105 51t-98.5 79.5q-13 13 -28 28.5t-28.5 32.5t-22.5 36t-9 39q-32 10 -62.5 24.5t-60.5 28.5q-14 8 -29.5 15t-30.5 15l-1 1l-10 3q-14 5 -29 9t-30 10q-49 19 -89.5 50t-70.5 75q-21 31 -36 66t-26 72t-18 75t-12 74q-4 34 -11 67q-6 28 -6 58v8z M547 628q2 -50 11.5 -102t19.5 -101q12 -60 34 -117.5t63 -105.5q22 -26 43.5 -41.5t44 -25.5t47.5 -18t54 -19l28 -12t28 -14q14 9 28.5 16.5t29.5 13.5l25 14l12 9q14 11 27 22.5t25 24.5q35 36 64.5 77t53.5 86q26 48 49.5 108t42 123.5t31 127t16.5 120.5q1 17 1 35 q0 31 -4 61q-7 49 -17 96q-12 63 -31 124.5t-51 113t-81 87.5t-121 48q-31 4 -63 4l-31 -1q-10 -5 -22.5 -6t-21.5 -8q-75 -54 -128 -128q-65 -93 -107 -196.5t-70 -212.5q-12 -50 -22 -101q-8 -42 -8 -85v-17zM612 -26q4 -2 7.5 -3.5t1.5 -0.5zM830 -33h1v1zM899 1380h2h-2 z" />
<glyph unicode="R" horiz-adv-x="1367" d="M20 -2l186 132q4 0 22.5 1t36.5 3l5 2q2 2 6 4l11 8q10 28 10 57q-1 5 -1 9v15q0 26 4 52q4 27 10.5 54t12.5 53q13 56 26 111t25 111q11 48 18.5 93.5t29.5 89.5q0 2 -0.5 3t-0.5 3q-2 12 -2 23q1 22 7 42q10 32 16 64q14 57 26.5 113.5t22.5 113.5q5 32 8 63t5 63 q-14 7 -24 18t-19.5 23t-20.5 23.5t-26 18.5q-14 6 -30.5 7.5t-34 1.5t-35 -0.5t-32.5 2.5l242 126l-9 3q-2 0 -0.5 0t5.5 -0.5l8 -1t7 -0.5h25q29 0 58 -2.5t56 -13.5q15 -6 27 -17.5t23 -25.5q23 11 47.5 19t48.5 14q48 10 110 16q48 4 98 5q14 -1 27 -1 q64 -2 123.5 -10.5t104.5 -27.5q30 -12 57.5 -32.5t47.5 -45.5q44 -54 58 -118q8 -36 7 -73q-1 -29 -5 -57q-10 -64 -42 -124t-78 -105q-32 -30 -67.5 -52t-74.5 -41q-28 -14 -55 -24q-3 -5 -4 -11q0 -12 5 -22t12 -19t15 -17t15 -17q17 -20 29 -43.5t20 -48.5 q13 -37 18.5 -75t9.5 -77t8 -77.5t13 -76.5q9 -35 25 -72t47 -60q28 -20 55.5 -26.5t59.5 -11.5q8 0 16 -1t16 -3h-10t-7 1l-185 -131h-10.5t-13 0.5t-11.5 1.5h-4q-11 0 -16 2q-21 1 -44 4.5t-43 11.5q-52 18 -84 48.5t-50.5 68.5t-26.5 82t-13 90.5t-10 92.5t-16 89 q-12 49 -43 91q-16 23 -33.5 42t-25.5 47q-42 1 -82.5 2t-82.5 1q-8 0 -15 -0.5t-15 -0.5q-18 -76 -35.5 -151t-32.5 -151q-2 -16 -2 -35v-38t-3 -37.5t-10 -34.5q17 -17 32.5 -34t32.5 -34q17 -12 33.5 -17.5t34 -7.5t36 -1.5t39.5 0.5l-186 -132h-57q-4 0 -9 -1l-51 3 q-30 3 -57 11.5t-51 26.5q-17 13 -27 25q-78 -32 -156 -48.5t-161 -16.5zM569 1346l9 6l-7 -4zM705 940q-3 -13 -3 -24q0 -22 12 -40q16 -26 43 -52q15 -13 32 -21l6 -2h13q36 3 72 3q12 0 25 1q24 0 48 -1q14 8 26 14l20 10l44 20l24 10q47 39 73.5 97.5t29.5 120.5v16 q0 54 -18 106q-22 59 -70 101q-23 20 -49.5 32t-55 18.5t-58.5 9t-59 3.5q-11 1 -22 1q-6 -1 -12 -1h-33l-7 -4q-4 -59 -13.5 -116.5t-23.5 -114.5q-5 -22 -10 -43t-10 -43q-2 -8 -2.5 -13t-2.5 -12q0 -2 -0.5 -3.5t-0.5 -3.5l-4 -13l-8 -28t-6 -28zM1262 0h6.5t9.5 -1 q-2 1 -5 1h-11z" />
<glyph unicode="S" horiz-adv-x="1128" d="M78 445l283 95q0 -10 -0.5 -30t0 -46t1 -54.5t2.5 -55t5 -49t9 -34.5q17 -38 51.5 -67.5t69.5 -49.5q42 -23 87 -38.5t93 -19.5q20 -2 36 -2t34 2l12 2q33 26 50 63.5t28 76.5q13 44 21 84q6 32 5 62v16q-2 38 -15.5 76t-42.5 76q-33 43 -74 75.5t-86 61t-90.5 55.5 t-87.5 60q-25 19 -49.5 43.5t-43.5 52.5t-31 60q-11 29 -11 61v5q2 45 12.5 92.5t25.5 89.5q9 24 21.5 48t27.5 44q34 46 83.5 79t100.5 56q97 45 203 66q59 12 117 12l95 -8q35 -5 69.5 -14.5t66 -24.5t59 -36.5t48.5 -52.5q9 -13 9 -29v-39q1 -22 1 -43.5t-1 -43.5 q-2 -43 -2 -87q-71 -23 -141 -47t-142 -48q0 44 2 87q1 22 1 43.5t-1 43.5v26t-2 25q-16 33 -49.5 56t-73 37.5t-80.5 19.5q-23 3 -43 3q-16 0 -30 -2q-26 -24 -41 -53.5t-26 -64.5q-16 -55 -22 -101q-2 -17 -3 -34q0 -27 6 -52q9 -40 35 -76.5t74 -73.5q37 -29 80.5 -55.5 t88 -54.5t86 -58.5t75 -67t56 -80.5t28.5 -98q2 -16 1 -31q0 -20 -2 -40q-5 -36 -14 -70q-9 -38 -20.5 -76t-30.5 -72q-18 -34 -45 -62.5t-59 -51.5t-67 -41.5t-69 -32.5q-77 -32 -162 -51.5t-170.5 -19.5t-167.5 23.5t-153 77.5q-23 19 -39.5 36.5t-36.5 40.5 q-11 14 -16.5 33.5t-9.5 36.5q-1 6 -1 13t-1 12q0 1 -0.5 2t-0.5 3v3v5l-3 39q-3 79 -3 158zM789 105q2 1 1 1t-1 -1z" />
<glyph unicode="T" horiz-adv-x="1261" d="M156 1077q18 52 34.5 103t36.5 102q8 21 19 39.5t21 38.5l162 98q55 13 99 20.5t87.5 11.5t91.5 5.5t110 2.5q15 1 31 1q8 -1 16 -1q24 0 48 -4q13 -2 32 -11.5t39 -23.5q53 23 109 35q32 7 64 8q23 0 46 -4h160q42 0 84 -6q13 -2 30 -4.5t33.5 -8.5t30.5 -15.5t21 -23.5 q7 -13 7 -28v-6q-2 -19 -2 -36q0 -50 -6.5 -99t-6.5 -99q-71 -23 -141 -47t-142 -48q0 32 3.5 64t7 64.5t4.5 64.5v11q0 27 -4 53q-9 12 -23 18.5t-30 9t-32 3t-29 1.5q-44 0 -72.5 -1.5t-55.5 -0.5q-4 -43 -10.5 -85.5t-17.5 -84.5l-18 -77l-2.5 -12.5t-1.5 -5.5 q-1 -2 -1 -4q-1 -6 -2.5 -12t-3.5 -11q0 -2 -1 -6t-1 -2q1 18 1 18.5t-1 -7t-2.5 -18t-2.5 -15.5l-108 -495q-11 -52 -24 -103t-20 -104l-9 -54v-1q0 1 1 6q-1 -4 -1 -8t-1 -8t-2 -9v-3v-22q1 -19 13.5 -31.5t25.5 -23.5q22 -19 44 -29.5t45 -15.5t48.5 -6t53.5 -1 l-186 -132h-78t-78 8q-22 5 -43.5 13.5t-40.5 19.5q-6 4 -13 8.5t-15 10.5q-90 -42 -193 -57q-27 -4 -54.5 -4h-54.5h-23t-24 1q-1 0 -3.5 0.5t-0.5 0.5h16l185 131q6 0 12 0.5t12 -1.5h50l21 15q-2 17 1.5 34.5t5.5 36.5q8 63 23 122.5t26 120.5q23 128 52.5 251.5 t56.5 249.5q18 81 37 161t26 164q-18 20 -36 40.5t-41 34.5q-13 8 -29 5.5t-31 -2.5l-113 -4q-25 -49 -39.5 -102t-32.5 -104zM813 280q0 3 1 5q0 -1 -0.5 -2t-0.5 -3zM815 291l2 10z" />
<glyph unicode="U" horiz-adv-x="1461" d="M200 1362l186 132q5 0 13 1q6 0 15.5 0.5t22.5 0.5h13q41 0 76 -10q40 -12 76 -47q1 -1 1.5 -2t2.5 -2q45 20 91 36q32 11 65.5 16t67.5 7q12 1 20 2t14.5 1.5t14 0.5h18.5q5 1 16 1q4 0 6 1q5 0 6 -1h14l-186 -132l-17 -1h-20q-8 0 -17.5 -0.5t-14.5 -0.5l-4 -1l-17 -1 q0 -8 -1 -12l-18 -15l-258 -72l-6 5q0 2 0.5 4.5t0.5 4.5l260 88q-57 -15 -114 -29t-115 -22q-5 -1 -2.5 2t9 7t14 8.5t11.5 7.5q15 11 30 21.5t31 20.5q25 15 50 28.5t51 24.5q10 -10 19 -20t19 -21l14 -15q2 -2 5.5 -4t1.5 -3q-1 0 -1 -1q0 -2 -0.5 -3t-0.5 -3 q2 1 2.5 0.5t2.5 0.5q28 11 37 14.5t7.5 3t-10 -5t-16.5 -9.5l-24 -18q-6 -78 -19.5 -154t-30.5 -152t-36 -151t-36 -151q-17 -75 -31 -152q-12 -67 -12 -136v-19q1 -32 5.5 -64.5t13.5 -63.5q19 -64 52 -106t77 -66q45 -23 99 -30q25 -3 52 -4q31 0 64 5q47 31 80 76t56 97 t38.5 107.5t27.5 106.5q28 112 51.5 223t49.5 223q19 85 36 167.5t21 167.5q-13 7 -23 18l-20 22t-21.5 22t-26.5 20q-15 5 -28.5 5.5t-29.5 0.5q-4 0 -10.5 -0.5t-5.5 -0.5h-10l186 132l26 1l20 -1q20 0 47 -3.5t55.5 -12t45.5 -24.5l17 -18q76 34 157 50q25 5 50 7.5 t50 3.5q8 1 16 1h16q5 1 16 1q4 0 6 1q5 0 7 -1h13l-186 -132l-16 -1h-25t-25 -1l-4 -2q-4 -3 -7.5 -6t-7.5 -7q-5 -76 -20 -150t-32 -149q-20 -95 -40 -188.5t-43 -187.5q-17 -69 -34.5 -139t-43 -137t-62.5 -127.5t-92 -110.5q-30 -26 -64 -48t-69 -41q-61 -33 -124 -54 q-40 -14 -88 -26q-49 -10 -101 -16q-48 -5 -97 -6h-8q-54 0 -103.5 10.5t-93.5 31t-77 54.5q-19 20 -32.5 43t-24.5 49q-23 56 -31 112q-6 45 -6 90v23q2 57 11 114.5t21 113.5q17 82 38 163.5t40 163.5t33.5 164.5t20.5 166.5q-16 17 -30.5 34.5t-32.5 32.5q-7 6 -11 9.5 t-12 7.5l-12 6q-10 2 -20.5 3.5t-13.5 1.5q-5 0 -10 -0.5t-10 -0.5q-3 0 -7.5 -0.5t-6.5 -0.5h-3q-3 -1 -5.5 -0.5t-5.5 0.5zM630 1360q2 0 7 1t7 1h1q-10 -2 -15 -2zM641 1366q13 3 23 7v-2zM645 1362l18 3v-2zM665 1365q2 0 3 1q3 0 9 2h2l-5 -1q-6 -1 -9 -2z" />
<glyph unicode="V" horiz-adv-x="1290" d="M182 1367l244 126l1 1q3 0 7.5 -1t8.5 -2t6 -1t-1 0q-6 0 -11.5 1t-10.5 2h2q5 0 9 -0.5t9 -0.5q16 0 32 -2t31 -5q23 -4 46 -14.5t44 -24.5q37 16 74 26.5t75.5 16t79 7.5t84.5 2l-186 -132h-37l-6 -6q3 -20 2.5 -40.5t0.5 -41.5q1 -23 3.5 -46.5t4.5 -46.5 q7 -76 16 -169.5t18 -190.5t17.5 -190.5t15.5 -169.5q5 -51 9.5 -102.5t10.5 -102.5l9 20q19 39 41 79t41 76q27 51 52.5 118.5t50.5 139t50.5 139t52.5 117.5q26 49 51 98t54 96q15 27 29.5 54t22.5 56q8 23 11 44t11 39q-8 6 -15.5 11t-16.5 10q-15 3 -30 5t-30 3h-31 t-31 2l219 131q23 -2 45.5 -2.5t45 -2.5t43.5 -7t41 -15q49 14 99 20.5t101 8.5l-173 -123q-1 -8 -2 -15t-3 -15q-4 -20 -11.5 -39t-17.5 -36q-39 -74 -78 -165t-77.5 -185.5t-76.5 -186t-77 -165.5q-38 -75 -76.5 -148t-73.5 -149q-15 -33 -33.5 -58.5t-40.5 -46 t-48.5 -37.5t-58.5 -33q-13 -7 -27 -13l-18 -8l-20 -11v-3l-14 -4q-10 -5 -19.5 -8.5t-17.5 -6.5q-9 -3 -27.5 -10t-41 -14t-47 -12t-46.5 -5l-67 -19q2 11 4 21t4 21l4 1q-2 5 -3 10t-3 9q-3 11 -4 22l-2 22q0 5 -1 12.5t1 3.5q0 -1 1 -1l-2 8q-2 19 -4.5 37t-4.5 36 q-5 52 -9.5 103t-9.5 102q-7 73 -15.5 164t-17 185.5t-17 185t-15.5 164.5q-2 23 -4.5 46.5t-3.5 46.5v41.5t-3 40.5q-18 30 -51 51.5t-64 36.5q-5 1 -14 2l-18 2t-15 2l-7 1q-5 0 -8 1q-11 0 -20.5 2t-20.5 4zM416 1495q2 0 4 -1q-1 0 -1.5 0.5t-1.5 0.5h-1zM420 1494 q4 0 6 -1q-2 1 -6 1z" />
<glyph unicode="W" horiz-adv-x="1884" d="M180 1368h23l185 131q31 0 55.5 -2t46 -8.5t41.5 -18t42 -29.5q75 34 152 45t163 11l-186 -132h-26q-5 -4 -9.5 -8t-9.5 -8l44 -1041q14 34 28.5 67.5t29.5 67.5q11 26 22 62.5t21 78.5t20.5 86.5t20.5 86.5t20 79t20 63q17 45 34 91t45 84q14 20 34 36t43 28.5 t46.5 23.5t45.5 20q1 0 1.5 0.5t1.5 0.5q6 23 7.5 46.5t1.5 46.5l283 95q0 -42 -4 -71t-16 -52l5 2q11 -29 10.5 -58t0.5 -61q2 -55 5.5 -110t6.5 -111q3 -63 8.5 -139t11.5 -157t12 -164t10 -161q18 44 35.5 87.5t37.5 87.5q15 33 28.5 77t27 93t27 101t27 101t27.5 92.5 t29 76.5q19 40 38 80.5t35 81t27.5 83t15.5 87.5l-25 18q-16 4 -31.5 5t-31.5 1t-31.5 1t-31.5 4l245 127l-13 2h1q8 -1 17 -0.5t18 -0.5h32.5t35.5 -2t34.5 -7.5t28.5 -15.5q2 0 2 -2q61 20 124.5 26t126.5 6l-186 -132h-41q-16 -75 -47 -144t-63 -139q-25 -54 -48 -109.5 t-48 -109.5q-17 -37 -32 -96t-29.5 -122.5t-29 -123t-29.5 -96.5q-11 -27 -24 -62t-28.5 -71t-32.5 -69t-35 -55q-29 -35 -68 -55l-28 -15q-19 -11 -37.5 -20t-38.5 -17q-5 -7 -7 -14t-4 -15l-280 -79q5 17 12 31t17 26l-26 -8q0 56 -2.5 122.5t-7 138t-10 145.5t-11 145.5 t-10 137.5t-7.5 122q-2 29 -3.5 58t-3.5 58q-22 -57 -43 -133t-42 -154.5t-42.5 -152t-45.5 -126.5q-9 -21 -18 -46.5l-18 -51t-20 -49t-25 -41.5q-34 -44 -81 -70t-98 -46q0 -1 -0.5 -2t-0.5 -2q-71 -23 -141 -47t-142 -48q3 25 19 48l-19 -6l-53 1263q-13 6 -29 21 q-14 13 -27.5 26t-29.5 24q-8 6 -15 11t-16 9l-11 3q-9 1 -14.5 2t-10.5 1.5t-10.5 1t-14.5 1.5q-4 1 -12 1h-5h1zM248 1362l1 -1zM712 72v2v-2zM1902 1497h-1h1l3 -1q-1 1 -3 1zM1905 1496l7 -1q-2 0 -3.5 0.5t-3.5 0.5z" />
<glyph unicode="X" horiz-adv-x="1290" d="M-81 -1l186 132q11 0 23 0.5t23 1.5q10 0 14 1q5 16 10.5 31.5t15.5 30.5q22 35 47 67.5t52 64l54 63t53 63.5q37 47 72 96t83 87q7 5 17.5 11.5t21.5 12t20.5 10t12.5 6.5q-2 -1 -3.5 -1.5t-0.5 0.5q9 8 17.5 16.5t15.5 18.5q0 14 -1.5 33t0.5 34q-16 17 -27.5 37.5 t-20.5 42.5t-16.5 44.5t-15.5 44.5q-22 60 -46.5 119t-43.5 120q-6 22 -6.5 45t-6.5 45q-9 18 -29.5 26.5t-37.5 16.5q-28 14 -51.5 24t-47.5 16.5t-49.5 11t-57.5 7.5l219 131q34 -3 68.5 -7t67.5 -14q13 -4 39.5 -13.5t55.5 -22.5q60 27 129 42q27 6 44.5 7t27.5 0 q11 -2 17 -5l-63 -113q-13 -3 -25 -5t-25 -3q9 -22 8 -46.5t6 -47.5q14 -44 31 -86t34 -85q9 -25 18 -52.5t19 -55.5l27 32q51 59 102 116t99 119q7 19 12 39t15 38q-18 15 -40 24q-21 0 -41 1t-41 6l245 127q2 -1 5 -1q10 -1 19.5 -1t20.5 -2q22 -3 39.5 -7.5t34.5 -12.5 q32 7 63 11.5t59 6.5q45 6 89.5 10.5t89.5 4.5l-186 -132q-24 0 -48 -2t-47 -5q-3 -11 -6.5 -21t-9.5 -19q-10 -17 -24 -33t-26 -30q-35 -44 -72.5 -86t-75.5 -85q-29 -32 -55 -67t-58 -64q-19 -17 -39 -31t-41 -28q-8 -6 -15.5 -12t-15.5 -14q-3 -5 -6 -9t-5 -9 q0 -18 1.5 -35.5t-2.5 -35.5h1q13 -13 24.5 -27.5t19.5 -31.5q11 -22 19 -44.5t17 -45.5q14 -35 28.5 -69.5t28.5 -69.5q9 -23 18.5 -47t17.5 -48q13 -36 20.5 -66.5t11.5 -68.5q1 -11 2.5 -22t6.5 -22q1 -3 3 -6.5t4 -7.5q3 -2 6.5 -4.5t5.5 -3.5l63 -32q49 -24 97.5 -35 t102.5 -13q-55 -32 -109.5 -65t-109.5 -66q-65 2 -123.5 16.5t-116.5 40.5q-35 -20 -72.5 -31.5t-77 -17.5t-79 -7.5t-78.5 -1.5l186 132h15q-5 13 -7 28t-2.5 30t-2 29.5t-5.5 27.5q-24 76 -55 148t-58 147l-4.5 9t-2.5 10q-2 6 -4.5 12.5t-5.5 13.5l-18 -25 q-32 -45 -68.5 -86.5t-71.5 -84.5q-25 -32 -52 -65.5t-49 -68.5q-14 -22 -18.5 -47.5t-15.5 -48.5q15 -13 32 -19t35.5 -8.5t37.5 -2t37 0.5l-186 -132h-54t-54 2.5t-52.5 9.5t-48.5 21q-4 -1 -7 -1.5t-6 -0.5q-57 -19 -119 -25t-122 -6zM166 32q3 0 6 1q-2 -1 -6 -1z M187 35q14 2 19 3t4 1t-6 -1t-12 -2q-2 0 -2.5 -0.5t-2.5 -0.5zM686 608q1 0 5 2q-3 -1 -5 -2h-1h1zM1111 161q0 1 1 1.5t2 2.5l-2 -2q0 -1 -1 -2zM1115 166q2 1 3 2.5t3 3.5zM1160 215q2 -2 3 -2v-1h-1q-1 1 -2 3z" />
<glyph unicode="Y" horiz-adv-x="1274" d="M157 1381l219 131q54 -2 108.5 -9.5t104.5 -30.5q18 -8 37 -21q74 35 150.5 45.5t162.5 10.5l-186 -132h-24v-1q7 -15 10 -34.5t4.5 -40t3.5 -40.5t6 -36q23 -97 50.5 -193t47.5 -195q5 -23 6 -44v1l15 26l1 1q1 1 2 3l-2 -2l5 7q2 3 5.5 10t2.5 5l22 35q20 30 32 49 t22.5 35t22.5 33t30 44q17 24 33 48t33 47q5 7 14 19.5t17.5 24.5t14.5 20.5t6 7.5q10 17 20.5 31.5t16.5 32.5t10 36.5t12 35.5q-8 7 -16 12.5t-19 10.5q-18 6 -35.5 8t-36.5 3h-18l186 132q45 0 90.5 -4t84.5 -24q63 17 129 22.5t128 5.5l-186 -132h-24.5t-18.5 -1l-3 -10 q-3 -23 -14.5 -44t-25.5 -41q-7 -10 -11.5 -17t-12.5 -15l-39 -54l-66 -95q-29 -42 -57.5 -84.5t-56.5 -86.5q-18 -29 -35 -58.5t-36 -58.5q-27 -42 -61 -74.5t-78 -55.5q-1 0 -1 -0.5t-1 -0.5q-8 -5 -17.5 -10t-20.5 -10l-17 -10l-25 -17q-2 -42 -7 -82.5t-13 -81.5 q-2 -13 -4.5 -25t-5.5 -24q-1 -10 -5 -23q-2 -8 -3.5 -15.5t-3.5 -15.5q-6 -23 -11 -47.5t-6 -48.5v-6q0 -53 33 -83q36 -33 90 -47q27 -2 54 -2.5t54 -0.5l-186 -132h-74q-3 -1 -7 -1l-67 5q-17 2 -34.5 7t-34.5 12q-14 6 -27.5 15t-26.5 19q-41 -19 -82 -30t-83.5 -17 t-86 -8t-88.5 -2l186 132q21 0 42.5 0.5t43.5 1.5l13 10q-3 16 -3 32q0 19 5 40q7 37 18 78q7 24 11 49t9 48q8 43 12.5 85.5t6.5 85.5q-16 38 -18 77t-7 79q-2 17 -6 35t-8 34q-21 91 -46.5 180.5t-45.5 180.5q-6 30 -6.5 60t-7.5 59q-10 24 -31.5 35.5t-43.5 22.5 q-13 8 -26 15.5t-27 13.5q-37 18 -81.5 22.5t-85.5 6.5zM481 102l-3 -2l-1 -1q1 1 4 3zM1130 1201q1 0 1 1l1 2zM1383 1367l-1 -1l1 1q2 1 5 2z" />
<glyph unicode="Z" horiz-adv-x="1266" d="M147 96q-1 5 -1 9q0 15 8 31q10 20 18 37q22 41 49.5 75t58.5 68q11 13 23.5 25t24.5 25q13 14 24.5 28.5t24.5 29.5l67 80l135 159l115 136l171 204q35 43 71.5 85t71.5 85q11 14 22 26.5t22 26.5q3 4 6.5 9.5t6.5 10.5l3 7q2 5 4.5 12.5t2.5 12.5q1 10 0 16l-5 6 q-8 8 -15.5 16t-16.5 15q-20 17 -41.5 21.5t-48.5 6.5q-27 -1 -54 -3.5t-54 -3.5q-28 -1 -56 -1t-56 1t-56 1t-56 -1q-6 0 -11.5 -0.5t-11.5 -0.5q-3 -15 -11 -30.5t-13 -29.5q-13 -36 -23.5 -72t-21.5 -72l-280 -79q7 22 19 62t26.5 83t30.5 81.5t33 56.5q17 19 38.5 35 t44.5 27q40 19 79.5 32.5t82.5 21.5q17 4 33.5 5t33.5 2h5.5t7.5 1h7h-5q3 0 5 0.5t3 0.5h5q39 4 77.5 6.5t77.5 2.5h36q26 -1 54 -1q20 -1 39 0q26 0 52 1q33 3 71 6q23 2 45 2q15 0 31 -1q38 -2 72 -12t62 -34q11 -9 24 -20.5t20 -25.5q9 -18 4.5 -38.5t-15 -40.5 t-25 -37.5t-24.5 -29.5q-37 -48 -76.5 -92.5t-77.5 -90.5q-128 -155 -258 -307t-258 -307q-19 -23 -40.5 -45t-42.5 -44t-40.5 -45.5t-35.5 -48.5q-15 -23 -24 -39.5t-10 -31t7 -29.5t28 -34q5 -4 10.5 -8t12.5 -6h29q57 5 115 5q21 -1 41 -1q78 -2 158 -2h32.5h44h47.5 t43 1q9 1 17.5 1t17.5 2l3 4q1 1 2 3l2 4t3 5l3 6l3 7q8 17 11 24t5.5 11.5t5 11t8.5 23.5q15 37 30 73t32 71l280 79q-22 -44 -39 -89t-37 -90q-8 -17 -16.5 -33.5t-16.5 -33.5q-11 -25 -25 -49.5t-35 -42.5q-34 -27 -73 -46t-80 -30q-38 -11 -75 -18.5t-77 -11.5l-8 -1 h-10q-84 -14 -167 -14q-3 1 -6 1h-174h-205q-20 0 -40.5 -1.5t-40.5 -1.5t-40 3t-39 12q-11 6 -21 15.5t-19 17.5q-11 12 -19.5 25.5t-11.5 29.5zM618 1403l4 3q1 1 -0.5 0t-3.5 -3zM685 1475q1 1 2 1h1q-1 0 -1.5 -0.5t-1.5 -0.5zM1037 136q0 1 1 2zM1038 138l6 11v-1z M1073 1299v2v-2zM1134 145q6 1 6 2h-1z" />
<glyph unicode="[" horiz-adv-x="717" d="M191.5 -176.5q-0.5 16.5 2.5 34t5 34.5q2 16 3.5 31t3.5 30q11 56 23 110.5t26 108.5q20 77 35.5 153t32.5 153l140 639q8 33 16.5 66t13.5 65q3 15 5 31.5t5.5 32t10 30.5t17.5 27q26 29 59 46t67 34q39 20 82.5 31.5t88.5 17t90.5 7t87.5 1.5l-186 -132h-40 q-2 -13 -3 -26t-5 -26q-19 -67 -32 -136t-28 -136q-40 -184 -80.5 -365.5t-81.5 -364.5q-17 -81 -38 -161t-29 -163q-2 -14 -5.5 -30t-4.5 -31.5t2.5 -30.5t16.5 -26q14 -12 33 -17.5t39.5 -7t41 -0.5t37.5 1l-186 -132q-26 0 -58.5 -0.5t-65 2.5t-62.5 12t-52 27 q-15 13 -21 28.5t-6.5 32z" />
<glyph unicode="\" horiz-adv-x="942" d="M289 1340l283 95q60 -251 133 -496.5t148 -493.5q27 -89 57 -178.5t44 -182.5q-71 -23 -141 -47t-142 -48q-14 94 -44 182.5t-57 178.5q-74 248 -147.5 493.5t-133.5 496.5z" />
<glyph unicode="]" horiz-adv-x="717" d="M-7 -280l186 132h30q3 17 5.5 32.5t6.5 31.5q12 54 23.5 106.5t22.5 105.5q45 208 90.5 413t90.5 413q17 75 35.5 147.5t24.5 148.5q1 9 3.5 20.5t4.5 22.5t1 21.5t-8 18.5q-13 16 -31.5 24t-39 10.5t-42 2t-39.5 -0.5l186 132q16 0 31.5 0.5t31.5 -0.5q24 0 59 -4 t66.5 -15.5t52 -33t14.5 -56.5q-2 -20 -6 -37l-1 -2v-8l-4 -42q-4 -31 -9.5 -61t-13.5 -60q-21 -88 -40.5 -175t-39.5 -176q-42 -197 -85.5 -391t-85.5 -390q-5 -24 -10.5 -48t-10.5 -48v-1q-3 -20 -7 -42.5t-16 -39.5q-20 -29 -51 -48.5t-63 -34.5q-45 -21 -88.5 -34.5 t-88 -21t-90.5 -10t-95 -2.5z" />
<glyph unicode="^" horiz-adv-x="1229" d="M223 474q45 132 99.5 258.5t111.5 252.5q10 22 19.5 43t17.5 43q12 32 24 65.5t35 59.5q15 17 34.5 30t38.5 26l-12 -7l2 2q8 6 12 8q22 12 43 24.5t44 20.5q30 10 60.5 19t60 10.5t57.5 -7t54 -32.5q17 -16 32.5 -45.5t29.5 -64t26 -68t21 -57.5q48 -123 94 -245 t103 -241l-278 -109q-42 91 -79 183t-73 186q-19 51 -39 100t-38 100l-12 29q-56 -125 -109.5 -250t-98.5 -255zM588.5 1243.5q-1.5 -0.5 0.5 0.5l2 1q-1 -1 -2.5 -1.5z" />
<glyph unicode="_" horiz-adv-x="1024" d="M-41 -271l186 132h920l-186 -132h-920z" />
<glyph unicode="`" horiz-adv-x="819" d="M266 1369l265 120l379 -303l-265 -120z" />
<glyph unicode="a" horiz-adv-x="1176" d="M101 184v14q0 33 4 66q5 40 14.5 79t18.5 72q32 114 86 213.5t129 179.5t171 137.5t212 87.5q40 10 84 16q35 5 69 5h17q44 -2 86 -13t79 -33q1 0 7.5 -5t15 -11.5t16.5 -13t12 -10.5l21.5 -21.5t13.5 -16.5l27 6q-5 -7 -9.5 -13.5t-9.5 -13.5l-1 -1q0 -5 -0.5 -11.5 t-1.5 -14.5q0 -4 -2 -12q-2 -18 -5 -36t-8 -35q-2 -10 -5.5 -19.5t-6.5 -19.5q0 -2 -1 -5.5l-2 -7t-1 -5t0 1.5q-1 -2 -1 -4q-1 -6 -3 -12.5t-4 -11.5q-12 -42 -27 -84q-13 -38 -26.5 -77t-20.5 -79q-5 -28 -6 -55.5t-6 -55.5q0 -7 0 -6.5t-1 -6.5q0 -5 -2 -15q0 -11 -1 -16 q0 -7 -1 -13t-2 -13l-3 -13q-1 -6 -1.5 -11t-1.5 -6l-1 -7l-4 -23q-2 -23 -1.5 -42.5t12.5 -36.5q17 23 32.5 47.5t31.5 50.5l269 60q-35 -60 -75 -112t-97 -92q-41 -29 -86.5 -50t-93.5 -35q-30 -9 -58.5 -15.5t-59.5 -9.5q-24 -2 -48.5 0.5t-46 11.5t-38 25.5t-23.5 41.5 q-5 16 -4 32.5t4 33t6.5 33t5.5 32.5l3 36q-27 -35 -57.5 -67.5t-68.5 -58.5q-52 -37 -107 -60q-23 -11 -45 -18q-6 -2 -15.5 -6t-17.5 -7t-12.5 -4.5t0.5 1.5q4 2 7.5 4t7.5 4q-16 -5 -31 -10t-31 -10q-20 -6 -54.5 -12.5t-71.5 -6.5t-69 9t-47 33q-18 32 -24 68q-2 4 -2 7 q-12 32 -13 72zM386 272q2 -52 20 -100q5 -12 11 -23.5t18 -16.5l3 -1q7 6 13 13t11 13q26 31 48 65.5t43 69.5q14 26 28.5 52.5t31.5 50.5q15 20 36.5 37.5t47 32t52.5 26.5t53 23l1 2q11 31 21.5 60.5t18.5 60.5q8 29 17 56.5t14 56.5q2 7 2 16.5t2 16.5q2 10 3.5 19.5 t-0.5 18.5q-36 48 -87 73.5t-111 25.5q-60 -47 -109.5 -109.5t-86.5 -134.5t-61.5 -149t-34.5 -152q-5 -38 -5 -75q-1 -14 0 -28zM1133 758q0 4 1 6q-1 -1 -1 -2v-4z" />
<glyph unicode="b" horiz-adv-x="1200" d="M60 46q7 11 11 23.5t9 23.5q13 28 29.5 47.5t39.5 39.5q2 1 9 6t16.5 10.5t19 11.5t16.5 11v1l-10 -5q-5 -2 0 1.5t11 8.5q14 82 31 163t35 162l7 2q-2 4 -2 8q-2 9 -1 31.5t3.5 47t5.5 45.5l4 28q2 11 3 17.5t2 11.5t2.5 11t3.5 17l17 71l40 147q11 41 21 80.5t18 80.5 q10 48 15.5 95.5t7.5 96.5q-8 9 -17 20t-19 21.5t-20 19t-19 11.5q-26 8 -52.5 5t-52.5 -3l184 130h-6q-3 0 -0.5 0t7.5 1l1 1h19l16 2t16 1q12 1 24 1q36 0 71 -7q25 -4 44 -16.5t37 -29.5l151 12l-102 -86q-3 -72 -16 -142t-30 -139t-36 -137.5t-35 -138.5 q-5 -19 -7.5 -37t-4.5 -36q29 39 65 73.5t79 57.5q47 25 92.5 46t96.5 34q14 3 28.5 6.5t28.5 5.5q24 6 50.5 11.5t54 8t53.5 -0.5t49 -15q35 -18 52 -52q18 -34 24 -74q5 -29 5 -58q-1 -11 -1 -23q-2 -41 -7 -74q-14 -85 -34.5 -168.5t-53 -161.5t-80.5 -148.5t-115 -128.5 q-46 -39 -113 -74.5t-141 -59t-148 -31.5q-24 -3 -47 -3q-48 0 -89 12q-34 9 -55 19t-36 23.5t-25.5 32t-23.5 45.5zM491 302h1q22 -11 36 -29.5t24 -40t19 -44t22 -40.5q14 -18 36 -28.5t42 -16.5q15 -4 32 -5q6 0 12 1q4 2 7 5t7 6q19 15 35 32q24 27 43.5 53.5t36.5 58.5 q27 46 46.5 96t34 101.5t24.5 104t18 104.5q6 38 6 79v12q-1 47 -15 89q-7 19 -21.5 39t-37.5 23l-10 -3q-30 -27 -53.5 -64t-46 -75t-45.5 -72.5t-53 -56.5q-29 -20 -57.5 -36.5t-60.5 -30.5q-17 -12 -36 -21q-13 -60 -25 -120t-21 -121zM847 974h1h-1zM918 1003q9 5 13 6 t12 2l-12 -4t-13 -4z" />
<glyph unicode="c" horiz-adv-x="934" d="M160 293v19q0 46 8 92q10 54 24 107q43 149 131 277q38 55 94.5 104t122.5 85.5t136.5 58t137.5 23.5h21q17 -1 35 -1q32 -2 56 -9q22 -8 44.5 -22.5t42.5 -34t35.5 -42t24.5 -44.5l-278 -109q-8 21 -21.5 42t-31 38.5t-38 30.5t-41.5 17q-37 -32 -69.5 -76t-59 -95.5 t-46 -108t-31 -113.5t-13.5 -112v-22q0 -43 6 -81q3 -21 10 -47t17.5 -51.5t25 -48.5t33.5 -36q23 -17 49 -25t54 -4l9 6t12 8.5t11.5 8.5t8.5 7q57 59 92 127l280 79q-39 -75 -93.5 -135t-120.5 -104t-142 -73.5t-159 -44.5q-60 -11 -115.5 -11t-102 17.5t-82 56.5 t-53.5 107q-6 21 -10 37.5t-7 31.5t-4.5 31.5t-2.5 38.5z" />
<glyph unicode="d" horiz-adv-x="1247" d="M144 185v7q0 44 6 88q6 48 19 93.5t28 87.5q34 96 82.5 180.5t112.5 153.5t145 121.5t180 84.5q59 19 119 29q36 6 72 7q24 0 49 -3q11 -2 21.5 -3t21.5 -3q8 37 16.5 73t14.5 73q3 14 5.5 28.5t2.5 27.5q1 17 1.5 32.5t4.5 30.5q-21 22 -41.5 44.5t-49.5 34.5 q-20 -1 -39.5 -2t-39.5 -3l148 129q25 3 52 6t54 3t53 -4t50 -15q5 -3 10.5 -6t10.5 -7l222 35q-17 -15 -35 -29.5t-35 -30.5q-12 -10 -25 -23.5t-27 -22.5l-21 -12l-9 -17q0 -2 -0.5 -6.5t-0.5 -6.5q0 -8 1 -17t-1 -18l-1 -6q-2 -36 -10 -72t-16 -71q-14 -62 -27 -123.5 t-30 -122.5q-5 -17 -12.5 -31t-11.5 -31q-9 -45 -17 -90.5t-17 -90t-20.5 -88t-28.5 -86.5q0 -32 -3 -65l-6 -56l-9 -64l-11 -84q-2 -15 -5 -29.5t-4 -29t1.5 -27.5t11.5 -23q31 41 52 87l280 79q-63 -132 -169 -209t-252 -102q-21 -4 -49 -7t-55 0t-51 13.5t-37 34.5 q-9 16 -11.5 31.5t-2 30.5t3.5 30.5t5 32.5l10 74q-27 -38 -58 -70q-45 -47 -99 -76.5t-113 -54.5q-9 -4 -18 -7.5t-18 -5.5q-12 -4 -23.5 -7t-23.5 -6q-1 -1 -3 -1q-1 0 -2 -1h-1q-28 -8 -60.5 -16t-65.5 -11q-15 -1 -30 -1q-17 -1 -35 1q-32 4 -61 18q-26 14 -40 44 t-22 57q-13 45 -13 92zM429 243q3 -46 23 -88q8 -17 13.5 -25.5t11 -12.5t12.5 -5t18 -4q16 13 31.5 31.5t29.5 38.5t26 40.5t23 38.5q5 8 13 23.5t13 24.5l3 5q0 1 2 5l4.5 9t5 9.5t4.5 7.5q7 17 15.5 34.5t20.5 31.5q14 17 35.5 34t46.5 32.5t51 28t50 21.5q11 38 19 76.5 t15 79.5q5 30 9 61.5t14 60.5q-14 15 -27 30.5t-29 29.5q-8 9 -22 16q-3 2 -11 5.5t-4 2.5q6 -2 11.5 -4t10.5 -4q1 -1 -0.5 -0.5t-3.5 1.5l-7 2l-5 1q-8 2 -15.5 3t-15.5 3q-25 5 -50 12t-51 4q-54 -34 -94 -88t-72 -108q-48 -85 -81 -180t-42 -193q-2 -26 -3 -52 q1 -19 2 -39zM1274 1355l5 3l35 21q-10 -6 -19 -11t-14.5 -8.5t-6.5 -4.5zM1319 1354l1 1v6z" />
<glyph unicode="e" horiz-adv-x="953" d="M140 300q1 32 3 65q2 15 0 29t-2 28q0 12 6.5 24.5t16.5 23.5q43 223 170 364t345 206q41 12 87 20q30 5 60 4q16 0 31 -1q45 -4 84 -22.5t65 -59.5q32 -52 40 -101q3 -19 4 -38q0 -28 -8 -56q-12 -46 -39 -87.5t-64 -77.5t-80.5 -66.5t-86.5 -53.5q-96 -53 -201 -86 l-72 -21q-11 -3 -20.5 -6t-20.5 -5l-34 -9q2 -50 12 -101t34 -91q23 -40 62 -64q32 -19 78 -20q10 0 20 1q25 13 47 32.5t41 42t36.5 46t33.5 46.5l269 60q-50 -70 -106 -127t-120.5 -100.5t-138.5 -74t-160 -47.5q-34 -7 -72 -11q-24 -2 -48 -2h-30q-38 2 -74.5 13.5 t-65.5 35.5q-23 19 -40 45.5t-29 55.5t-19 59.5t-11 59.5q-3 28 -3 54v13zM447 566q7 -4 16 -13t19 -20t18.5 -22t13.5 -18l30 9q-2 0 0.5 0.5t7.5 2t10.5 3t8.5 2.5q18 6 37 15q2 1 9 5t11 6q5 2 9 5t9 6q20 14 35.5 29t30.5 33q23 29 39 62.5t18 70.5q1 4 1 9q0 9 -2 17 q-4 14 -7 24q-6 24 -15.5 47t-23.5 42t-33 32.5t-46 16.5q-42 -32 -74 -73.5t-55.5 -89.5t-40 -99t-26.5 -102zM468 386q2 0 5 1q-1 0 -2 -0.5t-2 -0.5q-1 -1 -1.5 -0.5t0.5 0.5zM525 488q5 -2 8.5 -2t-0.5 1zM580 510q2 0 8 2q2 1 5 1.5t1 0.5zM660 548l3 2l-2 -1 q-1 0 -1 -1z" />
<glyph unicode="f" horiz-adv-x="713" d="M-216 -396l278 109q11 -14 21.5 -27t24.5 -25l1 -1q2 5 4 10.5t4 10.5q29 75 52.5 149t40.5 152q24 109 49.5 217.5t49 217.5t43.5 218.5t35 220.5q-15 16 -29 32.5t-31 30.5l-8 6q-5 0 -15 4.5t-17 5.5q-20 -1 -39.5 -3.5t-39.5 -2.5l186 132q4 1 12 2q7 1 18 1.5 t29 1.5q1 8 2 15.5t3 15.5q4 20 14 49t23.5 62.5t29.5 68t31.5 65.5t30.5 56t26 38q32 38 79.5 69.5t102.5 53t111 30.5q32 5 62 5q23 0 45 -3q33 -4 62 -17t54.5 -32.5t47 -43.5t40.5 -50l-278 -109q-20 29 -43 53t-53 44q-15 -29 -28 -58.5t-25 -60.5q-2 -9 -6.5 -18 l-8.5 -17q-7 -17 -15.5 -36t-14.5 -38.5t-8.5 -39.5t2.5 -39q1 -6 12.5 -20.5t22.5 -25.5q2 -1 5 -4l5 -5q5 -3 9.5 -7t9.5 -6q4 -2 5 -2h7q5 1 9 1h9q21 6 43.5 7t45 -0.5t45 -3.5t44.5 -2l-186 -132h-159q-23 -169 -58 -333.5t-74 -330.5q-20 -85 -36.5 -168.5 t-40.5 -166.5q-13 -44 -28 -86t-32 -84q-14 -37 -32.5 -71.5t-43 -63.5t-56 -52t-71.5 -36q-20 -7 -33.5 -12.5t-25.5 -9.5t-24.5 -7t-28.5 -6q-10 -2 -20 -3.5t-21 -3.5q-6 -1 -8.5 -1h-7.5h-3q-3 0 -4 -1q-11 -2 -22 -2h-21q-63 1 -109.5 32.5t-81.5 80.5z" />
<glyph unicode="g" horiz-adv-x="1069" d="M53 -269q4 31 17 61.5t32.5 58.5t43.5 51.5t49 40.5q19 13 36.5 22.5t36.5 18.5l4 6q9 17 21.5 30.5t26.5 26.5q-6 5 -12.5 10t-16.5 10q-15 5 -29 11t-26 14t-20.5 19.5t-12.5 28.5q-2 14 6 29.5t14 27.5l8 14l3 5l4 8l26 49q16 28 32 54.5t36 51.5q-11 13 -22 31 q-11 21 -20 42.5t-18 43.5l-7 18l-11 30q-5 16 -9.5 32t-4.5 32q0 52 23.5 103.5t51.5 92.5q38 57 92.5 100t118 73t132 47.5t133.5 22.5q23 2 45 2q55 0 102 -13q65 -17 119 -77q31 16 44 20.5t15.5 2.5t0 -5.5t-0.5 -2.5t12 9.5t38 32.5l228 18q-24 -20 -46.5 -42 t-48.5 -39q-39 -23 -80.5 -39.5t-83.5 -33.5q-5 -2 -10.5 -2.5t-10.5 -2.5q1 -48 2 -94v-6q0 -43 -13 -87q-24 -88 -84.5 -154t-140 -110.5t-170 -67.5t-175.5 -24l-38 -72q-2 -4 -6.5 -12t-2.5 -13q2 -7 6 -13t9 -12q17 -14 40 -19.5t41 -18.5q5 -3 12 -8.5t10 -11.5v-1 q16 -7 30 -9q11 -1 22 -1.5t22 -2.5q46 -2 94 -11.5t93 -27.5t85 -45t70 -63q20 -25 34 -57q11 -27 11 -56v-8q-1 -11 -3 -22.5t-4 -22.5q-2 -10 -4 -16v-1l-3 -11q-3 -13 -5.5 -25.5t-6.5 -24.5q-11 -38 -31 -73t-50 -62q-56 -49 -124.5 -83.5t-142.5 -54.5t-151 -26 q-39 -4 -78 -4q-36 0 -71 3q-45 4 -92 15t-89 32t-76.5 52t-56.5 74q-13 26 -20 54q-5 20 -5 40q0 8 1 17zM237 221l1 2q0 -1 -0.5 -1t-0.5 -1zM326 7q2 1 5.5 2t4.5 2zM338 -222q9 -39 30 -73q19 -30 46 -52.5t59.5 -38.5t67.5 -24.5t69 -11.5q22 -1 48 -2q7 -1 13 -1 q20 0 39 4q0 1 1 1q8 8 14 16.5t14 17.5q11 22 21.5 53.5t15.5 64.5q4 24 4 46q0 9 -1 18q-2 31 -15 54q-20 36 -51 62t-67 44q-64 35 -140 46q-5 -4 -11.5 -9t-12.5 -9t-10 -6.5t-2 -0.5q-7 -5 -14 -9q-33 -18 -59 -29l-18 -21q-11 -15 -19.5 -31t-15.5 -33q-9 -24 -9 -47 q0 -15 3 -29zM526 724q-2 -11 -2 -22q0 -26 8 -49q12 -38 27 -76t37 -71q9 -14 18.5 -22.5t25.5 -14.5q3 -1 8 -2t9.5 -1.5t7 -1t-0.5 -0.5l-7 1h1q18 -2 39 -2.5t39 1.5q41 43 61 80t27 74q8 36 8 75v5q-1 42 -1 95q-20 20 -38.5 41.5t-40.5 41.5q-8 8 -16.5 14t-19.5 11 l-8 4q-14 3 -37 7.5t-40 4.5q-26 -21 -48.5 -52.5t-37.5 -67.5t-19 -73zM599 154v1q-1 0 -1 -0.5t1 -0.5zM599 437l4 4q-1 -1 -2 -1.5t-2 -2.5zM638 468q5 -1 10.5 -2t8.5 -1zM701 908q-1 0 1 -1z" />
<glyph unicode="h" horiz-adv-x="1288" d="M51 -56q29 29 62 52.5t65 49.5l18 20q1 3 4.5 9t5.5 10l5 17q7 27 11 54.5t11 54.5q20 75 39.5 147t35.5 147l8 2q-6 16 -6.5 35t2 37.5t6 36t6.5 31.5q5 21 7.5 41.5t6.5 40.5q7 31 15.5 61t15.5 60q18 80 35.5 159t31.5 159q7 38 12.5 75.5t10.5 75.5q-14 15 -27.5 29 t-29.5 27l-18 9q-9 2 -18.5 4t-12.5 3q-12 1 -21 0t-20 -1q-9 -2 -18 -2h-18l186 132q6 0 12.5 0.5t12.5 0.5q16 3 38.5 4t45.5 -0.5t45 -6.5t39 -15q6 3 11 8l228 18l-154 -130q-17 -119 -41 -236t-50 -234q-9 -42 -20.5 -82t-18.5 -82q0 -6 -1 -8l17 20q63 76 148.5 125.5 t180.5 74.5q27 7 61.5 13.5t69.5 8.5q11 1 21 1q24 0 47 -4q33 -4 57 -20q25 -16 37 -44q9 -20 9 -49q0 -12 -2 -25q-2 -16 -3 -32t-6 -31q-6 -47 -17.5 -92.5t-25 -90t-29 -89.5t-28.5 -90q-9 -32 -14 -63t-11 -63q-3 -18 -7.5 -39t-5.5 -41.5t3 -39.5t17 -33q31 38 52 85 l280 79q-28 -63 -69.5 -112.5t-93 -87.5t-112 -63.5t-126.5 -40.5q-26 -6 -57 -10.5t-62 -1.5t-57.5 15.5t-42.5 40.5q-11 20 -13.5 41t-0.5 43t7 43.5t8 42.5q6 32 11 63.5t14 62.5q23 79 50.5 155.5t42.5 157.5q4 20 9.5 51t5 61.5t-10.5 55t-37 32.5q-31 -30 -54.5 -63.5 t-45.5 -68t-45 -68.5t-51 -64q-20 -20 -44.5 -36t-49.5 -30l-41 -21l-5 -3l-7 -4l-13 -6q-9 -37 -18.5 -73t-19.5 -72l-19 -68q-2 -8 -3.5 -15t-3.5 -15q0 -2 -0.5 -3.5t-0.5 -3.5q-2 -12 -2.5 -14t-2.5 -12q-3 -16 -5.5 -32t-8.5 -31q-9 -25 -25 -46t-36.5 -39t-42.5 -33.5 t-42 -29.5q-10 -8 -19.5 -16t-17.5 -17z" />
<glyph unicode="i" horiz-adv-x="694" d="M182 868l186 132h9.5t9.5 1q22 2 46.5 3.5t49 0t48 -7t44.5 -17.5l214 17l-139 -115q-4 -39 -10 -78.5t-14 -77.5q-14 -69 -33.5 -135t-36.5 -133q-13 -52 -27.5 -102.5t-21.5 -104.5q-1 -10 -1.5 -26t0.5 -32.5t5 -32t13 -25.5q17 20 30.5 44t24.5 47l280 79 q-45 -91 -112.5 -157t-162.5 -105q-33 -14 -68 -26.5t-71 -17.5q-26 -5 -60 -9q-15 -2 -29 -1q-18 1 -36 3q-32 4 -57.5 20t-34.5 50q-7 27 -7 57q1 6 1 12q2 37 8 75t16.5 74.5t20.5 66.5q12 35 21 70.5t18 70.5q22 78 38.5 155.5t24.5 158.5q-16 17 -32 34.5t-37 29.5 q-29 8 -58.5 5t-59.5 -3zM488 1234l58 227l314 154l-140 -381h-232z" />
<glyph unicode="j" horiz-adv-x="682" d="M-222 -446l278 109q11 -17 24.5 -29.5t28.5 -23.5q6 11 11 23l10 24q36 84 63 170t48 174q27 109 47.5 218.5t43.5 218.5q10 47 21.5 92t21.5 91q5 21 8 43t4 43q2 23 1.5 48t7.5 47q-19 17 -34.5 36t-36.5 33q-23 6 -46 6q-10 0 -19 -1q-33 -4 -66 -4l186 132 q8 0 22.5 0.5t18.5 0.5l7 1q21 2 42 3t43 -1q30 -2 53.5 -10t45.5 -25l200 31q-24 -21 -49 -39.5t-49 -38.5l-19 -17q-2 -5 -11 -19t-11 -24q-4 -35 -5 -70t-8 -70q-9 -53 -23 -105t-25 -104q-20 -94 -37.5 -188t-39.5 -188q-21 -94 -47.5 -183.5t-60.5 -178.5 q-15 -41 -32 -80t-42 -74q-29 -42 -73.5 -77.5t-96.5 -59.5t-109 -34q-35 -7 -69 -7q-22 0 -43 3q-54 6 -102 31t-82 73zM492 1221l58 227l314 154l-140 -381h-232z" />
<glyph unicode="k" horiz-adv-x="1167" d="M56 -30q5 4 18.5 15.5t30 25t32.5 26t26 19.5q6 6 14 11q5 5 10 7q16 42 22 88t16 89q24 101 46 201t45 200l72 315q20 89 38 175t22 177q-12 14 -23.5 27t-25.5 25q-1 1 -6 4t-11 6t-11.5 6t-7.5 5q-23 0 -45.5 -1.5t-45.5 -1.5l182 129h-10q-4 0 0.5 0.5t11.5 0.5l2 2 q6 0 17.5 1t13.5 0q5 0 9.5 0.5t9.5 0.5q21 2 41 1.5t41 -4.5q31 -5 52 -16l9 8l228 18l-148 -128q-5 -91 -24 -178.5t-39 -177.5q-33 -145 -65 -288t-65 -288q-9 -55 -24 -108t-25 -108q-3 -26 -8 -50t-14 -45.5t-24 -40t-39 -33.5l-5 -4q-29 -23 -57.5 -46t-57.5 -47z M588 468q4 30 7 60q8 60 30.5 115.5t68.5 96.5q57 56 124 102.5t141 78.5q73 32 153 47q54 10 110 10q26 0 51 -2q-55 -32 -109.5 -65t-109.5 -66q-8 1 -16.5 1.5t-16.5 -0.5q-20 -12 -37 -29t-33 -34l-26 -25l-6 -8q-11 -15 -17 -33.5t-11 -35.5q-20 -74 -20 -137t28 -134 q11 -28 20.5 -57t19.5 -57.5t22 -56.5t28 -54q6 -10 14 -22t17 -21q23 32 39 72l280 79q-23 -57 -57.5 -102t-85.5 -80q-63 -45 -135 -72t-147 -39q-35 -6 -70 -7h-4q-33 0 -65 15q-27 13 -47 41t-35.5 61t-27 67t-19.5 59q-14 44 -31.5 85.5t-25.5 86.5q-3 18 -3 35 q1 12 2 25zM919 751v1v-1zM1051 124q1 -1 5 -1q-2 0 -3 0.5t-2 0.5z" />
<glyph unicode="l" horiz-adv-x="670" d="M215 98q1 22 3 43q8 78 27 151t36 148q32 144 67.5 286t67.5 285q17 72 32 142t19 144q-23 11 -42 34q-5 7 -10.5 12.5t-12.5 10.5l-7 4l-16 4q-24 3 -48 0.5t-48 -2.5l183 130h-3q-3 0 -1.5 0t5.5 1l2 1q5 0 13.5 0.5t15.5 0.5q1 0 1.5 0.5t1.5 0.5q5 0 10.5 0.5 t10.5 0.5q12 1 25 1h13q20 0 38 -3q29 -4 49.5 -11.5t40.5 -25.5l176 14q-7 -5 -13 -10.5t-12 -10.5l-10 -7l-1 -1q-11 -8 -19 -16q-14 -11 -28 -24.5t-28 -24.5l-5 -4q-4 -55 -13.5 -108.5t-22.5 -107.5q-8 -48 -20.5 -95.5t-23.5 -94.5q-26 -112 -53.5 -223.5 t-53.5 -223.5q-11 -52 -25 -103t-25 -103q-7 -36 -13 -80q-2 -18 -2 -35q0 -25 5 -47q3 -22 16 -33q21 26 38 56t30 52l269 60q-26 -45 -53.5 -83.5t-60 -71t-72 -58.5t-88.5 -46q-34 -14 -69.5 -26.5t-72.5 -18.5q-29 -4 -64 -8q-13 -1 -25 -2q-21 0 -42 4q-32 6 -56.5 24 t-32.5 56q-3 16 -3 34v8z" />
<glyph unicode="m" horiz-adv-x="1872" d="M85 -29q29 24 60.5 45t52.5 51q17 26 22 57.5t13 60.5q21 75 41.5 148.5t40.5 147.5l11 3q-5 26 -2 51q5 52 14 103t16 102q3 20 8.5 39t1.5 39q-11 17 -28.5 31.5t-35.5 23.5q-26 6 -53 6q-10 0 -20 -1q-14 -1 -28 -1l-46 3l219 131q22 -3 44 -2.5t44.5 0.5t45 -1.5 t43.5 -8.5q9 -3 24.5 -12t30.5 -21t26.5 -25t15.5 -24q4 -17 1 -35t-6 -35l-7 -29v-1l-4 -15q1 10 0.5 6.5t-1.5 -13t-3 -22.5t-3 -22q22 28 46 53t53 48q49 39 106 68l22 10l22 10q6 2 15 6.5t17 8t12.5 4.5t0.5 -3q-2 -2 -2.5 -3t-2.5 -2l53 21q27 8 69 18q40 9 80 10h4 q42 0 77.5 -16t46.5 -55q4 -14 3.5 -34t-3.5 -43.5t-7.5 -48.5t-8.5 -48q66 82 146.5 131.5t183.5 83.5q28 9 64 18q36 8 74 10q9 1 19 1q27 1 53 -5q34 -8 60 -30q11 -11 20 -22.5t13 -27.5q7 -28 2.5 -59t-10.5 -58q-5 -38 -11.5 -74.5t-17.5 -73.5q-8 -29 -17.5 -56.5 t-19.5 -55.5q-6 -17 -8.5 -25t-4.5 -13.5t-4 -12t-6 -18.5l-21 -70q-7 -24 -10 -48t-7 -49q-3 -19 -7.5 -39.5t-6 -40.5t2 -38t17.5 -32q15 19 27.5 38.5t23.5 40.5l280 79q-32 -62 -70.5 -109t-85.5 -82.5t-103.5 -60t-123.5 -42.5q-29 -8 -61 -13.5t-63 -3.5t-59 13.5 t-49 38.5q-14 18 -17 38.5t-1 41.5t6.5 42t7.5 41q9 58 24.5 114t33.5 111.5t35 111t28 112.5q3 14 4 27.5t3 26.5q4 21 7 41.5t1.5 39t-10.5 35t-29 29.5q-35 -35 -63.5 -73.5t-54.5 -81.5q-19 -32 -37 -65t-44 -60q-28 -28 -63.5 -47t-70.5 -36q-6 -4 -6.5 -5t2.5 1 q-8 -5 -15.5 -8t-14.5 -6l-61 -197q-11 -37 -20 -74.5t-23 -73.5q-2 -7 -7 -11.5t-10 -9.5q-19 -17 -38 -32t-38 -32l-228 -18q11 10 25 17.5t21 21.5q15 31 21.5 65.5t16.5 67.5l90 291l11 3q-3 14 -2.5 31.5t2.5 39.5q4 35 8 68.5t9 67.5q5 32 10.5 63.5t0.5 63.5 q-5 8 -9.5 14.5t-13.5 12.5q-33 -31 -58.5 -67.5t-48.5 -74.5t-47 -75.5t-55 -70.5q-20 -20 -45.5 -35.5t-50.5 -29.5q-16 -9 -30.5 -17t-30.5 -15q-14 -54 -28.5 -106t-29.5 -104q-9 -33 -18 -66.5t-22 -65.5q-2 -7 -7 -11.5t-10 -9.5q-35 -31 -71.5 -61t-71.5 -61z M630 794v6v-5t0 -1zM630 800v2v-1v-1zM1202 494l12 6t14 8l14 7l-8 -5q-8 -4 -17.5 -9t-14.5 -7z" />
<glyph unicode="n" horiz-adv-x="1300" d="M90 -23q20 21 43.5 36.5t46.5 34.5q7 7 9 8.5t7 9.5l4 10q2 4 5 13.5t4 14.5q6 23 10.5 45.5t9.5 44.5q17 69 34.5 137.5t45.5 134.5q13 89 25 176t24 175q-15 14 -29 27.5t-32 18.5q-33 10 -66 10q-5 -1 -9 -1q-16 -1 -33 0q-22 0 -44 1q55 33 109.5 66t109.5 65 q41 -2 81 -4.5t81 -5.5q8 0 16.5 -1.5t15.5 -6.5l6 4l228 18q-39 -29 -77.5 -58.5t-76.5 -58.5l-21 -150q68 88 161 144t201 85q29 7 63.5 14.5t69.5 8.5h7q31 -1 60 -9q32 -10 56 -35q22 -24 24 -56.5t-2 -63.5q0 -2 -1 -7t-1.5 -11t-1.5 -11t-2 -8l-2 -14l-2 -10t-1 -7 l-7 -39q-4 -23 -9 -45t-12 -45q-20 -70 -44.5 -138t-41.5 -139q-3 -12 -8 -37t-9.5 -52.5t-6.5 -52t1 -35.5q2 -9 7 -20.5t13 -19.5q17 21 30.5 44.5t24.5 47.5l280 79q-29 -62 -71.5 -113.5t-96 -90.5t-116 -65t-129.5 -37q-23 -4 -51.5 -7.5t-57 -2t-54 10.5t-42.5 31 q-15 19 -18.5 39.5t-1.5 41.5t6.5 42t6.5 42q6 58 22 113t34.5 109.5t36 109t27.5 111.5q4 22 11 54t8.5 63.5t-7 57.5t-33.5 37q-49 -45 -83.5 -99t-68.5 -111q-13 -22 -25 -42t-29 -40q-26 -28 -63.5 -48t-71.5 -35q-8 -5 -18 -10t-21 -10q-14 -47 -26 -93.5t-23 -93.5 q-8 -32 -13 -64.5t-19 -61.5q-15 -35 -44.5 -60t-58.5 -45l-17 -12q0 -1 -1 -1l-6 -4q4 3 7 4.5t5 3.5l-5 -3q0 -1 -1 -1l-14 -13l-6 -1l5 3l-6 -3zM202 76q0 1 0.5 1.5t0.5 1.5q0 -1 -0.5 -1.5t-0.5 -1.5zM335 14h-1l1 1h1zM362 33q10 8 10 9z" />
<glyph unicode="o" horiz-adv-x="1151" d="M184 326q-1 14 -1 28q0 45 8 81q16 78 44 155t68 147t93 130.5t121 105.5q55 38 117.5 61t125.5 41l-60 -107q1 1 1.5 0.5t1.5 0.5l101 115q28 4 62 6q21 2 41 2h25q34 -2 66 -9.5t58 -22.5q38 -22 64.5 -60.5t43.5 -84.5t25.5 -94t10.5 -88q1 -9 1 -17q1 -20 -3 -40 q-4 -28 -12 -55q-15 -66 -37 -132.5t-52.5 -129.5t-71 -119.5t-92.5 -101.5q-70 -60 -155.5 -97t-175.5 -57q-30 -7 -68 -11q-28 -3 -56 -3h-20q-38 2 -75 10t-64 26q-43 28 -72 81t-44.5 115t-18.5 124zM464 463q-1 -10 -1 -20q0 -21 3 -46q4 -37 13 -75t21.5 -73t27.5 -60 q20 -32 47.5 -55t65.5 -28q11 -2 21 -2h21q12 9 23.5 20t19.5 20q50 58 83.5 126t57.5 140q15 43 26 79.5t17 71.5q5 32 5 66q-1 3 -1 7q0 38 -8 82q-6 37 -15.5 72.5t-27.5 68.5q-19 36 -45 62.5t-67 34.5q-24 4 -50 6l-7 -6q-11 -10 -20 -18t-16.5 -16t-15 -17t-16.5 -21 q-45 -63 -81 -137.5t-53 -151.5q-5 -32 -15.5 -64t-12.5 -66zM714 964q2 0 3 0.5t3 0.5q-3 0 -6 -1z" />
<glyph unicode="p" horiz-adv-x="1241" d="M-50 -517q7 7 23.5 23t35 33t35.5 31.5t26 17.5q1 1 3 1q8 6 12 8l10 11q10 24 14 49.5t10 50.5q16 66 30.5 131.5t27.5 131.5q8 41 15 74.5t27 68.5q4 30 5.5 60t7.5 59q14 64 30.5 125.5t32.5 124.5l7 2q-4 14 -4 31.5t2.5 34.5t5.5 32.5t4 26.5q5 42 10.5 83t10.5 83 q2 15 2 30.5t5 29.5q-10 10 -18.5 21.5t-19.5 20.5q-6 5 -9 8t-5.5 4.5l-5 3t-7.5 3.5l-7 3q-1 1 -3 1q-10 2 -16 2.5t-17 -0.5q-27 -1 -53.5 -3t-53.5 3l245 127h2q-6 1 -12.5 1.5t-11.5 2.5q-4 1 3 0t11 -2q8 0 15 0.5t15 0.5q24 2 47 2q20 0 39 -1q42 -3 78 -28l208 32 q-16 -15 -39 -30.5t-45.5 -31.5t-40 -34.5t-21.5 -39.5l-2 -25q0 -8 -1 -15t-3 -15l-13 -86q19 26 40.5 51t49.5 48q24 20 48.5 38.5t51.5 32.5q33 18 70 33.5t76 27.5t78.5 20.5t77.5 11.5q28 3 59 3.5t57 -13.5q30 -15 47.5 -45.5t26.5 -61.5q9 -30 11 -62q2 -18 2 -36 q0 -14 -1 -28q-4 -78 -26.5 -167.5t-59 -177t-85 -165.5t-103.5 -131q-29 -28 -63.5 -51t-70.5 -41q-53 -26 -106.5 -45t-108.5 -29q-50 -9 -101 -9h-10q-56 1 -114 15q-11 -51 -23 -101t-22 -101q-6 -36 -15 -69t-34 -61l-12.5 -12.5t-12.5 -10.5l-21 -14l-5 -3l-2 -1 q11 6 14.5 8t2 1t-7 -4.5t-11.5 -7.5q-22 -22 -46 -41t-46 -41zM232 -433q20 13 34.5 22t24.5 14l3 3q-14 -9 -28.5 -17.5t-22.5 -13.5zM236 -429l2 2zM287 -399v-1v1zM502 208q23 -23 44.5 -39t44.5 -28t48.5 -21t57.5 -16q30 -8 61 -9q2 2 5 4.5t5 5.5q32 32 58 68.5 t48 76.5q27 49 52 109t44 123t30 126q8 54 8 103v18q-1 21 -4 45t-10 46t-19.5 41.5t-31.5 31.5q-2 0 -4 0.5t-4 0.5h-2q-48 -41 -81 -92t-65 -105q-15 -27 -31 -54.5t-39 -49.5q-27 -24 -59 -41.5t-64 -33.5l-6 -3q0 -1 -9 -6t-20 -10q-12 -46 -24 -91t-21 -91 q-6 -26 -7.5 -53.5t-4.5 -55.5z" />
<glyph unicode="q" horiz-adv-x="1196" d="M146 174v22v33q2 27 7 54q15 91 45.5 178.5t76 167t106.5 148t137 122.5q45 32 95.5 54t101.5 41q41 15 95.5 27.5t112.5 16.5q24 2 47 2q34 0 66 -4q56 -6 98 -30q9 -5 17 -11.5t16 -13.5l189 42q-3 -5 -10.5 -19.5t-17 -32t-21 -34t-21.5 -26.5q-14 -11 -30.5 -19 t-23.5 -24q-8 -18 -11.5 -37.5t-6 -39.5l-5 -40t-7.5 -39q-20 -76 -45.5 -149.5t-43.5 -149.5q-9 -33 -9 -69l1 -8q0 -35 -8 -68q-17 -77 -35 -153t-36 -153q-12 -54 -24.5 -108t-25.5 -108q-5 -23 -9.5 -46t-12.5 -45q-2 -7 -7 -11.5t-10 -9.5q-38 -37 -83 -77t-83 -74 l-252 -39q27 24 54.5 48t54.5 49q13 11 27 21.5t22 25.5q10 18 12 38.5t7 40.5q13 54 25.5 108t24.5 108q18 77 37.5 153t33.5 153q2 10 3 19.5t2 19.5q-23 -31 -48 -59t-56 -52q-78 -59 -170 -93.5t-189 -46.5q-18 -2 -39 -3t-42 2t-40.5 9.5t-34.5 19.5t-25.5 34t-17 45 t-10 48t-4.5 42zM431 342q-2 -25 -2 -51q0 -28 3 -56q5 -54 33 -102q5 -10 14.5 -16t20.5 -9l9 8q26 26 47.5 56t42.5 61q20 31 40.5 62.5t44 59t52 50.5t64.5 38l36 16t37 15q13 40 25.5 79t23.5 80t14.5 82.5t16.5 80.5q-23 26 -42.5 52.5t-50.5 42.5q-23 8 -46 11t-47 5 l-38 -4q-21 -11 -40.5 -27t-37 -34.5t-33 -38.5t-28.5 -39q-29 -43 -56 -94.5t-48.5 -106.5t-36 -111.5t-18.5 -109.5z" />
<glyph unicode="r" horiz-adv-x="901" d="M89 -33q15 15 31.5 27t33.5 24t33 25t29 30q17 33 20 69.5t12 71.5q26 94 45.5 187.5t45.5 186.5l6 2q-3 11 -3 25t1.5 27.5t3.5 25.5t3 19q2 18 1.5 35t-1.5 34.5t-0.5 34t5.5 33.5q-8 11 -22 23t-23 19q-8 8 -18 11h-1q-11 3 -23 3q-22 1 -43.5 -0.5t-43.5 -1.5 l186 132q11 0 25 3q5 1 10 1q8 0 15 -3q8 1 14 1.5t12 0.5t14.5 -0.5t22.5 -0.5q54 -1 93 -27l185 29q-23 -20 -45.5 -42.5t-48.5 -39.5q-2 -2 -3 -2l-4 -4l-19 -12q-10 -17 -9 -36.5t3 -39.5q33 23 71.5 40t74.5 30q31 11 59.5 18.5t60.5 14.5q5 1 12 2.5t14 3.5t15 3 q39 -9 69 -15q13 -3 25 -6t22 -5q11 -3 21 -4q-42 -32 -88 -51t-97 -33q-14 -5 -31 -7t-31 -4q-14 -24 -24.5 -43.5t-22.5 -36.5t-28 -32.5t-40 -32.5q-14 -11 -26.5 -17t-30.5 -15l-2 -1q-11 -8 -23.5 -15.5t-26.5 -15.5q-22 -81 -41 -163t-37 -164q-7 -32 -11 -63t-15 -62 q-11 -34 -38 -61t-54 -48l-52 -36q-2 -2 -5 -4.5t-7 -4.5l-4 -4l-3 -1q-2 -1 -1 0zM281 882h-1l8 -3zM295 876q3 0 7 -2q2 -1 2.5 -1t-0.5 0zM578 880l-1 -1l6 3q10 5 19 10t19 10l17 12q-12 -7 -24.5 -14.5t-22 -12.5t-13.5 -7z" />
<glyph unicode="s" horiz-adv-x="854" d="M80 148l278 109q35 -55 82 -93.5t112 -52.5q19 42 30 90q6 28 6 55q0 20 -3 40q-3 19 -20.5 43.5t-40.5 48.5t-46.5 44t-38.5 32q-27 22 -61.5 49t-65.5 59q-30 33 -52 69q-21 34 -21 72q-1 25 7 56q6 26 14 50q10 32 22 64.5t35 57.5q26 29 62.5 53.5t80 43.5t90.5 32 q48 13 94 18q29 3 57 3q17 0 33 -1q44 -3 82 -16q24 -8 46 -22.5t41.5 -32t37.5 -37.5t34 -39l-278 -109q-27 33 -61.5 67.5t-77.5 49.5q-5 -17 -8.5 -33t-11.5 -31q0 -3 -1 -5q-2 -13 -5.5 -25t-6.5 -24t-3 -24.5t4 -25.5q11 -34 30.5 -61.5t43.5 -50.5t50.5 -44t53.5 -43 q33 -26 63.5 -53.5t56.5 -61.5q14 -17 26.5 -36.5t17.5 -41.5q5 -20 3.5 -45t-6.5 -50.5t-12.5 -50t-14.5 -42.5q-15 -38 -38 -66.5t-52.5 -50.5t-63.5 -39t-70 -32q-58 -24 -121 -35q-42 -7 -84 -7q-21 -1 -41 1q-62 6 -121 29t-107 67q-12 12 -19.5 20t-13.5 16.5t-12 18 t-15 23.5z" />
<glyph unicode="t" horiz-adv-x="735" d="M202 876l184 130h-6q-2 0 0.5 0.5t5.5 0.5l2 1h6q5 0 10.5 0.5t7.5 0.5q7 0 13 1t13 2q36 63 81.5 120t93.5 111l252 39q-43 -48 -86 -102t-74 -114l6 3q15 -14 29 -30.5t32 -27.5q10 -5 21.5 -3t22.5 0h152l-186 -132q-30 0 -65 -1t-71 -1l-3 -16q-1 -7 -1.5 -13 t-2.5 -13v-3v-1q-2 -11 -4 -21.5t-4 -21.5q-9 -44 -20 -86t-22 -85q-15 -62 -32 -122.5t-31 -123.5q-5 -26 -9.5 -51t-7.5 -51q-1 -6 -1.5 -12t-2.5 -12q0 -4 -2 -10v-3q0 -1 -0.5 -2t-0.5 -2v-1q-3 -23 -1.5 -46.5t13.5 -44.5q6 -10 12 -15q24 28 45 57t42 60l269 60 q-30 -45 -60.5 -84t-65 -71.5t-75.5 -59.5t-93 -48q-35 -15 -71.5 -27.5t-74.5 -18.5q-30 -4 -64 -8q-14 -1 -27 -2q-19 0 -38 3q-31 5 -55.5 23t-34.5 55q-8 29 -4 55.5t7 55.5q8 65 22 127t31 125q20 72 38.5 143t33.5 143q5 26 9 51t9 51h-1q-11 12 -21.5 25.5 t-23.5 24.5q-8 9 -18 15q-2 2 -3 2q-7 2 -14.5 3.5t-10.5 2.5q-19 -1 -37.5 -3t-37.5 -2zM292 881q1 -1 3 -1q-2 1 -3 1zM502 225q1 12 2 16.5t1 3.5t-0.5 -5t-1.5 -8v-1v-2q0 -2 -0.5 -2.5t-0.5 -1.5z" />
<glyph unicode="u" horiz-adv-x="1298" d="M177 873l186 132q12 0 23 1q9 0 16 0.5t8 0.5q21 -1 43 -5q19 -3 42.5 -8.5t47.5 -14.5l6 5l228 18l-137 -116q1 -17 -2 -40.5t-6.5 -47t-7.5 -44t-5 -32.5q-8 -53 -21.5 -105t-28.5 -103.5t-29.5 -103.5t-25.5 -104q-4 -19 -6.5 -39.5t-2 -41t5 -40t15.5 -37.5 q4 -7 9.5 -11.5t12.5 -8.5q51 47 86.5 110t68.5 123q21 48 63 81.5t90 52.5l12 5q20 14 46 25q16 54 27.5 108.5t28.5 109.5q11 34 18.5 66.5t28.5 61.5q16 24 38 42.5t46 35.5t49 32.5t47 33.5l228 18q-24 -19 -49 -36t-51 -34q-3 -2 -13 -9.5t-18 -12.5l-8 -10 q-11 -15 -17 -35q-8 -26 -14.5 -52.5t-13.5 -52.5q-19 -74 -35.5 -146.5t-48.5 -141.5q-1 -30 -4 -59.5t-8 -58.5l-12 -74q0 -2 -0.5 -4t-0.5 -4q-1 -3 -1 -5q-2 -11 -4 -22.5t-3.5 -18.5t-1 -5l4.5 18v-6q0 -2 -0.5 -4.5t-0.5 -4.5q-1 -7 -2 -13t-3 -13q-2 -23 -2.5 -45.5 t10.5 -39.5q15 20 27.5 40.5t23.5 43.5l280 79q-46 -92 -109 -156t-159 -104q-32 -14 -66.5 -26.5t-69.5 -18.5q-22 -4 -51 -8t-57.5 -3t-54 10t-41.5 31q-9 14 -14 31t-4 33q2 33 7 66t11 66q-60 -75 -138 -129.5t-174 -76.5l-15 -4q-12 -4 -23.5 -7t-23.5 -6 q-9 -3 -16 -4.5t-13.5 -2.5t-14 -2t-18.5 -3q-24 -4 -48 -4q-9 0 -18 1q-32 2 -58 14.5t-43.5 37t-23.5 63.5q-3 20 -3 40q0 33 8 67q12 54 25 105q12 46 26 92t26.5 91.5t22 92t14.5 93.5q1 14 5 29t7 29.5t4 29.5t-3 29q-15 29 -32.5 43.5t-38 20.5t-44.5 6.5t-53 0.5 q-4 -1 -12 -1z" />
<glyph unicode="v" horiz-adv-x="1061" d="M128 879q55 33 109.5 66t109.5 65q5 0 31 1h22q17 -1 37 -1q33 -2 64.5 -6.5t47.5 -16.5q8 -7 21 -13.5t27 -14.5l124 10l-68 -58q-2 -7 -7 -11l-15 -12q-3 -52 -12 -103t-20 -102t-24 -101t-24 -101q-11 -48 -15.5 -94.5t-14.5 -93.5q-5 -27 -5.5 -59.5t7.5 -59.5 q2 -8 6.5 -18t9.5 -17l7 -10q2 -1 5 -3t5 -3l29 -8l18 12q58 62 101 122.5t75 125t55 135t40 153.5q10 45 19 88q5 24 5 49q0 19 -3 39l283 95q3 -21 3 -41q1 -28 -5 -55q-10 -47 -21 -95q-23 -143 -85 -272t-156 -239q-22 -26 -45.5 -51.5t-51.5 -46.5 q-57 -42 -118.5 -69.5t-128.5 -47.5q-27 -8 -71 -18.5t-90 -13.5q-12 -1 -24 -1q-33 0 -63 6q-40 8 -61 40q-17 25 -22 52t-4.5 55t5 56t6.5 55q6 71 22 140.5t32.5 139t30.5 139t17 141.5q-17 17 -32 36t-37 27q-28 10 -59 10q-8 0 -15 -1q-23 -2 -46 -2q-16 0 -31 1z" />
<glyph unicode="w" horiz-adv-x="1628" d="M126 878l219 131q29 1 56 1h27q33 -1 65.5 -6t49.5 -17q5 -4 9.5 -7.5t9.5 -8.5l196 31q-6 -5 -19 -14.5t-27 -19.5t-26 -18.5t-16 -11.5t3 2t32 21q3 2 1 0.5t-7 -5t-10.5 -7.5t-8.5 -7q-5 -4 -10.5 -8t-10.5 -9q-27 -23 -36 -49t-10 -61q-2 -68 -18 -131t-33 -129 q-11 -44 -20 -87t-17 -87q-3 -19 -7 -45.5t-6 -54.5t-2 -54.5t6 -44.5q9 -35 37 -52l13 14q28 31 50.5 66t42.5 71q10 21 18 38.5t17 33.5t21 30.5t31 29.5q11 10 23.5 17t25.5 14l13 8l7 4l1 1q14 9 30 19t32 17l61 232q8 29 13 58.5t16 56.5q5 13 15 22.5t20 17.5 q33 29 67.5 55t68.5 53l228 18q-30 -23 -64 -43.5t-57 -51.5q-8 -11 -11.5 -24.5t-6 -27.5t-4 -28t-5.5 -27q-18 -70 -36 -139t-37 -139q0 -40 -1 -79.5t-4 -79.5l-4 -40v-1q2 2 0 -7.5t-3 -14.5q-3 -34 -5 -72v-9q0 -33 13 -64q4 -8 10.5 -20.5t14.5 -17.5q2 -2 9 -3.5 t14 -3.5l3 2q54 58 95 121t71.5 131t51.5 140.5t36 149.5q9 46 15 92q4 29 4 59q0 16 -1 33l283 95q1 -13 1 -26q1 -30 -3 -59q-4 -42 -13 -84l-6 -31v-2q-2 -15 -4.5 -30t-6.5 -29q-25 -118 -77 -231q-36 -80 -77 -145.5t-92.5 -117.5t-116 -91.5t-147.5 -66.5 q-21 -7 -49.5 -15.5t-60.5 -15.5t-66 -11q-18 -2 -35 -1q-15 0 -28 1q-30 3 -54.5 15t-39.5 36q-13 22 -18.5 44.5t-6 46t1 47t3.5 47.5q0 2 0.5 4t0.5 4l-19 -22q-37 -45 -82 -79t-95 -59t-104 -42t-110 -28q-20 -4 -42 -5.5t-43.5 0t-42 8t-38.5 18.5q-32 23 -42 66 q-9 37 -9 79q1 6 1 12q2 48 10.5 94.5t14.5 77.5q15 75 35 147.5t36 147.5q4 21 5.5 41.5t2.5 41.5t3.5 41t9.5 39q-18 17 -33.5 38t-38.5 29q-17 6 -35.5 7.5t-37 1t-37.5 -1.5t-37 0zM815 454q2 2 4 2.5t0 0.5zM827 463q2 1 5 3l2 1h-1q-2 -2 -6 -4zM1001 448l9 5l9 6 l-1 -1q-4 -2 -17 -10z" />
<glyph unicode="x" horiz-adv-x="1057" d="M0 33l255 115l12 21q9 17 18.5 40.5t20.5 46.5t23.5 44t26.5 34q11 11 23 21t26 17l36 19l15.5 15.5l15.5 15.5q-1 3 -1 9q0 12 1 30t1.5 37t0 37t-2.5 31l-2 4t-3 4q-5 7 -7.5 13t-5.5 14q-8 23 -11.5 50.5t-8.5 50.5q0 1 -4 16t-8 32.5t-7 31.5t-2 14q-2 4 -2 5 t-0.5 1.5t-0.5 1.5t-0.5 2t-0.5 2q-1 5 -1 10.5t-2 10.5q-16 33 -47 43q-27 8 -57 8h-10q-36 -2 -72 -9t-63 -7l182 129q-7 0 -11 1q-5 0 -1.5 0t10.5 1.5t14.5 2t11.5 0.5l32 4l32 4q46 5 92 6h6q44 0 85 -15q19 -7 40 -21.5t31 -32.5q7 -12 9 -25.5t5 -27.5q3 -13 6 -25.5 t5 -26.5q39 37 87.5 65.5t102 48.5t108.5 31.5t108 16.5l-148 -129q-5 -1 -8 -0.5t-5 -0.5q-19 -26 -31 -47t-25.5 -40.5t-31 -37.5t-47.5 -37q-8 -5 -16.5 -10t-16.5 -9l-10 -9q-3 -4 -4 -5.5t-2 -2t-2.5 -2l-4.5 -4.5l-5 -7q3 -9 3 -20.5t-2 -28.5q0 -15 -1.5 -31t2.5 -31 q6 -17 15.5 -42t13.5 -49q9 -54 21.5 -110.5t31.5 -108.5q8 -22 17 -48t26 -46q17 26 30 54t23 57l280 79q-24 -72 -60.5 -125.5t-84.5 -93t-108 -67.5t-131 -49q-23 -7 -52 -12q-26 -5 -53 -5h-5q-29 0 -56 8.5t-47 27.5q-22 22 -34 52.5t-23 58.5q-9 23 -15.5 47t-12.5 48 q-22 -36 -50 -67t-67 -51q-32 -17 -65.5 -32t-68.5 -26l-18 -6q-32 -12 -66 -22t-68 -14q-13 -1 -26 -1q-21 -1 -41 3q-33 6 -62 25zM361 996q7 1 11.5 1.5t-0.5 0.5zM409 805v2v-2zM449 395l26 14l-9 -4zM733 473l3 3l3 3z" />
<glyph unicode="y" horiz-adv-x="1001" d="M-55 -407l278 109q16 -31 38 -43q24 38 38.5 83t24.5 92t19 93.5t21 87.5l5 1q-5 12 -5 27v26q1 20 1 40q0 16 -1 31q-1 36 -4 71q-8 121 -17.5 240t-29.5 239q-5 29 -4.5 57.5t-7.5 56.5q-14 28 -37.5 43.5t-51.5 22.5t-58 6.5t-57 -3.5l-24 -4l107 122q42 8 84.5 13.5 t86.5 5.5q23 0 47 -2.5t47 -7.5q20 -4 32 -7.5t30 -14.5q34 -19 50.5 -37.5t24 -40.5t9 -48t4.5 -59q2 -23 6.5 -46.5t7.5 -46.5q12 -91 21 -181.5t12 -182.5q0 -12 0.5 -24t1.5 -24q54 99 100.5 198.5t77.5 208.5q7 23 12.5 44.5t11.5 43.5q6 20 8 39.5t10 37.5 q7 14 14.5 23.5t18.5 20.5l2 1q-1 -1 0.5 1t3.5 3l10 8l4 4l252 39q-5 -5 -10.5 -9t-10.5 -8l-3 -4q-4 -8 -6.5 -15t-4.5 -15q-1 -7 -2.5 -16t-1.5 -8q3 18 2.5 16t-2 -11.5t-4 -22t-3.5 -16.5q-4 -20 -10 -39t-11 -38q-38 -132 -97 -255t-130 -241q-11 -20 -20.5 -40 t-20.5 -40q-25 -44 -61.5 -72.5t-81.5 -49.5q-11 -5 -25 -11.5t-28 -11.5l-2 -1q-2 -2 -4 -2q-14 -54 -25 -110t-27.5 -109.5t-43 -102.5t-71.5 -89q-7 -6 -22.5 -16t-31 -19t-27.5 -16t-13 -7q-23 -14 -49 -24t-52 -16q-39 -9 -86 -19q-40 -8 -79 -8h-12q-45 2 -84.5 19 t-63.5 60zM219 -388q-1 0 -1 -0.5t1 0.5q2 0 4 2z" />
<glyph unicode="z" horiz-adv-x="954" d="M7 -26q12 12 19 25.5t12.5 28t11 29.5t14.5 29q7 12 23 25.5t36.5 27t45 25.5t48.5 22q8 27 14.5 54t23.5 53q21 31 46 60t53 56t56.5 52.5t56.5 50.5l133 158q20 20 41 38q4 4 7.5 7t7.5 6q2 2 4 3.5t1 0.5l-27 -23q-2 -2 3 2t7 6l17 15q13 12 25.5 25t23.5 27 q8 19 13 38t12 38q5 11 6 14.5t2 12.5q-28 0 -63 1t-72.5 1t-75 -0.5t-70.5 -1.5q-24 -32 -40 -69t-30 -74l-280 -79q19 47 40 94.5t54 85.5q23 28 51 49t59 39q88 52 182.5 68.5t194.5 16.5h248l129 41q-5 -26 -8.5 -50.5t-7.5 -49.5l-35 -12q-5 -11 -9.5 -21.5t-7.5 -20.5 q-9 -33 -22 -55.5t-30 -41t-37.5 -36t-43.5 -39.5l-204 -224q-27 -24 -52.5 -50t-51.5 -52q-16 -17 -29.5 -36t-21.5 -41q-8 -23 -11 -47t-15 -45q26 -11 52.5 -18t52.5 -17q31 -12 60.5 -24t60.5 -23q29 -10 50 -15t42 -7l9 14q20 38 37.5 77.5t26.5 81.5l280 79 q-6 -27 -15 -51t-21 -49q-17 -37 -35 -68t-40 -57t-50 -47.5t-66 -39.5q-21 -10 -36 -17.5t-29 -13.5t-28.5 -11t-33.5 -9q-32 -8 -65 -15.5t-66 -9.5q-14 -1 -28 -1q-30 0 -58 4q-42 6 -83.5 18t-82 27.5t-80.5 31.5q-8 3 -15 6t-15 5q-9 -20 -21 -36t-28 -33zM206 89 q4 1 7 2l6 2q-1 -1 -4 -1z" />
<glyph unicode="{" horiz-adv-x="696" d="M222 522l127 90q-8 -3 -10.5 -4.5t-7.5 -5.5t-17 -13t-39 -27q-3 -2 -1 0.5t6 6.5t7.5 8l3.5 4q15 15 11 13q15 11 30 21.5t30 21.5q18 11 35 17q10 10 16.5 20.5t14.5 21.5q27 54 40 115t22 123.5t18 124.5t28 119t53 106.5t93 87.5q43 28 88.5 48t93.5 35 q42 13 85.5 18.5t87.5 5.5l-138 -98q2 1 5 1.5t5 2.5q6 2 -3.5 -3t-17.5 -9l-10 -7q-32 -33 -51 -77t-29.5 -92t-16 -97t-11.5 -92q-9 -68 -23 -125t-38.5 -104.5t-62 -85.5t-92.5 -68q9 -21 23 -40t28.5 -37.5t25.5 -39t13 -45.5q3 -38 -8.5 -77t-22.5 -75 q-11 -39 -25.5 -77.5t-28 -77.5t-22.5 -79t-10 -80q-2 -69 27 -111t98 -56l10 -2q-55 -32 -109.5 -65t-109.5 -66q-23 3 -46.5 7.5t-46.5 15.5q-36 18 -58.5 41t-34 51.5t-13 62.5t3.5 72q6 37 16 73t22 71.5t24 70.5t23 70q10 33 20.5 67t7.5 69q-2 21 -12 39t-23.5 35 t-27 35t-22.5 38q-9 0 -18 0.5t-18 1.5q-4 0 -11.5 1t-3.5 1zM406 539q1 0 2 1zM409 540l40 16h-2l-37 -15z" />
<glyph unicode="|" horiz-adv-x="543" d="M276 28v1299l283 95v-1299q-71 -23 -141 -47t-142 -48z" />
<glyph unicode="}" horiz-adv-x="696" d="M-62 -264l143 110q28 31 45.5 68.5t28 78t16 82t10.5 81.5q6 54 16 109t28 106t46.5 96.5t72.5 81.5q15 13 30.5 22.5t32.5 19.5l2 1q-2 3 -4 9q-7 15 -18 26.5t-21 25.5q-23 35 -34.5 76.5t-7.5 83.5q5 51 20.5 100t33.5 97t33.5 96.5t21.5 99.5q3 24 0.5 49t-11.5 47.5 t-24.5 41t-38.5 30.5q-6 1 -16 2.5t-19.5 3t-15 2.5t-1.5 1q-1 0 -2 0.5t-2 0.5q-16 0 -28 4l244 126l-15 3q2 0 4.5 -0.5t4.5 -0.5q5 0 10.5 -0.5t10.5 -1.5q15 -2 30.5 -4t29.5 -6q25 -6 46 -20t36.5 -33.5t25 -43t13.5 -48.5q7 -44 -1 -90t-22 -92t-31.5 -90.5 t-30.5 -85.5q-7 -23 -14 -46.5t-9 -46.5q-6 -81 37 -146q8 -12 19 -22.5t17 -24.5l4 -10t5 -10l7 -2q19 -2 38 0t30 3.5t10.5 1.5t-20.5 -5l-105 -75q-11 -11 -23.5 -19t-25.5 -16l-30 -21q-1 -1 -2 -1h-3q-32 -31 -51.5 -79t-30.5 -101.5t-17 -107.5t-12 -96 q-12 -80 -32.5 -141.5t-55.5 -109.5t-89 -84.5t-132 -64.5q-49 -18 -102 -29.5t-105 -11.5zM500.5 1518q1.5 0 3.5 -1q-1 0 -1.5 0.5t-1.5 0.5q-2 0 -0.5 0zM525 1513q5 0 9 -2q-4 2 -9 2z" />
<glyph unicode="~" horiz-adv-x="1229" d="M173 363q65 145 213 206q43 18 86.5 32t88 21.5t89 7t91.5 -12.5q30 -7 59.5 -17.5t58 -22.5t57 -23.5t58.5 -20.5q12 -5 24 -6q21 24 42 56l269 60q-20 -32 -43.5 -60.5t-52.5 -53.5q-44 -37 -100.5 -66.5t-118 -47.5t-125 -22.5t-120.5 8.5q-58 14 -112 38t-111 42 q-11 3 -22.5 6t-22.5 5q-16 -24 -28 -50zM400 493q2 0 3 1q-2 -1 -3 -1z" />
<glyph unicode="&#xa1;" horiz-adv-x="584" d="M69 -347q20 24 32.5 50.5t20.5 55t13.5 58t10.5 59.5q5 22 10 43.5t10 42.5q18 81 33.5 160t31.5 159q11 50 23 96.5t16 97.5l283 95q-4 -54 -16.5 -105t-24.5 -104q-17 -103 -42 -203t-44 -203q-6 -33 -12.5 -65t-16 -62.5t-23.5 -59.5t-36 -55zM293 823q0 96 57 152 q55 53 133 53q92 -2 137 -47q41 -45 41 -115q-2 -94 -55 -147q-57 -55 -141 -55q-88 0 -129 51q-43 45 -43 108z" />
<glyph unicode="&#xa2;" d="M250 504q-5 80 10 161t47 156.5t78.5 143.5t104.5 122q64 60 142 100.5t163 61.5q2 14 4.5 29t7.5 29l280 79q-7 -23 -9.5 -44.5t-6.5 -44.5v-14.5t-2 -15.5q2 0 6 -1t7 -1h13t13 -1q20 -2 39 -5.5t37 -13.5q51 -26 86 -69.5t61 -92.5l-278 -109q-9 17 -18.5 33.5 t-20.5 31.5q-20 -103 -44.5 -204t-47.5 -204q-9 -43 -18.5 -85t-20.5 -84q-4 -17 -8.5 -34.5t-6.5 -34.5l-3 -17q2 0 1 -11t-2.5 -25t-3.5 -26t-2 -13l-2 -6h2q2 0 4.5 0.5t4.5 0.5q2 1 7 1.5t7 0.5q7 2 14 2.5t14 1.5q2 2 13.5 9t25.5 18q17 15 32 33l30 36l269 60 q-36 -45 -73.5 -81t-78.5 -65t-87.5 -52t-100.5 -43q-29 -11 -58.5 -19.5t-59.5 -14.5q-6 -39 -14 -77.5t-20 -76.5l-280 -79q17 55 26 110t14 112l-6 2h-5q-5 1 -9.5 1t-11.5 2q-32 5 -64 15t-60 27q-35 22 -60.5 54.5t-42.5 70.5t-26 79t-12 81zM533 599q4 -60 20.5 -114 t50.5 -96q8 37 17.5 73.5t17.5 73.5q34 149 68.5 296.5t54.5 299.5h-12q-55 -48 -97.5 -110.5t-70.5 -132t-41 -144t-8 -146.5zM935 310q13 4 23 7.5t3 1.5q-14 -6 -26 -9zM1095 1262q2 -1 3.5 -1t-0.5 1h-3z" />
<glyph unicode="&#xa3;" d="M135 -32l107 122q10 2 20 3.5t20 3.5q10 26 24.5 60t28.5 54q13 20 27.5 37t28.5 36q23 54 37 108t24 111l4 1q-6 11 -9.5 29t-5.5 35q-32 -10 -61.5 -14.5t-61 -5.5t-67.5 -0.5t-82 0.5l186 132q13 0 25.5 -0.5t25.5 -0.5q-1 3 -1.5 5.5t-0.5 5.5q-3 21 -3 42t-4 41 q-4 29 -9.5 54.5t-4.5 54.5q0 14 3 32t7 36.5t8 36.5t7 32q12 52 30.5 104.5t53.5 94.5q30 36 74 67t96 54.5t109 38t113 19t109 -3.5t97 -30q52 -26 89 -69t64 -94l-278 -109q-17 33 -38 62.5t-47 52.5t-58 38t-71 20q-26 -37 -39.5 -79.5t-23.5 -86.5q-2 -12 -3 -24 t-6 -23q-5 -27 -10 -53t-3 -54q2 -24 7.5 -47.5t9.5 -48.5q4 -24 4 -48.5t8 -48.5q7 -22 15 -42.5t13 -42.5q13 4 25.5 7t26.5 5q28 3 70.5 4t86 0.5t81 -1.5t55.5 -1l-186 -132q-8 0 -24.5 -0.5t-37.5 -1t-45.5 -1t-48.5 -0.5q-9 -51 -22.5 -102.5t-39.5 -93.5 q-13 -21 -29.5 -39.5t-30.5 -38.5q-11 -18 -19 -40.5t-17 -42.5q-5 -12 -11.5 -26t-0.5 -28h338q20 20 36.5 42.5t32.5 45.5l269 60q-62 -90 -134.5 -149.5t-176.5 -97.5q-35 -13 -70.5 -21.5t-71.5 -12.5q-15 -2 -31 -1.5t-31 1.5q-4 0 -12 0.5t-6 0.5h-182q-8 0 -27.5 -1 t-45 -1.5t-53.5 -0.5t-52 3q-51 -9 -102 -17.5t-102 -16.5zM685 654q8 1 19 5l14 6zM718 665q1 0 2.5 0.5t0.5 0.5zM809 619l1 1z" />
<glyph unicode="&#xa4;" d="M162 1058l278 109q20 -23 41.5 -44t42.5 -43l5 -5q98 43 205 60t212 -10q41 -10 83 -29l245 55q-15 -21 -32.5 -40t-36.5 -37l-6 -5q0 -2 -4.5 -6.5t-10.5 -9.5t-11.5 -10t-8.5 -8l-3.5 -3.5l-3.5 -3.5q-1 -1 -1 -2q8 -41 21 -81t25 -80t20 -81t6 -83q-2 -38 -10.5 -73.5 t-19.5 -71t-22.5 -70t-20.5 -70.5q17 -11 28.5 -26t25.5 -29l68 -73l-278 -109q-17 19 -34 37l-34 36l-22 26q-41 -18 -82 -31.5t-86 -21.5q-59 -11 -117.5 -12.5t-118.5 12.5q-20 5 -41 12t-41 15h-2l-1 -1l-252 -39l111 115q-11 22 -14 47t-8 48q-8 32 -16 59t-15 53.5 t-11.5 54.5t-4.5 62q0 29 4 60t14 58q8 21 17.5 41.5t17 41.5t12 42.5t2.5 44.5q-11 17 -25.5 31.5t-30 29t-31 28.5t-28.5 30zM440 1040q2 0 2.5 0.5t2.5 0.5q-2 0 -3 -1h-2zM495.5 707.5q5.5 -60.5 22.5 -120.5q5 -17 11 -34.5t11 -35.5q6 -24 8 -49t18 -46 q13 -7 28 -10.5t29 -7t27.5 -9t25.5 -15.5q35 -22 76.5 -29t81.5 -6q12 6 24.5 13t25.5 13q15 54 34 105.5t25 107.5q7 59 -7 113t-31 109q-5 19 -8 38t-9 37q-1 1 -1 3q-5 13 -8.5 24t-3.5 22q-45 16 -86.5 36t-87.5 32q-19 5 -38 6.5t-39 3.5q-5 0 -11 -0.5t-11 -0.5 q-20 -11 -39 -18q-2 -1 -3.5 -2t-3.5 -2q-4 -20 -11 -39.5t-15 -38.5t-15.5 -38t-11.5 -39q-13 -62 -7.5 -122.5zM1164 1038l3 4zM1164 1044l2 2z" />
<glyph unicode="&#xa5;" d="M188 384l186 132q43 0 85.5 0.5t86.5 -0.5q-3 19 -2 34q2 21 10 38q-14 23 -16.5 46t-4.5 45l-14 -4q-18 -6 -38.5 -8t-40.5 -2h-16.5t-16.5 1q-3 0 -9 0.5t-4 0.5h-143l186 132h69l-3 17q-5 26 -8 52.5t-8 52.5q-10 55 -22.5 108.5t-21.5 108.5q-2 16 -2 31.5t-2 31.5 q0 7 -1 13t-3 12l-4 5q-8 9 -12 12.5t-15 9.5q-23 14 -47 28.5t-50 25.5q-24 7 -47 11t-49 6l219 131q47 -2 97 -13t92 -36q33 15 69.5 26.5t73.5 18.5t74 8t71 -4h8l-186 -132h-14q5 -13 5.5 -29t2.5 -37q1 -14 4 -29.5t5 -29.5q10 -57 23.5 -113t22.5 -114q4 -27 8.5 -57 t-2.5 -57l7 3q4 -6 5 -9q13 20 26.5 39t26.5 38q47 70 93.5 139.5t81.5 145.5q10 21 14 43.5t12 43.5q-8 5 -15 10t-16 7q-27 5 -55 5t-56 2l219 131q24 -1 45.5 -1t42 -1.5t40.5 -6t40 -15.5q42 9 84.5 13t84.5 8l-148 -129q-1 0 -1 -0.5t-1 -0.5q-3 -11 -8 -25 q-11 -31 -28.5 -61.5t-34.5 -58.5q-22 -38 -46.5 -74t-50 -71.5t-50 -72t-45.5 -74.5q-11 -19 -14 -40t-10 -41q52 -4 104.5 -4.5t105.5 -0.5l-186 -132h-111.5t-102.5 3q-10 -22 -8 -46.5t13.5 -46.5t30 -39t41.5 -25h9q69 6 135.5 4.5t136.5 -1.5l-186 -132h-215h-10.5 t-10.5 -1q-2 -26 -4.5 -51t-3.5 -51q-1 -17 -0.5 -35t-5.5 -35q13 -14 25 -27.5t26 -27.5q12 -9 24.5 -16t27.5 -11q34 -2 66.5 -1t65.5 -6l-245 -127q-14 3 -28.5 3t-29.5 -0.5t-29.5 -0.5t-29.5 2q-33 5 -57 19t-45 34q-149 -58 -309 -58l186 132h27.5t27.5 1h4.5t5.5 1 l3 2l4 3q3 14 3 26.5v26.5q2 32 4.5 63.5t5.5 63.5q-17 18 -33.5 37.5t-39.5 32.5q-11 6 -23.5 3.5t-24.5 -2.5h-183zM402 667q5 -1 9.5 -1h9.5q-2 1 -6 1h-13zM467 736q-4 -2 2.5 1.5t9.5 5.5zM920 796h10t10 1q-5 0 -10 -0.5t-10 -0.5z" />
<glyph unicode="&#xa6;" horiz-adv-x="543" d="M281 28v458l283 95v-458q-71 -23 -141 -47t-142 -48zM281 960v368l283 95v-368q-71 -23 -141 -47t-142 -48z" />
<glyph unicode="&#xa7;" horiz-adv-x="1163" d="M167 -104l278 109q20 -25 43 -51t49 -47t56.5 -35t66.5 -15q9 10 16 30.5t12.5 43.5t9 45.5t4.5 36.5q1 11 1 22.5t3 21.5q1 5 5 13q-27 58 -59.5 105t-81.5 88q-43 36 -92 67t-97 64t-90 71t-72 89q-35 60 -45.5 121t-0.5 119t37.5 111t68.5 97.5t93 78.5t111 55 q5 25 11 52.5t15.5 54t22.5 50t31 41.5q55 54 127.5 89t147.5 49q63 11 118.5 11.5t105.5 -14t95 -45.5t87 -82l-278 -109q-28 35 -60 61.5t-74 41.5q-19 7 -31 10q-8 -18 -15.5 -41t-13.5 -46.5t-9 -44t-2 -34.5q1 -18 8 -35t16 -33q21 -35 51.5 -59t58.5 -52 q40 -35 84.5 -65t87.5 -62t81.5 -68.5t66.5 -82.5q18 -29 32 -66t12 -72q-2 -27 -6 -54l-1 -3v-8l-4 -20q-5 -32 -12 -63q-9 -41 -23.5 -80.5t-36.5 -74.5t-51 -65t-67 -51q-34 -20 -72 -35v-7l-1 -2q1 0 0.5 -5.5t-0.5 -8.5q-2 -15 -6 -30q0 -2 -1 -7t-1 -3l3 18v-4l-1 -3 l-1 -12l-3 -16q-2 -11 -4 -22.5t-5 -22.5q-5 -22 -12.5 -45.5t-21.5 -40.5q-41 -52 -99.5 -91.5t-125.5 -64.5t-138 -35t-136 -3q-34 3 -66.5 14.5t-63.5 25.5q-42 21 -75 58t-61 72zM453 849.5q-6 -73.5 21 -141.5q22 -57 62 -100t88 -79t99.5 -68.5t97.5 -66.5 q36 -27 63 -55.5t50 -61.5q11 30 20.5 65.5t15 72t5 72.5t-8.5 67q-13 46 -42.5 85t-67.5 72t-79.5 61.5t-77.5 54.5q-26 20 -51 40.5t-51 40.5q-26 22 -50.5 47t-41.5 54q-5 -7 -8 -12.5t-5 -9.5q-33 -64 -39 -137.5zM563 1073l1 1zM574 1083l4 3zM578 1086l2 1zM872 94 l12 3h-3z" />
<glyph unicode="&#xa8;" horiz-adv-x="819" d="M289 1300q0 62 43 107q41 45 119 47q79 -2 122 -47q39 -45 39 -107q0 -59 -39 -104q-43 -47 -122 -47q-78 0 -119 47q-43 45 -43 104zM780 1300q0 62 43 107q41 45 119 47q80 -2 123 -47q39 -45 39 -107q0 -59 -39 -104q-43 -47 -123 -47q-78 0 -119 47q-43 45 -43 104z " />
<glyph unicode="&#xa9;" horiz-adv-x="1687" d="M172 632q-5 77 5 153.5t36 148.5q45 125 122.5 219t178 160.5t218 107t241.5 58.5q128 11 245.5 -9.5t227.5 -88.5q16 -10 36.5 -26.5t39.5 -33t33.5 -30t18.5 -17.5q16 -14 26.5 -23.5t19.5 -21.5t20.5 -30t29.5 -50q34 -59 57 -128q22 -66 31 -138t6 -141 q-3 -71 -20.5 -147.5t-46.5 -141.5q-49 -108 -129.5 -191.5t-180.5 -143.5t-212.5 -95.5t-225.5 -47.5q-101 -11 -195.5 5.5t-178.5 55.5t-154.5 99t-123.5 136.5t-85.5 167.5t-39.5 193zM458.5 687.5q12.5 -107.5 56.5 -207.5t119 -179q30 -32 73 -63.5t91 -58.5t97.5 -46 t93.5 -25q11 -2 18 -2.5t14.5 -1.5t16.5 -1h23t27.5 2.5t27.5 0.5l37 6q8 2 18 5t17 6q21 14 43 27t42 30q64 57 107.5 128t68 150.5t31 163.5t-4.5 166q-8 63 -27 121.5t-48 112.5q2 -16 2.5 -31.5t3.5 -29.5q-71 -23 -141 -47t-142 -48q-5 22 -5.5 41.5t-4 37t-12 34 t-28.5 32.5q-11 9 -24 17t-27 12q-12 4 -20.5 6t-16.5 3.5t-16.5 2.5t-20.5 3q-23 -25 -38 -57.5t-25 -64.5q-15 -51 -21 -103t-1 -103.5t21.5 -101.5t46.5 -95q29 -45 72 -73.5t97 -35.5q4 -2 13 -2q3 7 3.5 9.5t2.5 10.5q7 24 11 49t12 48l280 79q-8 -23 -12.5 -46.5 t-10.5 -46t-16 -43.5t-29 -39q-35 -33 -83 -61.5t-103 -49t-114 -32t-116.5 -11.5t-111 13t-97.5 42q-29 19 -51 45.5t-39 57t-29 63t-21 64.5q-18 70 -12 143q5 52 17.5 102.5t34.5 96.5t53.5 86t74.5 71q33 24 76 45t91 36.5t99.5 25.5t101.5 11t96.5 -7.5t84.5 -28.5 l7 -4q-45 51 -99.5 91.5t-117 67t-131 38t-140.5 5.5q-24 -3 -46.5 -8.5t-44.5 -16.5q-66 -39 -115 -94.5t-85 -123.5q-50 -96 -69 -204t-6.5 -215.5z" />
<glyph unicode="&#xaa;" horiz-adv-x="909" d="M168 635q-4 44 3.5 91.5t21.5 91.5t27 71q69 144 188 230.5t274 117.5q52 11 107.5 8.5t103.5 -26.5q14 -7 26 -19.5t22 -24.5q6 -7 13 -13l8 -4q2 0 5 -0.5t1 -0.5l-25 3q-20 -3 -40 -5.5t-40 -6.5l-39 -14l-75 -39q-3 -3 -6 -6.5t-7 -6.5l-6 -6l280 79q-13 -25 -37 -43 l-39 -178l-3 -1q-3 -29 -5.5 -56.5t-4.5 -56.5q-2 -24 -2.5 -48t-6.5 -47v-3q0 -5 1 -7l230 65q-26 -48 -62 -87t-80.5 -68t-94.5 -48t-104 -27q-17 -3 -37.5 -5.5t-41.5 -2t-40.5 7t-32.5 21.5q-6 8 -13 20.5t-8 22.5q0 11 2 21t3 21q-26 -20 -62 -39.5t-74.5 -35.5 t-77 -26.5t-70.5 -12.5h-3q-10 -2 -20 -3.5t-21 -3.5q-13 -2 -28 -1.5t-30 4t-28.5 10t-23.5 16.5q-24 27 -28 71zM450.5 798q-5.5 -44 4.5 -85l3 -11q19 27 37 54.5t41 51.5q54 57 128 94l30 136l-5 4q-17 11 -26 21.5t-17 19.5t-18 15.5t-28 10.5l-6 -6q-13 -11 -24 -24.5 t-21 -27.5q-26 -39 -47 -81.5t-35 -87.5q-11 -40 -16.5 -84zM728 1072q1 2 2 3q-2 -2 -2 -3zM865 1149q2 0 3 0.5t0 0.5z" />
<glyph unicode="&#xab;" d="M264 440q-3 26 2.5 53t23.5 60q10 18 20.5 33.5t23.5 32.5l4 5t8.5 11t9 10.5l4.5 4.5v-1l7 10.5t4 3.5q3 5 7 9t8 9l44 54q33 43 67 85.5t73 80.5l252 39q-7 -6 -19 -19t-20 -21l-22 -26q-23 -29 -45.5 -58t-45.5 -58q-7 -9 -15 -18.5t-16 -18.5q-4 -5 -8 -10.5 t-9 -10.5l-10 -10l-32 -42q-16 -23 -28.5 -52.5t-7.5 -58.5q5 -28 17 -52.5t23 -50.5q26 -61 53 -122.5t56 -121.5l-278 -109q-27 57 -57.5 122t-52.5 126q-16 32 -27 58.5t-14 52.5zM347 629l1 1q1 1 1 1.5t1 1.5zM359 642q0 1 1 2q-1 0 -1 -1v-1zM684 465q2 29 12.5 55 t26 50t33.5 46.5t36 43.5q50 60 98.5 120.5t99.5 120.5l269 60q-51 -60 -99 -120.5t-99 -120.5q-14 -17 -30 -35.5t-30 -38.5t-23.5 -41.5t-10.5 -44.5q-2 -39 15 -74.5t32 -70.5q24 -56 48.5 -111.5t51.5 -110.5l-278 -109q-27 55 -54 112t-47 114q-9 17 -18.5 36t-17 39 t-12 40t-3.5 40z" />
<glyph unicode="&#xac;" horiz-adv-x="1229" d="M221 666l186 132h742q9 0 18.5 1t19.5 -1q35 -5 50.5 -18t20 -32t2 -43t-2.5 -51v-321q-71 -23 -141 -47t-142 -48v321q0 10 2 25.5t2.5 31t-2 29.5t-10.5 21h-745z" />
<glyph unicode="&#xad;" horiz-adv-x="803" d="M266 447l186 132h308l-186 -132h-308z" />
<glyph unicode="&#xae;" horiz-adv-x="1687" d="M205 611q-12 157 38 305q43 126 120.5 221.5t179 163t220 109t242.5 59.5q26 3 52.5 5t52.5 2q88 0 172.5 -22t160 -63.5t139.5 -101.5t111 -136q18 -29 33 -60t27 -63q22 -60 34 -132t11 -136q0 -33 -4.5 -70t-11.5 -74.5t-17.5 -73.5t-22.5 -66q-47 -117 -127 -207 t-182 -153.5t-219 -101.5t-236 -51q-100 -11 -194 5t-177 54t-153 97t-122.5 134.5t-85.5 165t-41 190.5zM490 699.5q8 -89.5 37 -175t78 -157.5q12 -19 25 -34l58 72q-8 37 -3 77t5 78v412q-17 15 -33 28t-36 24q-20 6 -38 8.5t-38 3.5l219 131q35 -2 71 -7.5t67 -25.5 q47 16 97.5 23.5t91.5 1.5q44 0 91.5 -5.5t86.5 -26.5q27 -14 48.5 -38t33.5 -52.5t13.5 -60t-10.5 -61.5q-11 -26 -27.5 -47.5t-34.5 -41.5q-14 -17 -26.5 -35t-19.5 -40q0 -15 6.5 -27.5t15.5 -24t18.5 -22.5t16.5 -23q12 -21 20.5 -43.5t16.5 -45t18 -44.5t24 -42 q25 -35 62 -46l27 -8q9 26 16.5 52t12.5 54q13 65 15 132t-8.5 133t-33 128.5t-58.5 119.5q-45 72 -105.5 130.5t-133 98t-153.5 57.5t-166 10q-14 -2 -26.5 -4.5t-26.5 -6.5q-9 -2 -17.5 -5.5t-17.5 -7.5q-79 -47 -135.5 -115.5t-91 -150t-47.5 -171.5t-5 -179.5zM658 299 q55 -60 123.5 -105t146.5 -72q42 -14 81.5 -20t84.5 -8h24q3 0 8 0.5t10 1.5q17 2 35 4.5t23 4.5q41 10 70.5 32t62.5 56q43 44 75.5 93.5t55.5 104.5l-232 -93q-26 7 -51.5 17t-46.5 28q-27 24 -43 59q-48 -28 -94.5 -56t-93.5 -57q-36 3 -75.5 8.5t-72.5 24.5 q-24 -9 -45.5 -14t-45.5 -9zM967 558q-3 -30 3 -55t26 -44.5t64 -32.5q4 -2 8 -2.5t8 -1.5q-14 35 -25.5 70.5t-34.5 65.5q-11 14 -23.5 29.5t-20.5 33.5q-2 -33 -5 -63zM973 789h19h52q19 25 31 52.5t5 59.5q-8 44 -36 75t-71 42v-229z" />
<glyph unicode="&#xaf;" horiz-adv-x="819" d="M366 1230l186 132h459l-186 -132h-459z" />
<glyph unicode="&#xb0;" horiz-adv-x="768" d="M203.5 965.5q-10.5 60.5 1.5 118.5q4 16 9.5 31t10.5 30q22 58 71 102.5t109.5 75t126 48t122.5 22.5l-73 -63l111 66q39 -1 77.5 -6t73.5 -24q58 -30 94 -81t49.5 -110t4 -121.5t-42.5 -115.5t-84.5 -93.5t-112.5 -68t-126.5 -42.5t-125.5 -16q-17 -1 -34.5 -1t-34.5 3 q-62 10 -109 46.5t-77 87.5t-40.5 111.5zM484 1076.5q5 -37.5 18.5 -73.5t34.5 -67q22 -33 54.5 -54.5t70.5 -30.5q20 25 31 57.5t16 61.5q11 72 -13 139.5t-83 113.5q-11 9 -26 18.5t-30 13.5l-29 7q-6 -10 -12 -19t-11 -19q-16 -35 -21 -72.5t0 -75zM725 854q2 0 3 1 q2 1 1 0.5t-4 -1.5z" />
<glyph unicode="&#xb1;" horiz-adv-x="1229" d="M234 13l186 132h825l-186 -132h-825zM234 637l186 132h173v235l283 95v-330h369l-186 -132h-183v-220q-71 -23 -141 -47t-142 -48v315h-359z" />
<glyph unicode="&#xb2;" horiz-adv-x="823" d="M166 591q4 57 33.5 102.5t72 82t92 65.5t93.5 53q23 13 47.5 27t47 30.5t41 36.5t30.5 45t16 53.5t1 57t-13.5 55.5t-28.5 49q-18 24 -40 34q-11 -14 -22 -27.5t-22 -27.5l-269 -60q14 20 28.5 39.5t31.5 37.5q36 40 80.5 70.5t93.5 52.5t102 35t106 17q37 3 69 0 t59.5 -15t49 -35t37.5 -59q22 -51 22.5 -96t-15 -84.5t-43.5 -74t-63.5 -65t-75.5 -56.5t-78 -48q-30 -18 -64 -36t-63 -40.5t-49.5 -52t-23.5 -70.5q59 0 118.5 3t119.5 0l17 22l269 60q-30 -42 -67 -79t-83 -61q-14 -8 -28 -15.5t-29 -13.5q-8 -4 -15.5 -7t-15.5 -6l10 4 h-2q-33 -12 -56 -20.5t-53 -13.5q-10 -2 -20 -3.5t-21 -3.5h-12h-17.5t-19 0.5t-15.5 0.5q-10 0 -15 1h-1h-255q-15 0 -31 -1t-30 4q-12 5 -22 10.5t-9 22.5zM644 648q1 0 2 1zM699 576q2 1 5.5 2.5t8 3l7.5 2.5l-20 -8q-3 -1 -1 0zM720 584l1 1l14 5z" />
<glyph unicode="&#xb3;" horiz-adv-x="823" d="M161 644l278 109q22 -25 41 -52t48 -46q18 -11 36 -17q16 23 25.5 52.5t7.5 57.5q-2 25 -13.5 47.5t-26 44t-28.5 41t-21 38.5q-48 -1 -96 0.5t-95 12.5l245 127l18 -4q4 -1 8 -1h8q21 20 32.5 35.5t14.5 32t-1 36t-13 46.5l-2 3v1l-3 7v1q-2 6 -2 8q0 -1 0.5 -1.5 t0.5 -1.5l1 -1q0 -1 2 -5q4 -10 2 -8q0 -1 1 -1q0 -1 -2 1q0 2 -0.5 2.5t-0.5 2.5l-2 3v1q-5 11 -12.5 26.5t-15.5 23.5q-7 6 -14 13.5t-16 12.5q-8 -8 -14.5 -16.5t-13.5 -16.5l-269 -60q74 94 172 147t213 81q20 5 43 8t46.5 1.5t45.5 -7t40 -16.5q13 -8 23.5 -17.5 t21.5 -20.5q12 -11 20 -28.5t12 -33.5t12 -31t10 -32q2 -24 -4 -45t-17.5 -40t-26 -36.5t-29.5 -33.5q-8 -8 -18.5 -17.5t-21.5 -16.5l-11 -6q-2 -2 -4 -3.5t-3 -3.5q-4 -4 -6 -5q-1 -14 6 -29t16.5 -29.5t20 -28t17.5 -24.5q23 -40 29.5 -78.5t-7.5 -83.5q-10 -33 -29 -62 t-44 -53.5t-54.5 -44t-59.5 -33.5q-46 -22 -96.5 -41t-103 -29t-105 -6.5t-101.5 27.5q-19 9 -34 22.5t-28.5 29.5t-26 32.5t-26.5 31.5zM620 1228q0 -3 1 -4q0 2 -0.5 3t-0.5 2v-1zM623 1221l3 -6q0 -2 2 -8v1q-2 2 -2 4q-2 4 -2 6q-1 2 -1 3zM733 1015.5q-4 -2.5 4 1.5 l40 21q5 4 9.5 7.5t9.5 6.5q-12 -6 -25.5 -14t-23.5 -14t-14 -8.5zM803 1057l1 1q-1 0 -1 -1z" />
<glyph unicode="&#xb4;" horiz-adv-x="819" d="M442 1124l383 303l228 18l-383 -303z" />
<glyph unicode="&#xb5;" horiz-adv-x="1298" d="M18 -436q25 33 38 71t19 78t7.5 81.5t4.5 80.5q2 24 3 47.5t8 46.5q12 39 39 64.5t60 45.5l28 17q5 38 7.5 75.5t8.5 75.5q6 35 14.5 70t17.5 69q25 93 50.5 185t32.5 188q2 11 3.5 21.5t1.5 21.5q-17 27 -46 46.5t-61 24.5q-11 2 -21 0.5t-21 -1.5q-4 0 -10 -0.5 t-8 -0.5h-12l186 132h13.5t30 0.5t30 1l13.5 0.5q28 0 58 -6.5t53 -21.5q10 -6 16 -10.5t14 -12.5l12 -12l113 9l-77 -63q0 -5 -1 -9.5t-1 -8.5q-2 -12 -4 -20l2 12q1 4 0 -3t-1 -11l-6 -50q-5 -33 -12 -66t-15 -66q-18 -78 -40 -154t-39 -154q-10 -47 -12.5 -93.5 t-8.5 -94.5q5 -3 10 -7l10 -8q5 -5 9 -9.5t8 -9.5q2 -1 4 -3.5t6 -5.5q42 42 72.5 92.5t59.5 99.5q7 34 31 66t56.5 58.5t68.5 47t69 32.5l60 203q9 30 15.5 60t18.5 58q4 10 19 25.5t35 32.5t42.5 35t43 33.5t36 26.5t21.5 16l228 18q-26 -20 -51 -40t-51 -40 q-11 -8 -24.5 -15.5t-20.5 -20.5q-14 -26 -19 -54.5t-13 -55.5q-22 -76 -44 -151t-45 -150q-1 -61 -10.5 -121.5t-19.5 -120.5q-2 -18 -5 -33.5t-4 -30t1.5 -28.5t11.5 -27q15 20 27 42t23 42l280 79q-34 -64 -73 -112.5t-86.5 -85t-105 -61.5t-128.5 -43 q-22 -6 -52.5 -10.5t-62 -3.5t-59 10.5t-42.5 33.5q-10 16 -13.5 31.5t-3 31.5t3 32.5t5.5 33.5q2 17 5 33t6 33q-19 -24 -39 -47t-43 -43q-46 -41 -101 -69t-112 -47q-46 -16 -94.5 -26t-98.5 -9q0 -6 -0.5 -12t-1.5 -12q0 -4 -0.5 -7t-0.5 -7q-4 -43 -6.5 -86t-10 -84.5 t-22 -80.5t-42.5 -75zM517 98l7 3z" />
<glyph unicode="&#xb6;" horiz-adv-x="1188" d="M386 830q0 32 14 63.5t26 59.5q80 179 202 336l269 60q-54 -71 -99.5 -144.5t-83.5 -154.5q-13 -28 -26.5 -57t-17.5 -60q-3 -20 3.5 -39.5t6.5 -39.5q-71 -23 -141 -47t-142 -48q0 4 -1.5 11t-1.5 10q-1 0 -1 2q0 1 -1 7t-2.5 14t-2.5 15.5t-1 11.5zM421 -259l186 132 h22t22 1q0 10 3 21q17 64 30.5 127.5t27.5 127.5q38 172 75 342.5t75 341.5q17 75 34 148.5t33 148.5q4 21 8.5 48.5t10.5 56.5t14.5 55t20.5 44q16 24 50 44t74 36t80 27t67 16q48 10 97 9.5t97 -0.5l-186 -132h-29v-1l-1 -6q-1 -2 -1 -4v-6q-1 -5 -1.5 -9t-2.5 -9 q-11 -71 -28 -141t-33 -140q-30 -134 -59.5 -267t-58.5 -267q-18 -86 -35 -171t-40 -170q-8 -32 -14.5 -65t-14.5 -65q-5 -21 -10 -39v-3v-3q0 -2 -0.5 -3.5t-0.5 -3.5v-1q-1 -8 -2 -15.5t-3 -15.5q-7 -43 -41 -72q-56 -46 -127.5 -70.5t-141.5 -35.5q-49 -8 -98 -9.5 t-99 -1.5zM765 -119q2 1 3 1t-1 0q-1 0 -2 -1zM1255 1391l2 1z" />
<glyph unicode="&#xb8;" horiz-adv-x="819" d="M192 -511l186 132q1 0 2 0.5t3 0.5q12 20 16.5 44.5t1.5 47.5t-15 43t-34 31q-6 2 -12 4.5t-12 5.5q-19 7 -26 20.5t-5.5 29.5t8.5 34.5t17 35.5t20.5 31.5t17.5 23.5l269 60q-15 -21 -28.5 -42.5t-21.5 -45.5v-8.5v-4t1 -3.5t3 -7q10 -5 20.5 -7.5t19.5 -9.5 q24 -17 39.5 -42t22.5 -54q4 -14 2.5 -29t-6.5 -29q-3 -9 -7 -18q-1 -3 -2 -8t-1 -3q-5 -15 -13.5 -30.5t-17.5 -27.5q-18 -25 -42.5 -45t-50.5 -35q-81 -48 -171 -70t-184 -25zM354 -406q-2 -1 1 0t7 3z" />
<glyph unicode="&#xb9;" horiz-adv-x="823" d="M194 507l186 132q5 0 10.5 0.5t11.5 0.5q-1 15 1.5 31.5t5.5 34.5q11 67 25.5 131.5t27.5 130.5q12 51 21 104l5.5 33l5 30t4.5 31t5 37q-2 2 -2.5 3t-2.5 2l-5 2q-20 6 -14 20l-9 8q-5 5 -10 8.5t-10 7.5q-1 0 -2 1t-5 3q-5 1 -9.5 1.5t-9.5 0.5q-14 1 -28 -0.5 t-28 -1.5l183 130q-5 -1 -8.5 -1h-7.5q-5 0 2.5 0.5t14.5 1.5l2 1q4 0 10 0.5t10 0.5q5 0 10 0.5t10 0.5q18 1 32 0.5t31 -2.5q43 -6 71 -27l172 27l-116 -105q-14 -94 -32 -186t-38 -185q-6 -29 -11.5 -57.5t-10.5 -58.5q-2 -10 -2.5 -19.5t-1.5 -20.5l-3 -16q0 -1 -0.5 -2 t-0.5 -3q-1 -2 -1 -3q-1 -13 3 -23t11 -21q11 -17 27.5 -27.5t36 -15.5t39.5 -6.5t39 -1.5l-186 -132q-24 0 -52.5 1t-57.5 5.5t-55.5 14t-46.5 27.5q-116 -44 -247 -48zM435 1262l1 -1zM449 1256q4 -1 7.5 -2.5t1.5 -0.5z" />
<glyph unicode="&#xba;" horiz-adv-x="844" d="M226 753q2 39 9.5 75.5t21.5 71.5q28 70 69.5 124t95 94.5t116.5 68.5t134 46l-43 -77l125 89q34 2 69.5 -1.5t65.5 -22.5q30 -18 52.5 -45.5t38 -60.5t22.5 -68.5t6 -69.5q-2 -28 -10 -55t-18 -53q-57 -151 -166 -241t-269 -119q-26 -5 -56 -8.5t-60 -2.5t-58.5 7.5 t-52.5 22.5q-21 15 -38.5 42.5t-30 59.5t-18.5 64.5t-5 58.5zM509 848q-1 -19 4.5 -49t15.5 -60t23.5 -55.5t30.5 -35.5q8 -4 15.5 -7.5t15.5 -5.5q22 26 38 53.5t30 58.5q16 36 27.5 70t14.5 67.5t-4.5 67.5t-27.5 72q-14 27 -33.5 48.5t-45.5 32.5l-3 -4 q-24 -26 -41.5 -57.5t-31.5 -64.5q-25 -63 -28 -131zM653 1138l2 1z" />
<glyph unicode="&#xbb;" d="M117 86q44 60 90.5 116t93.5 113q21 26 41.5 51.5t33.5 52.5t16.5 57t-8.5 66q-30 75 -64.5 147.5t-63.5 147.5l278 109q23 -61 50 -120t53 -119q14 -30 26.5 -60t13.5 -65q1 -26 -7.5 -52t-21.5 -49q-28 -50 -67 -94.5t-74 -88.5q-31 -38 -61.5 -75.5t-59.5 -76.5z M546 94q35 38 66 77.5t63 80.5q18 25 37 46q3 4 6 7.5t7 7.5q2 2 6 7.5t2 2.5q0 -1 -0.5 -1t-0.5 -1l2 3q2 4 6 7.5t7 7.5q13 17 25 33t23 34q18 30 22 53.5t0 46t-13.5 45.5t-19.5 51q-11 23 -20 47t-19 47q-14 36 -30 70t-35 68l278 109q28 -52 49.5 -105t44.5 -107 q9 -22 18.5 -43t17 -42t11 -43.5t-0.5 -47.5q-5 -35 -20.5 -65t-36.5 -58q-9 -13 -18.5 -25.5t-20.5 -24.5q-4 -5 -8 -10.5t-9 -10.5l-2.5 -2.5t-3.5 -2.5l-10 -13l-37 -47q-32 -43 -65.5 -83.5t-68.5 -79.5zM722 303q0 1 1 2q-1 0 -1 -1v-1zM993 372q1 0 1 1h1zM996 375 l2 2z" />
<glyph unicode="&#xbc;" horiz-adv-x="1925" d="M239 577l186 132h6t9 1q-2 29 5 57.5t12 57.5q11 52 23 103.5t23 102.5q8 32 15.5 62.5t12.5 62.5q5 29 3.5 59t9.5 58q-14 14 -27.5 29.5t-30.5 24.5q-19 4 -38 2.5t-38 -1.5l183 130q-4 0 -7.5 -0.5t-7.5 -0.5q-5 0 2.5 0.5t13.5 1.5l2 1q4 0 10.5 0.5t10.5 0.5 q8 1 14 1.5t12 0.5t14 -0.5t21 -0.5q32 -1 54 -9.5t40 -22.5l166 37q-21 -29 -48.5 -49t-52.5 -45q-8 -9 -12 -19t-7 -21q-2 -25 -2 -49.5t-5 -48.5q-14 -81 -35.5 -159t-36.5 -159q-4 -26 -10 -52.5t-6 -51.5t10 -46.5t40 -37.5q14 -7 21 -9l21 -6q15 -4 30.5 -4.5 t30.5 -0.5l-186 -132q-30 0 -60 1t-60 9q-22 5 -44.5 13.5t-41.5 23.5q-57 -21 -117.5 -33t-127.5 -14zM495 50l959 1345l269 60l-959 -1345zM1038 287q-1 21 12.5 44.5t32 47t39.5 44.5t35 37q20 23 41.5 46t42.5 46q26 28 52 57t54 56t58 50.5t65 41.5q25 13 51.5 22 t52.5 20q33 12 70 15q32 3 50.5 2t32.5 -9l105 30q-27 -50 -41.5 -100.5t-25.5 -106.5q-3 -19 -6 -37.5t-7 -36.5q-1 -11 -5 -24v-3q-1 -2 -1.5 -6t-0.5 -3q-5 -23 -10.5 -46.5t-4 -44t14 -36.5t43.5 -23q14 -2 27 -2h27l-159 -113q0 -25 3 -42.5t12 -30.5t25.5 -23 t44.5 -19l28 -3q-55 -32 -109.5 -65t-109.5 -66q-33 2 -67 10.5t-60 28.5q-112 -40 -230 -40l179 127q-1 12 -0.5 24t1.5 24l-6 -2l2 6t3 7q-9 10 -17.5 20t-18.5 18q-6 6 -13 9q-6 -2 -9 -2q-34 -9 -69 -4.5t-70 4.5q-2 0 -4.5 -0.5t-3.5 -0.5h-2q-11 -2 -26 -1.5t-23 0.5 q-15 0 -33 1t-33.5 5.5t-26.5 15t-12 31.5zM1323 394.5q-6 -14.5 1 -27.5l11 -3q19 3 39 3q19 3 37.5 3.5t38.5 -0.5q4 28 10.5 54.5t11.5 52.5l10 58t11 58q-57 -63 -110 -125q-7 -8 -19.5 -20t-23.5 -25.5t-17 -28z" />
<glyph unicode="&#xbd;" horiz-adv-x="1925" d="M200 518l186 132h21q7 29 7 57t5 57q7 43 17.5 85t21.5 84.5t21 84.5t16 85q4 22 3 44t3 43q2 7 3.5 13.5t3.5 12.5q-11 14 -25.5 28t-29.5 24q-20 5 -39.5 3t-39.5 -2l183 130q-4 0 -7.5 -0.5t-7.5 -0.5q-5 0 2 0.5t14 1.5l2 1q5 0 12.5 0.5t10.5 0.5q15 2 26 2t34 -1 q28 -1 50 -8t41 -20l167 26q-18 -17 -38 -31t-39 -31l-20 -17q-3 -6 -11 -20t-10 -26q-8 -109 -32 -215.5t-50 -211.5q-3 -33 -3.5 -67t-13.5 -65l2 1q22 -23 36 -36t29 -20.5t34.5 -9.5t54.5 -2l-186 -132q-48 0 -96 2.5t-90 29.5q-8 4 -14 11q-122 -43 -254 -43zM422 -13 q241 340 481 676.5t481 676.5l269 60q-241 -341 -480.5 -677t-481.5 -676zM1134 54q1 11 4 21t5 17q15 45 44.5 79.5t64.5 63.5q29 24 61 44.5t64 38.5q41 22 85 46t79 55.5t54.5 72.5t11.5 97q-2 17 -6 33.5t-12 30.5q-11 25 -26 43t-36 34q-3 0 -4 1q-11 -13 -20.5 -26.5 t-19.5 -27.5l-269 -60q64 89 143 147.5t189 86.5q40 10 82.5 16t84.5 1q18 -2 39.5 -4.5t38.5 -13.5q30 -18 52 -47.5t34.5 -64t14.5 -71.5t-8 -70q-12 -40 -36.5 -75t-53.5 -64q-48 -46 -105.5 -81t-115.5 -65q-20 -11 -39 -22t-38 -23q-12 -10 -27.5 -25.5t-28 -33.5 t-20 -37t-3.5 -36q58 0 117 3t118 0l16 24l269 60q-49 -74 -117 -123t-153 -74q-28 -8 -54.5 -14.5t-55.5 -9.5h-11t-19 0.5t-18.5 0.5h-8.5q-3 0 -9 0.5t-4 0.5h-147q-3 0 -16.5 -0.5t-33 -1t-42 -0.5t-43.5 1.5t-37.5 4.5t-23.5 9t-9 16.5t-1 21.5zM1605.5 93.5 q1.5 0.5 3.5 1.5l-3 -1q-2 -1 -0.5 -0.5z" />
<glyph unicode="&#xbe;" horiz-adv-x="1925" d="M238 704l278 109q21 -29 44 -57t55 -46l11 -5.5t11 -4.5q14 20 21 42.5t12 47.5q4 24 -5 47.5t-23.5 47t-30.5 47.5t-25 49q-14 0 -26 3q-23 0 -45.5 2.5t-45.5 3.5q-5 0 -9.5 0.5t-9.5 -0.5q-3 0 -8.5 -1t-10 -1.5t-7 -1t0.5 0.5l83 18l16 99q37 12 75.5 16t77.5 2 q6 4 12 12l16 19l7 14l4.5 10.5t2 6t1 6l1.5 10.5q4 22 -7.5 48t-20.5 45q-8 18 -22 33.5t-31 25.5q-6 -7 -11.5 -15t-9.5 -13l-269 -60q33 46 75 82t90.5 63t101.5 45.5t107 31.5q52 13 105.5 7.5t97.5 -37.5q12 -9 26 -28.5t26 -42.5t19.5 -46t6.5 -38q-2 -36 -19 -69 q-15 -31 -41 -55.5t-52 -46.5l-20 -16q-3 -5 -6 -11t-7 -11l4 2q5 -24 17.5 -44.5t26 -40t25.5 -40t18 -44.5q5 -23 1.5 -49.5t-11.5 -48.5q-19 -60 -63 -104.5t-99.5 -76t-117 -51.5t-116.5 -30q-45 -8 -90.5 -4t-87.5 21q-43 19 -72.5 52t-56.5 70zM562 40 q131 168 250 342t242 348q58 83 118 164.5l120 163t119 164t114 167.5l269 60q-55 -86 -113.5 -168.5t-118.5 -164t-120.5 -162.5t-118.5 -164q-122 -174 -241 -348t-251 -342zM570 1356h2h-2zM717.5 1118.5q0.5 -0.5 1.5 -0.5h2l-3 1q-1 0 -0.5 -0.5zM721 1118h4h-4z M794 1111q11 -1 15 -1t-10 2q-2 0 -2.5 -0.5t-2.5 -0.5zM1099 256.5q-7 14.5 0 40.5q7 25 22.5 48t34.5 44.5t39.5 41.5t37.5 39q38 43 77 88.5t81.5 86.5t91 75.5t104.5 54.5q22 8 47.5 16.5t51.5 14t52.5 5.5t49.5 -9q9 -4 16 -9l80 23q-20 -36 -31.5 -74t-20 -77 t-15 -78.5t-15.5 -78.5q-1 -2 -2 -6.5t-1 -3.5q-2 -9 -5 -20t-4 -22q-4 -39 7.5 -62t51.5 -34q13 -2 26 -2h26l-154 -109q6 -32 -6 -62l3 1q25 -24 50.5 -41.5t61.5 -19.5q-55 -32 -109.5 -65t-109.5 -66q-37 2 -64 10.5t-52 25.5q-60 -20 -121.5 -28.5t-123.5 -8.5l186 132 h8q1 10 -3 22t-10 23t-12.5 20.5t-12.5 15.5q-3 5 -9 9.5t-11 7.5q-38 -3 -77.5 -1t-77.5 2q-2 0 -3.5 -0.5t-2.5 -0.5h-2q-5 -1 -12.5 -1.5t-15.5 -0.5t-15 0.5t-10 0.5q-20 0 -40 2t-35 9t-22 21.5zM1376.5 367q-0.5 -6 2.5 -9l16 -4l45 5q16 4 33 5t34 0q2 17 6.5 34.5 t9.5 33.5q3 8 5.5 21t4.5 26.5t4 25.5t3 19q2 15 5 30t6 29q-1 0 -1 -1l-33 -37l-20 -21q-1 -1 -3.5 -4.5t-5.5 -6.5l-3 -4l-4.5 -4.5l-4.5 -4.5l-10 -13q-20 -21 -41.5 -41.5t-35.5 -45.5q-2 -3 -4.5 -8.5t-5 -12t-3 -12.5zM1441 92l10 7q-3 -2 -5.5 -3.5t-4.5 -3.5z" />
<glyph unicode="&#xbf;" horiz-adv-x="930" d="M74 -197q0 13 3.5 25t7.5 24q20 62 63 110t93 87q33 26 67 47.5t69 42.5q9 6 18 11.5t18 10.5l2 1l4 3q8 5 16.5 10t16.5 10l13 9l7 6q10 10 17.5 20t15.5 21q13 26 25 54.5t11 57.5q0 24 -10.5 42t-27.5 30.5t-38 19t-42 7.5q-29 -5 -58.5 -10.5t-59.5 -7.5l148 129 q36 3 73 9.5t74 10t73.5 0t70.5 -21.5q62 -31 74.5 -83t-12.5 -112q-32 -80 -89 -131.5t-130 -91.5l-2 -1q-5 -3 -18 -11t-28 -17t-29.5 -18t-20.5 -13q-27 -20 -48 -39t-37 -40.5t-27.5 -47t-19.5 -58.5q2 -18 9 -43.5t16.5 -51.5t21.5 -49t24 -37q14 -15 36.5 -24.5 t42.5 -11.5q23 23 45.5 49.5t40.5 53.5q1 6 6 9l250 39q13 15 16.5 18.5t1.5 0.5t-6.5 -9l-7.5 -10q-29 -38 -60.5 -76.5t-69.5 -68.5q-87 -66 -192 -104.5t-215 -34.5q-43 1 -89 14t-77 46q-17 20 -27 45t-19 48q-11 23 -19.5 49.5t-10.5 52.5zM455 185q-1 -1 2 1 q-1 0 -2 -1zM504 823q0 96 57 152q55 53 133 53q92 -2 137 -47q41 -45 41 -115q-2 -94 -55 -147q-57 -55 -141 -55q-88 0 -129 51q-43 45 -43 108z" />
<glyph unicode="&#xc0;" horiz-adv-x="1298" d="M-79 -6l174 124l3 16q7 42 25 78t37 72q15 28 30.5 54t31.5 53l12 23l2 4l1.5 2.5t3.5 6.5t4 7.5t2 5.5q6 13 11 25l10 24q14 29 30.5 51t39.5 39q19 67 51 127.5t64 122.5q32 61 63.5 122.5t63.5 121.5q21 39 37.5 68t35.5 51.5t45.5 41t67.5 37.5q24 13 53 27.5 t60.5 28t64.5 23.5t65 13l111 37q-6 -116 6 -231.5t23 -231.5q2 -24 7 -49.5t8.5 -51.5t4 -51.5t-6.5 -49.5l3 1q8 -17 11.5 -34t4.5 -34.5t1.5 -35.5t2.5 -36q11 -94 19 -187t10 -188q-1 0 -1 -1q15 -8 27 -19q2 -2 4.5 -3.5t3.5 -4.5q11 -7 22 -18l1 -1q0 -1 1 -1l4 -3 l36 -25q24 -14 52.5 -19t55.5 -5l-186 -132q-54 0 -107 8.5t-98 39.5l-13 9q-66 -31 -138 -43t-145 -10h-13.5t-13.5 1q-2 0 -5.5 0.5t-1.5 0.5q6 0 11.5 0.5t11.5 -0.5l185 131h11q3 3 6 7t7 7q-3 91 -10.5 180.5t-18.5 180.5q-1 10 -1 19.5v19.5q-45 -10 -83.5 -16 t-84.5 0q-3 0 -6 0.5t-6 0.5h-191l-12 -25q-17 -35 -37.5 -68.5t-40.5 -68.5q-10 -18 -19 -36t-18 -37l-19 -44l-3 -13q0 -2 -0.5 -3.5t-0.5 -3.5v1q1 5 1 10t2 10q0 -1 -0.5 -5t-1.5 -9q0 -3 -0.5 -5.5t-0.5 -1.5q-1 -2 -1 -6v-2q-4 -40 -18 -67q32 -22 65.5 -23.5 t74.5 -1.5l-186 -132q-26 0 -51.5 -0.5t-51 1t-50 7t-46.5 16.5q-47 -14 -96.5 -19t-98.5 -5zM248 440q1 0 1 1zM592 1737l265 120q103 -53 204.5 -105.5t204.5 -106.5l-265 -120q-103 54 -204.5 106.5t-204.5 105.5zM619 662l22 -3q3 0 7.5 -0.5t10.5 -1t9 -0.5h214 q2 10 2 15q2 18 0.5 36t-4.5 35q-14 92 -25.5 183.5t-16.5 184.5q-20 -38 -39 -76.5t-39 -76.5q-39 -73 -78.5 -145t-62.5 -151zM822 1237q0 -1 1 -1zM823 1236h1h-1zM833 1234q1 0 1 -0.5t1 -0.5v1h-2zM869 75.5q1 0.5 2 1.5q-1 -1 -2 -1q-1 -1 0 -0.5zM942 106l2 -1z M1025 127q2 1 3 1t-1 0q-1 0 -2 -1z" />
<glyph unicode="&#xc1;" horiz-adv-x="1298" d="M-88 2l174 123q0 6 1 10q5 35 17 61.5t29 58.5q26 51 54.5 99.5t52.5 99.5q17 37 36 74t55 60q12 55 37 103.5t53 98.5l7 14q11 21 21 42t21 41q36 72 73 143t80 140q14 22 28.5 39.5t36.5 31.5q9 6 18 11.5t18 10.5l12 6q3 3 3 1l-2 -1l29 17q8 4 14 7.5t11 6t11 5 t14 6.5q18 8 40 17.5t46 17.5t49.5 14.5t49.5 9.5l110 37q-6 -109 3.5 -215t23.5 -214q3 -22 7.5 -54t7.5 -65.5t4 -64.5t-4 -51l3 1q14 -30 15.5 -61t3.5 -63q1 -26 4.5 -51.5t5.5 -51.5q4 -44 7 -87.5t6 -88.5q2 -28 6.5 -54.5t-1.5 -54.5q19 -14 35.5 -29t34.5 -28.5 t37.5 -24t44.5 -15.5q16 -1 32 -1h33l-186 -132q-27 0 -53 0.5t-51.5 3.5t-50.5 10t-49 21q-14 8 -29 21q-69 -29 -142 -42.5t-147 -13.5l186 132h14q3 3 5.5 6.5t4.5 6.5q4 10 4 26t-2.5 34t-5.5 35.5t-4 29.5q-4 64 -12 127t-10 126v22q-29 -6 -49.5 -10t-39.5 -5.5 t-40 -1t-51 2.5h-193q-8 -21 -18 -38q-31 -59 -66.5 -117t-58.5 -120q-9 -25 -9.5 -51.5t-12.5 -49.5q23 -16 54 -22q21 -2 42.5 -1.5t42.5 0.5l-186 -132q-24 0 -48.5 -0.5t-48.5 1t-47.5 5.5t-45.5 14l-24 -5q-45 -9 -90 -12t-91 -3zM611 669q11 -2 22 -3t22 -1h218 q4 18 2.5 43.5t-4.5 52.5t-7 53t-6 44q-8 66 -15.5 132.5t-12.5 132.5q-35 -63 -66.5 -127.5t-63.5 -128.5q-12 -25 -25.5 -48.5t-26 -47.5t-22.5 -49.5t-15 -52.5zM728 1263l2 1l7 5l-8 -5zM739 1605q51 26 84.5 43.5t56 29t37 19t27.5 14t28 14.5t39 20.5t59.5 31.5 t89.5 48l161 -25q-116 -62 -230.5 -121.5t-231.5 -119.5zM825 1242h1v1zM939.5 664q-1.5 0 0.5 0q1 0 1.5 -0.5t1.5 -0.5q-2 1 -3.5 1zM943 663q4 0 5 -1q-1 1 -5 1z" />
<glyph unicode="&#xc2;" horiz-adv-x="1298" d="M-88 2l174 123q0 6 1 10q5 35 17 61.5t29 58.5q26 51 54.5 99.5t52.5 99.5q17 37 36 74t55 60q12 55 37 103.5t53 98.5l7 14q11 21 21 42t21 41q36 72 73 143t80 140q14 22 28.5 39.5t36.5 31.5q9 6 18 11.5t18 10.5l12 6q3 3 3 1l27 16q8 4 14 7.5t11 6t11 5t14 6.5 q18 8 40 17.5t46 17.5t49.5 14.5t49.5 9.5l110 37q-6 -109 3.5 -215t23.5 -214q3 -22 7.5 -54t7.5 -65.5t4 -64.5t-4 -51l3 1q14 -30 15.5 -61t3.5 -63q1 -26 4.5 -51.5t5.5 -51.5q4 -44 7 -87.5t6 -88.5q2 -28 6.5 -54.5t-1.5 -54.5q19 -14 35.5 -29t34.5 -28.5t37.5 -24 t44.5 -15.5q16 -1 32 -1h33l-186 -132q-27 0 -53 0.5t-51.5 3.5t-50.5 10t-49 21q-14 8 -29 21q-69 -29 -142 -42.5t-147 -13.5l186 132h14q3 3 5.5 6.5t4.5 6.5q4 10 4 26t-2.5 34t-5.5 35.5t-4 29.5q-4 64 -12 127t-10 126v22q-29 -6 -49.5 -10t-39.5 -5.5t-40 -1t-51 2.5 h-193q-8 -21 -18 -38q-31 -59 -66.5 -117t-58.5 -120q-9 -25 -9.5 -51.5t-12.5 -49.5q23 -16 54 -22q21 -2 42.5 -1.5t42.5 0.5l-186 -132q-24 0 -48.5 -0.5t-48.5 1t-47.5 5.5t-45.5 14l-24 -5q-45 -9 -90 -12t-91 -3zM587 1601l190 107q50 28 98.5 54.5t102.5 45.5 q27 10 56 18.5t59 13t59.5 4t58.5 -9.5q37 -11 67.5 -32.5t59 -47t56.5 -51.5t59 -47l-265 -120q-42 29 -77 63.5t-76 64.5q-15 11 -29.5 21t-31.5 18q-57 -32 -113 -63.5t-113 -63.5zM611 669q11 -2 22 -3t22 -1h218q4 18 2.5 43.5t-4.5 52.5t-7 53t-6 44 q-8 66 -15.5 132.5t-12.5 132.5q-35 -63 -66.5 -127.5t-63.5 -128.5q-12 -25 -25.5 -48.5t-26 -47.5t-22.5 -49.5t-15 -52.5zM728 1263l2 1l7 5l-8 -5zM825 1242h1v1zM939.5 664q-1.5 0 0.5 0q1 0 1.5 -0.5t1.5 -0.5q-2 1 -3.5 1zM943 663q4 0 5 -1q-1 1 -5 1z" />
<glyph unicode="&#xc3;" horiz-adv-x="1298" d="M-95 -6l182 129q5 23 9 43t14 43q29 66 65 126.5t71 123.5q12 26 23.5 54.5t33.5 48.5q12 12 26 23q13 48 33.5 93t44.5 89t48.5 87.5t47.5 87.5t45 87t45 86q12 22 24 45t28 41q22 26 52 43.5t61 31.5q23 13 52 27.5t60.5 28t64.5 23.5t65 13l111 37q-3 -63 0.5 -124 t9.5 -121.5t13 -121.5t10 -123l4 -64t5 -64q2 -14 3 -24t-3 -24l4 2q14 -31 15 -62.5t3 -65.5q1 -25 4 -49.5t6 -49.5q5 -44 7.5 -87.5t5.5 -88.5q2 -29 7 -57t-3 -57l4 2q32 -29 66 -55t76 -37q36 -3 73 -3l-186 -132q-43 0 -75 2t-58.5 8t-50 17t-48.5 29 q-69 -30 -143 -43t-148 -13l186 132h15l8 10q7 26 1.5 51t-7.5 51q-1 20 -1 38.5t-2 37.5q-3 44 -8 87l-10 86q-2 14 -2 26.5v26.5q-29 -7 -50.5 -11t-41.5 -5.5t-41.5 -1t-51.5 2.5q-42 0 -90 -2t-99 -1q-12 -28 -30 -58q-32 -57 -66 -114t-50 -120q-2 -20 -5 -42t-12 -39 q32 -20 65 -21.5t73 -1.5l-186 -132q-49 0 -100 1t-96 22q-7 -2 -13.5 -3t-12.5 -2q-89 -23 -180 -23zM458 1560q20 46 52 80.5t71.5 60.5t84.5 44.5t90 32.5q56 16 112 26t115 1q46 -7 88 -22t86 -29q12 -4 24.5 -8.5t26.5 -6.5l16 24t18 23l269 60q-19 -23 -34 -48.5 t-38 -45.5q-41 -36 -92 -64t-106.5 -47t-113 -28t-111.5 -7q-52 2 -100.5 19.5t-98.5 34.5l-26 8t-27 6h-7q-6 -8 -10.5 -17t-8.5 -18zM610 666q14 -2 27 -3t27 -1h210q1 5 0.5 9.5t-1.5 8.5v1q-3 6 -3 11q-1 13 -0.5 26.5t-1.5 25.5q-3 53 -9 106q-7 67 -14.5 133.5 t-12.5 132.5q-23 -43 -44.5 -86t-44.5 -85q-37 -69 -74 -136t-59 -143zM813 1242q0 -1 1 -1zM814 1241h1h-1zM824 1239q1 -1 2 -1v2zM872 686v1v-1z" />
<glyph unicode="&#xc4;" horiz-adv-x="1298" d="M-74 2l159 113q5 21 13.5 43.5t18 43t18.5 38.5l15 30q6 11 11.5 21t10.5 21q11 21 22.5 42t23.5 41l9 16v1l3 4q0 1 0.5 1.5t0.5 1.5q5 9 8.5 15t8.5 14q10 24 18.5 43.5t18.5 35.5t22.5 29.5t29.5 26.5q5 28 15 53.5t22.5 50t26 48.5t26.5 49q12 23 23 45.5t23 45.5 q26 51 51 101t53 99q5 9 13.5 25.5t18.5 35t21 36t21 29.5q34 40 86.5 66t101.5 43q1 0 1.5 0.5t1.5 0.5v1l3 1q7 3 13.5 6.5t13.5 7.5q20 10 53 20.5t68 14.5l132 45q0 -20 -5 -39t-6 -39q-2 -45 2 -90.5t9 -90.5q8 -72 19 -143.5t19 -143.5q2 -26 4 -57t-6 -57l2 1 q11 -26 13.5 -53t5.5 -55q4 -37 9 -73.5t10 -74.5q2 -20 3.5 -34t2.5 -27t2 -26.5t2 -31.5q0 -15 3 -33t5.5 -37t3 -38t-3.5 -34q10 -7 17 -16q21 -18 42.5 -34t44 -28t47.5 -19t54 -7l-186 -132q-57 0 -108.5 10.5t-99.5 41.5q-4 2 -7.5 5t-7.5 6q-71 -30 -148 -43 t-152 -13l186 132h11.5t16.5 1l7 11q5 12 4.5 29t-2.5 35t-5.5 36t-4.5 32q-3 55 -8.5 109.5t-14.5 108.5q-2 13 -3 25.5t-3 26.5q-27 -6 -49 -10.5t-42.5 -6.5t-42.5 -1.5t-50 2.5h-186q-3 -8 -8 -17q-16 -32 -34 -62.5t-35 -61.5q-11 -21 -21.5 -42l-21.5 -43 q-3 -7 -7 -16t-7 -16t-5 -11t-2 -2v-3q0 -3 -2.5 -8l-3.5 -7q-5 -15 -10 -30.5t-9 -31.5q-3 -29 15 -38.5t44 -10.5h33q5 0 12.5 0.5t12.5 0.5q5 1 8.5 1h6.5l-182 -129l23 3q-6 -2 -12.5 -3t-13.5 -2l-1 -1q-2 0 -5 -0.5t-5 -0.5h-4q-7 -1 -13 -1h-13q-15 0 -36.5 -0.5 t-44.5 2t-45 7.5t-38 16q-45 -11 -89 -17t-90 -6zM233 421q2 5 4.5 8.5t0.5 1.5zM336 8q4 0 6 1q2 0 -1 -0.5t-5 -0.5zM567 1651q0 61 43 106q41 45 119 47q80 -2 123 -47q39 -45 39 -106q0 -60 -39 -105q-43 -47 -123 -47q-78 0 -119 47q-43 45 -43 105zM618 668 q5 0 10.5 -0.5t10.5 -1.5q7 -1 13 -1.5t13 -2.5q2 0 3.5 -0.5t0.5 -0.5q-23 3 -28.5 4t-2 0.5t12 -1t14.5 -0.5h213q7 22 7.5 47.5t-3 52.5t-8.5 53t-8 48q-8 63 -16 125.5t-14 125.5q-34 -64 -65.5 -128.5t-65.5 -128.5q-12 -23 -26 -46t-26 -46.5t-21.5 -48t-13.5 -50.5z M802 1293h1h-1zM810 1295l8 4q-2 -1 -3 -1t-2 -1q-1 0 -3 -2zM815 1299q1 0 1.5 0.5t-0.5 0.5zM1083 1651q0 61 43 106q41 45 119 47q80 -2 123 -47q39 -45 39 -106q0 -60 -39 -105q-43 -47 -123 -47q-78 0 -119 47q-43 45 -43 105z" />
<glyph unicode="&#xc5;" horiz-adv-x="1298" d="M-109 -5l183 130q4 17 10.5 32.5t12.5 29.5q30 70 67.5 135.5t73.5 131.5q13 26 24 54.5t31 50.5q7 8 15 14.5t16 13.5q6 23 11 45.5t15 44.5q21 47 48 88.5t50 86.5q38 73 76 145t80 144q16 27 28.5 45t27.5 32t34 26t47 28q13 8 26.5 13.5t27.5 11.5l15 6 q-37 38 -72 79.5t-58 89.5q-13 27 -16.5 55.5t0.5 57t13.5 56t23.5 52.5q20 37 54.5 69.5t77.5 58t91.5 43.5t98.5 27.5t97.5 9t87.5 -11.5q43 -12 67.5 -43.5t33.5 -72t4.5 -84t-19.5 -78.5q-17 -40 -46 -73q-36 -40 -72 -79t-74 -77q1 -111 12.5 -221t23.5 -221 q2 -20 6.5 -45t8 -51.5t4 -52t-4.5 -45.5l4 2q14 -23 19.5 -48.5t7 -52t1 -54t1.5 -52.5q5 -57 10.5 -112.5t10.5 -112.5q2 -21 5.5 -44t-2.5 -44l3 1q50 -44 99.5 -68.5t115.5 -26.5q-55 -32 -109.5 -65t-109.5 -66q-60 2 -107.5 16.5t-91.5 43.5q-28 -13 -54 -22.5 t-58 -17.5q-48 -14 -95 -17.5t-96 -3.5l186 132h27l7 6q4 13 4 27t-2 28t-4.5 28t-3.5 27q-2 63 -10 125.5t-10 125.5q-1 12 -0.5 24.5t-0.5 25.5h-1q-52 -12 -95 -18t-95 -1q-51 0 -98 -0.5t-95 0.5q-5 -11 -9.5 -20.5t-9.5 -18.5q-42 -73 -82 -147t-61 -155q-1 -14 0 -23 t9 -21q22 -12 42.5 -13.5t45.5 -1.5q10 0 17 1q3 0 6 0.5t5 0.5h5h8l-182 -129l23 3q-6 -2 -12.5 -3t-13.5 -2l-1 -1q-2 0 -5 -0.5t-5 -0.5h-4q-7 -1 -13.5 -1h-13.5q-15 0 -37.5 -0.5t-46 2t-46 8t-38.5 16.5q-51 -13 -101.5 -21t-103.5 -10zM332 8q4 0 6 1q2 0 -1 -0.5 t-5 -0.5zM605 668q12 -2 24 -3t25 -1h216q5 20 4 43t-4.5 47t-8 47t-6.5 44q-8 68 -15 135t-13 135q-32 -60 -63.5 -120t-66.5 -119q-17 -29 -35 -59t-32 -61q-4 -10 -8.5 -20.5t-7.5 -21.5l-4 -19v-1l-2 -9l-1 -7zM928 1254q1 0 2 1zM941 1262q2 2 4 2.5t4 2.5l-7 -5h-1z M945 1650q1 -39 16.5 -73.5t38.5 -66.5q18 27 25.5 56.5t5.5 73.5q-1 31 -10.5 60.5t-35.5 48.5l-12 8q-13 -25 -21 -51.5t-7 -55.5zM957 1271l1 1h-1v-1zM960 136q2 0 3 0.5t0 0.5q-1 -1 -3 -1zM970 1276l1 1z" />
<glyph unicode="&#xc6;" horiz-adv-x="1823" d="M-183 -43l186 132h11t18 1q3 14 5.5 27.5t9.5 27.5q29 58 68 110t77 103q43 60 82 122t82 122q12 18 25 36.5t27 36.5t30 34t35 28l16 11q3 12 5.5 24t7.5 23l9 15v1l11 19q10 18 24 37q17 24 35 47t35 47q30 42 62 82.5t60.5 83.5t50.5 88.5t33 96.5l-16 9 q-2 1 -3.5 1.5t-3.5 2.5q-2 0 -3 0.5t-3 0.5q-24 2 -48 2.5t-49 0.5l186 132h71.5t70.5 -6q14 0 23.5 -3.5t19.5 -8.5q24 4 53.5 7.5t57.5 4t52.5 -3.5t39.5 -14q8 -6 16.5 -12.5t16.5 -14.5q31 13 65 23t68.5 16t68.5 7.5t66 -3.5q67 0 134 2t134 -3q49 -3 99 -12l29 -6 l13 -3l-4 1q6 -2 9 -2q17 -4 35.5 -10.5t26.5 -23.5q8 -15 7.5 -33t-0.5 -35q0 -48 -3.5 -94.5t-3.5 -94.5q-71 -23 -141 -47t-142 -48q0 30 2.5 61l5 62t2.5 61.5t-5 60.5q-7 8 -15 11l-7 3h-6q-9 3 -16.5 6t-6.5 3l53 -9h-2h-14q3 -1 7 -5q1 -2 -6 0.5t-15 4.5 q-2 0 -2.5 0.5t-2.5 0.5q-22 2 -43 7.5t-44 7.5l-29 2h-227h-17t-18 1q-11 -87 -29.5 -171t-35.5 -170q-2 -23 -3 -45t-6 -45q-1 -3 -1 -7l2 1q9 -9 17.5 -19t17.5 -20t18.5 -18t21.5 -13q13 -5 26.5 -5.5t27.5 0.5t27.5 2.5t27.5 0.5l80 -3l33 93l280 79 q-12 -33 -23.5 -66.5t-25.5 -65.5q-8 -20 -21 -37t-18 -37q-4 -14 0.5 -28.5t4.5 -29.5q0 -30 -2 -60t-4 -61q-71 -23 -141 -47t-142 -48q2 31 4 61t2 60q0 12 -3 24t-4 24l-235 11q-2 0 -12 -0.5t-24 -0.5q-2 -8 -4 -17t-4 -17q-7 -33 -11 -66t-9 -66q-7 -42 -16 -82 t-17 -81q-4 -21 -5 -42.5t-4 -42.5q0 -29 -2.5 -50.5t-9.5 -38.5l5 2q2 -2 8.5 -9t14.5 -15l16 -16t12 -13q7 -5 11 -7.5t12 -6.5q23 -11 47.5 -11t49.5 -1q41 -1 81.5 -3.5t82.5 -1.5q1 0 11.5 0.5t24.5 1t29.5 1.5t27.5 1q8 14 16.5 30t10.5 21q24 48 43 97t37 98l280 79 q-23 -62 -48 -122t-56 -119q-14 -26 -26 -51.5t-35 -46.5q-44 -39 -98.5 -62t-114 -35t-120 -16.5t-116.5 -6.5q-48 -2 -94 -1.5t-94 2.5q-13 0 -25.5 0.5t-25.5 1.5h-9q-18 0 -37 0.5t-37 3.5q-38 6 -61.5 18.5t-45.5 30.5q-75 -31 -153 -48t-159 -17l186 132q2 0 19 1 t35 2q5 3 9.5 6.5t9.5 6.5v1q3 9 3 16q3 22 3 43.5t2 43.5q7 69 23.5 136t24.5 135q4 32 9.5 63t13.5 62q-13 14 -25.5 29t-26.5 29q-5 5 -11 10t-13 8q-1 0 -1 0.5t-1 0.5q-2 1 -8 1q-24 -2 -36 -3.5t-2 1.5h-172q-2 0 -3 -0.5t-3 -0.5q-47 -64 -88 -131t-88 -131 q-15 -22 -34 -46t-37.5 -48.5t-35 -50t-27.5 -49.5q-5 -12 -8 -24.5t-5.5 -25.5t-5.5 -25t-9 -24l-2 -3q14 -12 31.5 -19t36.5 -11q23 -2 46 -2.5t46 -0.5l-186 -132h-59t-57 3.5t-55 11t-52 22.5q-57 -17 -114 -27t-117 -10zM503 796q-1 -1 1 2q0 -1 -0.5 -1t-0.5 -1z M521 765l4 1q-2 0 -2.5 -0.5t-1.5 -0.5zM525 766l1 1zM766 813q1 0 2 -0.5t3 -0.5l14 -4l35 5q45 7 91 3.5t92 -3.5h1q5 22 5 44.5t4 44.5q17 87 35.5 171t28.5 172q-11 11 -20 23q-26 -50 -60 -98t-70.5 -95.5t-72 -93.5t-63.5 -91q-11 -18 -14 -36.5t-10 -37.5 q-1 -1 -1 -3zM804 1325q3 -2 3 -2.5t0.5 -0.5t4 0.5t14.5 0.5zM858 103l1 1zM867 681q4 -2 10 -4q2 -1 -2.5 1t-7.5 3zM959 1409q1 0 2 0.5t2 0.5zM1737 1307l1 -1q-4 2 -1 1zM1738 1306q5 -1 9 -1t8 -2h-8zM1980 1431h4q2 -1 0.5 -0.5t-4.5 0.5z" />
<glyph unicode="&#xc7;" horiz-adv-x="1376" d="M261.5 532q-2.5 82 8.5 156q19 131 64.5 249t118.5 217t172 176t225 125q137 52 280.5 68t286.5 -19q23 -5 52 -14.5t56 -23.5t49.5 -33t33.5 -43q8 -17 6.5 -36.5t-1.5 -37.5q0 -48 -4 -96t-4 -96q-71 -23 -141 -47t-142 -48q0 32 3 64t5.5 64.5t2.5 64.5t-5 63 q-11 21 -29 36t-39 25.5t-44 18t-44 12.5q-42 10 -85.5 15.5t-87.5 2.5q-36 -2 -64 -8.5t-52 -19t-47 -31t-50 -44.5q-36 -35 -65 -77t-53 -86q-40 -75 -68.5 -155.5t-42.5 -164.5t-12.5 -169.5t20.5 -168.5q14 -61 38.5 -119t63.5 -108q38 -48 89.5 -79t110 -45.5 t120 -12.5t118.5 19l6 4q16 20 25 42.5t20 45.5q5 8 8.5 16.5t7.5 16.5l3 6q17 38 34.5 75t28.5 79l280 79q-13 -52 -36 -98.5t-46 -94.5q-17 -35 -32 -68t-43 -62q-45 -45 -106.5 -74.5t-119.5 -51.5q-45 -17 -95 -31t-104 -23q0 -2 -0.5 -3t-0.5 -3q-3 -9 -5 -18.5 t-5 -18.5q0 -2 -1 -2v-2l-4 -14q0 -4 1 -6l38.5 -17.5t34.5 -25.5q30 -30 37 -66t-2.5 -71.5t-31.5 -68t-49 -56.5q-43 -36 -93 -61t-104 -40.5t-110 -23.5t-110 -10l186 132h5.5t6.5 1q14 21 19.5 46t1.5 49.5t-18 45t-39 32.5q-4 1 -11.5 3t-15 4.5t-13.5 5.5t-9 8 q-7 15 -4.5 38.5t10 48.5t17 48t15.5 38q-72 10 -136.5 36.5t-115.5 74.5q-57 54 -93 126t-54.5 152.5t-21 162.5zM1182 269l1 1l1 3q0 -2 -2 -4z" />
<glyph unicode="&#xc8;" horiz-adv-x="1313" d="M46 -7l186 132h50q2 2 4.5 3t4.5 3h-1q-5 -3 0.5 0.5t12.5 8.5q-5 30 2 61t12 60q4 23 5 47t5 47q9 56 23 110l28 108q7 25 13.5 49t10.5 48t7 45t7.5 41t12 39t19.5 39q-4 16 -2.5 33.5t5 35t8.5 34.5t8 33q14 78 29.5 154t18.5 155q-21 11 -34.5 26.5t-32.5 35.5 q-5 6 -9.5 10t-10.5 7q-6 1 -20 4t-21 4q-11 0 -21.5 -1t-18 -2t-9.5 -1t4 2h-4l183 129q-18 -2 -35.5 -4.5t-34.5 -5.5q-7 -1 -3.5 0t14 2.5t27 4t34.5 5.5l1 1h9q1 0 2 0.5t2 0.5q10 2 19.5 1.5t19.5 -0.5q24 1 45.5 -1t41 -8t37 -17t33.5 -30q1 -2 2 -2.5t2 -1.5l4 2t5 3 q29 15 67.5 26t79 17t80.5 7t73 -4q72 0 144 3t142 -8q20 -2 39.5 -4t38.5 -6q27 -5 44.5 -12.5t28 -19.5t14.5 -30t5 -44q1 -20 1 -39v-39q-1 -29 -4 -58t-8 -58q-71 -23 -141 -47t-142 -48q8 49 10.5 96.5t0.5 97.5v25t-4 24q-4 7 -10 11.5t-13 7.5q-43 9 -83 12h-2 q-2 0 -3 0.5t-3 0.5q-17 1 -35 2t-36 1q-39 1 -78.5 0.5t-78.5 -0.5h-24t-24 1h-2h-17q-2 -2 -4.5 -3.5t-5.5 -3.5q-5 -74 -18.5 -144.5t-27.5 -143.5q-5 -29 -12 -51.5t-9 -42.5t5.5 -40.5t31.5 -45.5q11 -11 24 -23.5t29 -14.5q18 3 40.5 4.5t47.5 1.5t50.5 -0.5 t48.5 -1.5q9 24 16 48t12 50l280 79q-5 -24 -12.5 -52t-18.5 -57t-25 -56.5t-32 -48.5v-180q-71 -23 -141 -47t-142 -48v168q-7 0 -13 0.5t-12 1.5q-12 1 -22.5 3t-21.5 4l-17 2h-4h-175q-1 0 -2 -0.5t-2 -0.5q-16 -64 -32.5 -126.5t-29.5 -127.5q-9 -44 -13 -88t-12 -88 q-2 -15 -3.5 -32.5t6.5 -32.5q19 -39 62.5 -58t94.5 -25.5t101.5 -5.5t84.5 1l96 4l5 11q18 34 33 69q20 42 35.5 83t29.5 84l280 79q-20 -62 -44.5 -120t-53.5 -116q-14 -29 -28.5 -55t-36.5 -50q-28 -29 -69.5 -47t-77.5 -31q-45 -17 -100.5 -26t-114 -13t-115.5 -4h-105 q-30 0 -69.5 1t-81 6.5t-81.5 16t-71 30.5q-75 -37 -154.5 -49t-163.5 -12zM578 1338l6 4l-4 -2zM602 1359q-2 -2 2.5 0.5t6.5 4.5l2 1zM604 1736l265 120q104 -53 206.5 -105.5t205.5 -106.5l-265 -120q-103 54 -205.5 106.5t-206.5 105.5z" />
<glyph unicode="&#xc9;" horiz-adv-x="1319" d="M51 -1l186 132h49l6 4q-1 0 5 4l12 8q-4 28 1 55.5t10 56.5q4 25 5.5 50t5.5 49q10 54 23 107t27 106q7 26 13.5 52.5t11.5 52.5q8 44 16 85t31 79q-5 19 -3.5 39.5t6 41t10 40.5t10.5 39q16 72 28 141.5t15 142.5q-20 11 -34.5 27t-31.5 34q-6 7 -11 11.5t-12 7.5l-40 7 q-12 0 -16 -0.5t-7 -0.5h-8h-17l186 132q20 0 42.5 1t44.5 0t43.5 -5.5t39.5 -14.5q12 -7 22 -17.5t20 -21.5l8 4t9 4q30 13 67.5 23.5t76.5 16.5t77.5 7t71.5 -4q71 0 143.5 3t142.5 -8q16 -1 35 -2.5t37.5 -4.5t36 -9t31.5 -16q13 -9 19.5 -21t9 -25t3 -27.5t0.5 -29.5 q1 -95 -15 -191l-280 -79q8 45 10.5 87.5t1.5 87.5v24t-2 23q0 5 -1 10.5t-3 11.5q0 1 -0.5 1t-0.5 1q-4 6 -10 9.5t-13 6.5q-14 3 -28 5.5t-29 4.5q-3 0 -9.5 0.5t-12 0.5h-8t0.5 1h1q-45 2 -90 3t-91 1h-67h-16.5t-16.5 1h-4q-4 0 -7 0.5t-6 0.5l-11 -9q-5 -78 -19 -154 t-33 -152l-0.5 -4t-1.5 -7.5t-2 -6.5t-1 -1q-4 -19 -8 -36.5t-3 -37.5q1 -14 9.5 -31.5t22 -33.5t29 -27.5t30.5 -13.5q17 3 39.5 4.5t47.5 1.5t50 -0.5t48 -1.5q10 24 17.5 48t12.5 50l280 79q-4 -20 -12 -48.5t-20 -59t-26.5 -59t-30.5 -47.5v-180q-71 -23 -141 -47 t-142 -48v168q-10 0 -15 1q-16 1 -29.5 3t-28.5 5q-4 0 -11 0.5t-12 1.5h-169q-1 0 -1.5 -0.5t-1.5 -0.5q-11 -52 -25.5 -102.5t-26.5 -101.5q-10 -44 -14 -86.5t-12 -85.5q-1 -15 -4.5 -30t-5.5 -30.5t-2 -30.5t6 -29q13 -31 41 -48t62.5 -25.5t70 -11t63.5 -2.5h106l94 4 l6 11q18 34 33 69q20 41 36 82.5t30 83.5l280 79q-20 -61 -45.5 -119t-53.5 -116q-14 -29 -28.5 -55t-36.5 -50q-29 -31 -77 -53t-102 -36t-108 -20.5t-96 -6.5q-12 -3 -45 -4.5t-70 -1.5t-68.5 0.5t-40.5 0.5q-41 0 -82 2t-81 9q-27 5 -58.5 15t-57.5 27q-75 -38 -155 -49 t-161 -11zM553 177q3 2 5 4zM584 1345l1 1zM586 1347l3 2l1 1l-3 -2zM736 1580q72 50 149.5 87t156.5 73q22 10 43 21l42 22l4 2l1 1l20 14l197 -3q-49 -34 -101.5 -60t-106.5 -50.5t-106.5 -50.5t-101.5 -59z" />
<glyph unicode="&#xca;" horiz-adv-x="1274" d="M55 -7l186 132h49l22 17q-4 30 2.5 60t11.5 60q5 29 7 58t7 58q11 51 23.5 100.5t24.5 99.5q7 24 12 48l10 48q8 43 16 84t31 77q-8 32 0.5 65.5t16.5 63.5q22 76 34 154.5t15 156.5q-20 10 -35 28t-27 32q-5 7 -10.5 12.5t-13.5 9.5q-3 2 -8 4l-10 4l17 -6q-2 1 -7.5 2 t-14.5 3q-13 2 -19.5 1.5t-20.5 -0.5q-3 0 -8 -0.5t-7 -0.5h-12l183 129q-18 -2 -35.5 -4.5t-34.5 -5.5q-7 -1 -3.5 0t14 2.5t27 4t34.5 5.5l1 1h9q1 0 2 0.5t2 0.5q16 2 31.5 1.5t31.5 -1.5q35 -1 66.5 -10t56.5 -35l11 -14l20 9q31 13 67.5 23.5t75 16.5t77 7t71.5 -5 q72 0 144 3t142 -8q20 -2 39.5 -4t38.5 -6q27 -5 44.5 -12.5t28 -19.5t15 -30t5.5 -44q1 -20 1 -39v-39q-1 -29 -4.5 -58t-8.5 -58q-71 -23 -141 -47t-142 -48q4 27 8.5 58t6.5 62.5t1 62.5t-7 57q-4 8 -10.5 13t-14.5 9q-43 9 -83 12h-2q-2 0 -3 0.5t-3 0.5q-17 1 -35 2 t-36 1q-26 1 -52.5 0.5t-52.5 -0.5h-67h-16.5t-16.5 1h-4q-4 0 -7 0.5t-7 0.5l-10 -9q-7 -115 -33 -229q-4 -18 -11.5 -44t-13.5 -53.5t-9 -53t3 -42.5q6 -18 23 -34.5t30 -30.5q11 -8 20.5 -12.5t20.5 -6.5q11 2 21.5 3t21.5 1h135q20 50 29 99l280 79q-5 -24 -12.5 -53 t-18.5 -58.5t-25.5 -56.5t-31.5 -47v-179q-71 -23 -141 -47t-142 -48v168q-10 0 -14 1q-14 1 -29 2.5t-30 4.5q-3 0 -8 1l-10 2h-168q-2 0 -4.5 -0.5t-4.5 -0.5q-5 -25 -12 -49t-13 -48l-20 -80q-5 -20 -9 -39.5t-8 -39.5q-5 -24 -7 -47.5t-4 -47.5q-2 -19 -7 -37.5 t-7 -38.5q-2 -17 -3 -34t6 -34t21 -30t31 -23t35.5 -16.5t35.5 -9.5q35 -5 70 -6.5t70 -2.5q43 0 85.5 1t85.5 3q5 5 9 11q18 34 33 69q20 42 36 83t30 84l280 79q-20 -62 -45 -120t-54 -116q-14 -29 -28.5 -55t-36.5 -50q-28 -29 -69.5 -47t-77.5 -31q-45 -17 -100.5 -26 t-114 -13t-115 -4h-104.5q-36 0 -76.5 0.5t-80.5 5.5t-77.5 16t-68.5 33q-76 -35 -154.5 -48.5t-163.5 -13.5zM417 1366q1 0 2 -1q-1 1 -2 1zM436 1359q0 -1 2 -1h1q-2 0 -3 1zM570 1324.5q2 1.5 7 5.5t10 9q-1 0 -1.5 -0.5t-1.5 -0.5q-11 -9 -13.5 -12t-0.5 -1.5zM587 1611 l190 107q50 28 98.5 54.5t102.5 45.5q27 10 56 18.5t59 13t59.5 4t58.5 -9.5q37 -11 67.5 -32.5t59 -47t56.5 -51.5t59 -47l-265 -120q-42 29 -77 63.5t-76 64.5q-15 11 -29.5 21t-31.5 18q-57 -32 -113 -63.5t-113 -63.5zM1020 102l2 4v-1q-2 -2 -2 -3zM1042 146q1 0 1 1z " />
<glyph unicode="&#xcb;" horiz-adv-x="1274" d="M35 -7l186 132h56q12 7 23 17q-1 11 2 22t4 22q4 54 12.5 105t19.5 103q24 113 52 224t56 223q11 44 15 87.5t14 86.5q11 46 19 91t15 91q2 14 4.5 25.5t3.5 25.5q2 11 0 20.5t-1 8.5q5 -2 4.5 -7t1.5 -9q0 -2 -1 1t-2 4q-2 6 -4 8q-5 9 -12.5 16t-15.5 13q-13 12 -23 23 t-20.5 19.5t-23.5 14t-33 6.5q-5 0 -10 -0.5t-10 -0.5q-3 0 -8 -0.5t-8 -0.5h-2q-3 -1 -5.5 -0.5t-5.5 0.5l181 129q-17 -3 -33.5 -5t-33.5 -5q-8 -1 -4 0t15 3t26.5 4.5t32.5 4.5l2 1h10q1 0 1.5 0.5t2.5 0.5q12 2 25 2t25 -1q29 -1 60.5 -5.5t56.5 -22.5q18 -14 33 -30 q52 22 106 33.5t110 15.5q35 3 78.5 3t87 -0.5t82.5 -1.5t65 -1q34 0 67 -3.5t66 -9.5l30 -6q3 -1 6.5 -1.5t7.5 -2.5q3 0 9 -2q18 -6 35 -14t25 -28q5 -15 4 -33.5t0 -35.5q2 -45 -0.5 -89.5t-9.5 -89.5q-71 -23 -141 -47t-142 -48q8 45 10.5 89.5t-0.5 89.5q0 10 1 21 t0 22t-4.5 20t-13.5 14l-15 3h1q2 -4 -5.5 -0.5t-12.5 5.5l-30 6q-15 2 -24.5 3.5t-17.5 2t-17 1t-23 1.5q-67 0 -134.5 -1t-135.5 1q-2 -2 -3 -2q1 -19 -3.5 -38t-6.5 -38q-8 -55 -20.5 -108.5t-20.5 -107.5q-3 -25 -5.5 -49t-7.5 -48l-9 -43l3 1q15 -15 29 -31.5t30 -31.5 q9 -9 23 -14q4 -2 7 -2h15q30 3 59.5 3t59.5 1q17 1 33 1.5t32 0.5l32 88l280 79q-13 -35 -24.5 -69t-26.5 -67q-8 -19 -21 -34.5t-18 -35.5q-4 -12 0.5 -25t4.5 -26q-1 -31 -3.5 -61.5t-4.5 -62.5q-71 -23 -141 -47t-142 -48q2 32 5 62.5t3 61.5q0 11 -1.5 21.5t-3.5 21.5 q-67 14 -135 12t-136 -5q-3 0 -6 -0.5t-6 -0.5q-7 -28 -11 -44.5t-8 -34.5t-10 -44t-17 -74q-9 -42 -18.5 -84t-14.5 -85l-6 -61q-1 -8 -1.5 -15t-2.5 -15q0 -1 -0.5 -1t-0.5 -1v-3q-2 -23 8.5 -41t27.5 -32.5t37.5 -24t38.5 -15.5q81 -9 163.5 -10.5t164.5 3.5q5 1 9 1.5 t9 0.5l4 8l1 2l1 2l11 21q-2 -2 -2 -3q-2 -3 0.5 3t4.5 8l8 13v1l1 2q0 -1 -1 -1q2 2 2 4q2 5 4.5 9t4.5 9q10 18 18 38q31 64 49 132l280 79q-13 -51 -33 -96.5t-43 -91.5q-7 -16 -14.5 -31t-15.5 -30q-3 -7 -7 -11t-11 -12q-1 0 -2 -1.5t-1 -0.5q5 5 9 10.5t9 10.5 q2 2 0.5 -0.5t-2.5 -4.5l-7 -15q-2 -5 -7.5 -15t-8.5 -14q-30 -45 -76 -70q-40 -22 -77 -35.5t-74.5 -22.5t-76.5 -14.5t-84 -9.5q-88 -14 -178.5 -13t-178.5 9l-28 2q-22 0 -44 2.5t-43 9.5q-40 12 -75 38q-71 -33 -148 -48t-176 -15zM557 1326q-2 -2 0.5 -0.5t4.5 3.5z M571 1691q0 61 43 106q41 45 119 47q80 -2 123 -47q39 -45 39 -106q0 -60 -39 -105q-43 -47 -123 -47q-78 0 -119 47q-43 45 -43 105zM796 848q1 0 3 -1q-1 0 -1 0.5t-1 0.5q-2 0 -1 0zM1070 190v1v-1zM1077 202l4 8q1 2 -0.5 -1.5t-3.5 -6.5zM1087 1691q0 61 43 106 q41 45 119 47q80 -2 123 -47q39 -45 39 -106q0 -60 -39 -105q-43 -47 -123 -47q-78 0 -119 47q-43 45 -43 105zM1184 1345q0 -1 1 -1h2h1q-3 0 -4 1z" />
<glyph unicode="&#xcc;" horiz-adv-x="790" d="M43 2l186 132q12 0 24 0.5t23 0.5q3 0 4 1q2 1 9.5 5t16 9t16 9.5t8.5 5.5t-5.5 -3t-26.5 -16q6 17 6 35.5v36.5q2 38 10 76t16 74q34 154 69 305.5t69 305.5q9 42 17.5 82t15.5 81q7 44 8 76.5t11 58.5q-23 25 -45.5 50.5t-53.5 41.5q-9 3 -18.5 4t-19.5 2 q-5 0 -10 -0.5t-10 -0.5q-3 0 -7.5 -0.5t-6.5 -0.5h-3q-3 -1 -5.5 -0.5t-5.5 0.5l186 132h12.5t21.5 1q13 0 29 1q32 -1 55.5 -5.5t41.5 -13t33.5 -20.5t30.5 -27q84 35 164 50t172 18l-186 -132q-19 -1 -38 -1.5t-38 -2.5l-21 -15q-1 -2 -3 -10.5t-3.5 -15t-1 -5t5.5 21.5 q1 2 1 0.5t-0.5 -5t-1 -7.5t-0.5 -7q0 -16 -3 -34q-13 -109 -38 -215t-50 -213q-21 -94 -40.5 -187t-42.5 -187q-6 -36 -15 -71t-14 -71q-5 -31 -4.5 -64.5t-9.5 -63.5q13 -14 25.5 -27.5t26 -25.5t28.5 -21t35 -14q23 -3 46.5 -2.5t46.5 0.5l-186 -132q-29 0 -59 -0.5 t-59 2.5t-57 11.5t-53 26.5q-12 9 -22 19q-73 -30 -151 -44.5t-156 -14.5zM349 1744l265 120l412 -216l-265 -120z" />
<glyph unicode="&#xcd;" horiz-adv-x="790" d="M36 2l186 132q12 0 24 0.5t24 0.5h1q2 2 6 4q6 3 15 9q5 17 5 35v35q2 30 7.5 60t11.5 59q35 164 71.5 325t70.5 324q10 45 19 89.5t16 89.5q2 12 5 27.5t3 28.5q1 15 0 29.5t3 28.5q0 1 0.5 2t0.5 3q-14 15 -27.5 30.5t-28.5 28.5t-32.5 22t-39.5 10q-5 0 -10 -0.5 t-10 -0.5q-3 0 -8 -0.5t-8 -0.5h-2q-3 -1 -5.5 -0.5t-5.5 0.5l181 129q-17 -3 -33.5 -5t-33.5 -5q-8 -1 -4 0t15 3t26.5 4.5t32.5 4.5l2 1h10q1 0 1.5 0.5t2.5 0.5q12 2 25 2t25 -1q31 -1 53.5 -5t40 -11.5t32 -18.5t29.5 -26l21 8q74 29 148.5 41t153.5 14l-186 -132 q-17 -1 -35 -1t-35 -2l-48 -29l24 12q8 5 12 8t-1 0l-2 -4l1 1q11 5 9 3t-10 -7q-2 -11 -1 -21t0 -21v-1q4 -1 1 -8t-4 -12q-2 -17 -5 -34.5t-6 -34.5q-8 -48 -17.5 -94.5t-20.5 -94.5q-29 -133 -59 -263.5t-57 -263.5q-9 -45 -19 -89t-15 -89q-3 -27 -3 -54.5t-8 -53.5l1 1 q16 -15 30 -31.5t30 -32.5q14 -9 27 -15t29 -11q22 -2 43.5 -1.5t43.5 0.5l-186 -132q-29 0 -58.5 -0.5t-57.5 2.5t-55 11.5t-52 26.5q-14 9 -24 21q-148 -61 -306 -61zM430 1583q66 45 135.5 79.5t141.5 66.5q59 27 116 58q1 0 1.5 0.5t1.5 0.5l2 2l19 13l197 -3 q-49 -34 -102 -60t-107 -50.5t-106.5 -50.5t-101.5 -59zM469 133l13 7q-2 -1 -5.5 -3t-7.5 -4z" />
<glyph unicode="&#xce;" horiz-adv-x="790" d="M44 1l186 132q12 0 24.5 0.5t24.5 0.5l21 12q7 25 6 50.5t1 50.5q4 32 11.5 63t12.5 63q15 82 33.5 163t38 162t38 162t33.5 162q7 35 15 68t13 68q5 32 5 61.5t9 58.5q-16 15 -29 31.5t-27.5 30.5t-32.5 23.5t-42 10.5q-5 0 -10 -0.5t-10 -0.5q-3 0 -8 -0.5t-8 -0.5h-2 q-3 -1 -5.5 -0.5t-5.5 0.5l181 129q-17 -3 -33.5 -5t-33.5 -5q-8 -1 -4 0t15 3t26.5 4.5t32.5 4.5l2 1h10q1 0 1.5 0.5t2.5 0.5q12 2 25 2t25 -1q34 -1 57 -5.5t40 -12.5t29.5 -19t26.5 -26q78 35 159 48.5t166 16.5l-186 -132q-18 -1 -36 -1t-36 -2q-11 -7 -21.5 -13.5 t-21.5 -12.5q4 2 11.5 6t14 7.5t9.5 5t-1 -1.5q-2 -5 -3.5 -10.5t-3.5 -10.5q-2 -23 -2.5 -45t-2.5 -45q-4 -32 -11 -63t-15 -63q-21 -89 -39 -177.5t-38 -177.5q-14 -64 -28 -127.5t-28 -126.5q-3 -17 -4.5 -33.5t-9.5 -31.5q-1 -5 -4 -19t-6 -29t-5.5 -27t-3.5 -14l-3 -22 l-2 -27v-3q2 1 0.5 -6.5t-1.5 -12.5v-22q-1 -11 -2.5 -23t-4.5 -23q15 -12 27 -25.5t24.5 -26.5t27.5 -23t35 -15q23 -2 44.5 -2h44.5l-186 -132q-28 0 -57 -0.5t-57 2t-55 10.5t-51 26q-7 5 -13.5 11t-11.5 13q-148 -62 -308 -62zM313 1624q1 1 9 5t17.5 8.5t18 9.5t12.5 7 q28 16 54.5 32t53.5 31q46 28 104.5 60t121.5 54.5t126 29t117 -15.5q33 -13 61.5 -33.5t55.5 -44.5t53 -48t53 -45l-265 -120q-44 33 -83 70.5t-84 68.5q-11 8 -22.5 16t-25.5 13q-67 -38 -133 -77.5t-137 -71.5l-75 64q-8 -4 -16 -7.5t-16 -5.5zM328 163l11 7q3 2 -1.5 -1 t-9.5 -6zM361 1646l4 2z" />
<glyph unicode="&#xcf;" horiz-adv-x="790" d="M43 2l186 132q12 0 24 0.5t23 0.5q3 0 4 1q2 1 9.5 5t16 9t16 9.5t8.5 5.5t-5.5 -3t-26.5 -16q6 17 6 35.5v36.5q2 38 10 76t16 74q34 154 69 305.5t69 305.5q9 42 17.5 82t15.5 81q7 44 8 76.5t11 58.5q-23 25 -45.5 50.5t-53.5 41.5q-9 3 -18.5 4t-19.5 2 q-5 0 -10 -0.5t-10 -0.5q-3 0 -7.5 -0.5t-6.5 -0.5h-3q-3 -1 -5.5 -0.5t-5.5 0.5l186 132h12.5t21.5 1q13 0 29 1q32 -1 55.5 -5.5t41.5 -13t33.5 -20.5t30.5 -27q84 35 164 50t172 18l-186 -132q-19 -1 -38 -1.5t-38 -2.5l-21 -15q-1 -2 -3 -10.5t-3.5 -15t-1 -5t5.5 21.5 q1 2 1 0.5t-0.5 -5t-1 -7.5t-0.5 -7q0 -16 -3 -34q-13 -109 -38 -215t-50 -213q-21 -94 -40.5 -187t-42.5 -187q-6 -36 -15 -71t-14 -71q-5 -31 -4.5 -64.5t-9.5 -63.5q13 -14 25.5 -27.5t26 -25.5t28.5 -21t35 -14q23 -3 46.5 -2.5t46.5 0.5l-186 -132q-29 0 -59 -0.5 t-59 2.5t-57 11.5t-53 26.5q-12 9 -22 19q-73 -30 -151 -44.5t-156 -14.5zM324 1730q0 61 43 106q41 45 118 47q80 -2 123 -47q39 -45 39 -106q0 -60 -39 -105q-43 -47 -123 -47q-77 0 -118 47q-43 45 -43 105zM840 1730q0 61 43 106q41 45 118 47q80 -2 123 -47 q39 -45 39 -106q0 -60 -39 -105q-43 -47 -123 -47q-77 0 -118 47q-43 45 -43 105z" />
<glyph unicode="&#xd0;" horiz-adv-x="1597" d="M56 -44l186 132q14 0 28 -0.5t28 0.5q10 6 20 14q6 38 7.5 75t8.5 74q8 44 18 87.5l20 87t17.5 87.5t9.5 89q-13 14 -24.5 29t-25.5 28q-15 15 -30 22q-7 2 -14 3.5t-11 1.5q-17 2 -34.5 0t-34.5 -4q-8 -1 -14.5 -1.5t-14.5 -0.5l184 131l-24 -2q-2 0 -1 0.5t4 0.5 t6.5 0.5t5.5 0.5q10 2 19 2t19 1l52 4q-2 31 6.5 61.5t14.5 59.5q9 42 18 82.5t16 81.5q6 34 10 68t6 68q-22 23 -42.5 44.5t-47.5 38.5q-23 6 -45 6h-45l186 132q25 0 51.5 0.5t52 -2.5t49.5 -11t45 -25l21 -19q44 17 81 27t73.5 15t77 6.5t91.5 0.5q72 -1 146 -8.5 t143 -33.5q82 -30 136.5 -85.5t86 -126t44 -150.5t11.5 -160q-1 -67 -11.5 -134t-30.5 -131q-36 -117 -101.5 -217.5t-153.5 -180t-194 -136t-224 -86.5q-31 -8 -62.5 -13.5t-63.5 -11.5q-47 -9 -98 -15t-103 -5.5t-102.5 9t-94.5 28.5q-9 4 -16.5 9.5t-15.5 12.5 q-75 -34 -151 -47.5t-169 -13.5zM328 89q6 1 13 2.5t12 3.5zM598 184h1q12 -11 23 -23.5t23 -24.5q3 -3 10.5 -7.5t5.5 -6.5l5 -3q7 -4 16.5 -8t14.5 -6q22 -8 43 -10t44 -3q53 0 107 6l28 3q16 3 31.5 5.5t31.5 7.5q10 3 19.5 7t17.5 9q41 22 71.5 46.5t62.5 60.5 q103 115 156.5 258.5t54.5 297.5q1 72 -9.5 147t-38 142.5t-76 121t-124.5 81.5q-53 20 -109.5 27.5t-112.5 7.5h-80q-7 -71 -20 -140t-27 -139q-2 -4 -2 -8q-1 -6 -2 -11.5t-3 -10.5q-7 -25 -12 -53q-5 -31 -2 -56.5t26 -48.5q12 -12 24.5 -23.5t28.5 -19.5h16 q55 5 112 3.5t111 -1.5l-186 -132h-100.5t-96.5 -2q-3 -44 -11 -87.5t-17.5 -87t-19.5 -86.5t-19 -87q-7 -36 -9 -72.5t-7 -73.5z" />
<glyph unicode="&#xd1;" horiz-adv-x="1517" d="M30 -1l163 116l5 58q7 52 17.5 102t18.5 101q31 177 70.5 349t77.5 346q5 23 9 47.5t9.5 48t14.5 46t25 41.5q10 12 21.5 22.5t24.5 21.5q-19 16 -33.5 36t-36.5 31q-24 7 -47 8t-48 1l186 132q20 0 41.5 0.5t43.5 -1t43 -5.5t40 -12q23 -10 40 -29t34 -37q5 -5 11 -9.5 t12 -7.5h7q16 0 34 -1.5t32 -11.5q18 -12 31 -29.5t22 -38t16 -42t13 -40.5q17 -52 38.5 -102.5t42.5 -101.5q38 -93 76 -184.5t75 -185.5q14 -38 30 -74.5t32 -74.5q0 3 2 9q27 110 51.5 219t45.5 219q13 63 25.5 126t20.5 126q4 24 6 47.5t7 46.5q2 8 4 15.5t0 15.5 q-5 4 -16 13.5t-23 12.5q-25 6 -49.5 6h-50.5q-4 -1 -14 -1l183 129q-18 -2 -35.5 -4.5t-34.5 -5.5q-7 -1 -3.5 0t14 2.5t27 4t34.5 5.5l1 1h9q1 0 2 0.5t2 0.5q17 2 36.5 2t36.5 -1q31 -1 64.5 -6t61.5 -22q104 26 209 26l-180 -128q-18 -147 -47.5 -290.5t-61.5 -286.5 q-11 -49 -22 -97.5t-23 -96.5q-1 -3 -4 -19t-7 -34.5t-7 -33.5l-3 -15l-3 -12q-1 -2 -1 -8q0 -2 -1 -10t-3 -13q-2 -11 -3.5 -24t-5.5 -24q-11 -34 -43 -59.5t-61 -40.5q-4 -3 -9.5 -7t-7.5 -6l-7 -5l9 -112q-71 -23 -141 -47t-142 -48l-10 125q-35 11 -51 46 q-18 41 -33 82.5t-32 81.5q-57 134 -110 268t-110 268q-12 30 -25 60t-25 60l-12 34l-34 -148q-28 -128 -55.5 -253.5t-50.5 -253.5q-2 -15 -5.5 -30.5t-6.5 -30.5q-6 -38 -14.5 -76t-10.5 -77q-2 -21 -2.5 -45t-8.5 -44q16 -7 30.5 -11.5t31.5 -9.5q26 -3 52 -3.5t52 -0.5 l-186 -132h-56.5t-51.5 2t-49 6.5t-49 13.5q-22 -5 -42 -9t-27 -6q-35 -8 -71 -7.5t-71 0.5zM601 1555q23 51 57 89t76.5 65t91.5 45.5t102 31.5q49 12 97.5 19t99.5 -1q45 -7 86 -21.5t83 -28.5q14 -5 27.5 -9t27.5 -6l14 20q4 7 8.5 14.5t9.5 12.5l251 39q2 2 7.5 9 t9.5 11q2 2 -1 -2.5t-5 -6.5l-8 -13q2 1 -2 -5t-6 -8q-6 -11 -9 -14t-11 -14q-16 -21 -35 -37.5t-41 -30.5q-69 -45 -148 -70.5t-160 -36.5q-65 -8 -123.5 7.5t-118.5 36.5q-18 6 -36.5 12t-38.5 10h-5q-6 -9 -10.5 -19t-9.5 -20zM755 1407q-1 0 1 0q1 -1 2 -1q-2 1 -3 1z M762 1405h2h-2zM1478 492l1 2q0 -1 -0.5 -1t-0.5 -1z" />
<glyph unicode="&#xd2;" horiz-adv-x="1558" d="M276 557q0 50 6 92q13 93 44.5 194.5t79.5 197.5t111.5 178.5t141.5 136.5q44 31 86.5 54.5t87 42.5t91 33.5t97.5 26.5l-32 -57l76 66q38 4 75.5 5.5t75.5 -4.5q12 0 30.5 -2.5t26.5 -4.5q72 -11 124.5 -41.5t89.5 -76t60.5 -105t37.5 -126.5q13 -61 19 -123t4 -125 q-3 -85 -19.5 -168.5t-45.5 -163.5q-44 -123 -111 -227t-157 -182.5t-201.5 -129t-244.5 -66.5q-51 -6 -104.5 -5t-105.5 12t-100.5 32.5t-88.5 56.5q-33 30 -59 72t-44 92t-29.5 104t-16.5 107.5t-5 103.5zM562.5 575q6.5 -96 34.5 -196q25 -89 75.5 -153.5t140.5 -95.5 q38 -13 75.5 -17t77.5 -3q5 1 10 1t10 2l11 5q10 5 18.5 12.5t17.5 14.5q26 21 49 47t43 53q113 156 163 341q19 71 29 156.5t6.5 173t-22 171t-55.5 150.5q-25 46 -63 83.5t-89 54.5q-20 7 -40.5 10t-41.5 6h-16q-1 0 -1 0.5t-1 0.5t-2.5 0.5t-0.5 0.5q22 0 28.5 0.5t3 0.5 t-14 0.5t-22.5 0.5t-23.5 0.5t-15.5 0.5l-21 -2q-10 -3 -16 -7q-74 -45 -125.5 -112.5t-91.5 -142.5q-48 -92 -79.5 -183.5t-44.5 -184.5t-6.5 -189zM622 1743l265 120q98 -63 202 -114t210 -98l-265 -120q-106 47 -210 98t-202 114z" />
<glyph unicode="&#xd3;" horiz-adv-x="1558" d="M275.5 562q0.5 50 6.5 92q13 96 44 196.5t78.5 194.5t111.5 175t144 140q81 60 172 96.5t188 59.5l-32 -57l76 66q39 5 78 6t78 -5q53 -4 104.5 -17t95.5 -44q45 -31 77 -75.5t53.5 -97.5t34 -111.5t18 -117t4.5 -115t-5 -105.5q-6 -64 -21.5 -128t-37.5 -125 q-44 -123 -111.5 -227t-157 -182.5t-201.5 -129t-244 -66.5q-51 -6 -104.5 -5t-105.5 12t-100.5 32.5t-88.5 56.5q-34 30 -59.5 72.5t-44 92.5t-29.5 104t-16.5 108t-5 104zM562 576q6 -97 35 -194q13 -45 31.5 -83.5t44 -70t60 -55.5t80.5 -40q38 -13 75.5 -17t77.5 -3 l20 2l13 8q21 15 37.5 28.5t34.5 32.5q52 55 92 118.5t70 132.5q15 35 30 77t25 77q10 34 18.5 79.5t12.5 79.5q7 58 6.5 130t-12 144.5t-34 140t-59.5 117.5q-23 32 -52.5 54.5t-64.5 39.5q-26 10 -50 14l-42 6q-4 0 -12 0.5t-4 0.5h11q-15 0 -29.5 1t-30.5 3l-21 -2 q-10 -3 -16 -7q-74 -45 -125 -111t-91 -141q-47 -90 -78.5 -182.5t-45 -187.5t-7.5 -192zM898 1630q88 38 172 80t164 94l197 -3q-109 -72 -223.5 -129t-233.5 -108z" />
<glyph unicode="&#xd4;" horiz-adv-x="1558" d="M268 550q0 50 6 92q13 93 44.5 194.5t79.5 197.5t111.5 178.5t141.5 136.5q44 31 86.5 54.5t87 42.5t91 33.5t97.5 26.5l-32 -57l76 66q39 5 78 6t78 -5q38 -2 80.5 -9.5t77.5 -27.5q24 -13 47.5 -28.5t42.5 -36.5q49 -55 79 -126.5t44 -149t15.5 -156.5t-4.5 -149 q-6 -64 -21.5 -128t-37.5 -125q-44 -123 -111.5 -227t-157 -182.5t-201.5 -129t-244 -66.5q-51 -6 -105 -5t-106 12t-100.5 32.5t-88.5 56.5q-33 30 -59 72t-44 92t-29.5 104t-16.5 107.5t-5 103.5zM554.5 568q6.5 -96 34.5 -196q25 -88 76.5 -153t139.5 -96q38 -13 76 -17 t78 -3q5 1 10 1t10 2q3 2 6.5 3.5t6.5 3.5q21 15 37.5 28.5t34.5 32.5q52 55 92 118.5t70 132.5q15 35 30 77t25 77q10 34 18.5 79.5t12.5 79.5q5 41 6 90t-2.5 101.5t-13 106t-25.5 103t-39.5 92.5t-54.5 74q-19 20 -41 34t-46 25q-26 10 -50 14l-42 6q-4 0 -12 0.5t-4 0.5 h11q-15 0 -29.5 1t-30.5 3l-21 -2q-10 -3 -16 -7q-74 -45 -125.5 -112.5t-91.5 -142.5q-48 -92 -79.5 -183.5t-44.5 -184.5t-6.5 -189zM693.5 1617.5q-1.5 -0.5 0.5 0.5l19 8l-6 -3t-8 -3.5t-5.5 -2zM713 1626l1 1q25 13 49.5 26.5t47.5 27.5q52 32 104 61.5t108 54.5 q29 13 58 23.5t60 18.5q29 7 60 12.5t61 0.5q46 -6 83 -26.5t70.5 -48t65.5 -57.5t68 -54l-265 -120q-46 31 -85.5 69.5t-84.5 70.5q-8 6 -20 14.5t-25 13.5q-24 -12 -50 -29q-54 -34 -108 -64t-112 -56l-76 66z" />
<glyph unicode="&#xd5;" horiz-adv-x="1558" d="M272.5 497q-7.5 74 2.5 150q13 95 43 197t77.5 197.5t111 178t143.5 139.5q86 61 172.5 97.5t188.5 60.5l44 9q62 6 122 6.5t120 -16.5q57 -15 108.5 -48t87.5 -81q26 -35 45.5 -82t33 -99t21 -104.5t10.5 -97.5q2 -42 0 -81.5t-6 -81.5q-8 -87 -33.5 -173t-61.5 -165 q-44 -97 -104 -178.5t-135 -145.5t-165 -109.5t-194 -69.5q-58 -14 -122.5 -18t-128 4t-122.5 30.5t-107 63.5q-29 25 -50 56.5t-36.5 66.5t-26 72t-17.5 73q-14 75 -21.5 149zM554.5 598q4.5 -92 29.5 -188q10 -41 25 -79.5t36 -72t50.5 -61t69.5 -46.5q71 -32 153 -37h7.5 h15h17t13.5 1q2 0 4.5 0.5t6.5 1.5l1 1q9 5 17.5 11.5t16.5 12.5q26 20 48 44t42 49q60 78 103 164.5t70 181.5q30 104 36.5 202.5t-5.5 204.5q0 4 2 -2l-3 8v3q-2 4 -2 6q-3 26 -9 52q-7 42 -17.5 82.5t-29.5 78.5q-26 52 -61 88.5t-78 58.5t-92.5 30.5t-104.5 4.5l-14 -6 q-75 -47 -127 -115t-92 -145q-45 -87 -75.5 -175t-44 -177.5t-9 -181.5zM575 1560l18.5 37t22.5 35q25 31 58 56t69.5 44t76 33t77.5 24q43 11 89.5 21t91.5 4q57 -7 108.5 -24t105.5 -34q8 -3 17 -5.5t18 -4.5q9 10 17 20.5t16 21.5l269 60q-16 -23 -34.5 -45.5 t-38.5 -42.5q-39 -36 -90 -65.5t-106.5 -49.5t-113 -29t-111.5 -5q-45 3 -86.5 17.5t-84.5 28.5q-20 6 -39 12t-39 10l-9 1q-6 -11 -11.5 -20.5t-10.5 -20.5zM1309 998v2v-2z" />
<glyph unicode="&#xd6;" horiz-adv-x="1558" d="M282 506q-2 74 6 133q13 98 43.5 198t77.5 193t111 174.5t145 141.5t172 96.5t188 59.5l-32 -57l76 66q39 5 78 6t78 -5q38 -2 81 -9.5t78 -27.5q35 -19 65.5 -43.5t54.5 -56.5q39 -54 62.5 -122t34 -141.5t11.5 -147t-5 -136.5q-8 -85 -31 -167.5t-58 -160.5 q-48 -110 -115.5 -200.5t-153.5 -159t-190 -111.5t-225 -58q-53 -6 -109 -5t-108 13q-60 14 -116 42.5t-98 76.5q-40 47 -66 115.5t-39.5 143.5t-15.5 149zM567 561q6 -97 35 -195q13 -45 31.5 -83t44 -69t60 -55t80.5 -40q38 -13 75 -17t78 -3q5 1 10 1t10 2q10 4 14 7 q20 15 37 29t34 32q52 55 92 118.5t70 132.5q17 37 31 76t24 77q4 16 9 37t9 42.5t7.5 42t5.5 37.5q6 49 7 107.5t-5.5 120t-21 123t-40 114.5t-63 95t-89.5 66q-17 5 -33.5 9.5t-33.5 7.5l-28 4h-5.5t-7 0.5t-5 0.5t0.5 0h11q-15 0 -29.5 1t-30.5 3l-21 -2q-10 -3 -16 -7 q-73 -45 -125 -111t-91 -141q-47 -90 -78.5 -183t-45 -188t-7.5 -192zM690 1651q0 61 43 106q41 45 119 47q80 -2 123 -47q39 -45 39 -106q0 -60 -39 -105q-43 -47 -123 -47q-78 0 -119 47q-43 45 -43 105zM1206 1651q0 61 43 106q41 45 119 47q80 -2 123 -47 q39 -45 39 -106q0 -60 -39 -105q-43 -47 -123 -47q-78 0 -119 47q-43 45 -43 105z" />
<glyph unicode="&#xd7;" horiz-adv-x="1229" d="M267.5 879.5q3.5 27.5 3.5 56.5l283 95q0 -39 -2 -62.5t2.5 -42.5t19 -38.5t47.5 -48.5q28 -21 52 -47t48 -51l72 -76q42 44 83.5 86.5t83.5 86.5l252 39q-79 -81 -157 -161.5t-156 -162.5l333 -340l-278 -109l-245 250l-175 -178l-252 -39q40 41 82 81t83.5 80t81 81.5 t75.5 86.5q4 5 0.5 9.5t-10 8.5t-14 8t-11.5 8q-26 27 -51.5 54.5t-51.5 53.5q-24 26 -48 51t-50 49l-28 26t-26.5 26.5t-23.5 28.5t-17 34q-9 29 -5.5 56.5z" />
<glyph unicode="&#xd8;" horiz-adv-x="1558" d="M248 -36q29 45 59 86.5t66 80.5q-1 11 -0.5 22t-2.5 23q-4 8 -10 14t-12.5 12t-12.5 12.5t-10 15.5q-34 91 -47 175.5t-8 167t26 166t55 172.5q32 83 75.5 166t103.5 149q34 38 69.5 69.5t77.5 60.5q66 47 153 84t180 56.5t185.5 16.5t170.5 -36q19 -8 37 -18l209 32 q4 5 7.5 10t8.5 10q3 2 1.5 0t-4.5 -5t-6.5 -7t-5.5 -7h1l-1 -1q-9 -13 -17 -26.5t-17 -27.5q-14 -21 -30.5 -39.5t-33.5 -36.5v-7.5v-12v-12.5t1 -9l2 -10l18 -14q11 -8 16 -14.5t10 -19.5q17 -43 26 -89.5t15 -92.5q20 -157 -8 -311.5t-95 -297.5q-73 -157 -183 -265.5 t-272 -174.5q-61 -26 -127 -43t-132 -23q-32 -3 -71 -1.5t-78 8t-76.5 18t-66.5 29.5zM550.5 651q-2.5 -58 6.5 -116q5 -31 10.5 -61t13.5 -60l58 77q81 109 161.5 216t162.5 216q43 57 84 114.5t89 111.5q20 23 47.5 36.5t51.5 30.5q-1 3 -2 7t-1 9q-2 23 1 36 q-18 15 -31.5 26.5t-26.5 21.5t-29 19t-38 19q-44 19 -95 25.5t-98 -5.5q-18 -5 -35.5 -16.5t-33.5 -26t-30.5 -30t-26.5 -28.5q-54 -59 -91.5 -134t-66.5 -149q-21 -54 -38.5 -110t-28.5 -113.5t-13.5 -115.5zM652 275q0 -2 0.5 -3.5t0.5 -3.5q1 -15 0 -29.5t8 -28.5 q5 -8 10 -12q6 -4 16 -10.5t20 -14t20 -14t16 -10.5l4 -3h1l1 -1q15 -7 30 -14.5t30 -13.5q14 -5 28.5 -8.5t28.5 -6.5q28 -6 59.5 -7t59.5 9q27 9 50 30.5t42 41.5q52 55 91 119.5t68 133.5q57 134 80 273t4 283q-3 23 -6.5 47.5t-8.5 49.5q-19 -25 -37 -50t-36 -49 q-81 -109 -161.5 -216t-162.5 -216q-38 -51 -74.5 -103.5t-80.5 -100.5q-20 -22 -46 -35t-49 -32z" />
<glyph unicode="&#xd9;" horiz-adv-x="1589" d="M328 1361l181 129q-17 -3 -33.5 -5t-33.5 -5l4 2q17 2 33.5 5t33.5 5l1 1h11q4 1 8 1h9q28 1 51.5 0t45.5 -5.5t42.5 -15t41.5 -29.5l10 -9q82 34 162.5 48t171.5 14l-186 -132h-37t-36 -2q-5 -4 -9 -7t-9 -6q-5 -58 -12.5 -114t-18.5 -113q-11 -59 -25.5 -116 t-28.5 -114l-31 -128q-8 -32 -15 -64.5t-13 -64.5q-7 -41 -13 -88t-6.5 -95.5t6 -96.5t23.5 -90t46.5 -76.5t74.5 -55.5q21 -10 45.5 -18.5t47.5 -10.5q30 -2 60.5 -2.5t60.5 5.5q45 29 77 74.5t55.5 98t39 107.5t27.5 104q28 110 51 219t48 219q20 86 37.5 170.5 t21.5 172.5q-20 10 -35.5 29t-29.5 34q-5 6 -11.5 11.5t-14.5 8.5q-8 2 -17 4t-15 2h-26q-3 0 -7.5 -0.5t-6.5 -0.5h-12l182 129q-17 -2 -34.5 -4.5t-34.5 -5.5l4 2q17 2 34 5.5t34 5.5h1h9q4 1 8 1h9q22 0 44 -0.5t43 -4t40.5 -11.5t37.5 -23l9.5 -9.5l9.5 -9.5 q77 34 158.5 47.5t172.5 13.5l-186 -132h-33.5t-33.5 -1l-17 -13q-5 -77 -20 -151.5t-32 -149.5l-34 -156t-35 -156q-18 -81 -37.5 -165.5t-50 -164t-76 -150.5t-115.5 -125q-58 -44 -124 -76t-136.5 -52t-143.5 -28t-145 -5q-39 1 -80 10t-79 26.5t-69.5 44t-51.5 62.5 q-30 56 -42.5 113.5t-13.5 116.5t6.5 118.5t19.5 119.5q17 87 38 171.5t41 169t35.5 170t21.5 174.5q-22 24 -43 49t-50 40q-9 3 -18.5 4t-19.5 2q-5 0 -10 -0.5t-10 -0.5q-3 0 -7.5 -0.5t-6.5 -0.5h-3q-3 -1 -5.5 -0.5t-5.5 0.5zM620 1733l265 120q104 -54 206.5 -107.5 t205.5 -108.5l-265 -120q-103 55 -205.5 108.5t-206.5 107.5zM1243.5 1362.5q0.5 -0.5 2.5 -1.5l-1 1q-2 1 -1.5 0.5z" />
<glyph unicode="&#xda;" horiz-adv-x="1589" d="M328 1371l181 129q-17 -3 -33.5 -5t-33.5 -5q-8 -1 -4 0t15 3t26.5 4.5t32.5 4.5l2 1h10q1 0 1.5 0.5t2.5 0.5q9 2 18.5 1.5t19.5 -0.5q49 2 89 -10.5t76 -46.5l3 -3q82 35 162 48.5t172 13.5l-186 -132h-37t-36 -2q-5 -4 -9 -7t-9 -6q-6 -78 -19.5 -154t-30.5 -152 t-36 -151t-36 -151q-19 -86 -34 -174t-6 -176q5 -51 21 -102t47 -93q24 -32 59 -52.5t75 -31t82 -12t79 6.5q42 27 72 67t51.5 86t37 95t27.5 94q34 122 59.5 244t52.5 245q19 85 36.5 168t20.5 169q-12 7 -22.5 17t-20.5 21.5t-21.5 22t-26.5 19.5q-15 5 -28.5 5.5 t-29.5 0.5q-4 0 -10.5 -0.5t-5.5 -0.5h-10l182 129q-17 -2 -34.5 -4.5t-34.5 -5.5l4 2q17 2 34 5.5t34 5.5h1h9q4 1 8 1h9q22 0 44.5 -0.5t44.5 -4t42 -12t37 -24.5q5 -5 9 -8.5t8 -8.5q77 33 158.5 47t172.5 14l-186 -132h-34.5t-33.5 -1l-5 -3q-3 -2 -6 -4.5t-6 -5.5 q-5 -77 -20 -151.5t-32 -149.5q-19 -88 -38 -174t-39 -174q-17 -72 -34.5 -146t-44 -144.5t-64.5 -135t-95 -116.5q-30 -27 -64 -48.5t-70 -40.5q-30 -16 -60.5 -29.5t-62.5 -24.5q-60 -20 -132.5 -34t-146.5 -14t-143.5 17t-123.5 59q-28 23 -46.5 51.5t-32.5 60.5 q-23 55 -31 111.5t-6 113.5t11 114.5t21 113.5q17 82 38 163.5t40 163.5t33.5 164.5t20.5 166.5q-16 17 -30.5 34.5t-32.5 32.5q-7 6 -11 9.5t-12 7.5l-12 6q-10 2 -20.5 3.5t-13.5 1.5q-5 0 -10 -0.5t-10 -0.5q-3 0 -8 -0.5t-8 -0.5h-2q-3 -1 -5.5 -0.5t-5.5 0.5z M1054 1607q106 54 211.5 106.5t209.5 109.5l161 -25q-116 -63 -229 -120t-233 -117zM1393 1333q0 -1 3 2l7 6zM1403 1341l6 6z" />
<glyph unicode="&#xdb;" horiz-adv-x="1589" d="M330 1361l181 129q-17 -3 -33.5 -5t-33.5 -5l4 2q17 2 33.5 5t33.5 5l1 1h12q4 1 8 1h9q25 1 48.5 0.5t45.5 -5t42.5 -14t39.5 -26.5l15 -14q82 34 162 48t171 14l-186 -132h-36.5t-37.5 -1l-17 -14q-5 -57 -12.5 -112.5t-17.5 -112.5q-11 -58 -24.5 -115t-28.5 -114 q-10 -39 -19.5 -78t-18.5 -78q-11 -50 -22 -108.5t-16 -119.5t-1.5 -121.5t22.5 -112.5t56 -93t99 -63q15 -5 32 -10t33 -7q30 -2 60 -2.5t60 5.5q45 29 77 74.5t55 98t38.5 108t27.5 103.5q29 117 53.5 233t52.5 232q19 79 35 157.5t19 159.5l-9 5q-12 7 -22 17.5t-19 21.5 t-18.5 21t-22.5 17q-15 5 -28.5 5.5t-30.5 0.5q-2 0 -5 -0.5t-6 -0.5h-7h-9l182 129q-17 -2 -34.5 -4.5t-34.5 -5.5l4 2q17 2 34 5t34 5l1 1h10q4 1 8 1h9h37.5t39 -2t37.5 -7t34 -15q11 -7 20 -16t17 -19q77 34 158 48t172 14l-186 -132h-33.5t-33.5 -1l-16 -12 q-5 -81 -21 -159.5t-35 -156.5q-20 -85 -38 -170t-38 -170q-18 -77 -38 -155.5t-49 -151.5t-72.5 -138.5t-109.5 -117.5q-58 -45 -128.5 -78.5t-146 -54t-153.5 -27.5t-151 1q-35 4 -72 14t-71 27.5t-62 42t-46 57.5q-28 53 -40.5 107.5t-14.5 110t4.5 111.5t17.5 113 q17 90 38.5 178t42 176t37 177t22.5 180q-22 24 -43 49t-50 40q-9 3 -18.5 4t-19.5 2q-5 0 -10 -0.5t-10 -0.5q-3 0 -8 -0.5t-8 -0.5h-2q-3 -1 -5.5 -0.5t-5.5 0.5zM675 1586l36 22l36 22q51 32 102 62.5t105 57.5q9 5 23.5 12.5t23.5 9.5l8 2h-1q-5 -2 -2.5 -1t9.5 4 t15.5 7t15.5 7q-2 0 1 1t5 2l2 1l32 12q36 12 73.5 24t75.5 15q64 6 108.5 -10.5t81 -44.5t71.5 -62.5t81 -65.5l-265 -120q-29 19 -55 42.5l-52 47t-53.5 44.5t-59.5 35q-57 -28 -111.5 -62t-108.5 -67zM1011 1775q38 11 76.5 21.5t77.5 21.5l-119 -27z" />
<glyph unicode="&#xdc;" horiz-adv-x="1589" d="M309 1360l186 132q34 4 69 0q30 -3 65.5 -12.5t68.5 -30.5l22 -21q79 33 160.5 49.5t167.5 18.5l-186 -132q-17 0 -23.5 -0.5t-11 -0.5t-10 -0.5t-21.5 -1.5q-8 -5 -12.5 -8.5t-9.5 -7.5q-3 -26 -5 -53.5t-6 -54.5q-7 -48 -17 -95t-21 -95q-25 -115 -55 -229t-50 -230 q-8 -42 -12 -87.5t-1 -91t14 -89.5t34 -82q46 -77 114 -110t156 -31q15 0 32 2.5t31 10.5q37 21 64.5 55t49.5 70q31 51 52 108.5t36 118t27 121.5t26 118q34 141 67.5 282t46.5 287q-12 9 -21.5 20.5t-19.5 23t-21.5 22.5t-26.5 19q-11 7 -29.5 6.5t-30.5 -0.5 q-4 0 -10.5 -0.5t-5.5 -0.5h-11l186 132q-1 0 14.5 -0.5t34.5 -0.5h49q21 -3 37.5 -7t30 -11t26.5 -16.5t27 -23.5q78 31 157.5 46t164.5 17l-186 -132q-19 -1 -37.5 -1.5t-37.5 -3.5q-2 -2 -4 -2.5t-4 -2.5q-7 -74 -20 -146t-28.5 -143.5t-33 -142.5t-34.5 -142 q-21 -89 -39.5 -176t-47.5 -168t-74.5 -155t-119.5 -137q-30 -25 -65 -45t-70 -36q-54 -25 -118.5 -48t-133 -36.5t-137.5 -15.5t-132 14t-117 52.5t-92 99.5q-25 42 -37 89t-15 96t1.5 98t12.5 95q15 87 37 171t42 169q17 74 33.5 147t28.5 148q5 31 7 62t6 61 q-23 25 -45 51.5t-53 39.5q-15 3 -29 4t-30 1q-4 0 -10.5 -0.5t-5.5 -0.5h-11zM702 1701q0 61 43 106q41 45 119 47q80 -2 123 -47q39 -45 39 -106q0 -60 -39 -105q-43 -47 -123 -47q-78 0 -119 47q-43 45 -43 105zM1218 1701q0 61 43 106q41 45 119 47q80 -2 123 -47 q39 -45 39 -106q0 -60 -39 -105q-43 -47 -123 -47q-78 0 -119 47q-43 45 -43 105z" />
<glyph unicode="&#xdd;" horiz-adv-x="1274" d="M192 1381l219 131q54 -2 112 -12t106 -41q72 33 148 43t160 10l-186 -132h-23q9 -16 12 -35t4 -38.5t1.5 -39t5.5 -37.5q21 -85 45 -168.5t43 -169.5q5 -20 9.5 -42t6.5 -43q0 -2 0.5 -3.5t0.5 -3.5q11 18 21.5 36.5t21.5 36.5q56 90 117 174.5t121 170.5q7 10 14.5 21.5 t12.5 23.5q7 17 11.5 40.5t12.5 43.5q-25 20 -49.5 25.5t-59.5 7.5h-13l186 132q46 0 92 -3.5t86 -26.5q62 17 125.5 23.5t128.5 6.5l-186 -132h-22t-22 -1q-2 -7 -3.5 -13.5t-3.5 -13.5q-7 -21 -18.5 -41t-25 -39t-28 -37t-27.5 -36q-46 -66 -91.5 -132t-88.5 -134 q-29 -47 -53.5 -86.5t-52 -73t-62 -61t-85.5 -49.5l-18 -11l-21 -15q-2 -42 -7 -82t-13 -81q-4 -22 -13 -57t-16.5 -72t-9.5 -71t8 -54q9 -18 25.5 -33t33.5 -26q23 -15 50 -22q29 -2 57 -2.5t57 -0.5l-186 -132h-74t-74 4q-21 2 -41.5 8.5t-39.5 16.5q-22 11 -41 27 q-41 -19 -82.5 -30t-84 -17t-86 -7.5t-87.5 -1.5l186 132h79q5 4 9 7t9 6q-3 21 -1.5 42.5t6 43t10 42t10.5 39.5q8 32 13.5 64.5t10.5 64.5q5 30 7.5 61t3.5 61q-8 22 -11.5 44t-6 44t-4.5 44t-6 44q-20 100 -47 197t-52 195q-4 17 -5.5 34t-2.5 34.5t-2.5 34t-6.5 33.5 q-11 21 -29.5 31t-37.5 21q-25 16 -47 26.5t-44 17t-46.5 9.5t-54.5 5zM778 1432l1 1zM991 1636q88 37 172.5 79t163.5 94l197 -3q-108 -72 -223 -129t-234 -107zM1342 1368q4 1 12 2q-5 0 -11 -2q-5 -1 -1 0zM1469 1424l6 7q0 1 -2 -1t-4 -6z" />
<glyph unicode="&#xde;" horiz-adv-x="1288" d="M31 3l186 132q4 0 22.5 1t35.5 3q5 2 13 8l9 6q9 32 8.5 66t4.5 66q6 34 17 67t14 66q1 10 3.5 24t6.5 27.5t10.5 25.5t15.5 19l7 5q6 84 21 165.5t34 162.5t40 161.5t40 161.5l8 2q-5 9 -6 19q-5 22 -2.5 44t4.5 44q-23 23 -43.5 47t-49.5 41q-11 3 -22.5 5t-24.5 3 q-23 0 -44.5 0.5t-44.5 4.5l243 126q-2 0 -4.5 1t-4.5 2q-3 1 -1 1t6 -0.5t8.5 -1.5t7.5 -1h24q28 0 57.5 -2.5t55.5 -13.5q18 -8 34.5 -20.5t30.5 -27.5q157 64 330 68l-186 -132q-18 0 -25 -0.5t-11.5 -0.5t-10.5 -1t-23 -2h-1q-7 -5 -11 -7t-8 -5q0 -3 -0.5 -6t-0.5 -5 q0 -21 -0.5 -36t1.5 -28.5t9.5 -26.5t22.5 -30q8 -8 15 -15.5t16 -14.5q2 -2 4 -3l4 -2q8 2 17.5 2.5t25.5 1.5q4 0 10 0.5t11 0.5h11q14 1 28.5 1h28.5q47 1 95 -4t92 -23q51 -20 89 -57.5t63 -85.5q50 -98 40.5 -192.5t-70.5 -186.5q-30 -46 -75 -84.5t-99.5 -69t-115 -53 t-122 -38t-121 -24t-111.5 -9.5q-20 -1 -40 -0.5t-40 2.5q-2 -7 -2.5 -13t-1.5 -13q-2 -33 -2.5 -63t-11.5 -58l3 1q14 -14 27 -28.5t27 -27.5t30.5 -23.5t36.5 -14.5q30 -2 60 -2h61l-186 -132q-32 0 -66 -1t-67.5 1.5t-65 11.5t-59.5 30q-8 5 -14 11l-13 13 q-77 -32 -155.5 -49t-162.5 -17zM665 600q18 -11 35.5 -32t34.5 -32q13 -8 24 -13t25 -10l12 -3h1l62 -3q42 0 81 6t70 37q46 46 70.5 105t25.5 121t-22 121t-71 105q-60 58 -144 66q-22 2 -39.5 2t-39.5 -1q-8 0 -20.5 -1.5t-10.5 0.5h-6q-29 -116 -54.5 -231.5 t-32.5 -235.5q-1 0 -1 -1zM754 1072q6 0 14 2h1q11 3 23 6t24 7q8 2 4.5 1.5t-14 -3t-25 -6t-27.5 -6.5v-1zM839 1188q3 1 6.5 1.5t7.5 2.5h2z" />
<glyph unicode="&#xdf;" horiz-adv-x="1286" d="M-225 -420l278 109l9 -9l13.5 -13.5t14.5 -15.5t12 -13q8 16 14 31.5t12 31.5q29 72 50 145.5t40 147.5q37 141 64.5 281.5t55.5 283.5q11 55 22 108.5t16 108.5q1 13 2 27t6 27q-10 11 -20 24.5t-21.5 25.5t-24.5 20.5t-28 10.5q-22 -1 -43.5 -3t-43.5 -2l183 130h-4 q2 0 5 1l2 1h10q4 0 8 0.5t9 0.5q11 1 21.5 2t21.5 1q8 24 17.5 48t20.5 47q82 169 209 271.5t311 143.5q32 7 76.5 11.5t91.5 4t91 -9t75 -26.5q73 -43 109.5 -115.5t22.5 -157.5q-6 -37 -17 -68t-36 -60q-32 -38 -72.5 -65.5t-85.5 -50.5q-17 -9 -30.5 -15.5t-30.5 -14.5 l-32 -16q-21 -17 -33 -40.5t-21 -48.5q-8 -25 -15 -51.5t-6 -52.5q2 -55 27 -102t58 -91t66.5 -88.5t53.5 -93.5q9 -23 8.5 -48t-5.5 -49q-2 -11 -4.5 -20.5t-5.5 -19.5q0 -1 -0.5 -2t-0.5 -3q-1 -2 -1 -3q-2 -10 -4 -15q-5 -18 -9 -36t-10 -35q-16 -49 -56.5 -87t-87.5 -58 q-11 -5 -31 -13.5t-44.5 -18t-49.5 -18t-44 -12.5q-95 -20 -181.5 8t-155.5 94l278 109q45 -43 97 -68l3 11q5 19 12.5 43.5t12.5 49t5.5 48t-6.5 41.5q-21 49 -55.5 93.5t-67.5 89.5t-58 93.5t-27 105.5q-1 31 6.5 61t17.5 59q14 39 32.5 68.5t42.5 52.5t53.5 43t64.5 40 q26 15 54.5 28.5t56.5 25.5q33 34 46.5 80t8.5 92.5t-27 89t-60 71.5q-36 28 -82.5 37.5t-91.5 5.5q-36 -27 -66.5 -61.5t-55 -73t-44 -80.5t-33.5 -84l-27 -83q-3 -11 -7.5 -29t-10 -37t-12.5 -36.5t-15 -26.5q-2 -4 -4 -7.5t-4 -8.5q0 -1 -0.5 -2t-0.5 -3q-1 -2 -1 -5 q-1 -2 -1 -4q0 5 1 9.5t2 9.5q1 3 0.5 -1t-1.5 -9t-1.5 -9t-0.5 -1v1l-2 -23q-2 -23 -4.5 -46t-7.5 -46q-11 -60 -23.5 -118t-23.5 -118q-15 -79 -31 -157.5t-33 -157.5q-41 -191 -103 -378q-19 -58 -43 -118t-62 -108q-29 -37 -79 -70t-107.5 -55t-117 -30t-105.5 5 q-24 7 -43.5 18t-36 25t-32 30t-32.5 33zM98 -362l3 -2q-2 2 -3 2zM1157 1063q1 0 2 1z" />
<glyph unicode="&#xe0;" horiz-adv-x="1221" d="M145 170.5q-2 39.5 2.5 79t13 78t19.5 76.5q30 105 80 200t119 174t157 138t195 92q45 14 94.5 23.5t99 10.5t97.5 -9.5t91 -35.5q2 -1 8.5 -5.5t14.5 -10.5t15.5 -12.5t12.5 -10.5q13 -13 21.5 -22t13.5 -18l27 6l-18 -26l-3 -1q1 -5 0.5 -11.5t-1.5 -14.5 q0 -3 -0.5 -5.5t-1.5 -5.5q-3 -42 -13.5 -83.5t-24 -82t-28.5 -80.5t-27 -80q-17 -56 -22 -111.5t-11 -112.5q-2 -20 -7.5 -42t-8.5 -44t-1.5 -42.5t13.5 -36.5q17 23 32 48t31 50l269 60q-35 -60 -74.5 -112t-96.5 -92q-75 -53 -163 -80q-58 -19 -120 -28q-21 -3 -44.5 -3 t-46 6t-41.5 18t-30 33q-10 19 -11.5 38t1 38.5t7 38.5t6.5 39l3 32q-33 -42 -71 -78t-82 -63q-13 -8 -29.5 -16.5t-33 -16.5t-32 -14.5t-27.5 -11.5q-23 -10 -48 -17.5t-50 -12.5q-26 -7 -54.5 -11.5t-55.5 -5.5q-26 -1 -56 2.5t-52 19.5q-21 16 -29 39t-16 47 q-11 39 -13 78.5zM428 257q6 -51 22 -100q8 -26 29 -36q10 9 20 20t15 17q35 42 62.5 88t53.5 93q1 1 3.5 5.5t5 8.5t4.5 7l2 3v1l1 1l4 7q0 1 1.5 3t0.5 0l-4 -7l-3 -6l-2 -3l-4 -7v1l5 9l1 1l-1 -1l-1 -3v1l1 2l1 2l1 1q0 1 1.5 3t0.5 0l-3 -5l-2 -4l-2 -3q0 -2 -2 -4 l-2 -3l-2 -4v1l8 14l2 4l5 8l4 7q6 11 10.5 14.5t17.5 14.5q21 20 43 34.5t47 28.5q27 15 73 34l2 6l22 66t21 66q4 15 11 37t13 46t9 47t0 38q-14 24 -37 42t-50 30.5t-56 19t-56 5.5q-64 -49 -112 -112t-83 -134.5t-58.5 -148.5t-38.5 -154q-10 -51 -4 -102zM443 1351 l265 120q96 -77 190 -153.5t189 -154.5l-265 -120q-95 78 -189 154.5t-190 153.5zM633 342q1 2 2 3q-2 -2 -2 -3zM637 348.5q1 1.5 2 3.5q-2 -2 -2 -3q-1 -2 0 -0.5zM641 356l2 3z" />
<glyph unicode="&#xe1;" horiz-adv-x="1221" d="M147.5 177q-1.5 40 2.5 79.5t13 78.5t19 76q30 106 79.5 201.5t118.5 173.5t157.5 137t196.5 92q45 14 94.5 23.5t99 10.5t97.5 -9.5t90 -35.5q3 -1 9.5 -5.5t14.5 -10.5t15.5 -12.5t12.5 -10.5q13 -13 21.5 -22t13.5 -18l27 6q-9 -13 -20 -26l-2 -1q1 -5 0.5 -11.5 t-1.5 -14.5q0 -3 -0.5 -5.5t-0.5 -5.5q-2 -23 -7 -46t-12 -46q-2 -6 -3.5 -12t-3.5 -11q-1 -5 -5 -13q0 -2 -0.5 -3t-0.5 -2l-3 -10q-16 -55 -33 -104q-14 -42 -27 -84t-21 -86q-4 -23 -4.5 -47t-4.5 -47q-2 -13 -2 -26t-2 -27q0 -4 -2 -12q0 -4 -1.5 -11t-2 -11t-0.5 -2 t3 17q0 1 -1 -9t-3 -15l-6 -29q-2 -26 -1 -45t12 -34q17 23 33 47.5t31 50.5l269 60q-39 -66 -84 -122.5t-111 -98.5q-43 -27 -90.5 -45t-96.5 -31q-24 -7 -58.5 -13t-68.5 -4.5t-63.5 13.5t-44.5 42q-10 20 -11.5 40.5t1.5 41t7.5 41t6.5 40.5l3 25q-33 -44 -75.5 -82.5 t-91 -68.5t-101.5 -50.5t-107 -29.5q-26 -7 -54.5 -11.5t-55.5 -5.5q-26 -1 -55.5 3t-52.5 19q-20 14 -28.5 39t-15.5 47q-11 38 -12.5 78zM437 383q-17 -89 3 -178q3 -15 8 -30.5t13 -29.5q2 -3 9.5 -10.5t9.5 -10.5q44 40 77 94.5t62 105.5q10 18 20.5 38.5t24.5 35.5 q35 38 83.5 66.5t99.5 48.5q11 33 22 65.5t21 66.5q5 16 12.5 39t13.5 47t9 47t0 40q-15 24 -37.5 42.5t-49.5 31t-56 18.5t-56 5q-62 -48 -109 -109t-82 -130t-59 -143.5t-39 -149.5zM647 1108q97 76 191.5 151.5t190.5 152.5l228 18l-382 -304z" />
<glyph unicode="&#xe2;" horiz-adv-x="1221" d="M144 180q-1 40 4.5 81t14.5 80t18 70q32 113 86 212.5t129 179.5t171 137.5t212 87.5q40 10 83.5 16t87 4.5t85.5 -12t79 -32.5q2 -1 8.5 -5.5t14.5 -10.5t15.5 -12.5t12.5 -10.5q13 -14 22 -22.5t14 -17.5l27 6q-9 -13 -20 -26l-2 -1q1 -5 0.5 -11.5t-1.5 -14.5 q0 -3 -0.5 -5.5t-0.5 -5.5q-2 -23 -7 -46t-12 -46q-2 -6 -3.5 -12t-3.5 -11q-1 -5 -5 -13q0 -2 -0.5 -3t-0.5 -2l-3 -10q-16 -55 -33 -104q-14 -42 -27 -84t-21 -86q-4 -23 -4.5 -47t-4.5 -47q-2 -13 -2 -26t-2 -27q0 -4 -2 -12q0 -4 -1.5 -11t-2 -11t-0.5 -2t3 17 q0 1 -1 -9t-3 -15l-6 -29q-2 -26 -1 -45.5t12 -34.5q17 24 32.5 48.5t31.5 50.5l269 60q-35 -60 -75 -111.5t-97 -92.5q-75 -53 -163 -80q-58 -19 -120 -28q-20 -3 -43.5 -3t-46.5 5.5t-42 17.5t-30 33q-9 19 -10.5 38t1 38.5t6.5 38.5t6 39l3 35q-26 -35 -55.5 -65.5 t-65.5 -56.5q-37 -26 -74.5 -44.5t-79.5 -35.5q-6 -3 -16 -7t-18.5 -7.5t-13 -4.5t0.5 2q5 4 13 7.5t16 6.5q-1 -1 -3 -1q-18 -6 -44 -14t-56 -15.5t-62 -11.5t-61.5 -2.5t-53.5 11.5t-39 31q-10 15 -15.5 33.5t-8.5 35.5q-2 4 -2 6q-12 32 -13 72zM393 85q-9 -3 3 0t34 9 t49 14t49 14l-125 -35l-5 -1q-5 -2 -3 -1t9 3l31 13zM410 1124q48 38 91 76q60 51 121.5 102t131.5 87q19 9 29 14t20.5 9t25.5 10t44 17q21 8 47 15t52.5 10t52 0t47.5 -13q28 -13 49 -37.5t41 -47.5q38 -45 75.5 -88.5t76.5 -87.5l-278 -109q-41 46 -79 93t-80 92 q-10 11 -19 22.5t-20 20.5l-16 -14q-47 -38 -92 -76.5t-92 -76.5zM429.5 274.5q1.5 -49.5 16.5 -96.5q5 -14 11 -28.5t21 -21.5q0 -1 2 -1q42 38 73.5 88.5t59.5 98.5q11 19 21.5 42.5t26.5 38.5q41 41 87.5 68t97.5 47q2 8 4.5 15.5t5.5 15.5q10 29 20.5 57.5t15.5 57.5 q3 17 10 38t13 42.5t9.5 42.5t-0.5 39q-14 24 -37 42t-50 30.5t-55.5 19t-55.5 5.5q-60 -46 -109 -109t-86.5 -134.5t-62 -148.5t-34.5 -151q-6 -48 -4.5 -97.5z" />
<glyph unicode="&#xe3;" horiz-adv-x="1221" d="M143 262q11 76 31 149q30 105 80 200.5t119.5 174t157.5 137.5t195 92q45 14 94 23.5t98.5 10.5t97.5 -9.5t91 -35.5q3 -1 9.5 -5.5t14.5 -10.5t15.5 -12.5t12.5 -10.5q13 -13 21.5 -22t13.5 -18l26 6l-18 -26l-3 -1q1 -5 0.5 -11.5t-1.5 -14.5q0 -3 -0.5 -5.5t-1.5 -5.5 q-4 -46 -16.5 -93t-28 -93.5t-32 -92.5t-28.5 -90q-10 -38 -13.5 -76.5t-5.5 -77.5q-1 -15 -2.5 -30t-4.5 -30q-2 -12 -4 -19q0 -2 -0.5 -3t-0.5 -2l-1 -6l-4 -23q-2 -23 -0.5 -43t12.5 -35q17 23 32 47.5t31 49.5l269 60q-35 -60 -75 -112t-97 -92q-75 -53 -163 -80 q-58 -19 -120 -28q-21 -3 -44.5 -3t-45.5 6t-41 18t-31 33q-11 20 -11.5 41.5t1.5 42.5q2 22 7.5 43t7.5 43l2 18q-38 -50 -84 -92t-106 -71q-43 -21 -89.5 -41t-94.5 -28q-26 -7 -54.5 -11.5t-55.5 -5.5q-26 -1 -56 2.5t-52 19.5q-23 17 -32.5 44t-15.5 53q-17 76 -6 152z M342 1144q13 26 27 50t34 45q35 37 86 65.5t107.5 48t114 30t106.5 12.5q16 1 33 -2.5t32 -6.5q49 -8 94.5 -27t92.5 -33l1 -1q22 25 41 50l269 60q-23 -32 -50 -64.5t-59 -57.5q-44 -33 -95.5 -60t-108 -44t-114.5 -21.5t-113 7.5q-42 9 -81.5 25t-81.5 29l-36 9l-19 -35z M421.5 282.5q0.5 -44.5 13.5 -88.5q5 -15 9.5 -30t14.5 -28q4 -5 15 -9q11 10 22 22.5t15 17.5q28 35 51 73l46 76l21 37l8 15q4 7 8 14.5t9 12.5q16 18 36.5 33.5t40.5 27.5q21 13 49 27.5t60 28.5l9 28q10 28 18.5 55.5t16.5 54.5q4 15 11 37t13 46t9 47t0 38 q-15 24 -37.5 42.5t-49 31t-55.5 18.5t-56 5q-60 -46 -109 -109t-86.5 -134.5t-62 -148.5t-34.5 -151q-6 -45 -5.5 -89.5zM625 345q2 2 4 6q-2 -2 -4 -6z" />
<glyph unicode="&#xe4;" horiz-adv-x="1221" d="M139.5 182.5q-0.5 39.5 5 80.5t14.5 80.5t18 70.5q32 114 86 213.5t129 179.5t170.5 137t212.5 87q40 10 83.5 16t87 4.5t85.5 -12t79 -32.5q2 -1 8.5 -5.5t14.5 -10.5t16 -12.5t12 -10.5l23 -23t14 -17l26 6q-5 -7 -9.5 -13.5t-9.5 -12.5h-1q0 -15 -4 -34 q-5 -52 -19 -102t-31 -99t-34 -98.5t-28 -99.5q-7 -35 -8.5 -70t-5.5 -70q-2 -14 -4 -27.5t-4 -27.5q0 -5 -2 -11q0 -6 -2 -8q0 -2 -0.5 -3.5t-0.5 -3.5l-4 -34q-2 -20 1 -35.5t11 -28.5q17 23 32.5 47t31.5 50l269 60q-34 -57 -72.5 -108.5t-92.5 -91.5q-77 -55 -171 -84 q-58 -19 -120 -28q-20 -3 -43.5 -3t-46 5.5t-42 17.5t-29.5 33q-9 18 -11 36t-0.5 37t5.5 37.5t7 36.5l6 41q-33 -44 -75.5 -82t-90.5 -68.5t-101 -51t-107 -29.5q-51 -14 -105 -17.5t-103 17.5q-20 10 -30 28t-18 38q-2 4 -3 10t-3 11l-4 12v1q-12 32 -12.5 71.5zM425 277 q2 -48 17 -96q3 -10 8.5 -24.5t15.5 -20.5q6 -4 7.5 -4.5l4.5 -1.5q43 40 75 93t61 104q10 18 20.5 38.5t24.5 35.5q35 38 83.5 66.5t99.5 48.5q0 1 2 5l22 66t21 66q13 40 23.5 81.5t10.5 83.5q-36 48 -87.5 75t-112.5 25q-60 -46 -109 -109t-86 -135t-61.5 -148.5 t-34.5 -150.5q-7 -50 -5 -98zM489 1300q0 62 43 107q41 45 119 47q80 -2 123 -47q39 -45 39 -107q0 -59 -39 -104q-43 -47 -123 -47q-78 0 -119 47q-43 45 -43 104zM981 1300q0 62 43 107q41 45 119 47q80 -2 123 -47q38 -45 38 -107q0 -59 -38 -104q-43 -47 -123 -47 q-78 0 -119 47q-43 45 -43 104z" />
<glyph unicode="&#xe5;" horiz-adv-x="1221" d="M149 205q2 49 12.5 100t26 99t28.5 83q21 54 47.5 109t59.5 106t72.5 96.5t86.5 81.5q57 43 121.5 77.5t133 56.5t140 29t143.5 -4q23 -4 48.5 -9.5t46.5 -16.5q28 -15 49 -38l42 -46l29 7q-5 -8 -11 -15t-11 -15q-9 -74 -28 -144t-42 -141q-10 -32 -18.5 -64t-25.5 -61 h-1q1 -4 1 -8v-8q0 -5 -2 -16t-2 -13l-1 -6q0 -3 -1 -7q0 -2 -0.5 -4.5t-0.5 -5.5v-1l-8 -68l-10 -82t-6 -83q-2 -22 10 -41q14 19 26 37.5t26 37.5q3 6 6.5 11.5t7.5 10.5l269 60q-23 -31 -42.5 -64.5t-45.5 -62.5q-46 -56 -100 -92t-123 -58q-26 -8 -51.5 -16t-52.5 -13 l-41 -7q-8 -2 -14 -4q-23 -6 -49 -1t-48 14q-27 12 -39.5 31t-17 42t-2.5 48.5t4 49.5l7 59q-70 -91 -162.5 -145t-202.5 -81q-26 -7 -54.5 -13t-57 -7.5t-56.5 3t-53 19.5q-18 11 -27 29t-15 38q-1 5 -3 13t-4 15l-3 10.5t1 -0.5v2q-14 37 -12 86zM436 266.5 q3 -46.5 17 -92.5q3 -10 8 -23t16 -19l10 -4q12 12 23 25t22 27q26 35 48.5 72.5t43.5 75.5q15 27 27 45t25.5 32t31.5 26.5t45 28.5q7 4 11 6.5t7 4t7 3t12 5.5l20 10q2 1 3 2t2 1q8 5 17.5 10t21.5 10l9 30q23 69 41.5 136.5t26.5 139.5q-13 14 -25.5 29t-27.5 27 q-9 9 -21 15q-6 4 -9 5l-24 8q-25 6 -46 8t-47 4q-37 -26 -71 -64.5t-64.5 -85t-57 -98.5t-46.5 -104.5t-34 -104t-19 -96.5q-6 -48 -3 -94.5zM462 108h1l1 1zM534 1244q-2 36 5 72t21 66q23 52 64 88.5t91 62t105 41t106 24.5q51 8 97.5 3.5t93.5 -27.5q4 -2 7 -5l6 -6 l20 -16t18 -19q22 -28 29.5 -63.5t3.5 -72.5t-16.5 -72.5t-31.5 -62.5q-30 -44 -70.5 -75.5t-87.5 -54t-98 -36.5t-100 -24q-26 -5 -54.5 -5t-57 5.5t-54.5 17t-45 30.5q-26 26 -38 59.5t-14 69.5zM789 430q1 -1 2 -1zM816.5 1353.5q0.5 -28.5 7 -55t18.5 -45.5 q7 -11 17 -22.5t22 -18.5l9 -5q10 17 16 36.5t9 38.5q9 50 -4.5 96.5t-57.5 75.5q-5 2 -8 4t-7 4q-12 -23 -17 -51.5t-4.5 -57zM855 892q4 -1 7.5 -2.5t1.5 -0.5zM981 3q14 4 28.5 7t29.5 6l38 15h-1z" />
<glyph unicode="&#xe6;" horiz-adv-x="1616" d="M141.5 204.5q0.5 39.5 5.5 79t14.5 78t19.5 73.5q30 102 77.5 192.5t113 166t148.5 133.5t185 93q43 15 90.5 27t95.5 17t96 0t92 -23q8 -4 15 -7t12 -6l112 25q-10 -12 -22.5 -34.5t-20.5 -48.5q2 2 3.5 2t3.5 2q38 22 93 44t114 35.5t116.5 13.5t101.5 -22 q29 -14 49 -41t31 -56q16 -39 20 -79q7 -69 -24.5 -129.5t-83 -110.5t-113 -88.5t-115.5 -63.5q-38 -18 -78 -33t-80 -27q-12 -4 -23.5 -7t-23.5 -6q-5 -2 -14.5 -4.5t-18 -5t-12.5 -3.5t1 1q1 0 1.5 0.5t1.5 0.5q-2 0 -3 -0.5t-2 -0.5q-8 -3 -17.5 -5.5t-18.5 -4.5 q2 -47 13.5 -91t33.5 -86q28 -53 71 -80t102 -17q22 14 42 33.5t38 42t34 45.5t32 44l269 60q-36 -48 -74 -96.5t-84 -88.5q-28 -23 -58.5 -43.5t-62.5 -35.5q-33 -16 -76 -33.5t-90 -32t-97 -23.5t-97.5 -9.5t-90 11t-76.5 38.5q-30 25 -48 57t-33 67q-11 29 -18 59t-11 60 q0 1 -0.5 1.5t-0.5 1.5q-37 -53 -78 -92.5t-88.5 -68.5t-101.5 -50t-118 -36q-23 -6 -52 -11t-59 -6t-58 4.5t-49 20.5q-21 16 -32 46t-17 55q-8 37 -7.5 76.5zM424.5 296.5q-1.5 -50.5 14.5 -97.5q4 -12 10.5 -29t18.5 -25q6 -4 12 -5q34 35 60.5 76t52.5 83l4 5l2 4 q0 3 4 7q8 29 32.5 56t56.5 50t69 41.5t70 31.5q10 44 15 69.5t8.5 41.5t6.5 27t8 27t13.5 41t22.5 69q-5 4 -7 6q-13 18 -12.5 44t2.5 46q0 2 0.5 4.5t0.5 4.5l-2 -1q-35 29 -74 47t-87 12q-58 -37 -107 -101t-86.5 -139t-63 -153.5t-35.5 -143.5q-8 -48 -9.5 -98.5z M586 284.5q1 1.5 2 3.5l-2 -3q-1 -2 0 -0.5zM1107 555q13 -11 28.5 -26.5t22.5 -24.5l8 -4l12 2q29 11 55.5 18.5t53.5 21.5q33 23 59 48.5t49 58.5q20 30 27 70t0 79t-26.5 73t-51.5 54q-2 0 -9.5 0.5t-15.5 2.5q-33 -26 -66.5 -49.5t-71.5 -43.5q-13 -41 -21 -64 t-12.5 -38t-7.5 -26t-6.5 -28.5t-9.5 -46t-17 -77.5zM1126 394h1h-1zM1181 495q4 0 6 -0.5t0 0.5h-6zM1185 503h1h-1z" />
<glyph unicode="&#xe7;" horiz-adv-x="934" d="M157.5 227.5q-9.5 81.5 5.5 167.5q12 69 34.5 139t56 135.5t78 123t101.5 100.5q49 38 102 63t111 47q32 12 69 21.5t75 14.5t76 3t73 -12q23 -7 44.5 -21.5t40.5 -33t34 -40.5t24 -43l-278 -109q-17 38 -46.5 70.5t-66.5 49.5q-8 2 -16.5 3t-16.5 2h-1q-15 -14 -28 -26 t-26 -28q-43 -54 -78.5 -125t-58 -149t-29 -157t8.5 -147q10 -45 30 -86t53 -73q11 -11 28 -16t32 -13h16q4 1 7.5 0.5t7.5 -0.5l31 5q45 34 78.5 81t65.5 92l269 60q-37 -53 -73.5 -98.5t-77.5 -84t-89.5 -69.5t-110.5 -56q-26 -11 -53 -20.5t-56 -16.5q-15 -29 -31 -56.5 t-13 -49.5q0 -3 3 -7.5l5 -7.5l6 -3q12 -5 21 -9t19 -12q23 -18 39.5 -44t19.5 -56q4 -46 -12.5 -84t-47 -69t-71 -55.5t-84.5 -42t-87 -29t-79 -17.5q-57 -11 -113 -12l186 132q5 0 8 1l3 3q11 22 15 51.5t-7 52.5q-7 14 -15 26.5t-20 22.5q-7 6 -14 11q-2 1 -3.5 2t-2.5 1 l-20 7q-15 7 -22 16.5t-10 26.5q-3 18 2.5 34t13.5 32t18 31t16 30q5 10 7.5 19t2.5 19v13q-6 6 -10 8l-12 4q-1 1 -2 1l-20 7q-8 4 -14 8.5t-14 9.5q-17 14 -33.5 32.5t-26.5 38.5q-38 79 -47.5 160.5zM321 -266l9 -4q-1 1 -5 3q-2 1 -4 1zM335 -32q0 -1 1 -2q-1 1 -1 2z M630 81q2 0 6 2z" />
<glyph unicode="&#xe8;" horiz-adv-x="948" d="M141 281q-1 25 1 45.5t4 44.5t5.5 45.5t12.5 44.5q36 222 168 371t349 208q31 8 70 16t79 9t77 -8t64 -33q14 -13 26.5 -27.5t20.5 -32.5q6 -13 13 -28.5t12.5 -32t8.5 -33.5t2 -32q-4 -48 -23 -90t-48 -78.5t-65 -67.5t-73 -57q-44 -31 -91 -54t-97 -43q-13 -5 -23 -9 t-19 -8t-19 -7t-23 -7q-6 -2 -13.5 -6.5t-15 -8t-12 -4t-4.5 5.5v1q-2 0 -6 -2q8 2 -1 -1q-21 -8 -46 -16t-51 -15q2 -47 13 -97t35 -90t62.5 -64.5t96.5 -20.5q51 28 89 75.5t70 93.5l269 60q-72 -104 -165.5 -184t-214.5 -123q-60 -22 -118.5 -37.5t-123.5 -17.5 q-50 -2 -101.5 7t-91.5 41q-28 23 -47 55t-31 68t-18 73t-7 71zM345 1368l265 120q94 -75 187 -149.5t187 -149.5l-265 -120q-94 75 -187 149.5t-187 149.5zM447 556q14 -14 28.5 -35t33.5 -28l20 6q5 2 9.5 3t9.5 3t11 3t12 3q2 2 14 6t23 8l23 11q9 6 23.5 17t21.5 17 q25 19 45 46.5t32 56.5q8 17 12.5 34.5t5.5 35.5q2 12 -1.5 25t-6.5 24q-6 24 -15.5 47t-23 42.5t-32.5 32.5t-46 17q-44 -33 -77 -76.5t-57 -92.5t-40 -101.5t-25 -104.5zM568 419l5 2zM628 529q5 2 8 3.5t-2 -0.5zM662 549q6 3 1 1q-1 0 -1 -1z" />
<glyph unicode="&#xe9;" horiz-adv-x="943" d="M141.5 271q-1.5 51 4.5 93q4 23 6.5 45t12.5 42q36 222 167 371t348 208q35 9 76 17t82 7.5t79 -12t67 -40.5q14 -14 24 -31.5t18 -35.5q11 -23 19 -51.5t8 -55.5q0 -50 -23.5 -97t-59.5 -88t-78.5 -74.5t-81.5 -56.5q-48 -29 -98 -51t-101 -41q-10 -4 -19.5 -7t-19.5 -6 q-6 -2 -14.5 -5.5t-16.5 -6t-12.5 -4t-2.5 1.5l-9 -3q-1 -1 -2.5 -1t-3.5 -1l-8 -3q-6 -2 -11.5 -3t-11.5 -3q-14 -4 -27 -8t-27 -7q1 -23 3 -46.5t8 -47.5q9 -40 24 -74.5t38 -59.5t56 -37.5t78 -7.5q25 14 46.5 33.5t40 41.5t35.5 45.5t34 46.5l269 60q-28 -40 -58 -78.5 t-65 -72.5q-49 -46 -107 -83t-122 -64t-131 -43t-134 -20q-49 -3 -101 5t-93 39q-36 28 -58.5 72.5t-34 95.5t-13 102zM448 546q14 -13 25 -27.5t25 -27.5q6 -6 14 -9l49 13q-16 -4 -24.5 -5.5t7.5 3.5q7 3 13.5 5t13.5 4q4 2 20 7.5t25 9.5q5 2 9.5 4.5t6.5 4.5 q11 6 23.5 15.5t20.5 16.5q22 17 40 41t30 49q10 19 17 40.5t7 42.5q0 28 -8 59.5t-24 58.5t-39.5 46t-53.5 23q-44 -33 -76.5 -76t-56 -92t-39.5 -101.5t-25 -104.5zM518 1104l382 308l228 18q-97 -77 -191.5 -153.5t-190.5 -154.5zM574 412q2 0 3 1zM627 519q6 2 8.5 3.5 t-2.5 -0.5zM661 539q6 3 1 1q-1 0 -1 -1z" />
<glyph unicode="&#xea;" horiz-adv-x="929" d="M141 284q-1 30 1 62.5t7 63t16 51.5q36 223 167.5 371.5t348.5 207.5q35 9 76 17t82 7.5t79 -12t67 -40.5q17 -17 29 -40t20 -46q7 -20 13 -43t6 -45q0 -50 -23.5 -97t-59.5 -88t-78.5 -74.5t-81.5 -56.5q-48 -29 -98 -51t-101 -41q-10 -4 -19.5 -7t-19.5 -6 q-6 -2 -14.5 -5.5t-16.5 -6t-12.5 -4t-2.5 1.5l-9 -3q-1 -1 -8 -3q-2 0 -6 -2q-6 -2 -11.5 -3t-11.5 -3q-14 -5 -27.5 -8.5t-27.5 -7.5q1 -23 3.5 -46t8.5 -47q10 -40 25 -74.5t38 -59.5t56 -37.5t78 -7.5q48 35 84.5 77t71.5 90l269 60q-29 -40 -59 -78.5t-65 -72.5 q-49 -46 -107 -83t-121.5 -64t-130.5 -43t-134 -20q-49 -3 -101.5 5t-93.5 39q-28 23 -44 52t-30 61q-11 26 -17.5 53.5t-10.5 55.5q-3 21 -4 51zM287 1134q38 31 77 65t81 70.5t87 69.5t93 59.5t99 41.5q27 8 56 17t59 13.5t59 2.5t56 -16q25 -12 44.5 -34t36.5 -42 q40 -45 77 -92t82 -89l-278 -109q-45 42 -82 89t-77 92q-11 12 -21.5 25t-22.5 24q-52 -39 -99.5 -83.5t-98.5 -85.5zM448 556l12.5 -12.5t19 -20t16.5 -18.5t5 -7q4 -4 11 -6l49 13q-16 -4 -24.5 -5.5t7.5 3.5q7 3 13.5 5t13.5 4q4 2 20 7.5t25 9.5q5 2 9.5 4.5t6.5 4.5 q11 6 23.5 15.5t20.5 16.5q22 17 40 41t30 49q10 20 17 40.5t7 42.5q0 29 -8 60t-23.5 58t-39 45.5t-54.5 23.5q-44 -33 -76.5 -76t-56 -92t-39.5 -102t-25 -104zM489 508l5 -4zM497 501q1 -1 2 -1zM574 422q2 0 3 1zM627 529q5 2 8 3.5t-2 -0.5zM661 549q6 3 1 1 q-1 0 -1 -1z" />
<glyph unicode="&#xeb;" horiz-adv-x="975" d="M164 286q-2 45 3 88.5t22 76.5q18 109 61 202.5t109 167.5t153.5 127t194.5 82q36 9 77 17t82 7.5t79 -13t67 -42.5q17 -17 28 -39.5t19 -45.5q7 -20 13.5 -43t5.5 -45q-2 -48 -22.5 -92t-52.5 -81.5t-71 -69.5t-76 -56q-42 -28 -87 -50t-92 -40q-14 -6 -28 -11t-26 -9.5 t-19.5 -7l-7.5 -2.5q-19 -6 -43 -12q-20 -5 -47 -11t-59 -11q2 -51 12.5 -103.5t34.5 -94.5t63.5 -66t99.5 -18q49 35 85.5 77t71.5 90l269 60q-29 -40 -59 -78.5t-65 -72.5q-49 -46 -107 -83t-122 -64t-131 -43t-134 -20q-48 -3 -100 5t-93 38q-29 23 -48 56t-31 67 q-11 32 -19 75t-10 88zM367 1300q0 62 43 107q41 45 118 47q80 -2 123 -47q39 -45 39 -107q0 -59 -39 -104q-43 -47 -123 -47q-77 0 -118 47q-43 45 -43 104zM471 546h1l28 -28t26 -30q3 -2 9 -4q11 0 29 5.5t35 12.5q20 8 43 18q50 30 92 75t56 104q6 22 3 51.5t-12.5 58.5 t-25 54t-34.5 38q-14 10 -24.5 13.5t-27.5 5.5q-43 -32 -76 -75t-57 -92.5t-40 -102t-25 -104.5zM858 1300q0 62 43 107q41 45 119 47q80 -2 123 -47q39 -45 39 -107q0 -59 -39 -104q-43 -47 -123 -47q-78 0 -119 47q-43 45 -43 104z" />
<glyph unicode="&#xec;" horiz-adv-x="694" d="M175 872l186 132h12t12 1q21 1 44 3t45.5 1.5t44 -5t41.5 -15.5q4 2 7 5t6 5l228 18l-156 -129q-5 -48 -12 -94.5t-18 -93.5q-7 -29 -12.5 -51t-11.5 -43.5t-13 -44.5t-16 -53l-18 -64q-1 -5 -1 -12t-4 -7l-3 -8q-5 -13 -7.5 -26.5t-6.5 -26.5l-12 -50q-4 -16 -8.5 -40 t-6 -49.5t3 -48t18.5 -35.5q17 20 30.5 43.5t24.5 46.5l280 79q-63 -132 -173 -208.5t-255 -99.5q-24 -4 -56 -6.5t-62 2.5t-53.5 20.5t-32.5 47.5q-8 29 -6.5 65.5t8.5 74t17 73.5t19 64q6 17 10 35t9 35q28 99 53 195t33 198q-17 18 -33.5 37t-38.5 29q-7 2 -13.5 3 t-14.5 2q-22 -1 -44 -3t-44 -2zM183 1362l265 120l379 -303l-265 -120z" />
<glyph unicode="&#xed;" horiz-adv-x="694" d="M175 872l183 130h-1q-5 0 -3.5 0t5.5 1l2 1q7 0 18 0.5t18 0.5l20 2q44 4 89 -3q46 -7 78 -32l179 14q-30 -24 -60 -48.5t-59 -49.5q-9 -76 -24 -149.5t-36 -148.5l-24 -86q-1 -2 -2.5 -9t-3.5 -14.5t-4 -14t-3 -8.5q0 -2 -0.5 -3t-0.5 -2q0 -4 -2 -6v-1q0 -1 -0.5 -2 t-0.5 -2q-1 -1 -1 -2q-1 -1 -1 -3l-15 -52q-13 -48 -23 -100t-3 -103q2 -10 5 -21.5t11 -19.5q17 22 31 46t25 44l280 79q-24 -46 -52 -85t-61 -71.5t-73 -59t-89 -46.5q-33 -14 -68 -26.5t-71 -17.5q-26 -5 -60 -8.5t-65.5 1t-57 20.5t-34.5 50q-7 25 -7 52.5t3.5 54.5 t9.5 54t12 51q8 35 18 68l20 66q29 97 51.5 195t33.5 199q-14 14 -27.5 28.5t-28.5 26.5q-8 6 -12 8q-7 1 -18.5 4t-14.5 3q-22 -1 -43 -3t-43 -2zM293 1113q45 36 90.5 69.5t91 67.5t90 69.5t85.5 75.5l252 39q-60 -57 -122.5 -107t-128.5 -100l-40 -28l-20 -15 q-18 -13 -35.5 -26t-34.5 -27z" />
<glyph unicode="&#xee;" horiz-adv-x="694" d="M105 1127q58 48 111 93.5t107 86.5t114 75t133 59q21 7 44.5 13.5t48 9.5t48.5 1t45 -11q28 -11 48 -33l40 -44q42 -46 80 -95t85 -92l-278 -109q-43 40 -80 85.5t-74 90.5q-11 14 -22.5 27.5t-25.5 24.5l-20 -15q-45 -36 -88 -74t-88 -75zM189 872l186 132h11t11 1 q18 1 40.5 3t45 1.5t43.5 -4t38 -11.5q9 -5 17 -10.5t16 -11.5l179 14q-14 -11 -29.5 -21t-30.5 -21q-7 -5 -11.5 -8t-8.5 -6.5t-9 -8t-14 -11.5q-5 -2 -7 -6l-5 -7q-4 -6 -6.5 -13t-4.5 -14q-5 -20 -5 -41t-2 -41q-5 -63 -25.5 -124.5t-38.5 -121.5q-11 -38 -21.5 -77 t-18.5 -78q-5 -24 -7.5 -41t-5.5 -39q-1 -5 -1.5 -11t-2.5 -11q-1 -4 -1 -7t-2 -6q0 -2 -0.5 -4t-0.5 -1l-1 -6q-3 -18 -5.5 -35.5t-0.5 -35.5q0 -12 5 -25t13 -23q17 21 31 45t25 44l280 79q-68 -127 -168 -203.5t-245 -102.5q-23 -4 -52.5 -8t-59.5 -2t-55.5 13t-39.5 37 q-5 11 -10 24.5t-7 26.5q-1 18 3.5 53t11 72.5t13 70.5t10.5 48q14 54 28.5 105.5t29.5 103.5q8 26 16.5 51.5t13.5 51.5q4 19 6 38.5t3.5 39t4.5 38.5t9 38l-34 36t-39 31q-29 5 -57 2.5t-58 -2.5zM571 123h3h-3zM649 884v1q-1 -2 0 -1z" />
<glyph unicode="&#xef;" horiz-adv-x="694" d="M166 1300q0 62 43 107q41 45 119 47q80 -2 123 -47q38 -45 38 -107q0 -59 -38 -104q-43 -47 -123 -47q-78 0 -119 47q-43 45 -43 104zM185 872l183 130h-1h2l2 2h13q4 0 7 0.5t7 0.5h10q17 2 33 4t33 0q32 -2 53.5 -7.5t38.5 -15.5q4 3 5.5 3.5t-0.5 -1.5l-3 -3 q3 -2 5.5 -3.5t4.5 -3.5l228 35q-56 -50 -116 -95l-38 -26q-3 -7 -4 -11t-2 -12l-2 -25q0 -17 -3 -33l-6 -32q-14 -82 -39.5 -160t-47.5 -158q-9 -34 -17 -67.5t-13 -68.5q-2 -12 -3.5 -24t-3.5 -24q-1 -5 -2.5 -14t-1.5 -7l-1 -5q-2 -12 -3 -20t-2 -22q-2 -23 3 -39.5 t19 -28.5q20 26 38 53t35 56l269 60q-26 -46 -54.5 -85t-62 -71.5t-74 -59t-90.5 -46.5q-33 -14 -68 -26t-72 -18q-33 -6 -67 -9.5t-64.5 2.5t-54.5 24.5t-37 57.5q-4 12 -2 37.5t6 54t8.5 55t7.5 40.5l12 58q10 42 22.5 83t25.5 82.5t25 82.5t21 83q8 37 10.5 73t9.5 72v3 q-14 15 -26.5 31t-29.5 27q-2 2 -5 3.5t-5 3.5q-1 -2 -5.5 -1t-9.5 3t-10.5 4.5t-8.5 2.5q-21 -1 -41.5 -3t-40.5 -2zM657 1300q0 62 43 107q41 45 119 47q80 -2 123 -47q39 -45 39 -107q0 -59 -39 -104q-43 -47 -123 -47q-78 0 -119 47q-43 45 -43 104z" />
<glyph unicode="&#xf0;" horiz-adv-x="1151" d="M180.5 386q4.5 35 12.5 70q17 73 41 142.5t58.5 132.5t80.5 119t108 102q75 55 163.5 88.5t180.5 41.5q-8 17 -19 33.5t-22.5 33t-22 32t-15.5 30.5q-2 8 -4 12q-2 5 -4.5 11t-5.5 11q-54 -27 -110 -47.5t-112 -39.5q4 24 7 48.5t8 49.5q-16 -6 -27 -9.5t-2 1.5 q23 11 47.5 17.5t47.5 16.5l21 9h-1q4 2 8 4.5t8 5.5q-7 15 -11 32q-9 16 -26.5 33.5t-37.5 35t-40.5 32.5t-36.5 26l265 120q8 -5 14 -10.5t12 -10.5q34 -22 64.5 -50.5t57.5 -58.5q6 -7 9 -15.5t5 -18.5q42 22 85.5 40t88.5 33l35 14l76 -66q-27 -11 -54.5 -21.5 t-55.5 -21.5q-13 -5 -25.5 -10t-24.5 -11l-17 -10l-4 -3q10 -14 16 -33t14 -35q9 -17 19.5 -32l21 -30t20 -31t15.5 -35q4 -12 5.5 -28.5t-1.5 -30.5l4 2q26 -37 41.5 -83t23 -95.5t9 -99t-0.5 -92.5q-4 -80 -22.5 -162t-51.5 -160t-80.5 -147.5t-108.5 -122.5 q-45 -38 -95 -65t-104 -50q-44 -20 -102.5 -34.5t-119.5 -18.5t-118.5 7t-99.5 43q-29 22 -45.5 56t-26.5 68q-4 16 -7.5 31t-8.5 30q0 2 -2.5 8.5t-1.5 6.5q-1 1 -1 3q0 3 -2 5v2v4l2 -5l-4 11l-5 22q0 1 -1 8t-2.5 15t-3 14.5t-1.5 7.5q-5 37 -0.5 72zM461 439 q2 -27 7 -53q5 -30 11.5 -62t16 -63t23.5 -60t35 -52q12 -13 27.5 -20.5t32.5 -11.5t35 -5t33 -1q26 21 46.5 47t39.5 52q43 61 72.5 129.5t46.5 141t21.5 147.5t-2.5 149q-5 46 -12 90t-25 85q-28 -5 -49 -5q-26 -1 -52.5 0.5t-52.5 3.5l-27 1q-44 -37 -76.5 -82.5 t-57.5 -95.5t-43 -104t-31 -108q-1 -4 -2.5 -12t-3.5 -13q-2 -8 -2 -9l-4 -18l-4 -18q-5 -26 -3 -53zM621 1295l4 2zM1023 1080q4 0 5.5 0.5t-0.5 0.5t-2.5 -0.5t-2.5 -0.5z" />
<glyph unicode="&#xf1;" horiz-adv-x="1300" d="M114 -5q15 13 30.5 24t30.5 22q5 5 12 12.5t11 13.5q16 32 22.5 71.5t14.5 74.5q15 64 32.5 127t43.5 123q13 88 25 175.5t24 175.5q-15 14 -28.5 28t-32.5 19q-37 10 -76 8.5t-77 0.5q55 33 109.5 66t109.5 65q41 -2 81 -4t82 -5q8 0 16.5 -1.5t15.5 -6.5l5 4l228 18 q-39 -30 -77 -58.5t-76 -56.5l-21 -150q11 14 22.5 27t24.5 26q66 68 151.5 111.5t177.5 65.5q28 6 60.5 12.5t65 7t62.5 -8.5t53 -34q14 -16 19.5 -35.5t5.5 -41t-3 -43t-6 -40.5l-6 -31l-2 -12q3 22 2 16t-4 -23.5t-6.5 -37.5t-4.5 -26q-11 -46 -26 -90t-30 -89 q-14 -42 -26 -83t-21 -83q-2 -13 -3.5 -25.5t-3.5 -25.5l-3 -15v-2q0 -1 -0.5 -1.5t-0.5 -1.5q0 -2 -0.5 -3.5t-0.5 -3.5q-1 -6 -2.5 -12t-3.5 -12q-5 -23 -1.5 -48t20.5 -41q17 20 31 42.5t25 47.5l280 79q-28 -61 -71 -112.5t-97 -91t-116 -65.5t-129 -37q-22 -4 -50.5 -7 t-57 -1.5t-54.5 10t-42 29.5q-14 18 -18 36.5t-3.5 37.5t4.5 38t7 39q8 42 15 81.5t19 80.5q21 69 46 136t38 137q4 24 12 59t10 70.5t-5.5 64.5t-32.5 41q-34 -30 -61 -66.5t-51 -74.5q-24 -40 -46.5 -81.5t-54.5 -76.5q-20 -20 -48 -35t-54 -28l-16 -9q-11 -8 -23.5 -14 t-26.5 -12q-13 -41 -23.5 -81.5t-20.5 -82.5q-5 -20 -8.5 -41.5t-8 -43t-11.5 -41.5t-18 -37q-12 -19 -27 -34t-32 -28.5t-34.5 -26.5t-33.5 -27zM363 1141q26 51 56 86t67 60t82 42t101 34q52 15 104.5 24t106.5 0q54 -8 104.5 -26.5t102.5 -33.5l5 -2l11 12l17 20l4 6 q0 -2 -1 -2q3 4 5.5 7t7.5 8l249 38l10 11q2 2 0 -1t-4 -5l-1 -1l-16 -20q-1 0 -1.5 -1t-1.5 -1q-4 -5 -6.5 -8t-4.5 -6q-3 -4 -5 -6q-17 -19 -34.5 -36t-37.5 -33q-66 -48 -142 -77.5t-157 -39.5q-66 -8 -125.5 7.5t-120.5 36.5q-19 6 -37.5 12t-38.5 10q-5 -9 -9.5 -18 t-9.5 -18zM567 463l4 2h-2q0 -1 -1.5 -1.5t-0.5 -0.5zM1114 1344q0 1 1 2q-1 0 -1 -1v-1zM1119 269l1 6q-1 -1 -1 -2v-4zM1124 1363l1 1q0 -1 -1 -1z" />
<glyph unicode="&#xf2;" horiz-adv-x="1151" d="M180.5 322q-3.5 62 6.5 109q15 68 38.5 139t57.5 138t79 125.5t101 100.5q66 51 139.5 83t154.5 55l-60 -107q1 0 1.5 0.5t1.5 0.5l101 115q50 8 99 9.5t93.5 -10t81.5 -39.5t64 -77q11 -22 19 -44.5t15 -46.5q14 -51 21 -103.5t-2 -104.5q-2 -17 -5.5 -33.5t-8.5 -33.5 q-2 -10 -4 -16q-2 -10 -4 -16l-2 -6q0 -4 -2 -6v-1q0 -1 -0.5 -2t-0.5 -2q-1 -1 -1 -2q-1 -1 -1 -3q-5 -14 -9 -28.5t-9 -28.5q-16 -47 -34.5 -92t-43.5 -87q-39 -70 -88.5 -122.5t-108 -91.5t-126.5 -66t-145 -45q-30 -8 -68 -12t-76.5 -3t-75 9.5t-64.5 26.5 q-42 27 -70.5 80t-44.5 114.5t-19.5 123.5zM426 1395l265 120q94 -75 187.5 -149.5t187.5 -149.5l-265 -120q-94 75 -187.5 149.5t-187.5 149.5zM460 443q0 -20 3.5 -41t6.5 -41q4 -29 12 -63t21 -67.5t32 -62t45 -44.5q19 -11 41.5 -17t45.5 -6l15 1q6 4 9 7q20 19 38 40.5 t34 43.5q21 29 45 78t46 105t38 112t20 98q4 37 0.5 81t-14 87.5t-28.5 83.5t-43 68q-21 25 -45 35t-56 15h-11t-19 1q-4 -4 -6 -5q-31 -28 -56 -59t-47 -67q-18 -30 -40.5 -78.5t-41.5 -102.5t-32 -108t-13 -94z" />
<glyph unicode="&#xf3;" horiz-adv-x="1151" d="M186.5 321.5q-3.5 61.5 6.5 107.5q15 68 39 139.5t58 138.5t79 126t101 102q66 51 139 83t154 55l-60 -107q1 0 1.5 0.5t1.5 0.5l101 115q28 4 61.5 7t67.5 1.5t66 -9t58 -22.5q32 -19 55 -47t38.5 -61.5t25 -70t15.5 -70.5q4 -23 8.5 -47.5t2.5 -48.5q-3 -52 -17 -105 q-16 -64 -38 -129t-52 -126.5t-69.5 -117t-90.5 -99.5q-71 -60 -156.5 -96t-175.5 -57q-32 -8 -69 -12.5t-75 -3.5t-74 9.5t-65 27.5q-41 27 -70.5 79.5t-46 114t-20 123zM469 476q-3 -28 0.5 -57t7.5 -57q4 -30 11.5 -64t20.5 -66.5t32 -60.5t47 -46q19 -11 41 -17t45 -6 l15 1q6 4 9 7q20 18 38.5 40.5t33.5 43.5q24 34 50 87.5t48 113t37 118.5t17 106q2 31 -3.5 71.5t-17.5 80.5t-29.5 76t-38.5 60q-21 25 -44.5 35t-55.5 15h-11t-19 1q-2 -2 -3 -2.5t-2 -2.5q-32 -28 -57 -59t-47 -67q-18 -30 -38.5 -74t-38.5 -92.5t-31 -97t-17 -87.5z M614 1151q92 66 181.5 134t173.5 144l252 39q-90 -81 -185 -154t-194 -145z" />
<glyph unicode="&#xf4;" horiz-adv-x="1151" d="M189.5 341.5q-3.5 61.5 6.5 108.5q17 79 44.5 156t68 147.5t93.5 131t121 105.5q55 38 117 61t126 41l-60 -107q1 0 1.5 0.5t1.5 0.5l101 115q30 5 63 8t66 1.5t64.5 -9t58.5 -23.5q32 -18 56 -48t41 -68t27.5 -80.5t14.5 -85.5t1.5 -83.5t-10.5 -73.5 q-16 -66 -38 -132.5t-52 -129.5t-70 -119.5t-92 -101.5q-71 -60 -156.5 -96t-175.5 -57q-32 -8 -69 -12.5t-75 -3.5t-74 9.5t-65 27.5q-42 28 -71 80.5t-45 114t-19.5 123zM331 1156q55 51 111.5 102t117 96t126 82t138.5 60q22 7 47.5 13.5t52 9.5t52 0.5t47.5 -13.5 q30 -15 59.5 -47t58.5 -69t57 -73.5t55 -58.5l-265 -120q-41 35 -73.5 75.5t-66.5 82.5q-15 19 -30.5 38.5t-34.5 35.5q-54 -39 -103 -84.5t-97 -90.5zM471 496q-2 -29 0.5 -57.5t7.5 -57.5q4 -30 11.5 -64t20.5 -66.5t32 -60.5t47 -46q19 -11 41 -17t45 -6l15 1q6 4 9 7 q20 18 38.5 40.5t33.5 43.5q24 35 49 85.5t46 106.5t35.5 111.5t19.5 100.5q3 33 -1.5 76t-16 86.5t-29.5 82.5t-40 64q-21 25 -44.5 35t-55.5 15h-10.5t-18.5 1q-2 -2 -3 -2.5t-2 -2.5q-32 -29 -56.5 -59t-47.5 -67q-17 -29 -37.5 -73t-39 -92.5t-32.5 -97.5t-17 -87z" />
<glyph unicode="&#xf5;" horiz-adv-x="1151" d="M198 312q-5 60 4 105q16 81 43.5 160t68 151t94.5 134t124 109q55 37 117 60.5t126 40.5l-59 -106q1 1 1.5 0.5t1.5 0.5l100 114q50 8 99 9.5t93.5 -10t81.5 -39.5t64 -77q11 -22 19 -44.5t15 -46.5q14 -51 20.5 -103t-0.5 -106q-3 -21 -8 -41.5t-11 -40.5q-2 -10 -4 -16 l-2 -6q0 -4 -2 -6v-1q0 -1 -0.5 -2t-0.5 -2q-1 -1 -1 -2q-1 -1 -1 -3q-5 -14 -9 -28.5t-9 -28.5q-16 -47 -34.5 -92t-43.5 -87q-39 -69 -88.5 -122t-108 -92t-126.5 -66t-145 -45q-32 -8 -69 -12.5t-75 -3.5t-74 9.5t-65 27.5q-40 26 -68.5 77t-45.5 111t-22 120zM348 1185 q19 38 41.5 68t50 53t61 41t74.5 32q23 8 44.5 15t44.5 12q55 22 117 25t119 -10q28 -6 54.5 -16t52.5 -19q17 -6 34.5 -11t34.5 -10q10 11 18.5 21t22.5 26l269 60q-23 -26 -45 -53t-48 -50q-40 -36 -87.5 -63.5t-100 -45.5t-107 -26t-107.5 -5q-51 2 -99.5 20t-97.5 34 l-39 11l-10 1l-17 -31zM482 480.5q-5 -39.5 1 -85.5q4 -33 10.5 -68t17.5 -69.5t27.5 -65t42.5 -54.5q20 -20 48.5 -28.5t56.5 -8.5h12l10 8q22 20 39 40t34 44q25 36 50 86.5t46 106.5t35.5 112.5t19.5 104.5q3 33 -1.5 75t-16.5 84.5t-29.5 81t-39.5 62.5q-21 24 -45 34.5 t-55 15.5h-11.5t-19.5 1q-14 -11 -27.5 -24.5l-17.5 -17.5q-29 -32 -51.5 -69t-42.5 -75q-22 -44 -36 -88t-31 -89q-2 -8 -5 -15t-5 -14q-11 -45 -16 -84.5zM548.5 1283.5q5.5 0.5 31.5 5.5l21 5q-14 -3 -29 -5.5t-22 -4t-1.5 -1zM1034.5 1328q1.5 0 3.5 2q-1 -1 -3 -1 q-2 -1 -0.5 -1z" />
<glyph unicode="&#xf6;" horiz-adv-x="1151" d="M182 341q1 24 3.5 45t7.5 44q14 68 38 138t58.5 136t79.5 123.5t100 99.5q66 51 139 83t153 54l-59 -106q1 1 1.5 0.5t1.5 0.5l100 114q28 4 61.5 7t67 1.5t65.5 -9t58 -22.5q38 -22 64.5 -60.5t44 -83.5t26 -93t10.5 -89q2 -31 -3.5 -63t-13.5 -62q-17 -65 -38.5 -129.5 t-51.5 -125.5t-69.5 -116t-91.5 -100q-25 -21 -59.5 -42.5t-62.5 -36.5q-49 -27 -101.5 -44t-107.5 -30q-30 -7 -67.5 -11.5t-76.5 -3t-75.5 9.5t-63.5 26q-31 21 -53 51.5t-36.5 65.5t-23.5 72.5t-15 72.5q-3 20 -6.5 41.5t-3.5 41.5zM455 1300q0 62 43 107q41 45 118 47 q80 -2 123 -47q39 -45 39 -107q0 -59 -39 -104q-43 -47 -123 -47q-77 0 -118 47q-43 45 -43 104zM465 436q-1 -20 3 -41.5t7 -41.5q4 -30 11.5 -64t20.5 -66.5t32 -60.5t46 -46q20 -12 42 -17.5t45 -5.5h12l10 8q22 20 39 40t34 44q24 34 49 85.5t46.5 108.5t37 113 t18.5 100q3 34 -1.5 76.5t-16 85t-29.5 80.5t-41 64q-21 24 -44.5 34.5t-54.5 15.5h-11t-19 1q-2 -1 -2.5 -2t-1.5 -2q-32 -29 -56.5 -58.5t-47.5 -66.5q-22 -36 -44.5 -83.5t-40.5 -99t-30 -104t-13 -97.5zM946 1300q0 62 43 107q41 45 119 47q80 -2 123 -47 q39 -45 39 -107q0 -59 -39 -104q-43 -47 -123 -47q-78 0 -119 47q-43 45 -43 104z" />
<glyph unicode="&#xf7;" horiz-adv-x="1229" d="M194 447l186 132h827l-186 -132h-827zM557 158q0 59 41 100q39 39 98 41q64 -2 105 -41q39 -41 41 -98l-2 -2q0 -60 -39 -101q-41 -43 -105 -43q-59 0 -98 43q-41 41 -41 101zM557 868q0 60 41 101q39 39 98 41q64 -2 105 -41q39 -41 41 -99l-2 -2q0 -59 -39 -100 q-41 -43 -105 -43q-59 0 -98 43q-41 41 -41 100z" />
<glyph unicode="&#xf8;" horiz-adv-x="1151" d="M165 334q-2 42 5 90.5t22 99t36 101.5t47 97.5t54.5 87t58.5 69.5q57 57 125.5 98t144.5 67q33 11 69.5 21t73.5 16.5t75 8.5t74 -3l244 55q-13 -24 -24 -49t-25 -48q-5 -9 -8.5 -13t-12.5 -15l-5.5 -5.5l-5.5 -5.5q0 -13 4.5 -21.5t11 -15t14.5 -13.5t14 -17 q17 -27 25 -61.5t14 -66.5q5 -24 8 -49t2 -51q-2 -50 -17.5 -111t-38.5 -122.5t-51 -117t-54 -93.5q-25 -37 -54 -72t-64 -63q-46 -36 -104 -66.5t-121.5 -52t-129.5 -32.5t-128 -9l-266 -60q22 37 44 73t45 73l-3 12q0 1 -0.5 2t-0.5 3l-6 2t-5 2q-3 1 -5 2 q-16 7 -23.5 22.5t-13.5 30.5q-1 2 -2 6t-2 7q-2 4 -3 8v1q-15 42 -25 87.5t-13 90.5zM448 429q3 -43 12 -83l201 315q26 41 50.5 82t52.5 81q5 7 11.5 11.5t12.5 9.5l47 36l-3 11q-2 5 -2 9.5v8.5q-18 15 -34.5 24t-34 14.5t-36.5 6.5t-42 0q-34 -22 -61 -54.5t-48 -66.5 q-25 -39 -49 -89.5t-42 -104.5t-28 -108.5t-7 -102.5zM548 166q7 -26 26 -42t49 -18q10 0 15 -0.5t9.5 -0.5t11 0.5t19.5 0.5q7 0 11 1q9 6 15 12q20 20 37.5 42t34.5 46q42 62 68 129t49 137q19 58 25.5 112.5t-2.5 112.5q-50 -78 -99 -155t-99 -154q-25 -39 -41 -65.5 t-27 -45.5t-20 -32t-19.5 -24.5t-25 -24.5t-37.5 -31z" />
<glyph unicode="&#xf9;" horiz-adv-x="1298" d="M181 872l186 132q0 1 5 1t4 0l23 -0.5t53.5 -2.5t60.5 -5t44 -9q1 -1 2 -1t3 -1l217 17q-34 -29 -68 -57.5t-67 -57.5q0 -2 0.5 -3t0.5 -3q0 -3 -3 -22t-6 -37t-4 -27t2 9v-2q-1 -6 -2 -10t-2 -9q0 -3 -1.5 -12.5t-3.5 -21.5t-4 -24.5t-3 -19.5q-17 -86 -40 -168 q-10 -38 -22.5 -76t-23 -76.5t-17.5 -77.5t-7 -78q0 -23 6 -51t26 -44q2 -2 5 -3.5t5 -3.5q22 22 42 48q34 44 61 91.5t53 95.5l6 11q20 39 51.5 63.5t69.5 45.5q38 22 56.5 31t26.5 12q16 54 27.5 108.5t28.5 108.5q8 25 12.5 50.5t16.5 48.5q20 37 51 64t64 50t49.5 35.5 t24.5 17.5q9 6 9 5l228 18q-17 -14 -35 -26.5t-36 -24.5t-36 -24.5t-33 -28.5q-11 -8 -24 -62.5t-36 -142.5q-13 -57 -28 -112.5t-40 -108.5q-1 -46 -7.5 -91.5t-14.5 -91.5l-6 -47q-1 -7 -2 -13t-3 -12v-1q0 -3 -1 -7.5t-1 -3.5q-2 -14 -4 -32q-1 -16 1 -31.5t10 -27.5 q16 20 28.5 40.5t23.5 43.5l280 79q-33 -65 -71.5 -113t-86 -83.5t-105 -60.5t-127.5 -44q-21 -6 -52 -11t-63 -4.5t-60 9.5t-43 32q-11 17 -14.5 35t-3 36.5t4 37t6.5 36.5l10 55q-62 -78 -143.5 -133.5t-181.5 -78.5l47 19q2 1 -9.5 -3.5t-29.5 -10.5t-39 -12.5t-37 -10.5 q-32 -8 -67.5 -12t-68 2.5t-58 26.5t-37.5 59q-14 51 -6 102.5t20 100.5q13 51 27.5 101t28.5 100t25 101t17 103q2 15 5.5 29.5t6.5 29t4 29t-2 29.5q-17 29 -34.5 43.5t-37.5 20.5t-44 6h-53q-3 -1 -10 -1zM400 1355l278 109q42 -40 87 -76.5t91 -71.5t92.5 -69.5 t91.5 -70.5l-265 -120q-47 38 -95 74t-95.5 72t-94 73.5t-90.5 79.5zM634 805v4v-4zM634 809l1 2zM841 438q2 0 3 -1q-1 1 -3 1z" />
</font>
</defs>
</svg>
