<?xml version="1.0" standalone="no"?>
<!DOCTYPE svg PUBLIC "-//W3C//DTD SVG 1.1//EN" "http://www.w3.org/Graphics/SVG/1.1/DTD/svg11.dtd" >
<svg xmlns="http://www.w3.org/2000/svg">
<metadata></metadata>
<defs>
<font id="autopiabold" horiz-adv-x="1179" >
<font-face units-per-em="2048" ascent="1638" descent="-410" />
<missing-glyph horiz-adv-x="745" />
<glyph horiz-adv-x="0" />
<glyph unicode="&#xd;" horiz-adv-x="0" />
<glyph unicode=" "  horiz-adv-x="745" />
<glyph unicode="&#x09;" horiz-adv-x="745" />
<glyph unicode="&#xa0;" horiz-adv-x="745" />
<glyph unicode="!" horiz-adv-x="602" d="M74 180q0 88 54 142q52 55 146 55q96 0 148.5 -54t52.5 -143q-3 -90 -55 -145t-146 -55q-93 0 -146.5 56t-53.5 144zM162 460v622l244 84v-621l-122 -42q-60 -21 -122 -43z" />
<glyph unicode="&#x22;" horiz-adv-x="975" d="M134 671q4 140 4 279q2 140 6 280l244 82q-4 -140 -4 -280q0 -138 -5 -278zM532 671q4 140 4 279.5t4 279.5l245 82q-4 -140 -5 -280q0 -138 -4 -278z" />
<glyph unicode="#" d="M22 412l215 101h5l46 247q-20 8 -41 10t-42.5 1t-43 -4t-41.5 -3l194 101q8 0 16 0.5t16 0.5l3 12q4 21 7.5 41.5t7.5 40.5q1 5 2.5 12t3.5 14.5t4 14.5t4 11q12 40 24 79t24 79l244 84q-10 -32 -20 -65t-20 -65t-18 -65t-14 -67q-4 -24 -10 -48t-8 -48q0 -6 1 -14t3 -13 l2 -3h4q2 -2 4 -2q6 -1 12 -0.5t12 0.5q21 2 42.5 2h42.5h16l6 46q8 66 29.5 132t46.5 126q60 19 120 37q61 19 121 37q-24 -58 -45 -122t-28 -126q-2 -24 -6.5 -49t-5.5 -49q0 -8 -0.5 -17t-3.5 -16h145l-194 -101h-20q-6 -42 -14 -83t-14 -83q-1 -8 -4.5 -20t-5.5 -25 t-2 -24t6 -17q8 2 16 1h130l-194 -101h-20q-1 -4 -1.5 -7t-0.5 -7q-5 -42 -15.5 -81.5t-23.5 -79t-26 -78.5t-22 -79q-61 -21 -122 -42.5t-122 -42.5q6 28 14.5 56t17.5 55.5t18 55.5t17 56q6 19 10 37.5t8 38.5q0 3 1 10.5t1 12.5l8 30t5 31q0 6 1 11t0.5 9.5t-2.5 8.5 t-8 7q-12 0 -24 -0.5t-21 -1.5t-11 -1.5t7 1.5q-20 -1 -39.5 -1.5t-39.5 -0.5q-4 -25 -10 -49q-8 -36 -19 -71t-21.5 -69.5t-21.5 -70.5q-10 -34 -18 -70q-61 -21 -121.5 -42.5t-122.5 -42.5q8 36 18 71t21 70t21 70q12 34 20 70q8 34 13 68t9 68q-14 -1 -28 -1t-32 0.5 t-42 0.5h-56zM470 513h142q4 32 9.5 63t11 62.5t10.5 62.5t6 63q-33 2 -66 1.5t-66 -0.5q-12 -63 -22.5 -125t-20.5 -126zM592 862z" />
<glyph unicode="$" d="M90.5 862.5q0.5 13.5 3 26.5t6.5 26t7 25q8 36 19 71t30 66q16 26 37 47t46 37.5t52 29.5t55 25q22 9 43 16t43 13v85l244 84v-145q30 1 61 1t59 -8q35 -9 64.5 -26.5t55.5 -40.5t49 -49.5t45 -53.5q-60 -24 -120 -46t-120 -46q-23 28 -45.5 54t-48.5 48v-150 q0 -25 2 -44.5t0 -36.5t-11 -33t-29 -34q-13 -13 -25.5 -27.5t-26.5 -26.5q11 -18 26.5 -29t33.5 -17.5t37 -11t38 -11.5q18 -6 29.5 -17.5t25.5 -23.5q10 -4 21 -6l22 -4t22 -3.5t22 -4.5q21 -6 40 -16t37 -24q27 -20 48 -46q7 -8 13.5 -18t12.5 -20q15 -26 19.5 -51 t3 -49.5t-8 -50t-13.5 -53.5q-10 -38 -24 -74t-37 -68q-22 -30 -55 -54t-71 -43.5t-78 -33.5q-40 -15 -74 -23v-122q-61 -21 -121.5 -41.5t-122.5 -42.5v136q0 10 -1 20.5t1 20.5v9q-32 -2 -65 -1t-63 11q-34 10 -65 28t-58 41t-49 51t-40 58q60 24 120 46t120 46 q18 -31 44 -62q26 -30 56 -56v170q0 27 -2.5 53.5t-1.5 53.5q0 18 6 33.5t15.5 29.5t22 26t25.5 23q5 4 13 11.5t14 11.5l2 2q-9 8 -17 16q-7 8 -19 13q-20 7 -41 12.5t-40.5 13t-36.5 19.5q-16 10 -28 30l8 4q-12 -1 -22 1q-6 1 -10 2t-10 1q-4 0 -9 2q-1 0 -1 1h-2h2 q-1 0 -1.5 0.5t-1.5 0.5h-2.5t-0.5 0q-4 0 -10 2q-18 5 -35.5 10.5t-34.5 13.5q-21 10 -40.5 24.5t-35.5 32.5t-28 39q-12 20 -17 44q-3 13 -2.5 26.5zM294 670l4 -1zM300 669q2 0 4 -0.5t4 -0.5q1 0 2.5 -0.5t0.5 -0.5zM335 939.5q0 -13.5 4 -25.5q11 -36 37 -66t60 -49 q1 17 -1.5 34t-2.5 34v205v43t2 43l-2 -1v14h-11q-5 -1 -11 -1q-4 -6 -7.5 -10t-6 -9t-5.5 -10t-5 -11q-13 -27 -21 -55q-7 -29 -15 -57q-3 -13 -6.5 -25.5t-6 -26t-2.5 -27zM548 569l2 1zM672 480q1 -19 2.5 -37.5t1.5 -36.5q2 -84 1 -166t-1 -166l23 2h5.5h5.5 q19 23 31.5 49.5t21.5 56.5q10 32 20 68t11 70q1 29 -8.5 56.5t-26.5 51.5t-39 44t-48 34v-12v-14z" />
<glyph unicode="%" horiz-adv-x="1716" d="M45 973.5q3 38.5 12.5 75.5t28.5 71q16 28 38 52q22 22 48 40q72 46 154 74q80 27 166 27q27 0 54.5 -1t52.5 -12q18 -8 33.5 -19t29.5 -24.5t25 -29t23 -30.5l12 5q36 14 73 18t74 4q12 0 22.5 -1t22.5 -3h16q2 0 5.5 -0.5t4.5 -0.5q13 0 26 0.5t26 -0.5q53 -1 105.5 -1 t106.5 2l228 70q-27 -36 -57.5 -65t-66.5 -51q-6 -26 -15 -47.5t-21 -41t-27 -38.5t-31 -41q-36 -45 -71.5 -89t-71.5 -89q-152 -190 -303.5 -381t-304.5 -381l-120 -36q-61 -19 -121 -38q131 163 260 324.5t259 325.5q61 77 121 153t123 152q16 20 29 37.5t23 36.5t17.5 39 t11.5 45q-6 2 -12 6.5t-12 8.5q-74 -4 -147.5 -4t-147.5 2q0 -48 -2 -98t-12 -96.5t-31.5 -89t-60.5 -77.5q-24 -21 -51 -35t-55 -28q-24 -12 -53.5 -24t-61.5 -20t-66 -13.5t-66.5 -5.5t-63 6.5t-56.5 20.5q-22 12 -40 30.5t-31.5 40t-23 45.5t-15.5 48q-8 36 -12 74.5 t-1 77zM287.5 1008q1.5 -32 6.5 -62q4 -26 12.5 -54.5t21.5 -54t31.5 -47.5t43.5 -36q11 -6 22 -9.5t23 -6.5q22 34 34 72t16.5 79.5t4.5 83v80.5q-14 21 -28.5 43t-30 42t-34 37t-42.5 27q-8 4 -15.5 6t-15.5 2q-3 -4 -5 -8q-4 -4 -6 -8q-16 -27 -24.5 -58t-12 -63.5 t-2 -64.5zM918 246.5q-1 42.5 5.5 83t18.5 74.5q18 48 51 89t81 65q18 8 35 16t35 16q32 14 65 24t66 18l-51 -44l82 49q14 2 34 3.5t40 1.5t39.5 -2t33.5 -9q12 -6 22.5 -10.5t20 -10.5t19 -13t17.5 -17q24 -26 41 -58t26 -68t11.5 -74t-1 -76t-13.5 -73t-24 -66 q-14 -30 -36 -55t-48.5 -45.5t-56 -35.5t-60.5 -25q-4 -2 -13.5 -5t-22.5 -7t-27.5 -8.5l-29 -9t-28.5 -7.5t-24 -5q-39 -6 -79 -4t-77 16q-40 15 -68 43.5t-46 65.5t-27.5 79t-10.5 84.5zM1161 330q1 -30 6 -59q4 -26 12.5 -51t20.5 -48.5t28.5 -43.5t37.5 -36 q12 -9 25 -15t27 -10q20 33 31 70.5t15 75.5q3 25 3.5 51.5t-2.5 53t-9.5 52t-17.5 48.5q-22 47 -54 78q-32 30 -74 40q-5 -8 -8.5 -16t-7.5 -16q-12 -26 -20 -55t-11 -59t-2 -60zM1394 62q2 0 3 0.5t0 0.5q-2 -1 -3 -1z" />
<glyph unicode="&#x26;" horiz-adv-x="1552" d="M114 328q4 44 19 86t39 80q3 4 8.5 12t12.5 16.5t13.5 16t12.5 13.5q15 14 33 25t36 21q12 12 22 25t22 24l8 6t8 7q-3 24 -8 46t-11 46q-1 4 -2.5 7t-2.5 7l-2 3v1l-1 4h-1v1l-4 9l-9 21l-14 34t-11 35q-6 24 -2 49t10 47q8 28 18 56t24.5 53t33.5 47q18 24 43 40 q50 34 106.5 58t116.5 38q24 6 47 11t46.5 7t47 2t47.5 -4q37 -7 73.5 -25.5t60.5 -46.5q18 -20 28 -42t20 -46t16 -50t2 -52q-1 -8 -2.5 -14t-3 -11t-3.5 -10.5t-5 -13.5q-10 -30 -25.5 -54.5t-34 -47t-40.5 -43.5l-44 -40q-6 -6 -15 -14t-18 -17l-17 -17t-13 -12l-17 -16 l-2 -2q0 1 -2 -1.5t-4 -4.5l-8 -6l6 6v-2q-10 -10 -18 -20q-1 -25 8.5 -46.5t23.5 -41t32 -37t34 -33.5q53 -52 105.5 -103t104.5 -103q12 18 22 36.5t18 39.5q6 14 10 29t7 30q4 21 8.5 42t10.5 41t14 39.5t21 37.5l241 74q-17 -24 -26 -51.5t-15.5 -55.5t-12.5 -56.5 t-17 -55.5q-14 -32 -31.5 -61t-38 -55t-44 -51t-47.5 -50q6 -8 11 -16.5t10.5 -17.5t11.5 -17q5 -10 13 -16q35 -29 74.5 -49.5t82 -35.5t86.5 -24t88 -16l-215 -101q-48 6 -95.5 16.5t-93 26t-87.5 37.5t-80 54q-4 3 -7 6.5t-7 7.5q-41 -28 -89.5 -50t-100.5 -37t-104 -25 q-54 -9 -102 -13q-32 -2 -63 -3t-62 1.5t-61.5 8.5t-60.5 16q-58 21 -106.5 61.5t-77.5 96.5q-20 40 -28.5 84t-4.5 88zM356 385q0 -49 15 -95t45 -85t72 -71q24 -18 53 -30.5t60 -20t62 -10.5t61 -1q12 0 21.5 1t17 1.5t15 1.5t16.5 2l16 14q18 16 35 34l34 36l-137 136 l-131 128q-19 19 -37 38q-18 18 -34 40q-7 10 -12.5 20t-9.5 20t-7 21t-1 23q-17 4 -33 9.5t-32 12.5q-25 -26 -44 -58.5t-29 -66.5q-16 -51 -16 -100zM525 967q2 -14 6.5 -27.5t10 -26.5t11.5 -26t11 -25q12 -30 18 -60t10 -61l-2 -1q18 -2 34 -10q3 -2 6 -3l6 -3 q24 22 47 44t42 47t33 54t18 63q3 21 -1.5 46.5t-13.5 50.5t-21 47t-26 38q-12 13 -26 24t-30.5 19.5t-34 13.5t-33.5 7q-14 -20 -27 -46t-22.5 -55t-14 -57.5t-1.5 -52.5zM762 688l4 4q-1 -1 -3 -2.5t-1 -1.5zM772 698h2l6 6z" />
<glyph unicode="'" horiz-adv-x="520" d="M40 774l24 26q12 12 24 25q44 50 72 109.5t45 123.5q4 17 9.5 36t7.5 38.5t1 38.5t-9 37l-5.5 11t-5.5 9l-6 8t-7 10l242 92q18 -28 26 -50t9 -44.5t-4.5 -47t-13.5 -54.5q-18 -70 -49 -134q-32 -64 -80 -120q-11 -12 -25 -26q-13 -14 -25 -26z" />
<glyph unicode="(" horiz-adv-x="684" d="M102 562q8 156 48 306q12 46 28 91t37 87.5t48 81t63 71.5q30 29 65 51.5t72.5 40.5t77 32.5t77.5 27.5l-20 -55l32 12q4 2 1.5 0t-9 -5t-13.5 -6t-12 -5l-1 -4l-9 -2l-13 -10q-23 -18 -42 -40q-20 -21 -36 -45q-25 -36 -44 -75t-33.5 -79.5t-25.5 -83.5t-19 -85 q-8 -44 -14 -87.5t-10 -88.5q-4 -47 -5 -89.5t1 -90.5q1 -24 2.5 -45.5t3.5 -42.5t5 -42.5t7 -45.5q9 -52 22 -105t31 -104t42 -100q23 -49 55 -92q22 -30 48 -56.5t58 -44.5q14 -8 25 -12t20.5 -7t20.5 -5q12 -2 28 -4l-232 -98q-17 4 -28.5 5.5t-21.5 4t-21 6.5 q-11 6 -26 14q-34 19 -61.5 46.5t-49.5 57.5q-32 43 -56.5 93.5t-43 103.5t-32.5 107t-22 106q-26 154 -18 310z" />
<glyph unicode=")" horiz-adv-x="684" d="M-115 1268l231 98q40 -13 73 -28q33 -16 65 -40q39 -30 69.5 -67t54.5 -80t42 -90t31.5 -95t22.5 -96t15 -94q12 -88 13.5 -177.5t-7.5 -178t-30 -175.5t-55 -169q-14 -34 -30 -67t-36.5 -64t-45 -59t-54.5 -50q-36 -26 -74 -46t-78.5 -35.5t-82.5 -27t-85 -19.5l107 74 q-10 -3 -20 -6.5t-20 -6.5q-4 -2 -1.5 -0.5t8 3.5t12 5t9.5 4q3 2 6 3.5t5 4.5q28 26 50.5 53.5t41.5 59.5q24 41 43 85.5t33 90t24 92.5q10 46 18 93q7 42 11.5 85.5t6.5 85.5v42v44t-1 44t-3 42q-4 50 -11 105t-20 111t-31 111t-44 105t-59 93t-76 75q-31 23 -61.5 36.5 t-66.5 25.5z" />
<glyph unicode="*" horiz-adv-x="934" d="M32 1075l232 98l42 -23q2 22 1 43t-8 41l244 85q6 -18 7.5 -36.5t0.5 -37.5t-4 -38t-4 -37q-2 -24 -1 -48q2 -22 4 -46l62 35q41 4 81.5 8t82.5 8q-37 -21 -73.5 -43t-74.5 -41q-18 -10 -38 -16q-19 -5 -38 -13l-1 -1q2 -12 7.5 -22.5t19.5 -21.5q12 -6 24 -9.5t24 -6.5 l24 -6t24 -9q41 -18 78.5 -43t75.5 -49q-60 -24 -120 -46q-62 -22 -122 -46q-8 6 -17 11t-17 11v-43t-1 -43l-122 -42q-61 -20 -122 -42q2 42 1.5 82t-1.5 82q0 24 1.5 44t-4.5 39l-2 -1q-20 -14 -40 -30l-214 -48q36 30 75 54t81 46q12 6 23 12t23 10q14 6 29 12 q15 4 30 10q-1 3 -1 6t-1 6q-12 12 -23.5 24t-27.5 20q-8 4 -16 6t-17 3.5l-18 3t-17 5.5q-40 18 -77 40t-75 43z" />
<glyph unicode="+" horiz-adv-x="1388" d="M144 470l194 100h208v309l244 85v-394h390l-194 -100h-196v-322q-61 -21 -121.5 -41.5t-122.5 -42.5v406h-402z" />
<glyph unicode="," horiz-adv-x="602" d="M0 -329q8 7 13.5 13t11.5 12t11.5 12t12.5 14q44 50 71.5 109t44.5 123q4 17 8.5 34.5t6.5 35t2 35t-4 34.5q-4 14 -12 27q-6 12 -14 23l240 93q7 -10 12.5 -19t11.5 -21q8 -19 10 -38.5t0 -39.5t-7 -40t-10 -39q-13 -50 -29 -90.5t-37 -76.5t-49 -70t-64 -70z" />
<glyph unicode="-" horiz-adv-x="807" d="M60 470l194 100h459l-194 -100h-459z" />
<glyph unicode="." horiz-adv-x="602" d="M74 180q0 88 54 142q52 55 146 55t147.5 -54.5t53.5 -142.5q-3 -89 -56 -144.5t-145 -55.5q-93 0 -146.5 56t-53.5 144z" />
<glyph unicode="/" horiz-adv-x="725" d="M44 22q88 306 177 610.5t179 609.5l244 84q-90 -305 -179 -609.5t-177 -610.5l-122 -42q-60 -20 -122 -42z" />
<glyph unicode="0" d="M116 657.5q6 106.5 27 210.5q8 42 20 84t29.5 82t41.5 76q23 34 56 64q20 18 43 34t47 26q37 16 68.5 29.5t62.5 23t63 16.5t72 11l-86 -52l108 52q14 -1 24 -1.5t18 -1.5t18 -3q9 -4 22 -8q34 -12 60.5 -31t47.5 -44t37 -54.5t28.5 -61t21.5 -64t17 -63.5q8 -33 16 -70 q8 -38 12 -72q10 -70 11 -137.5t-6 -133.5t-22.5 -131.5t-38.5 -133.5q-16 -48 -39 -96t-59 -85q-22 -22 -48 -40t-54 -32.5t-58 -26.5q-30 -11 -58 -19q-38 -12 -76 -20q-38 -9 -78 -9q-18 0 -36.5 1t-36.5 4t-35.5 8.5t-33.5 14.5q-36 22 -63.5 57t-48 76t-34.5 85t-25 82 q-4 18 -9 36q-4 16 -7 34q-4 18 -7 36q-2 16 -4 34q-14 107 -8 213.5zM359 706q-2 -80 6.5 -159.5t29.5 -157.5q10 -36 22.5 -74.5t29.5 -75t39 -69.5q24 -32 54 -56q18 -15 38 -23.5t43 -10.5q12 15 21 32q10 17 18 34q28 60 47.5 124t31.5 129q4 20 6.5 37.5t4.5 34.5 t3 34t3 37q2 37 1 71.5t-4 70.5q-3 38 -7 72t-12 71q-6 34 -15 71t-20.5 74.5t-27.5 73t-37.5 66t-50.5 53.5t-65 37q-8 2 -14 4q-4 2 -10 4l-2 -4q-33 -40 -54 -86q-22 -46 -35 -96q-20 -78 -31 -158t-13 -160zM683 82h1h-1z" />
<glyph unicode="1" d="M117 -12l194 101q13 0 27 -1h26q7 8 14.5 15t13.5 15q8 8 18 16t18 16l11 11l1 1q2 4 4 7.5t4 7.5q6 15 7 31t1 32q0 21 -3 42t-3 42q-2 92 -1 183t1 182v239q0 21 2 41.5t-3 40.5q-12 21 -31.5 43.5t-43 42.5t-49 35.5t-48.5 21.5q-6 2 -12.5 2t-12.5 1q-30 2 -60 1.5 t-60 -3.5l168 98q36 4 73 6t73 0q16 -1 31 -2.5t28 -4.5t26.5 -8t27.5 -13t34.5 -24t39.5 -34t35 -37t23 -34q4 -10 5.5 -21.5t0.5 -22.5t-2 -23t-1 -22v-238q0 -14 -0.5 -39t-1 -57t-0.5 -69v-74v-73t2 -67q1 -14 2.5 -29.5t2.5 -29.5q1 -22 0 -43t-10 -41l5 2 q17 -17 35.5 -38.5t38.5 -42.5t41 -39t43 -28q18 -8 38 -11.5t40 -5t41 -1t40 0.5l-194 -101h-49.5t-50.5 1t-50 5t-47 14q-30 13 -54 34t-46 45q-56 -34 -121 -59q-65 -26 -131 -34q-38 -5 -75.5 -5.5t-75.5 -0.5zM444 166q1 1 1 2t-1 0v-2z" />
<glyph unicode="2" d="M92 981q20 28 39 57t39.5 57t43.5 53.5t51 46.5q16 12 33.5 23t35.5 20q18 8 35 16t35 16q16 7 35.5 14.5t41 13.5t42.5 10t39 4h21.5h21.5q24 0 45.5 1.5t42.5 -1t41 -9.5t41 -21q22 -16 39.5 -37.5t31 -45t24 -49.5t20.5 -50l12 -34q7 -16 12 -34q8 -26 5 -54t-11 -55 t-21 -53t-26 -46q-25 -41 -57.5 -77t-68.5 -68.5t-74.5 -62.5t-74.5 -60l-64 -52t-60 -56q-20 -22 -31 -44t-19 -44.5t-14 -46t-16 -50.5q-4 -13 -8 -25t-5 -26q0 -4 0.5 -9t3.5 -8l1 -1q4 -1 7 -1.5t7 -0.5q116 0 231 1t230 -2q18 22 30.5 47.5t23.5 51.5l120 38 q61 18 121 36q-12 -30 -27 -57t-35 -53q-16 -19 -34 -35.5t-38 -30.5q-23 -16 -54 -32t-64.5 -29t-66.5 -23t-61 -13q-16 -2 -32 -2.5t-30.5 0.5t-29 1.5t-30.5 0.5h-443q-6 0 -15.5 -0.5t-19.5 0.5t-19 3t-13 8q-7 8 -7 21t3 26t7.5 25t8.5 20q6 16 10 32t8 32.5t9 32 t13 31.5q12 22 27 40.5t33 35.5q30 30 63 57l66 54t66 53t65 55q24 22 47 44.5t43 48.5q14 18 29 43t27 52t20 54t6 50q-2 26 -10 48.5t-16 46.5q-2 2 -3 5t-1 6l-2 5v1v1h-1q0 -2 1.5 -4.5t2.5 -5t1 -3.5t0 1q-12 30 -26.5 62t-33.5 61t-44 51q-26 20 -62 28l-16 2h-18 l-12 -14q-29 -34 -53 -72q-25 -37 -51 -73zM367 198q-2 0 1 -2z" />
<glyph unicode="3" d="M124 173q60 24 120 46.5t120 46.5q18 -21 37 -43.5t39 -43.5t41.5 -40t46.5 -33q16 -10 34 -16.5t38 -9.5q6 -1 8 -1q3 -1 8 -1h3h5q18 22 32 48q14 25 25 51q11 27 21 53q8 20 16 41t7 43q0 12 -4.5 24t-8.5 24q-13 36 -26 70q-14 32 -36 64q-6 10 -15 19.5t-18 18.5 t-17 18.5t-13 19.5q-8 18 -11 37.5t-7 38.5h-3q-28 -4 -55 -4q-1 0 -4 -0.5l-6 -1t-5 -0.5h-2q-18 -3 -37 -3.5t-36 -0.5q-46 -2 -90 0t-89 2l194 101q17 0 34 -0.5t34 -0.5q4 0 8.5 1l9 2t6.5 1q3 0 3 -4h4h17q8 -2 16 -2h1.5h2.5q2 10 6 18q12 23 29 47.5t32.5 49.5 t26.5 51t11 54q0 10 -5.5 27t-13 34t-15.5 33l-13 26q-11 20 -24 38.5t-28.5 34.5t-34 29t-39.5 22q-19 8 -38 12l-4 -4q-22 -25 -41 -51.5t-41 -51.5l-230 -61q14 16 27.5 34t27 35t28.5 34t31 32q32 30 70 49.5t78 37.5q20 9 40 16t42 12q46 11 91.5 17.5t88 2t81.5 -23.5 q39 -18 73 -58q28 -32 48 -72t36 -80q12 -28 7.5 -56.5t-17 -56.5t-30.5 -54t-32 -48q-10 -14 -16 -26l-6 -11l-1 -1l-1 -6q-1 -8 -1 -16t-1 -16q-1 -12 -4.5 -23.5t-9.5 -20.5l8 3q4 -11 5 -22.5t3 -23.5t5 -23t9 -21q11 -16 25.5 -29t26.5 -29q22 -32 38 -66t29 -70 q4 -11 8.5 -21.5t7.5 -22.5t4 -23t-2 -23q-4 -20 -11.5 -39.5t-15.5 -38.5q-12 -32 -26 -62t-32 -58t-41 -52t-51 -44q-54 -36 -115 -59t-124 -37q-22 -5 -50.5 -7.5t-58 -2.5t-58 3t-48.5 11q-34 13 -63 33.5t-54 44.5t-49 51q-22 27 -46 54zM406 1214q2 0 4 1 q-1 0 -3 -0.5t-1 -0.5zM738 747q1 0 1 0.5t1 0.5q-1 0 -1 -0.5t-1 -0.5z" />
<glyph unicode="4" d="M24.5 358q-1.5 10 0 20.5t5.5 21.5q4 10 6 18q4 12 6 22t6 22q4 11 7 20.5t7 19.5q5 12 9 20q3 8 9 18q4 9 8 15.5t7 12.5t7 12q4 8 10 18q36 61 71.5 121.5t71.5 120.5q19 32 38 64.5t41 62.5q16 22 38 40.5t46 31.5q10 5 15 8t9.5 5l9 4t12.5 6q3 1 5.5 2.5t6.5 3.5h2 l19 10q18 10 37 18t38 15q15 6 37.5 13.5t47 13.5t48 9t39.5 -1q6 -2 12 -5l12 -6l2 -1l108 37q-12 -40 -18 -78.5t-9 -77.5t-3 -78v-81v-426h272l-194 -100h-78v-4q0 -11 0.5 -21.5t0.5 -21.5t-1.5 -21t-5.5 -21l6 2q16 -16 33.5 -37t36.5 -41.5t38.5 -37.5t39.5 -25 q23 -10 47.5 -11.5t49.5 -1.5l-194 -101h-33.5t-34.5 1.5t-34 5t-32 9.5q-27 12 -49 31t-44 41q-14 -8 -29 -15t-31 -15q-50 -23 -103 -37.5t-108 -18.5q-26 -2 -50.5 -2h-49.5l194 101q8 0 16.5 0.5t17.5 -1.5l3 4q8 8 15 16q7 10 17 16q8 6 14.5 12.5l13.5 13.5 q8 10 10.5 21t3 23t-0.5 24t-1 24v88h-505q-2 -1 -3 -1h-2q-6 0 -14.5 -0.5t-17 0.5t-16.5 3q-8 4 -12 8q-8 8 -9.5 18zM268 451.5q0 -5.5 2 -11.5q1 -4 4.5 -7t4.5 -4q3 0 5.5 0.5t6.5 0.5q20 6 40.5 7t41.5 -1l42 -4t42 -2h147v342v100t6 96l-8 -4q-11 10 -21.5 24.5 t-22.5 27.5q-7 -12 -13.5 -23t-14.5 -22q-14 -24 -28.5 -47.5t-28.5 -47.5q-26 -44 -51.5 -88t-51.5 -88q-16 -26 -31 -52t-27 -52q-8 -17 -15 -34.5t-12 -35.5q-2 -7 -3 -14q-2 -6 -4 -14l-1 -3l-1 -1v-1q-2 -5 -3 -11q-1 -4 -2 -9l-2 -10q-1 -6 -1 -11.5zM480 1070l3 1.5 t1 -0.5z" />
<glyph unicode="5" d="M88 705.5q0 14.5 1.5 28.5t2.5 27v4q6 44 11 86.5t10 86.5q2 16 3.5 31.5t3.5 30.5q6 28 19 50t31 39t41 30t47 26q23 12 48.5 22t52.5 17.5t54 13.5q27 4 53 6q22 2 45 1t45 -2h332l-194 -101h-325q-7 -20 -9 -41t-4 -41q-2 -18 -5 -42t-6 -51.5t-6.5 -55t-5.5 -51.5 q-1 -16 -1 -33t4 -33q1 -4 2 -6q0 -4 2 -6q47 19 98.5 35.5t104.5 24.5t105 7t98 -15q34 -10 66 -29t57 -44q22 -22 42.5 -55.5t35.5 -71.5t24 -76t7 -70q-1 -19 -5.5 -37.5t-10.5 -36.5q-1 -2 -2.5 -9t-4 -15t-5 -15t-5.5 -11q-1 -2 -1.5 -4t-1.5 -4q-12 -34 -26 -67 t-34 -65q-26 -39 -58 -67t-68 -49t-77 -37q-41 -15 -83 -31q-28 -10 -62 -17t-68 -9t-68 2t-62 17q-31 14 -56.5 35.5t-47.5 46.5t-43.5 50.5t-45.5 47.5l241 93q18 -16 34.5 -36t34 -40t35.5 -39t38 -34.5t42.5 -26t48.5 -12.5q22 24 38.5 54t28.5 60q0 2 2 7t4.5 13l5 16 t5.5 13q12 28 22 59.5t11 62.5q1 26 -5 57.5t-16.5 62.5t-24.5 59t-30 50q-32 44 -78 74t-100 38q-19 2 -36.5 3t-37.5 -1q-12 0 -22 -2q-27 -12 -53 -23t-54 -20q-10 -4 -24.5 -8.5t-29.5 -8.5q-2 0 -4 -1t-4 -1l-21 -6t-30 -6t-31 -1.5t-23 6.5q-5 4 -8 7q-2 2 -4 8 q-6 12 -8 26.5t-2 29zM256 1102h2h-1q-2 0 -1 0zM266 658h2q2 2 -2 0zM284 1105l2 1z" />
<glyph unicode="6" d="M121 689q7 97 32 191t72 182q19 35 43 68.5t54 58.5q42 35 92 57t102 40q26 9 54 15.5t57 8.5q16 2 34 2h9h8h5h5q30 1 59 0.5t57 -11.5q32 -13 58.5 -33t49.5 -44t44 -50q20 -26 42 -52q-60 -24 -120 -47l-120 -46q-18 22 -36.5 45t-38 44.5t-41.5 40.5t-48 33 q-18 10 -36 15.5t-40 5.5q-1 0 -2 -1q-23 -26 -39 -56q-42 -74 -67.5 -154.5t-37.5 -164.5q-6 -46 -8 -93q-4 -46 -2 -92q47 24 95.5 42t98.5 35q24 8 53 17t58 16.5t59 12.5q28 5 54 6q17 1 35.5 1t34.5 -6q8 -2 13 -5t11 -7q29 -17 48.5 -37.5t33 -45.5t23 -52t17.5 -58 q7 -24 12.5 -48.5t3.5 -50.5q-2 -23 -8 -44.5t-12 -43.5q-8 -32 -17 -66.5t-22 -67t-30 -62.5t-40 -56q-28 -30 -68 -55.5t-85.5 -45.5t-92 -32.5t-86.5 -16.5q-26 -2 -55.5 -4t-59.5 -0.5t-58 9t-52 21.5q-38 24 -65.5 58t-48 72t-34.5 80t-24 84q-22 94 -31 192t-2 195z M366 582q4 -50 12 -98q8 -50 20 -98q6 -28 15 -57t20.5 -57t26 -54t32.5 -50q22 -28 50 -50t62 -32q18 -6 36 -6q5 -1 11 0.5t11 0.5q10 14 19 29.5t16 29.5q18 38 29.5 78t21.5 81q6 24 13 47.5t7 49.5q1 22 -3.5 43t-10.5 43v1v1l-2 2v2v1v1v2l-6 21l-3.5 10.5t-2.5 8.5 t-2.5 7.5t-3.5 9.5q-14 32 -34 61q-20 30 -48 50q-18 13 -37 18.5t-41 -0.5q-2 0 -5 -1t-7 -2t-6 -2t-4 -1t-5 -1t-5 -2q-8 -2 -16 -5q-8 -2 -12 -4q-8 -4 -15.5 -7t-15.5 -7q-28 -18 -57 -34q-30 -17 -60 -30zM678 1312zM756 476v2v-2z" />
<glyph unicode="7" d="M-22 901q36 118 138 188q16 12 31 23.5t33 21.5q40 21 82.5 38.5t87.5 25.5q24 4 47 6t48 2h8.5h9.5q2 0 6.5 -0.5t8 -0.5t6 -0.5t0.5 -0.5h5h6h4t4.5 -0.5t3.5 -0.5h1h411q14 0 30.5 -0.5t32.5 -4.5t28 -13t18 -25q4 -12 0 -24q-2 -12 -6 -24l-3 -11q-1 -6 -2.5 -10.5 t-2.5 -9.5q-3 -13 -5.5 -26t-6.5 -27q-9 -33 -22.5 -64.5t-29.5 -62.5q-24 -45 -51.5 -88t-55 -86.5t-53.5 -88t-47 -91.5q-16 -34 -25 -71q-10 -38 -20 -74q-13 -50 -30.5 -97.5t-46.5 -91.5q-60 -18 -120 -37q-61 -18 -121 -37q27 42 44.5 86.5t29.5 92.5q10 40 21 79 t27 76q20 46 44 88q25 41 51 83q16 26 33.5 53t34.5 53.5t33 53.5l28 56q16 33 26 67q10 33 18 69q3 14 6.5 27t7.5 27q2 8 1 16q0 2 -1 4v2l-4 8q-12 17 -32 21q-22 2 -50 2.5t-55.5 0.5t-50 -1t-34.5 -1h-258h-10q-48 -50 -68 -116zM786 1066v2v-2z" />
<glyph unicode="8" d="M114 356q5 30 16.5 57t26.5 53t31 51l32 50q7 12 8 23.5t2.5 22.5t5.5 23t18 24q1 1 2 2.5t2 1.5l-17 -6q-2 12 -2.5 24.5t-1.5 25t-4 24.5t-7 22q-12 26 -28.5 53t-30 54t-20.5 56t0 61q6 26 15 50q10 24 22 46q13 24 29 46q15 22 35 41q25 25 58 46t68.5 37.5 t72.5 29.5q37 12 69 22q44 12 90 19.5t90 4t85 -19.5q41 -18 77 -52q22 -22 40 -48q8 -12 18.5 -32t20 -42t17.5 -43t10 -37q4 -20 -1 -42q-4 -19 -11.5 -36.5t-16.5 -33.5t-19 -32q-10 -18 -20 -34l-7 -14q-3 -8 -7 -16q-1 -1 -1.5 -2.5t-1.5 -2.5q2 -2 1 -6q-2 -3 -4 -7 q-1 -4 -0.5 -9t-0.5 -9q-2 -25 -6 -40q-3 -15 -13 -26l8 3q5 -20 8 -40q2 -21 9 -39q8 -18 21 -32q14 -14 25 -28q20 -26 34.5 -57t24.5 -61q7 -22 10.5 -41t3 -38t-4 -38t-11.5 -41q-4 -12 -9 -24t-9 -25l-6 -12q-1 -3 -2 -5q-1 -3 -2 -6.5t-2 -4.5q-7 -12 -13 -25 q-5 -12 -13 -24q-26 -38 -62 -68t-76 -52q-46 -26 -94 -46t-98 -36q-46 -14 -94 -20t-95 -2t-91 21q-42 17 -80 51q-38 36 -62 82t-42 94q-12 34 -19 66t-1 68zM358 440q-6 -36 2 -68q6 -32 18 -66q11 -32 26 -63t34.5 -59t45.5 -50q24 -22 56 -37q16 -8 27.5 -11.5 t21.5 -5.5t21.5 -3.5t27.5 -3.5q8 8 15 12.5t12 10t10 12t12 16.5q11 17 22.5 40.5t21 48t16.5 49t9 43.5q2 24 -3 47q-5 24 -11 46q-9 28 -23.5 57t-32.5 53q-6 8 -12 15t-12.5 14t-12 15t-9.5 16q-8 18 -10.5 36t-6.5 37q-7 -1 -14 -1q-7 -2 -13 -2q-16 -1 -32 0.5 t-32 1.5h-72q-7 -15 -18 -31q-12 -15 -20 -29q-20 -32 -38 -67t-26 -73zM388 1028q2 -26 10 -49t20 -45t25 -43.5t23 -43.5q6 -12 9 -25t4.5 -26t2.5 -26q0 -14 2 -26q18 0 35.5 -1t35.5 -2h79q2 13 7 23q10 22 23.5 44t26.5 44t22 45t9 49q0 12 -3 23t-7 22t-9 22t-9 21 q-16 38 -36 70t-46 56.5t-60 39.5q-32 15 -76 19q-16 -18 -32 -40.5t-29 -47.5t-21 -51q-7 -26 -6 -52zM874.5 820.5q-0.5 -0.5 0.5 -0.5v2q0 -1 -0.5 -1.5z" />
<glyph unicode="9" d="M117 162q60 24 121 46q60 22 120 46q16 -20 35.5 -43t41 -44.5t44.5 -39.5q23 -19 47 -29q16 -7 35 -12.5t39 -7.5q10 12 19 26t17 28q30 54 50 113t33 118q8 38 13 75t8 76q2 20 3 37.5t1 34v33.5t-2 36v-1q-12 -6 -31 -13t-37 -13q-50 -26 -103 -46t-107 -33 q-21 -5 -42.5 -9.5t-43.5 -6.5t-44.5 -0.5t-43.5 7.5q-18 6 -34 16t-30 23t-26.5 28.5t-22.5 30.5q-44 66 -58.5 137t3.5 149q8 32 19 65t27 65t35 61t43 51q26 26 62 48t76 40t81 31t75 21q35 8 69.5 12t68.5 1t66 -14q34 -11 64 -33q40 -29 67.5 -73t46 -94.5t29.5 -103 t19 -98.5q11 -66 15.5 -132.5t1.5 -133.5t-13 -133t-30 -130q-16 -51 -36 -101.5t-50 -95.5q-28 -42 -67.5 -74.5t-86.5 -53.5q-8 -4 -21 -9.5t-27.5 -11.5l-29 -12t-26.5 -9q-37 -10 -75.5 -18.5t-77.5 -11.5t-77 2t-76 21q-28 12 -52 30.5t-45.5 40t-41 45.5t-38.5 46z M356 955q-2 -35 2 -69q4 -28 12.5 -56.5t22 -55.5t30.5 -51.5t37 -44.5q13 -13 28.5 -23.5t33.5 -16.5q6 -2 14 -4t14 -1h4q4 1 6 1l54 22l3 2q-26 -10 -39.5 -15t-16.5 -6t2 1t16 6h1h-1l5 2q4 3 6 4q8 4 18 8l20 8q26 19 53 34.5t57 27.5q-2 22 -5 44t-7 46q-6 36 -14 76 t-19.5 79.5t-27.5 77t-39 69t-53.5 55t-70.5 37.5q-8 2 -17 4t-18 2q-13 -16 -24 -32t-21 -34q-16 -30 -30 -62t-23 -66t-13 -69zM482 1234zM566 634q2 0 3 0.5t0 0.5zM577.5 644q-0.5 0 0.5 0h1h-1.5zM614 657l4 2zM620 658q10 4 18 7.5t13 5.5t5 2.5t-6 -2.5l-20 -8z M631 664l2 1q2 0 3.5 0.5t3.5 2.5l3 1.5t3 0.5z" />
<glyph unicode=":" horiz-adv-x="602" d="M74 180q0 88 54 142q52 55 146 55t147.5 -54.5t53.5 -142.5q-3 -89 -56 -144.5t-145 -55.5q-93 0 -146.5 56t-53.5 144zM74 738q4 90 56 145t144 55q93 0 147 -56t54 -144q0 -86 -54.5 -144t-146.5 -58t-146 58t-54 144z" />
<glyph unicode=";" horiz-adv-x="602" d="M-2 -324l230 62l26 26l26 26q48 56 79 120t49 134q8 30 13 55t4.5 47t-8.5 45q-9 23 -27 50l-240 -93q4 -6 7 -10t5 -8t5 -9t5 -11q8 -18 10 -37t-1 -38t-8 -38.5t-9 -36.5q-16 -64 -44 -124q-28 -58 -72 -108q-12 -14 -24 -26q-14 -12 -26 -26zM74 738q4 90 56 145 t144 55q93 0 147 -56t54 -144q0 -86 -54.5 -144t-146.5 -58t-146 58t-54 144z" />
<glyph unicode="&#x3c;" horiz-adv-x="1388" d="M194 473l184 95l-36 -8q-26 -11 -50 -22q-24 -10 -50 -20q-4 -2 -7.5 -5t-6 -4t-3.5 -2t1 1q6 9 10.5 17t9 15.5t9.5 14.5t12 15q10 12 26.5 22t34.5 19t36 17q16 8 28 12q13 6 28.5 11t27.5 9l6 4q14 6 24 10t18 7.5t18 7.5q8 3 22 9q39 16 63.5 27t40.5 17.5t28 12 t28.5 11.5t40 16t63.5 26l88 36l20 8l2 1l12 6q13 6 26.5 11.5t26.5 11.5q39 16 78 31t81 27l-62 -73q5 2 9 2.5t4.5 0.5t-1.5 -1t-10 -3q-10 -4 -19 -8t-19 -8q-44 -21 -88 -39q-44 -19 -90 -37q-32 -14 -56 -23t-42 -16.5t-34 -14t-34.5 -14.5t-42 -18t-55.5 -23 q-27 -12 -53.5 -23t-52.5 -22l-4 -7q-6 -10 -11 -18.5t-10 -15.5t-12 -14t-16 -13l30 12q4 -9 7.5 -18.5t8.5 -19.5t11 -18t14 -15q16 -13 36 -22t42 -17t44 -14.5t41 -13.5q54 -20 106.5 -44t105.5 -48q34 -15 55.5 -24.5t39 -17t34.5 -14.5q18 -8 42 -18q86 -36 172 -66 l-231 -98q-53 18 -105 38q-50 20 -102 42l-156 70q-48 22 -96 43t-96 39q-21 8 -44.5 15t-46.5 15t-44 18t-38 24q-8 6 -14 15t-10.5 18.5t-8.5 19t-8 19.5l16 6q-22 -4 -46 -5zM444 659l4 1l-3 -1h-1zM448 660q1 0 2 1zM460 664l8 3l1 1zM476 670l8 2q2 1 -1 0.5t-7 -2.5z M476 670z" />
<glyph unicode="=" horiz-adv-x="1388" d="M156 248l194 101h841l-194 -101h-841zM156 704l194 100h841l-194 -100h-841z" />
<glyph unicode="&#x3e;" horiz-adv-x="1077" d="M-28 862l232 98q68 -32 137 -61.5t138 -57.5t139 -55.5t139 -57.5q24 -10 54.5 -20.5t60.5 -23.5t55 -30.5t39 -39.5l9 -18t5 -20h13l-13 -6v-2q-1 -10 -5.5 -20t-9.5 -18q-4 -6 -5.5 -10t-5.5 -10q-9 -12 -20.5 -23t-24.5 -20.5t-27 -17t-28 -14.5q-14 -8 -30 -15.5 t-32 -13.5l-14 -6l-6 -2q-10 -4 -19 -8q-9 -2 -19 -6q-44 -20 -89 -38t-89 -38q-116 -51 -231.5 -100.5t-234.5 -91.5l-18 49q106 36 207 80.5t203 88.5q8 3 26.5 11.5t41 18t44.5 19t36 15.5q12 6 24 11t24 9l6 2l10 4l12 5l7 7q6 10 14.5 23t8.5 25q1 10 -2 19t-8.5 17.5 t-12.5 16t-13 13.5q-17 14 -38.5 25.5t-44.5 21t-47 17.5t-44 16l-88 37q-20 8 -31.5 12.5t-21.5 8.5l-22.5 9t-36.5 15l-90 36l-88 36q-45 18 -88 38zM682 367l2 1h-2v-1z" />
<glyph unicode="?" horiz-adv-x="975" d="M80 1090q13 14 25 29t23.5 30t23.5 30t26 29q20 20 44 35.5t49 28t52 23t53 20.5q33 12 67.5 20.5t70.5 11.5q68 6 124 -23q56 -30 94 -86q6 -9 11 -18.5t11 -19.5q5 -9 10.5 -18.5t9.5 -19.5t7 -20q3 -12 2 -22q-2 -22 -11.5 -47t-23.5 -50t-31 -47t-31 -39 q-22 -24 -46 -46t-44 -47q-15 -17 -26.5 -36.5t-21.5 -39.5t-19 -41t-18 -41q-4 -12 -3.5 -24t4.5 -24q9 -26 26.5 -40t38.5 -20.5t45 -7t46 3.5q21 4 41 8t41 8h2l-100 -85q-6 -2 -9 -2.5t-6.5 -1.5t-9 -2t-15.5 -3q-4 -1 -9 -2h-5h-1q-6 -2 -11.5 -3t-11.5 -3 q-33 -7 -66 -12.5t-66 -6.5q-22 -1 -44 1t-44 7q-12 3 -23 8t-21 12q-7 6 -12.5 10.5t-10.5 11.5q-16 20 -20.5 37.5t-1.5 34.5t11 33t16 36q14 33 32 64q18 30 42 58q14 16 28.5 31t29.5 30q18 18 32 35q14 16 28 37q9 14 18.5 28.5t17 29.5t13 31t6.5 32q1 11 -4 26.5 t-13 30.5t-16 29t-14 23q-4 7 -10 13q-4 8 -10 14q-11 13 -22.5 23.5t-25.5 20.5q-10 6 -21 12t-23 10q-18 -22 -34 -44t-36 -42zM238 180q0 88 54 142q52 55 146 55q96 0 148.5 -54t52.5 -143q-3 -90 -55 -145t-146 -55q-93 0 -146.5 56t-53.5 144z" />
<glyph unicode="@" horiz-adv-x="1634" d="M41 614q3 54 14 106q11 54 29 103t45 97q13 24 28 45t31 43q21 30 50.5 60t64 57t71 50t68.5 40q48 24 94 44t97 37q23 8 42 14t37 11t38 9q18 4 42 10q10 2 28 5t37 5t33 4t16 2q136 10 272 -21q56 -12 110.5 -37.5t103 -60.5t87.5 -80t63 -99q18 -42 29 -90.5t14 -99 t-2 -102.5t-19 -100t-37 -92.5t-55 -80.5q-18 -20 -42.5 -40.5t-52 -38.5t-56 -32.5t-54.5 -23.5q-32 -11 -59 -19.5t-53.5 -15.5t-54.5 -11t-60 -6q-24 -2 -48.5 0t-45.5 14q-8 5 -14 11.5t-11 13.5t-8 15t-6 17q-7 18 -9 41q-2 24 -2 48q-11 -12 -22.5 -23t-24.5 -21 q-33 -24 -71 -40.5t-76 -30.5q-27 -10 -54 -17q-27 -6 -55 -12q-15 -3 -31 -4.5t-31 -1.5q-16 1 -32.5 5.5t-29.5 13.5q-12 8 -19.5 22.5t-12.5 27.5q-9 24 -13.5 46t-5 43.5t2.5 43.5t10 48q5 18 11 36t14 36q2 6 7 17l10 22t9 20t6 12q29 56 67.5 109.5t87.5 95.5 q29 24 61 43.5t66.5 35t70 28.5t71.5 25q30 9 62 14t64 4.5t62.5 -8.5t57.5 -26q16 -10 29 -24q13 -16 26 -30l27 8l-20 -25l-63 -257q-3 -1 -6 -1.5t-6 -2.5q4 -6 6 -14q3 -17 -0.5 -33.5t-5.5 -33.5q-2 -24 -3.5 -47.5t-0.5 -47.5q1 -19 4 -38.5t11 -37.5q11 -22 27 -30 t35 -9q30 28 52 63q22 36 36 74q20 50 29 103.5t9 108t-11 108t-32 102.5q-22 48 -53.5 88t-71 72t-85 56t-94.5 40t-100 25t-101 10q-40 1 -74 -1t-65.5 -10t-62 -22t-61.5 -38q-54 -41 -97.5 -94t-74.5 -113.5t-50 -127.5t-25 -136t1 -137.5t28 -133t56 -122.5 q35 -60 84 -108q58 -57 130.5 -91.5t151.5 -50.5t161 -14t159 20q18 4 32.5 9t32.5 12l18 -49q-45 -16 -88.5 -30t-89.5 -26q-61 -16 -127 -25.5t-133 -11t-133.5 6.5t-129.5 28t-120 52t-105 78q-19 18 -35.5 38.5t-32.5 42.5q-6 9 -13 21t-14.5 25t-14 27t-10.5 26 q-8 23 -14.5 40.5t-11.5 32t-8.5 28t-6.5 28.5t-6 33t-5 42q-4 54 -1 108zM662 550q2 -27 10 -55.5t24 -50.5q18 28 33 56.5t34 54.5q14 19 32.5 35t39.5 30t43 25t46 21l52 214q-8 8 -16 18t-17 19t-19 17q-10 7 -20 11q-12 4 -24 7q-10 4 -22 8q-50 -49 -87 -105.5 t-65 -120.5q-10 -21 -18.5 -44t-14.5 -46.5t-9 -47.5q-3 -22 -2 -46zM1272 410z" />
<glyph unicode="A" horiz-adv-x="1450" d="M-54 2l177 92q2 14 5.5 28t5.5 28q5 28 12.5 55t16 53.5l17 53t16.5 52.5q4 16 8 32.5t9 32t12.5 30.5t19.5 27q6 12 8.5 26t3.5 28l2 28t4 28q4 18 9.5 48.5t11.5 66t12 74t12 74t12 65.5t12 48q11 36 22.5 71.5t21.5 71.5q4 14 8 29q4 16 12 28q16 24 40.5 41t49.5 30 q26 16 52 32.5t52 31.5v1v2l12 4q24 14 49 24l15 -2l168 58q2 -7 6.5 -12t10 -9.5t10.5 -9.5t7 -11q4 -8 8 -18t7 -21t7 -22t6 -19q8 -26 16 -63t15 -81t14 -90t14 -90t13 -82q8 -38 14 -64q4 -14 5 -28t2.5 -28.5l3 -29t5.5 -28.5q2 -6 6 -11.5l8 -11t8 -10.5t6 -12 q14 -36 23 -73.5t19 -73.5q12 -37 22.5 -74.5t15.5 -75.5q2 -12 2 -26t1 -27t5 -26t12 -23t18.5 -17t22 -13t23.5 -11t22 -11q34 -20 65 -36t61.5 -27.5t64 -18t73.5 -7.5l-216 -101q-45 2 -81.5 8.5t-69.5 18.5t-65.5 29.5t-70.5 39.5l-8 -6q-25 -16 -53.5 -30t-58.5 -25 t-60.5 -19.5t-58.5 -12.5q-32 -4 -63 -3.5t-63 0.5l194 101h15q14 16 28.5 32.5t28.5 32.5q-5 10 -6.5 22t-2.5 24t-1 24t-2 23q-4 31 -12 61t-17 60l-12 40q-5 20 -11 41l-10 40q-32 -14 -65 -24.5t-69 -18.5q-16 -4 -34 -5t-35 0h-8.5t-8.5 1h-1h-3t-4 0.5t-4 0.5h-126 l-2 -8q-5 -18 -10.5 -35.5t-11.5 -35.5q-10 -28 -19 -56t-15 -56q-3 -14 -5.5 -29t-4.5 -29q-2 -7 -4 -14.5t-4 -16t-2 -16.5q0 -9 4 -15q12 -24 32.5 -33t44.5 -11.5t49 -0.5t47 2l-194 -101q-39 0 -75 -1h-10q-31 0 -63 5q-16 3 -32 10q-15 6 -27 18q-48 -14 -96 -22 t-98 -10zM487 564l4 2l-3 2zM488 568h2q1 0 2 -2q0 1 1 1q1 -1 2 -1.5t2 -1.5q5 -2 10 -3.5t11 -2.5q8 -2 13 -2q2 0 4.5 0.5t5.5 0.5q22 4 45.5 5t46.5 0.5t46 -2.5t46 -2q8 10 16 19q9 9 17 19l-4 8q-4 14 -5.5 28t-3 28.5t-3.5 29.5q0 14 -4 28q-8 31 -16 72.5t-16 88.5 t-16.5 97.5t-18 98t-19 90.5t-19.5 77q-2 -2 -3 -6t-2 -6q-17 -58 -33.5 -115t-34.5 -113q-4 -13 -8.5 -37.5t-9 -54.5t-8.5 -63t-8 -63t-8 -54t-8 -37q-4 -14 -6 -29.5t-3 -30.5t-3 -30t-7 -29q-1 -2 -1 -3.5t-2 -2.5zM564 458h-2q-1 0 -1 1zM906 104q3 0 4.5 0.5t0.5 0.5z " />
<glyph unicode="B" horiz-adv-x="1278" d="M-50 -10l194 100h8l2 3q22 22 42 45.5t42 45.5v902q-22 22 -43.5 47t-44.5 49t-48.5 43t-55.5 29q-22 7 -44 6t-44 -1l194 101h54q2 0 4 1q24 0 48 -5q22 -4 41 -13t37 -22t34 -28t31 -29l5 -6q76 48 162 71q73 20 149 20q13 0 27 -1h6h7.5h6.5h2h6h24t20 -1l20 -2t23 -2 q42 -6 80.5 -18.5t75.5 -32.5q20 -11 38.5 -26.5t32.5 -32.5q7 -8 13.5 -17t12.5 -18q6 -10 13.5 -24t14.5 -29t12 -30t6 -27q2 -14 -3 -28t-11 -28l-4 -8l-4 -8q-1 -2 -2 -6q0 -4 0 -2t2 8l-2 -4q0 -4 -1 -6l-9 -19q-7 -14 -15.5 -28t-18.5 -28q-14 -20 -27.5 -40.5 t-25 -42t-18.5 -44.5t-7 -49q0 -22 9 -39.5t22 -32.5t28 -29t29 -28q9 -9 16.5 -19.5t13.5 -20.5l12 -20q6 -12 10 -22q5 -11 13.5 -30.5t16.5 -41.5t13 -43q4 -15 4 -25q0 -4 -1 -8q-2 -16 -7 -30q-5 -16 -11 -30q-2 -5 -4 -9.5t-4 -10.5l-4 -7l-2 -7l-14 -32 q-12 -28 -27 -52t-37 -46q-28 -27 -60 -48.5t-68 -37.5q-48 -22 -93 -37.5t-91 -26t-93 -15.5t-100 -5q-40 0 -81 2q-42 2 -80 14q-33 12 -58.5 32t-49.5 44q-26 -19 -58 -34.5t-65.5 -28.5t-67.5 -22t-65 -13q-27 -4 -54 -5t-54 -1zM104 50zM468 1246q-1 0 -1.5 -0.5 t-1.5 -0.5q-3 -1 -3 -0.5t6 1.5zM482 266q16 -16 33 -36t35 -39t36 -35q19 -18 40 -28q25 -13 52 -18.5t55 -6.5t56.5 -1t56.5 2h6l6 6q12 12 21.5 26t17.5 28q7 12 17 35t19.5 47t16 47t4.5 36q-1 13 -5.5 25t-8.5 24v3q-2 1 -2 2q-8 18 -14 35.5t-14 34.5t-17 34t-21 31 q-16 20 -33 35.5t-31.5 31t-25 33.5t-13.5 42q-143 -2 -287 -4v-390zM482 757h152q76 1 154 1q11 23 25 44.5t29 43.5t28.5 44t23.5 46q6 16 13 31t7 31q0 9 -2 17.5t-5 16.5t-7 15.5t-6 15.5q-20 38 -41.5 66.5t-48 49.5t-59.5 35t-75 24q-8 2 -17 3t-18.5 2t-18.5 2t-16 1 h-8h-12.5h-14h-13.5q-18 -20 -35 -39t-35 -39v-411zM827.5 86h2.5h-2q-1 0 -0.5 0zM1136 1016v1v-1zM1136 1017l2 3q-2 -2 -2 -3zM1172 321l1 1z" />
<glyph unicode="C" horiz-adv-x="1284" d="M71 646q1 22 4.5 44t8 44t8.5 43q9 43 19.5 86t25.5 84t34 80t45 75q16 22 36 46t40 42q44 39 103 70.5t122.5 54.5t129 37t123.5 18q36 2 73 2h38q57 -2 111 -14t103 -37t87 -69q6 -7 9 -16t5 -18.5t3 -19t2 -18.5q4 -22 8.5 -45t8.5 -45q4 -21 7 -42.5t8 -42.5 l-122 -42t-122 -43q-10 40 -15.5 81t-13.5 82q-2 9 -3 18l-2 18t-4 18t-7 17q-14 23 -36.5 40.5t-45.5 29.5q-14 8 -32 15t-34 11q-46 14 -93 18q-37 3 -74 2h-21q-18 -1 -34 -1.5t-32 -3.5l-2 -1q-30 -20 -56 -50t-47 -65t-37 -72t-28 -71q-12 -36 -20 -72l-16 -72 q-8 -39 -14.5 -78.5t-6.5 -79.5q0 -36 5 -71l12 -70q15 -79 42.5 -155t72.5 -143q58 -84 134.5 -130.5t176.5 -59.5q30 -4 60 -3h7q33 0 66 3q4 0 9 1q6 0 10 2l14 9q8 6 16 13.5t16 14.5q7 9 11 19.5t6.5 21.5t4.5 22q2 12 4 22q5 24 11 48t12 47t10.5 47t6.5 48l244 84 q-2 -24 -6 -48t-10 -47t-13 -46.5t-11 -47.5q-2 -12 -4 -23.5t-5 -23.5t-7 -23t-10 -21q-14 -22 -39 -42t-54 -38t-59 -33t-52 -25q-46 -21 -95 -37.5t-100.5 -28t-103.5 -16.5q-40 -4 -78 -4h-25q-18 0 -29.5 1t-21.5 3t-21.5 4t-29.5 6q-40 7 -79 20.5t-73 36.5 q-46 30 -83 68.5t-65 84t-49 95.5t-35.5 102.5t-23 105.5t-12.5 105q-1 15 -1 29v15z" />
<glyph unicode="D" horiz-adv-x="1325" d="M-55 -7l194 101h1l12 12q4 6 10 11q4 5 10 9q7 8 15.5 16t17 15t16 15t13.5 18q5 10 6.5 22t0.5 25.5t-2 26t-1 24.5v628q0 20 2 40.5t3 41t0 40.5t-5 40q-2 10 -9 19t-15.5 17.5t-18 16t-16.5 13.5q-15 14 -29 29l-28 30t-30 27q-15 14 -34 22q-14 6 -28 8t-28 3 t-28.5 1t-28.5 2l215 101q3 0 8.5 -0.5t10.5 -1.5t10 0h5h2q5 0 9.5 -0.5t10.5 -0.5q19 -1 37.5 -3.5t36.5 -10.5q17 -8 31.5 -19t27.5 -23t25 -25q14 -13 26 -25l16 10q56 32 119 53.5t128 28.5q27 3 56 3h14q37 -1 71 -1q56 -2 110 -10t104 -31q71 -32 125.5 -85.5 t90.5 -121.5q28 -53 46 -110q16 -57 26 -116q13 -79 14 -159v-11q0 -75 -13 -148q-6 -38 -16.5 -77t-25 -76.5t-33 -73t-41.5 -67.5q-24 -33 -57 -61.5t-71.5 -53.5t-80.5 -45t-85 -36t-86 -28q-43 -10 -82 -18q-34 -7 -75 -13q-42 -5 -85 -7q-12 0 -23 -1q-31 0 -61 3 q-41 4 -75 18q-30 12 -54 32t-46 43q-3 -2 -5.5 -4.5t-6.5 -4.5q-40 -27 -84 -44q-42 -16 -88 -32q-34 -12 -70 -16q-28 -4 -55.5 -4.5t-55.5 -0.5zM474 267l8 3q15 -16 32.5 -36t36.5 -40.5t38 -38t38 -26.5q28 -14 58.5 -19t62.5 -6h13q23 0 45 2q30 4 58 10q2 0 4 1 q8 4 15.5 9.5t13.5 10.5q26 22 45 45q20 24 36 52q48 85 71 178t27 190q1 16 1 32q0 40 -4 84q-5 60 -18 120t-35 116.5t-55 105.5t-77 88.5t-101 64.5q-54 24 -113.5 31.5t-119.5 7.5q-19 -21 -37.5 -41.5t-37.5 -40.5q7 -18 8 -40t0 -44.5t-3 -44.5t-2 -40v-629 q0 -16 1 -29t1 -26t-2 -25.5t-8 -24.5z" />
<glyph unicode="E" horiz-adv-x="1337" d="M0 -4l194 100h11q24 24 46.5 50t46.5 50l-2 5q-4 14 -2 28t2 28v769q0 10 1 21t1 21q0 4 -0.5 7t-1.5 7v2l-2.5 5l-2.5 5q-2 4 -4.5 6.5t-4 5t-4 4.5t-5.5 6q-16 16 -33 31t-33 31q-12 13 -24.5 26.5t-26.5 24.5t-30 20t-34 13q-12 3 -23 4t-22.5 1.5t-23 0.5t-23.5 2 l216 100q6 -1 11 -1q5 -1 11 -1h4.5h5h3.5h-1q18 0 37 -2t37 -6q20 -5 38 -15.5t35 -24.5t32 -29.5t29 -30.5q28 20 60 35.5t65 27.5t67 20t67 12q18 2 36.5 1.5t37.5 -0.5h5.5t6.5 -0.5t5 -0.5h2h24q46 1 90 1h9q40 0 80 -4q10 -1 22.5 -2.5t22.5 -1.5l22 -4q2 0 7 -0.5 t4 -0.5q7 0 13 -1.5t12 -2.5l22.5 -4.5t25 -6.5t23.5 -10t17 -14q5 -7 7.5 -14.5t4.5 -15.5t3 -16t3 -16q10 -45 16 -90.5t18 -89.5l-122 -42q-60 -22 -122 -43q-6 22 -10 44.5t-8 45.5t-8 45t-8 45q-2 12 -4 23.5t-6 22.5q-6 12 -17 18.5t-24 10.5t-26.5 6t-25.5 4h-4.5 t-4.5 2q-6 0 -12 1l-12 2q-34 4 -67 6q-27 2 -54 2q-7 -1 -13 -1h-68h-10.5h-18.5q-18 -20 -36 -40.5t-37 -39.5l1 -4q4 -14 2.5 -29t-1.5 -31v-343h310q4 26 7 51.5t7 51.5l244 85q-5 -36 -8.5 -70.5t-11.5 -70.5q-1 -7 -3.5 -13.5t-5.5 -12.5t-5 -13t-2 -13q0 -8 2 -16 t5 -15t6 -15t5 -15q6 -32 10 -64.5t8 -64.5l-122 -42q-60 -20 -122 -42l-8 64t-10 64q-2 13 -8 25.5t-9 24.5h-289v-324q0 -16 -2 -33t6 -32q5 -10 11.5 -18.5t15 -16.5t17 -15t16.5 -15q10 -10 20 -21t20.5 -21t22 -19.5t23.5 -15.5q26 -12 54 -19t56.5 -10t57.5 -3 q30 -1 58 1q24 1 48 3l48 4q2 8 3 16.5t3 16.5q14 55 27 109q13 53 23 109q62 22 123 43t121 42q-10 -56 -23 -110.5t-27 -108.5q-2 -10 -4 -22t-5 -24.5t-8 -23.5q-5 -10 -13 -18q-16 -14 -34 -26t-36 -21t-37.5 -17t-39.5 -16q-27 -11 -55 -18.5t-56 -13.5q-38 -8 -76 -12 q-40 -4 -78 -4q-6 -1 -12 -1.5t-12 -0.5q-59 -6 -118 -8h-24l-94 6q-34 4 -66 14t-60 30q-16 12 -30 26l-28 28q-28 -20 -59 -36t-63 -29t-66 -23t-68 -16q-30 -6 -60 -6h-60zM280 100q4 0 8 1t1 0zM848 1246z" />
<glyph unicode="F" horiz-adv-x="1230" d="M-5 3l194 101h10q24 24 46.5 49t46.5 50q-8 24 -9 51.5t0.5 55.5t4 56t2.5 53v607q0 12 2 22q1 10 0 22v8t-2 7v3l-4 10q-4 6 -9 11l-10 10q-16 16 -33 31l-32 32q-12 14 -26 27t-28.5 25t-31 20.5t-34.5 12.5q-22 4 -44 3.5t-43 2.5l215 101q6 -1 11 -1.5t11 -0.5h5h5h4 q21 0 41 -2t40 -9q20 -6 36.5 -16.5t31.5 -23.5t29 -28t27 -29q36 25 76.5 44.5t84.5 31.5t88 16q27 3 53 3q18 0 35 -1q50 0 99 1h25q37 0 74 -2q24 -2 48 -5t48 -7q13 -2 27.5 -4t28.5 -5.5t26 -9.5q14 -6 24 -16q6 -6 9 -13.5t5 -16t3 -17.5t3 -16q4 -12 6 -22.5t4 -22.5 q7 -33 13.5 -64.5t6.5 -65.5l-122 -42q-60 -20 -122 -42q-2 44 -10 87t-18 85q-4 10 -6 21t-4 21q-6 14 -16 21t-24 11t-33 8t-39.5 7t-40 5t-33.5 2q-16 1 -33 1.5t-31 0.5h-45.5h-45.5l-9 -1q-18 -20 -36 -40.5t-38 -39.5q0 -1 2 -3q4 -16 2 -32t-2 -32v-389h354 q4 26 6 51.5t6 51.5l244 85q-4 -34 -7.5 -67t-9.5 -66q-2 -8 -4.5 -15t-5.5 -15t-5 -15t-2 -15t2 -16t5 -15t6 -15t4 -15q6 -32 9.5 -64.5t7.5 -64.5l-122 -42q-60 -20 -122 -42l-8 64t-9 64q-2 13 -7.5 25.5t-7.5 24.5h-334v-116q0 -36 -4 -72q-3 -23 -3 -46q0 -12 1 -24 q0 -18 1 -39t8 -38q5 -12 13 -21t17 -17.5t19 -16.5t18 -16q12 -12 23 -25t23 -26t25 -24t28 -18q16 -8 33 -11.5t34.5 -4.5t34.5 -1h35l-194 -101q-24 -1 -49 -1h-8l-42 2q-25 2 -49 9t-44 21q-12 8 -23 17.5t-21 20t-20 20.5q-10 12 -20 22q-17 -13 -35.5 -23.5 t-38.5 -19.5q-22 -10 -42 -19.5t-43 -16.5q-29 -10 -55 -15.5t-52 -9.5t-52 -5.5t-57 -1.5z" />
<glyph unicode="G" horiz-adv-x="1409" d="M108 661q3 73 17.5 145t41.5 139t68 126t95 107q42 36 92 63q48 27 100 49q62 25 121 42.5t119 25.5q56 9 113 9q4 0 7 -1q61 0 128 -12q25 -4 57 -14t63.5 -25t58 -34t41.5 -41q10 -15 12 -34q2 -18 6 -35q9 -44 16 -88q6 -43 17 -87q-61 -21 -122 -42.5t-122 -42.5 q-11 44 -17 87l-16 88l-4 26t-6 26q-6 12 -15 22t-20.5 19t-24 17t-22.5 14q-52 29 -109 41.5t-117 14.5q-25 1 -48.5 -0.5t-47.5 -5.5q-35 -20 -65 -52.5t-55 -70.5t-44.5 -78.5t-31.5 -76.5q-25 -72 -35 -149q-8 -59 -8 -118q0 -18 1 -35q3 -77 18.5 -152.5t43.5 -146.5 q20 -53 50 -102t69 -89q47 -48 106 -78q59 -32 125 -40q8 -1 16 -1.5t15 -0.5l5 8q14 20 28 39t26 40t22 43q10 20 15 44q4 16 4.5 33t1.5 33q1 14 1 28t-2 28q-12 20 -30 35.5t-34 31.5q-17 17 -32.5 34t-32.5 31t-36 25t-43 17q-14 3 -28 4.5t-29 1.5t-29 -1t-28 -1 l194 101q22 0 44 0.5t45 0t45 -4t42 -10.5q18 -7 33 -17t29 -22t27 -26q13 -12 26 -26q34 24 74.5 43t82.5 33t85.5 21.5t85.5 7.5l-121 -63q-18 -13 -34 -28.5t-31.5 -32.5t-30.5 -35q-14 -17 -30 -33v-1q2 -11 2.5 -27.5t0 -34.5t-2.5 -34.5t-5 -26.5q-4 -20 -11.5 -39.5 t-17.5 -37.5q-14 -27 -31 -51.5t-34 -48.5q-18 -24 -34.5 -45t-40.5 -40q-15 -12 -32.5 -22.5t-36.5 -18.5t-38 -15t-36 -13q-36 -12 -72 -20t-74 -10q-12 -1 -23 -1q-10 1 -22 1h-4h-5h-1q-2 -1 -4 -1t-4 1h-4q-16 1 -31 1.5t-30 2.5q-18 2 -36.5 5.5t-35.5 8.5 q-53 14 -100 43t-85 68q-28 28 -51 61.5t-41 69.5t-32.5 73.5t-25.5 75.5q-19 66 -28 139q-6 56 -6 112v33zM604 -30h2h-2zM889 70q4 0 6 0.5t0 0.5q-4 -1 -6 -1zM1136 542h7t10.5 1t8.5 1h2l-27 -2h-2h1z" />
<glyph unicode="H" horiz-adv-x="1532" d="M-82 1273l216 101q5 -1 15.5 -2t17.5 -2h7h-16h22l25 -2q19 -2 37 -6t35 -13q30 -16 54.5 -37.5t46.5 -45.5q30 20 65 37.5t72 31t74 22.5t71 11q18 2 35 2h35l-189 -98q-24 -23 -44.5 -48.5t-42.5 -49.5v-404h547v278q-1 2 -1 8v8q0 7 1 13.5t2 12.5q-22 22 -44 48 t-45.5 51t-49.5 45t-58 30q-22 7 -46 6t-46 -1l194 101h32h33t33 -2t31 -6q40 -13 71.5 -39t59.5 -57q14 12 34 22q52 28 106 47t112 29q16 2 32 3t33 2l15 1h3q-4 -1 -7.5 -1.5t-7.5 -0.5l-134 -92l-16 -4q-10 -11 -21 -21.5t-21 -20.5q-14 -13 -27 -25.5t-23 -28.5 q-2 -12 -1.5 -25t0.5 -26v-769q0 -16 3 -32q2 -14 -2 -30q-2 -8 -4 -15l3 1q19 -19 39 -42.5t41.5 -46.5t44.5 -42.5t48 -30.5q22 -10 47 -12t49 -2l-194 -101h-33t-34.5 1.5t-34 5t-32.5 10.5q-34 15 -60 39q-28 24 -52 51q-35 -26 -73.5 -44t-79.5 -31 q-30 -10 -55.5 -15.5t-51 -9.5t-52 -5.5t-56.5 -1.5l194 101h6q14 14 27 28t29 27q12 10 24 21.5t16 28.5q4 16 1.5 31.5t-2.5 31.5v398h-547v-298q0 -20 -2 -40t2 -40q3 -12 10 -21t15.5 -17.5t18.5 -16t18 -15.5q14 -14 28 -30t29 -31t31 -27t36 -20q24 -8 48 -9t49 -1 l-194 -101q-21 0 -42.5 0.5t-42.5 2.5t-41.5 8t-38.5 18q-13 8 -24.5 17.5t-22 20t-20.5 21.5q-11 11 -21 22q-24 -18 -56 -35.5t-67.5 -31.5t-71 -24t-64.5 -14q-27 -4 -53 -4.5t-52 -0.5l194 101l2 2q24 24 45 48t45 48l-2 6q-4 20 -2 40t2 39v805q-21 22 -44.5 49.5 t-48.5 53t-53 45.5t-58 26q-22 2 -44 2.5t-44 4.5zM582 1306l4 1zM1503 1370q3 2 7 2h2.5t-0.5 0q-2 -1 -4 -1.5t-5 -0.5z" />
<glyph unicode="I" horiz-adv-x="827" d="M0 1270l232 98q4 -1 12 -1.5t17 -1t14 -1t3 -0.5h8h10q20 -1 38 -5.5t35 -12.5q32 -16 56.5 -38t48.5 -48q50 35 107 58t117 37q32 8 64 8.5t66 4.5l-84 -48q-42 -26 -84 -50q-5 -1 -9.5 -1.5t-9.5 -0.5q-24 -24 -45 -49q-20 -25 -44 -49v-804q0 -20 -2 -40q-2 -18 2 -38 q3 -12 11.5 -23t18.5 -21t21 -19.5t20 -17.5q10 -10 21.5 -23t23.5 -25.5t24 -23.5t24 -17q24 -12 50 -16t54 -4l-194 -100h-36.5t-37 2t-36 7t-33.5 13q-14 8 -26.5 18.5t-24 22t-22.5 23.5l-22 24q-24 -18 -57 -35t-68.5 -31.5t-70.5 -24.5q-36 -9 -67 -13q-26 -3 -51 -4 q-24 -2 -50 -2l191 99q24 24 47.5 49.5t47.5 51.5l-2 5q-4 20 -2 39.5t2 39.5v805q-22 22 -43 46.5t-43 47.5t-46.5 42t-54.5 32q-10 4 -19.5 5.5t-20 2.5t-20.5 1h-20q-10 1 -20.5 2.5t-20.5 3.5z" />
<glyph unicode="J" horiz-adv-x="848" d="M8 -239l98 84q-7 -2 -12.5 -3.5t-6.5 -1.5t3 1t17 5h1l16 5l8 2q28 18 51 43t40 54.5t30 61t22 62.5q21 71 30 144t12 147q2 55 2 111v37q-1 74 -2 147v151v151q0 10 1.5 24t2.5 29t0 28.5t-5 20.5q-6 10 -13 19t-16 17.5t-18 16t-17 15.5q-18 18 -33 34.5t-31 31 t-35 25.5t-45 18q-24 4 -47 3.5t-47 3.5l216 100q6 -1 11 -0.5t10 -0.5q3 0 9 -0.5t5 -0.5q24 0 48.5 -2.5t46.5 -10.5q18 -7 34.5 -17t31 -23t27.5 -27t27 -28q51 36 109.5 60t118.5 37q18 4 34.5 5.5t32.5 2.5t32.5 2t33.5 3q-42 -24 -83 -48q-42 -26 -84 -50 q-7 -1 -13.5 -1.5t-12.5 -0.5q-24 -22 -45 -47t-43 -49q1 -2 1.5 -4t0.5 -5q4 -24 1.5 -48t-2.5 -48q0 -86 -1 -172q0 -87 2 -173q1 -40 1 -79q-1 -39 -1 -79q0 -44 -1 -92t-6 -96.5t-13 -97t-21 -95t-32 -89.5t-47 -80q-18 -26 -40 -47t-46 -41q-36 -28 -79 -49.5t-88 -39 t-91 -31.5t-90 -25z" />
<glyph unicode="K" horiz-adv-x="1470" d="M-71 1273l215 101q4 0 11 -1t14 -1t12 -1t3 -1h2q16 0 31 -1t31 -5q22 -5 40.5 -15.5t35.5 -23.5t32.5 -28t29.5 -31q0 -2 2 -2q52 35 110 58.5t118 37.5q32 7 64 8.5t65 5.5q-42 -24 -83.5 -49t-83.5 -49q-6 -1 -12 -1.5t-11 -1.5q-24 -23 -44.5 -48t-42.5 -49 q4 -10 5 -21t0 -22.5l-2 -23t-1 -21.5v-348h103t103 -3q4 18 9 34.5t9 32.5q7 24 14 50q8 26 20 48q7 12 16 22.5t18 21.5l6 7v1q-1 -1 1.5 1.5t4.5 6.5q0 1 1 1.5l3 1.5q4 6 8.5 12.5t9.5 12.5h1q-1 0 0.5 2t4 5t5.5 7t5 6l44 58q26 35 43 71.5t27 79.5l-2 1q-9 4 -15.5 11 l-13 14t-14 13t-16.5 10q0 -2 -2 -2t-5 1t-6.5 2t-5.5 1q-14 0 -27 -0.5t-25 -0.5l194 101q14 0 29.5 1t31 1t30.5 -2t29 -9q14 -8 23.5 -18.5t20.5 -20.5l12 4t12 3q66 18 132 28.5t134 12.5l-194 -101q-23 -1 -44.5 -2t-44.5 -4q-8 -26 -19.5 -49.5t-25.5 -45.5t-30 -44 q-16 -20 -34 -44q-10 -12 -20 -25l-20 -26q-14 -16 -26 -31.5t-22 -35.5q-10 -32 -21 -64t-19 -66q-6 -34 -10 -68q-2 -16 -2 -32q0 -18 2 -35q3 -23 12.5 -45.5t21.5 -44.5t25.5 -43t24.5 -41q22 -40 45 -81.5t48.5 -80t55.5 -74t67 -65.5q30 -24 64 -43t69 -35t71.5 -28 t73.5 -24l-232 -98q-38 11 -76 24.5t-74 29.5t-71 36.5t-66 45.5q-47 38 -82.5 84.5t-66.5 96.5q-20 32 -37.5 65.5t-36.5 66.5q-11 19 -22.5 38t-22 38t-19 39t-14.5 42v3l-6 -3q-26 8 -52 15t-54 11q-22 3 -44 5.5t-44 4.5v-174q0 -22 2 -46t3 -47.5t-1 -46.5t-10 -44l6 2 q20 -20 41 -45t44 -49t48 -44t53 -29q22 -8 44 -8.5t45 -0.5l-194 -101q-32 0 -64.5 1t-62.5 11q-38 13 -68 39t-58 56l-3 -1.5t-1 -1.5q-33 -24 -70 -41q-36 -16 -74 -29q-53 -19 -105 -27q-51 -7 -107 -7l186 97q12 13 25 26l25 25q10 9 20 17t18 18q12 18 16 42t3.5 50 t-3 52t-2.5 47v626q0 9 1 21l2 24t0 23t-5 18q-8 16 -21 27.5t-27 24.5q-10 10 -20 21.5t-20 21.5q-20 21 -42.5 41.5t-49.5 31.5q-14 6 -28 8.5t-29 3.5t-29 1.5t-29 2.5zM595 1306l9 4q-2 -1 -5 -2t-4 -2zM604 1310l6 3l1 1l-1 -1zM768 954l4 4l-3 -4h-1zM1161 1270 q2 1 2 2q1 0 -1 -1h-1v-1z" />
<glyph unicode="L" horiz-adv-x="1203" d="M-76 1271l232 98q12 -2 23 -2.5t23 -2.5q18 0 36 -1t36 -7q36 -11 68 -37q31 -25 60 -57q40 28 84 47t90 33q29 8 58.5 14t59.5 8h22.5t21.5 1q3 0 7.5 0.5t8.5 0.5l-20 -3l-134 -92q-18 -3 -34 -5l-6 -7q-21 -22 -40.5 -44.5t-40.5 -44.5v-816q0 -18 -1.5 -36.5 t4.5 -36.5q4 -12 12 -21.5t17 -18.5t19 -17t18 -16q8 -9 18 -20t20 -21.5t21 -19.5t23 -14q34 -15 68 -22q36 -7 70 -8h23q23 0 47 1q36 2 71 5q3 12 5 24q4 12 6 24q12 48 20 96.5t19 96.5q62 22 122.5 43t121.5 41q-12 -54 -21.5 -107t-23.5 -107q-2 -10 -4 -21t-5 -22.5 t-7 -22t-12 -18.5q-12 -14 -30.5 -26.5t-39 -22t-40.5 -17.5t-36 -15t-34 -12q-16 -5 -34 -10q-42 -10 -84 -15q-42 -4 -86 -8q-52 -6 -104 -9q-20 -1 -39 -1q-33 0 -66 3q-22 2 -45.5 5t-45.5 9.5t-43 15.5t-39 24q-14 10 -25 23q-11 14 -23 26q-26 -19 -59 -36.5 t-68.5 -31.5t-72 -24t-68.5 -14q-28 -4 -54.5 -5t-53.5 -1l194 101h10q24 24 47 50t47 51l-2 6q-4 17 -2.5 34t1.5 34v818q-24 24 -46.5 50.5t-46.5 51t-52 43.5t-62 29q-26 2 -52 3t-52 6zM754 1366l4 2z" />
<glyph unicode="M" horiz-adv-x="1879" d="M0 0l155 80q-1 12 0 23t1 21q-3 35 -3 68q0 17 1 34q1 50 1 102v671q0 10 -1 20.5t-1.5 20.5t1.5 20t6 18q9 18 24 34q16 15 30 28l24 21l-2 3l-14 14q-11 12 -22.5 24t-23.5 22q-21 18 -38.5 28t-35.5 13.5t-39 4t-47 0.5l194 100q28 0 57 1h8q25 0 49 -5q24 -4 46 -16 t41 -28t36.5 -34t33.5 -36h84h4h1q5 1 13.5 1h12.5q7 0 15 -0.5t15.5 -1.5t14.5 -5t11 -12q6 -10 9 -19.5t5 -19.5q8 -28 18 -55.5t18 -56.5q22 -72 48 -141q24 -70 50 -140q22 -60 45 -120t41 -122l8 -26q4 -12 10 -26q7 14 12 29t9 30.5t7.5 31t9.5 29.5q26 78 51 156 t55 155q8 23 13 47t16 46q6 14 16.5 26.5t23 22t25.5 17.5l28 16l12 8l2 2q41 28 81.5 52t88.5 42q13 5 26 9.5t27 8.5q6 2 16.5 4t22.5 5t25 5t27 4q26 20 53 34.5t55 27t58 22.5t61 19q19 6 39 9t40 4h28h29l-172 -89q-22 -22 -43 -45q-20 -24 -42 -46v-834q0 -19 -2 -38 t2 -38q3 -13 9.5 -23.5t16 -20t19.5 -18t19 -17.5q12 -12 24 -25t24 -25.5t26 -22.5t30 -16q22 -8 45 -10t47 -2l-194 -100q-32 0 -66 1t-64 13q-16 6 -29 15t-25.5 20.5t-24 23.5t-23.5 24q-26 -18 -56.5 -33t-63 -27t-64.5 -20.5t-61 -12.5q-27 -4 -53 -4h-52l194 100h2 l8 8q18 19 35 38.5t35 38.5q-2 5 -2 11q-4 19 -2 38t2 38v836q-6 6 -11 12.5t-11 12.5l-4 -2l-2 -1q-10 -12 -16 -26.5t-10.5 -30t-8 -31t-9.5 -29.5q-28 -72 -51 -145t-49 -146q-6 -20 -11 -41.5t-11 -43t-14 -41.5t-21 -37q-8 -10 -17.5 -18t-20.5 -15.5t-23 -13.5 l-22 -11q-19 -12 -37.5 -22.5t-38.5 -20.5l-9 -6q4 2 3 1t-4.5 -3t-9 -6t-11.5 -7q1 -74 2 -146.5t2 -146.5q-61 -21 -122 -41.5t-122 -42.5l-4 299q-14 18 -24 38t-17.5 41t-13.5 42.5t-14 43.5q-28 79 -57.5 155.5t-56.5 156.5q-19 54 -36.5 108t-35.5 108q-4 15 -9 29.5 t-11 28.5q-2 6 -2 11l-4 10q-2 6 -5 10.5t-8 8.5l-3 2q-1 -1 -1.5 -3.5t-1.5 -4.5q1 2 3 7q-1 -4 -1.5 -7.5t-0.5 -7.5q-1 -13 0 -26.5t1 -25.5v-671q1 -53 -1 -103q0 -14 -1 -27q0 -37 3 -75q0 -7 -0.5 -16t-0.5 -18.5t1 -17.5q2 -8 6 -14q10 -12 20 -19.5t22 -12 t25.5 -6.5t28.5 -4q24 -2 47 -1t47 1l-194 -100q-29 0 -58 -2h-15q-22 0 -43 2q-26 2 -50 8q-24 4 -46 18q-46 -14 -94 -20t-96 -6zM397 1143v1v-1zM941 439l1 1h-1v-1zM946 442q2 1 4 2.5t4 2.5q-2 -1 -4 -2.5t-4 -2.5zM1235 58h1h-1zM1236 58l2 1zM1432 1196h4h-4z" />
<glyph unicode="N" horiz-adv-x="1500" d="M0 0l156 80q0 12 -2.5 25.5t-2.5 22.5q-1 23 -1 45v23q0 34 1 68v740q0 10 -1 20t-1.5 20t1 20t6.5 18q14 24 34 42t40 37q-14 15 -29 32t-31.5 32t-35.5 27q-18 10 -39 14q-20 4 -40.5 4h-40.5l194 100q28 0 56.5 0.5t56.5 -4.5q24 -4 44.5 -16t38.5 -28t35 -34t33 -35 q16 1 33 3t33 2t32 -1t30 -7q14 -5 24 -13t17 -18t13 -21.5t14 -22.5q28 -44 54 -88.5t53 -90.5l66 -108t67 -108q24 -38 49 -77t47 -78q10 -18 21.5 -40.5t23.5 -45.5t25.5 -44.5t29.5 -38.5q4 19 4 38.5v37.5q0 27 -2 53.5t-4 54.5q-1 28 -0.5 55t0.5 55v87q0 14 -1 29 q0 29 1 58q1 36 3 70q1 11 1 23q0 23 -3 47q-4 30 -2.5 60t1.5 60v16v14q0 2 -1 7q-1 2 -2 3l-1 2q-2 4 -6 8.5t-7 6.5q-9 8 -19 12.5t-21 8.5q-12 4 -24.5 5t-25.5 1.5t-26 0t-26 -0.5q-12 0 -24.5 2t-24.5 4l216 100q24 -4 50 -4t52.5 -1.5t51 -6t46.5 -18.5q42 12 85 19 t87 7l-136 -70q2 -9 2 -19t-0.5 -19.5t-1 -16.5t-0.5 -12q0 -16 -1 -31.5t0 -31.5q1 -26 3 -51t1 -52q-5 -83 -5 -165v-32q0 -66 2 -132q0 -25 3 -57t4 -64.5t-2 -63.5t-16 -53q-7 -12 -17 -22t-20.5 -19.5t-22 -18t-22.5 -17.5q-8 -8 -15 -15.5t-12 -17.5q-2 -14 4 -33 q4 -19 8 -33l12 -52q4 -26 12 -52q-61 -21 -121.5 -41.5t-122.5 -42.5q-6 22 -11 44t-9 45l-7 29l-1 8q0 2 -1 2q-1 2 -1 4t-1 4q-2 8 -4 15q-1 7 -1 15v2l-6 -2q-12 6 -26 11t-27 10t-25 12t-23 17q-20 18 -34.5 40t-27.5 46t-25 48t-24 46q-22 39 -48 78.5t-50 77.5 q-44 70 -86 139t-84 141q-14 24 -27 47t-28 45q-4 6 -10.5 15t-8.5 17q-7 12 -13.5 23t-15.5 20q0 -12 1 -23.5t1 -23.5v-740q0 -34 -1 -68q0 -34 1 -68q0 -8 1.5 -17t2 -18.5t0 -19t-3.5 -17.5q24 -12 47.5 -19.5t48 -12t49.5 -6.5q26 -2 52 -2l-194 -100q-52 0 -102 5 t-98 23q-23 -8 -45.5 -13t-46.5 -8.5t-50 -5t-56 -1.5zM990 261l2 -3q-2 2 -2 3zM1102 1217q1 -1 2 -3q0 -1 0.5 -1t-0.5 1v1q-2 1 -2 2zM1346 1306l2 1z" />
<glyph unicode="O" horiz-adv-x="1303" d="M72 595q-3 23 -3 46q0 31 5 63q8 56 20 108q12 53 28 105.5t39 101.5t53.5 94t71.5 83q36 34 78 59t87.5 44.5t93 33.5t95.5 25l31 5q37 4 73 5h14q29 0 58 -3q36 -4 70.5 -13.5t67.5 -26.5q43 -22 76.5 -53.5t59.5 -69.5t46 -81t34.5 -88t25 -91t18.5 -90 q6 -34 12.5 -67t6.5 -67q0 -58 -9.5 -115.5t-23.5 -113.5q-12 -50 -28 -97.5t-38 -91.5t-50 -85t-66 -77q-34 -32 -80 -59t-97 -48t-102 -35.5t-95 -22.5q-34 -5 -69 -7q-12 0 -23 -1q-23 0 -46 2q-39 3 -77 11.5t-73 25.5q-34 16 -62 40t-52 52t-43 60t-33 65 q-40 88 -62 183t-32 191zM315 731q0 -6 -1 -12q0 -31 5 -61q5 -36 11 -72q12 -70 30 -138q16 -68 46 -134q18 -38 41 -75t52 -68t64 -54t77 -35q33 -10 68 -14q17 -1 34 -1l34 1l6 4q4 2 6 4q25 22 44.5 48t36.5 55q23 40 41 82.5t31 86.5t23 89.5t16 90.5q4 28 7 58 q2 18 2 36q0 12 -1 24q-2 32 -8 62q-4 30 -10 60q-7 40 -15.5 79t-20.5 78t-27 76t-35 72q-60 101 -146 151q-75 44 -171 44q-13 0 -27 -1q-13 -10 -23.5 -20.5t-23.5 -25.5q-40 -48 -67.5 -103.5t-45.5 -113.5q-21 -66 -35.5 -135t-17.5 -138zM536 1272h3h-3zM564 1288 q4 2 6 2q1 0 1 1l-1 -1zM752 52l4 2z" />
<glyph unicode="P" horiz-adv-x="1206" d="M-50 1268l215 101q3 0 8 -0.5t10.5 -1t10 -0.5h5.5h1q5 0 9.5 -0.5t9.5 -0.5q24 -1 44.5 -5.5t42.5 -15.5q30 -16 54 -37q24 -20 46 -44q25 18 56.5 33t64.5 27t66 19t61 9q29 2 58.5 2h57.5q26 0 51 -2t49.5 -6t48 -11.5t47.5 -18.5q36 -18 62 -44t46 -57t35 -66t26 -71 q4 -10 7.5 -21t6.5 -21.5t5 -21.5q2 -10 2 -22q-1 -22 -8 -44q-6 -22 -14 -43q-12 -37 -27 -72t-37 -69q-27 -42 -63.5 -73t-79 -55t-89 -42t-91.5 -30q-44 -12 -90.5 -18t-92.5 -6h-26h-26h-8h-1h-3h-4h-4h-5t-5 1v-197q0 -16 -2 -31t2 -30q3 -12 10.5 -21.5t17 -18.5 t19 -17t18.5 -15q20 -19 37.5 -40t40.5 -39l3 -2q3 -2 5.5 -4t5.5 -4l3 -2q17 -8 34.5 -12.5t35.5 -6t36 -2t36 -0.5l-194 -101h-41t-43 1t-42 5t-40 12q-13 6 -25.5 14t-23.5 17q-16 14 -29.5 29.5t-27.5 29.5q-26 -18 -58 -35t-67 -31t-69.5 -23t-64.5 -13 q-26 -3 -50.5 -4.5t-50.5 -1.5l192 100q24 24 45.5 48.5t44.5 48.5q-4 16 -3 31.5t1 32.5v262v3v2q0 2 -0.5 4.5t-0.5 4.5q0 14 1 21q0 6 6 14q14 10 22 18q-7 -2 -14 -5t-14 -5v514q-3 -1 -5.5 -2.5t-5.5 -1.5l7 7q-16 16 -31 33.5t-31 35t-33 34t-35 30.5q-12 10 -26 17 t-28 13l-8 2q-2 -2 -4 -1.5t-5 1.5t-6 2.5t-5 1.5q-18 2 -36 2t-36 2zM244 570q2 2 4 4.5t4 5.5q1 1 -0.5 -1t-3.5 -4.5t-3 -4t-1 -0.5zM275 564h-1h2h6h2h-9zM482 666q12 0 24 -1q10 -1 22 -1q21 0 41.5 1t42.5 -1q10 -1 20 -4.5t18 -6.5q8 -2 16 -4.5t17 -4.5l12 -2h4.5 h4.5h8t8 -2q36 0 71 2q24 23 41.5 52t31.5 59q6 14 14.5 35t16 44t12.5 44.5t5 37.5q-1 19 -6.5 36.5t-11.5 35.5q-7 18 -13.5 37t-14 37t-16 36t-20.5 34q-26 38 -55.5 61t-63 36.5t-71.5 18.5q-38 6 -80 6l-78 -78v-508zM486 542h2q-1 0 -2 1v-1zM620 1310q3 1 3 2h-2z " />
<glyph unicode="Q" horiz-adv-x="1403" d="M100 628v14q0 39 4 78q6 47 14 92q12 59 29 112.5t42 102.5t58.5 94t77.5 86q5 4 11 7.5t11 7.5q18 12 34.5 24t33.5 23q27 16 60 29.5t67 25.5t68.5 21.5t64.5 15.5q20 4 46.5 7t54.5 4q17 1 33 1h22q27 -1 49 -5q26 -4 52 -14t48 -24q28 -17 53 -35.5t47 -42.5 q32 -34 56.5 -75t43 -84t32.5 -89t23 -90q8 -37 13.5 -78.5t6.5 -79.5q1 -22 1 -45v-35q-2 -40 -8 -79q-5 -42 -12.5 -79t-19.5 -77q-18 -58 -43 -114.5t-60 -106.5q-35 -48 -79 -83q-8 -6 -16.5 -11.5t-15.5 -13.5q-8 -8 -13 -17t-9 -19t-7 -21t-8 -20q-4 -8 -9.5 -14.5 l-11 -13l-11 -13t-9.5 -14.5q-2 -19 5 -36.5t19 -33t26 -29t28 -24.5q5 -2 11.5 -7.5t12.5 -11t10 -9.5l6 -5q14 -10 30 -20t32 -18q30 -14 62 -23t64.5 -13.5t65.5 -5.5h14q27 0 53 2l-194 -101q-32 -2 -63 -3h-10q-27 0 -54 3q-24 2 -48 6.5t-47 10.5q-21 6 -38.5 12 t-36.5 14q-19 9 -36 20q-16 10 -35.5 24t-38 30t-35 33t-27.5 34q-8 13 -15.5 30.5t-5.5 33.5l-7 -3l-54 20l-52 24q-28 14 -55.5 28t-55.5 27q-28 14 -52.5 25t-47 24t-43 29.5t-42.5 42.5q-27 32 -47.5 67t-37 72.5t-28.5 76.5q-11 40 -21 80q-6 26 -10 51t-10 49 q-6 30 -10 60q-4 32 -6 62zM344 712q1 -30 5.5 -60.5t10.5 -60.5q3 -14 5.5 -29.5t4.5 -27.5t4.5 -23t5 -21.5t5.5 -21t6 -22.5q18 -66 46.5 -129t73.5 -115q21 -24 40.5 -40t40 -28t43.5 -22.5t51 -24.5q21 -10 41 -21q21 -10 41 -20q14 14 29 24.5t29 23.5q19 16 34.5 36 t29.5 40q45 72 72.5 153.5t39.5 166.5q10 69 10 138q0 17 -1 34q-3 86 -20 168q-12 57 -32.5 117t-50.5 115t-72 100.5t-96 74.5q-18 10 -42 18.5t-44 12.5q-23 4 -47.5 4t-46.5 -3q-33 -22 -60.5 -55.5t-49.5 -72.5t-39 -80t-27 -77q-19 -66 -29.5 -135t-10.5 -137z" />
<glyph unicode="R" horiz-adv-x="1429" d="M-66 0l194 100h4l16 16q7 8 14 15.5t15 14.5q6 6 13.5 11.5t14 12t12 13.5t7.5 15q4 11 5 23t0 23.5t-2 23.5t-1 23v629q0 20 1.5 41t3 41t0.5 41t-5 41q-2 10 -9 20t-16 18.5t-19 15.5l-16 16q-16 15 -32 31.5t-32 31.5t-35 27t-41 18q-12 3 -23 4.5t-23 1.5h-24 q-10 0 -22 2l215 100q3 0 8 -0.5t11 -1t10 -0.5h6h2h9.5h8.5q18 -1 36 -3.5t34 -9.5q18 -8 33 -18.5t29 -22.5t27.5 -25t26.5 -27q38 24 80 42t84 30q28 8 58 14t60 8h31h30h21h2l2 -1h8q24 0 46 -1.5t46 -3.5q46 -6 88 -22q42 -14 80 -40q40 -28 67 -66t45 -84 q7 -18 13 -35q7 -17 7 -36q0 -12 -3 -24.5t-7 -24.5t-9 -23.5t-11 -22.5q-10 -22 -19 -42.5t-20 -39.5t-25 -36.5t-32 -33.5q-15 -13 -24 -26q-10 -14 -16 -32q-4 -11 -9 -24t-8 -27t-5 -27.5t0 -26.5q2 -17 10 -33t17.5 -30.5t21 -28t21.5 -27.5q14 -19 26 -39 q14 -20 24 -41q26 -50 50 -100t54 -96q21 -32 46.5 -59.5t56.5 -49.5q36 -25 78.5 -37t84.5 -16l-216 -100q-48 4 -89 16t-77 32t-67 50t-58 72q-16 24 -30 50q-14 24 -27 50q-18 35 -34.5 70.5t-37.5 68.5q-14 22 -32 43.5t-34 45t-26 48.5q-9 26 -6 54l-4 -2 q-63 12 -125.5 17t-126.5 6v-245q0 -20 2 -40t0 -40q-2 -14 -8 -25l6 3q20 -20 40.5 -45t43 -48.5t46.5 -42.5t52 -28q24 -8 48.5 -9t48.5 -1l-194 -100h-36t-38 1t-37 4.5t-34 10.5q-34 14 -60 38q-28 23 -52 50l-2 -2q-19 -14 -39.5 -24t-42.5 -20q-36 -16 -70 -28 t-68 -18t-69 -9t-73 -3zM210 104h2h4.5t5 1t4.5 1zM467 1176q8 -19 9 -40.5t-0.5 -44.5t-3.5 -45t-2 -42v-282h148t148 -4q4 6 7.5 10.5t7.5 9.5q8 10 17.5 18t19.5 16l4 4q5 8 11.5 16t11.5 16q13 22 23 44.5t20 45.5q8 18 16 37t10 39v7q0 11 -2 22q-4 14 -10 28l-4 12 t-5 12l-1 3q-7 14 -11 23t-8 17.5t-10 17.5q-7 9 -17 22q-34 42 -79 68t-97 38q-18 4 -36 6t-36 3h-10h-17t-18 0.5t-15 1.5q-18 -19 -35 -39t-36 -40zM829 784q2 2 3 3.5t2 2.5q1 2 -1.5 -1t-3.5 -5zM890 1064z" />
<glyph unicode="S" horiz-adv-x="1126" d="M0 385l244 85q6 -42 17 -82t23 -80q4 -12 7 -26t7 -27.5t9 -26t11 -23.5q11 -16 27.5 -30.5t34.5 -27.5t37.5 -23t37.5 -17q48 -20 98.5 -29.5t102.5 -11.5q12 -1 23 -1t23 1q12 14 21.5 31.5t17 36t13.5 37t11 35.5q6 22 11 43q6 21 10 43q2 12 5 24t5 24t2.5 24 t-1.5 24q-3 16 -10.5 32t-18 30t-22.5 26q-12 14 -24 24q-40 36 -86 62t-94 48t-97 43t-97 44q-30 15 -59.5 32.5t-55.5 40t-45.5 49.5t-27.5 62q-3 12 -3 23.5t1.5 22.5t4.5 21t6 22q2 7 3.5 13.5t2.5 12.5t3 13t4 17q6 24 14 49t19 48t25 45t32 40q14 14 32 27t37 25 t39 22l40 16q42 17 84 31t86 23q44 8 88 12q21 2 41 2q24 0 48 -2q32 -3 72.5 -12.5t80.5 -25.5t75.5 -38t57.5 -50q6 -7 10.5 -23.5t9 -35.5t8 -37t5.5 -29q2 -10 5 -25.5t5 -25.5q2 -13 3 -25.5t2 -25.5l-122 -42t-122 -43q-1 13 -2 25.5t-3 26.5q-1 5 -2.5 11.5 t-2.5 13.5t-2.5 14t-2.5 11q-2 9 -5 25.5t-7 34.5t-8 33t-7 21q-9 14 -22 25.5t-28 21.5t-31 18q-16 9 -30 15q-12 6 -21 9.5t-17.5 7t-17.5 5.5q-10 2 -23 6q-31 8 -63 12q-26 3 -51 3h-13q-28 -34 -44 -73q-17 -40 -28 -82q-3 -13 -5.5 -25.5t-6.5 -26.5q0 -4 -1.5 -7 t-2.5 -6l-8 -28q-4 -15 -2 -29q4 -34 19.5 -61.5t39 -51t52.5 -42.5t60 -34.5t62 -29t57 -24.5q36 -16 72 -31.5t71 -34t68 -40t61 -47.5q26 -24 49 -53.5t30 -65.5q2 -12 1.5 -24.5t-2.5 -24.5t-5 -23.5t-5 -23.5q-10 -46 -22 -91.5t-32 -87.5q-18 -39 -44 -67.5t-57 -49.5 t-67 -37t-74 -32q-62 -24 -133 -36q-68 -12 -137 -12h-6q-72 0 -142 16q-70 14 -130 46q-28 15 -52 33.5t-47 40.5q-8 8 -13.5 19t-9.5 22t-7 23t-7 22q-14 50 -28.5 99t-21.5 100z" />
<glyph unicode="T" horiz-adv-x="1415" d="M15 958q2 38 7.5 75t13.5 74q2 11 5 22t4 21q1 8 2 18.5t3 21t5 19.5t9 16q12 16 27.5 27.5t32.5 20.5t34.5 16.5t35.5 15.5q30 14 63 23.5t65 15.5q43 8 85.5 11t86.5 7q18 2 38 3.5t40 2.5h8q16 0 31 -2q19 -2 37 -9q11 -4 20.5 -10.5t18 -15t16 -17t15.5 -16.5t16 -15 t16 -15q26 20 60 37.5t71 30.5t75 21t70 9q26 1 50 -0.5t49 -3.5l43 -5q2 0 5 -0.5t6 -0.5h5h2q24 -1 46 -3l32 -4t31.5 -6.5t30.5 -12.5q14 -6 25 -18q8 -8 11.5 -22t5.5 -26q4 -30 10 -58.5t10 -57.5l8 -45q4 -30 4 -60q-61 -21 -121.5 -42t-122.5 -43q0 30 -4 60 q0 3 -1 9t-2 12.5t-3 13.5t-2 11q-6 30 -11 58t-9 58q-2 10 -4.5 21t-9.5 18q-14 15 -35 22t-41 9q-21 2 -40.5 3t-40.5 3q-10 1 -20.5 2.5t-20.5 1.5q-20 -20 -40.5 -40t-42.5 -42q4 -10 4.5 -20.5t0.5 -21.5t-1 -21.5t-1 -20.5v-634q0 -22 2 -44.5t3 -46t-1 -45.5 q-1 -24 -9 -44l5 2q20 -20 41 -45t44 -49t48 -43t53 -29q26 -8 53.5 -9t54.5 -1l-194 -101h-36.5t-37 1t-36.5 3.5t-35 8.5q-38 12 -68.5 38t-58.5 56l-13 -9q-26 -16 -57 -31.5t-63.5 -27.5t-66.5 -21t-64 -13q-33 -4 -65.5 -4.5t-64.5 -0.5l194 101q8 0 15.5 -0.5 t15.5 -0.5q8 10 17 19q8 9 18 18q14 14 25 22.5t19 18t14 21.5q6 14 8 34q1 11 1.5 17.5t-0.5 18.5q0 26 -3 52q-4 54 -5 113q-1 39 -1 78v39q0 58 2 112t2 98v243q0 10 1 20.5t1.5 20.5t-0.5 20q0 10 -4 20t-15 23.5t-24.5 27t-27 25.5t-21.5 20q-11 10 -21.5 22 t-21.5 22.5t-23.5 19t-27.5 13.5q-28 3 -55.5 1t-55.5 -4l-2 -16q-1 -6 -3 -14q-12 -46 -19 -93t-10 -94zM190 1252q-1 0 2 0h1h-3z" />
<glyph unicode="U" horiz-adv-x="1552" d="M-75 1255l215 101q8 -1 15 -2q7 -2 15 -2h4h5h12h15q19 -1 38.5 -4.5t36.5 -12.5q16 -8 29.5 -18t26.5 -21.5t25 -23.5q12 -14 24 -26q24 17 52 32.5t58 27.5t61 22q31 8 59 14q14 2 28 5t29 3q18 2 36 2q17 0 35 4q-42 -24 -83 -49t-83 -49l-12 -2t-13 -2 q-22 -23 -42.5 -47.5t-43.5 -47.5q6 -16 3.5 -33.5t-2.5 -33.5v-152v-65v-65q0 -66 1 -133.5t7 -134.5t20.5 -132.5t40.5 -127.5q14 -34 33.5 -65t43.5 -57t54 -46t66 -30q34 -10 68 -14q26 -3 53 -2h15q9 8 18.5 16t17.5 18q42 52 66 116t37 133t17 139q6 70 6 134 q1 61 1 121q-1 29 -1 59v181q0 10 1 22.5t2 24.5t-1 24q0 11 -6 20q-10 16 -25 28t-28 26q-21 22 -41 44.5t-43 41.5q-10 8 -21.5 15t-24.5 12l-9 3q-2 0 -8 1t-8 1q-8 1 -14 1.5t-14 0.5q-18 0 -34.5 2t-33.5 6l232 98l24 -4q11 -2 23 -2q18 0 37 -2q18 -1 36 -7 t34.5 -16.5t31 -23.5t27.5 -27.5t26 -28.5q38 28 81.5 46.5t87.5 34.5q30 10 62 17q30 7 62 7q10 0 21 0.5t21 1.5q2 0 6 0.5t8 1.5h4h1h-1q-6 -2 -13 -3t-13 -2l-134 -91q-6 -1 -12 -2.5t-12 -1.5q-24 -24 -45 -49t-45 -49q4 -10 4.5 -21t0 -22t-1.5 -22t-1 -21v-224v-114 t-3 -114t-9.5 -113.5t-20.5 -112.5q-8 -30 -17 -59t-21.5 -58t-28.5 -55q-14 -26 -34 -50q-12 -14 -26 -27t-28 -25q-10 -8 -22 -16q-10 -8 -22 -14q-18 -12 -32.5 -20.5t-27 -15t-24 -11.5t-25 -10.5t-31.5 -12t-42 -14.5q-60 -20 -121 -30q-44 -7 -89 -7q-18 0 -36 1 q-42 2 -83 10t-79 27q-52 27 -88.5 70t-61 95t-39.5 109t-23 111q-10 58 -14 116t-4 116v58v60v116v152q0 12 2 22t0 22v8t-1 7l-1 4l-1 3q-2 4 -5.5 8t-6.5 8q-19 20 -37 35q-16 14 -30 29.5t-29 30.5t-31 29t-34 23q-14 8 -30 10.5t-32 3.5t-32 1t-31 3z" />
<glyph unicode="V" horiz-adv-x="1353" d="M-66 1246l215 100q46 -2 87 -14q42 -10 82 -32q14 -7 27 -15t27 -16l17 -11l7 -4q38 26 80 44t86 30q30 8 59 14t60 6h26h27q2 0 6.5 -0.5t8 -1t5.5 -0.5h-7h-7l-186 -96l-28 -32t-30 -31q4 -7 6 -15t3 -16.5t1 -17t2 -14.5q6 -39 15 -76.5t21 -75.5q12 -42 23.5 -93.5 t22.5 -108t22 -114.5t22.5 -114.5t22.5 -108t24 -93.5q7 -23 14 -45.5t14 -46.5q4 -12 7.5 -23t6.5 -22q1 -4 3 -10t5 -13t5 -13.5t2 -9.5q1 -7 2 -13q2 -8 4 -14q10 17 16 36t11 38.5t9 39.5t10 38q14 47 29 103.5t30 117.5t30 125t29 125t28 118t26 105q20 76 33 152 q2 8 2.5 16t1.5 16.5t2.5 17t5.5 14.5q-22 20 -42.5 31t-41.5 16t-44 6t-51 1l194 100h55t48 -3t45 -10.5t44 -21.5l48 15q38 12 78 16t80 4l-176 -90q-2 -10 -2 -20q0 -11 -2 -21q-2 -16 -5 -32t-7 -32q-14 -66 -32 -131q-17 -64 -35 -130q-20 -72 -39.5 -143t-41.5 -142 q-4 -12 -9 -33t-10 -47t-10 -54.5t-10 -54.5t-9 -47t-7 -33q-8 -31 -13.5 -57.5t-15 -49t-25 -43t-42.5 -39.5q-41 -28 -87 -50l-9 -5q-7 -4 -14 -10t-13 -10q-31 -20 -66 -37q-34 -17 -70 -27q-13 -4 -30.5 -9.5t-36.5 -10t-37 -4.5t-34 6q-6 3 -10.5 8t-8 11.5t-5.5 13.5 t-4 13l-7 24l-3 12v2l-8 22l-21 68q-10 34 -21 68q-10 36 -20 70q-11 38 -21.5 86t-20.5 100t-20 107t-20 107t-21 100t-21 86q-10 35 -19 69.5t-15 70.5q0 3 -2 13t-3 21.5t-2.5 20.5t-2.5 11q-6 10 -15 18t-20 14.5t-23 11.5q-12 4 -21 10q-32 18 -59.5 35t-55.5 30 t-59 22t-69 11z" />
<glyph unicode="W" horiz-adv-x="1986" d="M-81 1268l215 100q34 -2 62 -8t53.5 -16.5t50 -25t52.5 -32.5q4 -2 8 -5l8 -6q20 14 42 25.5t45 20.5t48 17t53 16q25 8 51.5 10t52.5 2q6 0 12 -0.5t13 -0.5q4 0 6.5 -0.5t6.5 -0.5h3.5h3.5h3h-2.5h-2.5l-179 -93l-32 -33q-7 -8 -13.5 -15.5t-15.5 -14.5q8 -60 18 -130 t21.5 -145t24 -152t25 -152t25.5 -144t25 -127q10 -50 20.5 -99.5t23.5 -98.5q10 30 13 62t9 63q4 20 8 51t7.5 67.5t7 75.5t7.5 75.5t8 67t8 50.5q5 22 10.5 45t9.5 45q3 20 5.5 39t8.5 36.5t15 33t25 29.5q9 8 19.5 15t20.5 14l2 1q2 2 6.5 5l10.5 7q5 4 5 2l2 2 q41 36 88 63v102l244 85v-110l-11 -4h4q2 -2 4 -2q19 -6 31 -18t20 -29t13 -36.5t7.5 -39.5t5 -39t5.5 -34q16 -69 31.5 -137t31.5 -137q4 -20 9 -51.5t9.5 -68.5t9 -76.5t9.5 -76.5t10 -68t9 -52l6 -28q2 -15 4 -29q8 22 14 47t10 48t7 41q3 16 5 24q8 35 16 81.5 t15.5 98.5t15 106t15 106t15 98t14.5 82q8 40 17.5 80.5t17.5 81t14 80.5t8 82l4 2q-16 10 -30 22t-32 17q-16 4 -32 5.5t-33 2.5t-33 1t-32 2l215 100q40 -4 63.5 -4t38 -0.5t22.5 -1t16 -4.5t19.5 -11t33.5 -21q20 6 38.5 13t38.5 11q30 6 60.5 10t60.5 8 q-42 -24 -83.5 -49t-83.5 -49l-9 -2q-6 -68 -20 -134t-30 -132q-16 -68 -30 -136q-13 -70 -29 -138q-21 -88 -41 -175q-4 -14 -6.5 -40t-6 -57t-6.5 -64.5t-6 -64.5t-6 -57t-7 -40l-1 -4q-1 -4 -3 -8l-4 -10q-7 -14 -20 -27t-28.5 -24.5t-32 -21t-29.5 -17.5 q-9 -6 -18.5 -11t-18.5 -11l-9 -5q-2 -2 -5 -3.5t-5 -3.5l-10 -6l3 2l-5 -3q-7 -4 -13.5 -8t-14.5 -8q-12 -7 -25 -13.5t-26 -11.5q-22 -8 -35.5 -12.5t-23 -8t-17 -5.5t-16.5 -4t-22 -4t-33 -5q-12 -2 -26 2.5t-22 14.5q-8 12 -12 25t-6 26q-6 16 -8 33.5t-6 33.5l-12 54 l-12 54q-6 26 -11.5 64t-12 81t-12.5 89t-12 89t-13 81t-13 64q-2 10 -5 24t-7 29t-7 30t-6 29q-4 25 -7 49.5t-10 48.5l-4 16q-3 -6 -5.5 -13t-2.5 -13q-4 -21 -7 -42.5t-7 -41.5l-24 -108l-24 -108q-2 -8 -3 -28t-2 -44.5t-2.5 -52t-3 -52.5t-2.5 -44t-3 -28 q-3 -20 -5.5 -41.5t-7 -43.5t-12 -42.5t-19.5 -36.5q-14 -18 -35 -33q-21 -16 -41 -28l-36 -20q4 4 3 2.5t-5 -4.5q-4 -2 -5 -3t4 3l-19 -17q-14 -12 -30 -21l-32 -18q-10 -6 -21.5 -12t-23.5 -10t-28.5 -10.5t-36.5 -13.5q-20 -6 -40 -10q-18 -4 -35 -5q-2 1 -4 1 q-19 0 -35 6.5t-26 22.5q-6 9 -11 25t-9 34t-8 35t-6 27q-12 49 -22 97.5t-20 97.5q-12 53 -23 117t-23 133t-23 141t-21 142t-19 134.5t-17 118.5q-8 3 -16 5q-12 4 -23 11t-21.5 15t-21 17t-20.5 16q-17 12 -35.5 23.5t-38 21.5t-40 18t-41.5 10q-6 1 -11 1.5t-9.5 1 t-9.5 0.5q-5 1 -12 1zM751 112l3 1v1l-2 -2h-1zM946 984q1 0 2 -0.5t2 -0.5zM950 982v1v-1zM1428 66v1v-1zM1428 67q1 1 5 3l5 3zM1429 68h1h-1zM1446 78l20 12zM1451 80h1h-1zM1452 80q1 1 1 2v-1z" />
<glyph unicode="X" horiz-adv-x="1450" d="M-64 4l194 101q14 0 28 0.5t28 2.5q5 18 7.5 35.5t10.5 34.5q4 10 9 18l9 18q8 15 15 26.5t13 22.5l12 22t14 24q15 26 30.5 53.5t32.5 55t36 54t38 48.5q12 14 29 26.5t34.5 25t33.5 26.5t27 30t16 36q5 18 -1 42q-4 10 -11 19.5t-14.5 18t-15 16.5t-13.5 18 q-8 12 -16 25t-16 25q-16 26 -32 50t-32 50q-22 35 -41 71.5t-32 74.5q-3 9 -5 16.5t-4 13.5t-3 13t-3 17q-1 6 0 12q0 4 -2 10l-3 1l-6 2t-7 2t-6 1q-16 6 -30 13t-29 13q-48 24 -98.5 46t-104.5 34q-16 4 -32 5q-18 1 -34 1l216 102q32 -1 61 -6.5t57 -13.5t55 -19t56 -25 l39 -18q34 22 73 37t75 25q26 7 53 13.5t55 6.5h51h4.5h4.5t7 -0.5t3 0t-3 -0.5t-3 -1l-170 -88l-20 -22l-20 -22q1 -8 1.5 -14l1 -12t2 -12t3.5 -16q10 -41 28.5 -78.5t40 -73.5t45.5 -71t46 -71q2 -4 6 -8q12 18 29 43t35 52t35 54t31.5 49t23.5 36q10 16 11 18 q12 22 17.5 46t13.5 48l8 2q-14 9 -27 19.5t-29 15.5q-24 7 -50 7q-24 0 -50 2l215 101q16 -2 32 -1.5t32 0t31.5 -3.5t27.5 -11q9 -6 17.5 -11.5t18.5 -10.5q2 -1 3.5 0t3.5 2q18 4 35 9q16 4 34 6q36 6 72.5 9.5t72.5 8.5q-42 -24 -83.5 -49t-83.5 -50l-51 -5 q-4 -12 -8 -25t-8 -25q-1 -2 -1 -5t-2 -5q-8 -14 -22.5 -36t-32 -48t-36.5 -55.5t-37.5 -57t-35 -51.5t-28.5 -40q-4 -4 -11.5 -10t-16 -11.5t-15.5 -10t-10 -6.5q-26 -23 -49.5 -47.5t-47.5 -48.5q4 -12 4 -24q0 -24 -10 -45l10 4q13 -13 28.5 -23t27.5 -26 q19 -25 32.5 -52.5t29.5 -53.5q30 -48 59 -95t55 -97q4 -8 8 -17.5t7 -19.5q4 -15 6 -32t5.5 -32.5t11 -30t21.5 -23.5q19 -10 39 -16.5t39 -15.5q38 -18 73.5 -32.5t71.5 -26.5t74 -19t80 -8l-216 -101q-44 2 -83.5 9t-78 19t-76.5 28q-36 15 -76 33q-2 0 -3 1 q-24 -16 -47 -26q-42 -18 -82 -33t-86 -25q-31 -7 -61 -7q-2 1 -4 1h-65l194 101q11 12 21.5 24.5t22.5 24.5q-7 12 -10.5 25t-5.5 27l-4 28t-6 27q-18 44 -44 85.5t-52 81.5q-12 20 -24 39t-22 40q-8 14 -15 27.5t-15 27.5q-10 -13 -19 -26.5t-17 -27.5q-25 -38 -48.5 -77 t-45.5 -79q-9 -16 -17.5 -32t-17.5 -32q-4 -8 -8.5 -16t-8.5 -16q-2 -6 -4 -11t-3 -10q-2 -9 -3.5 -19.5t-4.5 -21t-6 -20.5t-9 -18q7 -7 13.5 -14.5t12.5 -13.5l12 -10q2 -1 3 -2.5t3 -1.5l7 -4q7 -2 14.5 -3.5t14.5 -2.5q19 -2 37.5 -0.5t36.5 1.5l-194 -101q-18 0 -37 -1 t-38 -1t-38 3t-36 11q-12 5 -20.5 13.5t-16.5 17.5l-6 -2q-10 -3 -17 -5t-12 -4t-11 -3t-15 -3q-48 -11 -95.5 -17.5t-97.5 -8.5zM258 122q12 4 26 8q-5 -1 -9.5 -2.5t-10.5 -2.5zM454 116v1h-1zM641 1327l7 5h1h-2q-3 -2 -6 -5zM885 108l2 1h1q-1 -1 -3 -1z" />
<glyph unicode="Y" horiz-adv-x="1388" d="M-66 1270l215 100q40 -2 73.5 -9.5t64.5 -19.5t61 -27.5t64 -31.5q34 22 72 38t78 29q27 9 55.5 15t57.5 7h49q2 0 4 -1h6h2.5h3.5h3t-1 0h-6l-160 -83q-15 -16 -29.5 -33.5t-30.5 -33.5q8 -11 12 -23.5t5.5 -26l3 -27t3.5 -25.5q2 -8 4.5 -17t5.5 -17q16 -44 36 -86 t39 -85q14 -32 28 -64.5t27 -64.5q10 -26 19 -51t15 -53l4 -28t4 -29q4 5 10 12q19 29 30.5 63t21.5 66q2 8 6.5 18t8 20t7 17t4.5 11q18 44 35 87t35 85q10 22 19 42.5t17 42.5q6 18 10 36.5t8 36.5q2 6 4 14t4 17t3 17t-1 12q-14 22 -29.5 32t-33 14t-37.5 4h-44 q-2 -1 -5 -0.5t-5 0.5l188 97l-18 -3l2 2q4 0 9 1t9 1l4 2h5h4h1q8 1 16 1h7q11 -1 22 -1q18 0 36 -1t35.5 -5t32.5 -12t28 -21q52 16 104 27q51 11 105 12l-194 -100h-2v-1v-1v-2t-1 -2l-1 -1v-1q0 -3 -0.5 -6t-1.5 -6q-1 -6 -2.5 -11t-2.5 -11q-6 -24 -12.5 -48t-16.5 -46 q-16 -36 -31 -72l-30 -72q0 -2 -4.5 -11.5t-9.5 -24t-12 -31.5t-13 -33t-11 -28t-7 -17l-2 -4t-1.5 -3.5t-0.5 -3.5q-2 -4 -3.5 -9t-3.5 -9l-3 -10q-11 -35 -27 -69q-8 -18 -18.5 -32t-21.5 -25.5t-25 -22.5t-29 -23q-17 -15 -32 -31.5t-31 -32.5l-12 -12l-4 -3l-7 -8 q-3 -3 -4 -4.5t-2 -2.5t-3 -2.5t-4 -3.5l-15 -12v-158q0 -16 -1.5 -33t1.5 -33q3 -14 10.5 -25t17 -20t19.5 -17.5t20 -17.5q12 -12 23 -25t23 -25l24 -24q13 -12 28 -20q12 -8 26.5 -11.5t29 -5.5t29.5 -2.5t29 -1.5q10 0 19.5 0.5t19.5 0.5l-191 -99h8q-2 0 -4 -1h-6h-1 q-2 0 -7.5 -1t-5.5 0h-2q-10 -1 -20.5 -1h-20.5q-22 0 -44.5 2t-43.5 7t-41 13.5t-37 23.5q-18 15 -33.5 32.5t-31.5 33.5l-8 -6q-56 -38 -120 -61q-62 -23 -128 -36q-36 -8 -72 -8q-3 0 -5 1h-77l194 100h22h22l6 4q23 23 44 48l44 48l-2 4q0 4 -1 6q-4 16 -2 33t2 33v165 q-7 3 -15 9q-18 14 -27 33t-13 40t-6 43q-4 22 -8 41q-6 28 -17 53.5t-21 51.5q-3 8 -6 15q-4 7 -6 15q-12 32 -26.5 63t-29 62.5t-28.5 63t-26 64.5q-3 8 -6 17q-2 8 -4 17q-2 12 -3 25t-3 25.5t-6 24.5q-2 12 -10 22t-20 18.5t-25.5 15t-26.5 12.5q-14 4 -26 10 q-24 11 -47 23.5t-47 23.5t-49 20t-51 13q-8 2 -13.5 2t-10 0.5t-10.5 0.5q-6 1 -14 1zM382 57l2 1zM914 5v1h2h-1zM916 6h4q1 0 -0.5 0h-3.5z" />
<glyph unicode="Z" horiz-adv-x="1282" d="M27 934q10 53 17 106q8 52 18 105q4 16 6 33q2 16 10 30q6 12 16 21t22 16t24 13l24 12q34 18 75 32t81 21q13 2 25.5 4.5t26.5 4.5q3 0 7.5 1l9 2t7 1t-1.5 -1q-2 0 -3 -0.5l-3 -1.5q12 2 20 4q8 1 6 1q33 6 66.5 8.5t66.5 3.5q32 1 64 1h33h33q33 0 65 1q16 0 32 2 t33 2t34 -1t31 -7q13 -4 24.5 -12t21.5 -18t19 -20t17 -20q5 -6 11.5 -12t12.5 -11.5t11 -12t8 -12.5q4 -8 3.5 -16.5t-2.5 -17.5t-5 -17.5t-5 -16.5q-4 -16 -9 -31t-12 -30q-16 -38 -38.5 -71.5t-44.5 -67.5q-26 -40 -50 -82q-26 -42 -50 -84q-22 -36 -43 -72 q-21 -38 -43 -74l-28 -48l-28 -48q-16 -28 -32 -58t-34 -58q-18 -30 -37 -59t-35 -60q-4 -9 -8.5 -21t-8 -25.5t-5.5 -26t0 -22.5q2 -7 6.5 -13t10 -11.5t11.5 -10.5t10 -10q8 -9 15 -18.5t15.5 -19t17 -17.5t19.5 -14q9 -6 20 -8t22 -2h23q11 2 21 2q26 1 51 2h50h86 q22 0 43.5 0.5t43.5 1.5q13 1 25 2q13 0 26 2l4 20l4 20q6 27 12 54.5t12 54t14 53.5q8 26 18 52q60 19 120 37q60 19 120 37q-14 -35 -23 -71.5t-16 -73.5q-2 -12 -4 -22.5t-5 -22.5q-1 -3 -1.5 -6t-1.5 -6l-1 -1v-1v-2q0 -2 -0.5 -5t-1.5 -5q-1 -8 -2 -12q-2 -4 -4 -14 q-4 -14 -9 -29t-15 -25t-22.5 -19t-26 -16.5t-28 -14t-27.5 -12.5q-22 -10 -45 -17t-45 -15q-12 -4 -28 -8l-32 -8t-33 -7t-31 -5q-7 -5 -16.5 -3.5t-17.5 -0.5q-9 -2 -15.5 -2t-12.5 -1t-12 -1q-6 -2 -15 -2q-40 -4 -79.5 -5t-78.5 -1h-79q-38 0 -78 -2q-26 -2 -52 -3h-10 l-42 3q-14 2 -25 6t-20 9.5t-18 13t-19 18.5q-8 9 -16 19q-8 8 -16 18q-6 6 -11.5 12.5t-11 12.5t-9.5 13q-6 8 -8 16t-1 19t4 24t7 24t8 19q15 38 36.5 71t42.5 67q18 28 34.5 58t32.5 58l28 48l28 48l86 146q26 44 52 88.5t54 87.5q14 22 28 43.5t26 43t22 44.5t18 49 q4 15 9 30.5t2 31.5q-6 9 -13 16q-8 6 -16 14q-13 14 -25 28q-11 15 -25 28q-8 7 -17 14q-9 6 -19 10q-4 -1 -10 2q-6 2 -10 2h-21h-19q-3 0 -7.5 -1t-8.5 -1h-7h-3q-16 -1 -31 -1h-30q-42 0 -84 -1q-43 0 -85 -2q-5 0 -8.5 -0.5t-7.5 -0.5l-2 -17q-10 -53 -17.5 -105.5 t-17.5 -105.5zM324 1290l2 1v1v-1z" />
<glyph unicode="[" horiz-adv-x="459" d="M-61 1155q1 15 7 30t22 33q5 6 8.5 9t6.5 6t7 6t10 7q5 3 14.5 8.5t19.5 11.5t21 12t19 9q36 14 68 26t69 21q40 10 79.5 12t79.5 2l-186 -97q-3 -20 -1 -40t2 -40v-1181q0 -16 -1.5 -30.5t-0.5 -28.5t5 -27.5t15 -26.5q13 -17 31 -27q12 -6 20 -8.5t21 -5.5q24 -6 49 -7 t50 -1l-194 -100h-48t-48 3q-16 2 -33 5q-17 2 -31 8q-10 4 -21 10t-20 14q-19 16 -27 31t-10.5 32t-1.5 35t1 39v1181q0 21 -1.5 37.5t-0.5 31.5z" />
<glyph unicode="\" horiz-adv-x="745" d="M40 1227l244 85q89 -302 178 -604.5t178 -604.5q-61 -21 -121.5 -42t-122.5 -43q-90 302 -179 604.5t-177 604.5z" />
<glyph unicode="]" horiz-adv-x="459" d="M-46 -272l194 100h6q5 22 4 47q-2 32 -2 62.5t-0.5 61t0 62t0.5 67.5v952q0 20 2 37t0.5 33t-8 31t-23.5 31q-4 4 -8.5 7t-8.5 5q-8 6 -18 10t-20 7q-12 4 -26.5 5.5t-30 1.5h-29.5q-16 -1 -28 -1l194 101h65q33 2 65 -4q12 -2 21 -5t20 -7q1 0 5 -2t8 -4.5t8.5 -5 t6.5 -3.5q10 -7 17.5 -13t14.5 -16q11 -15 15 -30t4.5 -30t-1 -31t-1.5 -33v-1164q0 -18 1 -34t0.5 -31.5t-5 -31t-14.5 -31.5q-8 -12 -20 -23t-26 -21t-28 -17.5t-28 -12.5q-8 -4 -25 -11t-36.5 -14.5t-40 -15t-36.5 -11.5q-47 -12 -93.5 -15t-94.5 -3z" />
<glyph unicode="^" horiz-adv-x="1077" d="M30 402q44 86 78 174t68 177q18 48 37 94t35 94q8 24 16 43.5t18 36.5t24 32t36 29q9 6 18 11t19 11q-2 8 0 20l244 85q-2 -20 4.5 -30.5t17.5 -18t24 -13t25 -16.5q8 -6 13 -14.5t9 -17.5t8 -19q2 -10 6 -18l72 -180t72 -181q10 -26 19 -52.5t19 -52.5l20 -52t24 -50 q-60 -24 -120 -47q-62 -23 -122 -46q-13 25 -23.5 51t-19.5 52t-18.5 52t-19.5 52q-38 96 -77.5 191t-74.5 191q-14 -42 -31.5 -82t-33.5 -81q-34 -90 -68 -178q-34 -87 -78 -173q-60 -18 -120 -37t-120 -37z" />
<glyph unicode="_" horiz-adv-x="1036" d="M-78 -252l194 100h894l-194 -100h-894z" />
<glyph unicode="`" horiz-adv-x="459" d="M33 928q-1 24 4.5 50t14.5 58q14 44 28.5 79t33 66.5t43 61t56.5 62.5l230 61q-29 -30 -51 -57t-39.5 -56t-31 -61t-25.5 -72q-9 -30 -14.5 -55t-5.5 -48t8 -47t26 -51q-60 -24 -120 -47q-62 -22 -122 -46q-18 28 -26 53t-9 49z" />
<glyph unicode="a" horiz-adv-x="1231" d="M81 740q20 17 39 35.5t37.5 37.5t37.5 37t41 34q37 28 83 53t96.5 43t101.5 28t99 10q32 0 64 -2t62 -16q24 -10 43.5 -26t35 -36t27.5 -43t21 -47q18 -46 28 -92t14.5 -94t5.5 -96t1 -96v-40q-1 -18 0 -38q2 -26 3 -53t-9 -52l6 3q12 -20 16.5 -41.5t9.5 -42t12.5 -40.5 t25.5 -39q8 -8 20 -16q11 -9 22 -13q25 -10 52.5 -15t53.5 -3h16t17 2q4 0 12 1.5t15 2.5q6 2 10 2q2 0 1.5 -0.5t-2.5 -1.5q-3 -2 -6 -3t-6 -1l-131 -90q-34 -6 -72 -10q-34 -4 -68 -4h-9q-39 0 -76 9t-65 28l-14 10.5t-11 9.5t-9 11t-10 14q-8 10 -12.5 22t-7.5 25 q-40 -21 -81 -37t-83 -30q-24 -8 -49 -16t-49 -12q5 2 1 1t-11.5 -3t-16.5 -4t-14 -4l-35 -7q-28 -6 -57 -9.5t-58 0.5q-17 2 -32 7t-29 15q-24 16 -44 41t-33.5 54t-19 60t-0.5 59q5 25 15 48.5t22 45.5q18 33 39 63.5t48 56.5q33 32 77 59.5t92.5 49.5t98 38.5t93.5 28.5 q21 6 42.5 10.5t42.5 8.5q-6 41 -17.5 81t-30.5 78q-11 22 -24 42t-30 36t-37 28q-22 12 -46 18q-11 2 -21.5 3t-22.5 1l-13.5 -13.5t-13.5 -14.5q-27 -27 -54 -52.5t-57 -49.5zM332 290v-12q0 -18 4 -36q6 -24 16 -46.5t24 -42.5t32 -36q6 -6 15 -13q9 -6 18 -10 q16 -6 29 -7h9q9 0 20 1q20 4 35 8l6 2q2 0 4 1t4 1q4 1 6 2l-2 -1h2q4 2 7 4.5t7 4.5q18 14 35 31t35 32l22 21q1 2 3.5 5t4.5 7q4 11 6 21q2 14 2 26v9q0 16 -1 34q-2 22 -1.5 45t0.5 45q0 40 -0.5 81t-3.5 83q-46 -1 -90 -4q-46 -4 -90 -16q-8 -4 -13 -7.5t-10.5 -7 t-11 -8.5t-11.5 -11q-18 -18 -37 -42.5t-35 -52.5t-27 -57q-11 -28 -13 -54zM671 207l1 1z" />
<glyph unicode="b" horiz-adv-x="1257" d="M-46 1310l216 100q26 -1 50 -3.5t48 -10.5q20 -7 38 -17.5t34 -23t31 -27t30 -28.5q7 -6 15 -12.5t15 -13.5t13 -14.5t10 -17.5q6 -15 4 -31.5t-2 -32.5v-290h13.5h12.5q19 8 38.5 15t39.5 13q7 2 15 4q9 4 17 6l30 10q44 15 89 28.5t91 20.5q20 4 41 6.5t42 2.5t41 -4 t39 -12q26 -11 45.5 -30t34.5 -42.5t27 -49.5q12 -28 20 -52q8 -25 16 -56.5t15 -64.5t11 -65q2 -31 2 -56q0 -22 -4 -44t-8 -43q-6 -34 -13 -68.5t-17 -68.5q-12 -42 -30 -84t-44 -79q-24 -34 -54 -59.5t-64 -46.5q-40 -26 -84 -44.5t-90 -30.5q-19 -6 -37.5 -11t-38.5 -9 q-32 -6 -68 -8q-18 -1 -35.5 -1t-34.5 1q-33 2 -63.5 11t-58.5 29q-15 12 -27.5 26t-24.5 29l-24 30t-25 28q-10 11 -22.5 21t-23.5 21t-20 23t-13 28t-2 33t2 34v814q0 8 0.5 15.5t1 15.5t0.5 16l-4 14q-2 6 -12 18t-22.5 24t-24 22t-17.5 16q-18 16 -36 31t-40 25 q-26 12 -51 15t-53 5zM454 320q0 -11 2 -21.5t8 -19.5q6 -10 15 -18.5t18 -16.5l18 -16t17 -16q14 -15 27.5 -33t27.5 -35.5t29.5 -32.5t35.5 -24q24 -12 48 -15.5t50 -5.5q19 16 34.5 39t27.5 48t21.5 51t16.5 50q10 34 16 68q8 34 14 68l8 44t4 44q0 30 -4 58t-9 56 l-10 52t-13 52q-8 28 -21 58.5t-30.5 57.5t-41 47.5t-54.5 30.5q-14 4 -28.5 3.5t-29 -3.5t-29 -8t-26.5 -10q-2 -1 -4 -1.5t-5 -1.5l-10.5 -3.5l-10.5 -3.5q-27 -16 -54.5 -28t-55.5 -22v-448q0 -10 -1 -21.5t-1 -22.5zM495 841q-1 0 -1 -0.5t2 0.5q4 1 8 3zM569 918 q-1 -1 0 -1l1 1q2 0 4 1v1h2zM615 932l5 1q-1 0 -5 -1z" />
<glyph unicode="c" horiz-adv-x="1037" d="M80 428v9q0 29 6 61q6 36 14 69q10 42 23 83.5t32 80.5t43 74t56 66q20 20 45 38t52 32.5t55 26.5t55 20q26 8 53.5 16t55.5 14q28 4 57 6q6 0 12 1q23 0 45 -5q13 -2 25 -6q12 -6 24 -10q30 -10 53.5 -29.5t43.5 -43t39 -47.5t39 -46q-60 -24 -120 -46t-120 -46 q-18 18 -33.5 37.5l-31 39t-33.5 37.5q-17 16 -38 30q-15 10 -30 16q-16 4 -32 10q-41 -46 -67.5 -98t-44.5 -110q-18 -60 -26 -120q-6 -43 -7 -86q-1 -16 1 -34q4 -60 21 -118t50 -114q14 -23 29.5 -45.5t35 -42.5t41.5 -37t47 -27q13 -6 26.5 -10t27.5 -8q22 -6 44 -5 t44 3h2q4 2 14 3q24 21 41 46.5t33 53.5l240 74q-12 -21 -24 -41t-27 -38q-23 -27 -50.5 -49.5t-58 -40t-63.5 -31.5t-65 -26t-71 -22.5t-81 -18.5t-83 -12q-27 -3 -52 -3q-12 0 -23 1q-46 2 -87 18t-75 42t-62 60t-49 72.5t-36 80.5q-15 41 -23 83q-3 16 -5.5 30t-3.5 26.5 t-1 25.5q-2 14 -2 30z" />
<glyph unicode="d" horiz-adv-x="1245" d="M112 410q-1 16 0 32q0 62 10 124q14 78 45 150t81 132q20 25 44 46.5t51 37.5q43 26 95 47.5t107 35.5q55 15 111 19q22 2 43 1q33 0 63 -4l16 -3q0 12 1 26l2 28t-1 27t-8 23q-9 16 -23.5 28t-27.5 24q-7 7 -13 14.5t-14 13.5q-22 23 -44 44t-54 31q-10 1 -19 2t-19 1 q-4 0 -9 -0.5t-9 -0.5t-9 -0.5t-4 -0.5h-7l188 98l-18 -2h2q4 0 9 1t9 3l4 1q2 0 5 0.5t5 0.5q8 1 16 1h9q13 -1 25 -1q28 0 48 -5t37.5 -14t33.5 -23.5t35 -34.5q8 -9 16.5 -18t17.5 -18q13 -12 27.5 -24t24.5 -28q8 -13 10 -27t1.5 -29t-2 -29t-1.5 -28v-614q0 -22 2 -44 t3.5 -45t-0.5 -45q-3 -22 -11 -42l2 1q10 -13 13 -27t3.5 -28t1.5 -28q0 -15 6 -29q4 -10 10 -17.5t13 -14.5l14 -14t15 -13q22 -22 43 -44.5t48 -38.5q24 -10 46.5 -11.5t47.5 -1.5l-193 -100l18 2q1 0 -1 0h-3l-14 -2h-1h-7q-2 0 -5 -1q-11 -1 -22 -1t-21 1 q-25 0 -49.5 6.5t-44.5 20.5q-24 16 -44 37t-40 41q-14 14 -28 27t-22 31q-3 6 -5 14q-68 -38 -140.5 -66t-148.5 -45q-30 -7 -61 -13t-62 -7.5t-61 4t-58 23.5q-27 18 -48 44t-36.5 57t-27.5 64q-10 33 -18 63q-20 75 -24 154zM356 546v-21q0 -43 5 -85q7 -52 19 -100 q6 -23 14.5 -49.5t21 -53t28 -51t35.5 -43.5t44.5 -30.5t52.5 -12.5q12 0 24 3t23 7q13 5 26 14.5t25 20t24 21.5q11 10 21 20q12 10 23.5 20t21.5 22q13 20 17 43q4 20 4 42q-1 3 -1 5q0 24 -3 48q-3 26 -3 48v458q-14 0 -28 -2t-28.5 -2t-28.5 2t-27 6q-14 6 -26 15 t-25 17q-12 8 -25.5 12t-27.5 7q-16 4 -31.5 5.5t-31.5 1.5q-36 -38 -62.5 -83t-43.5 -95t-26 -103t-11 -107z" />
<glyph unicode="e" horiz-adv-x="1103" d="M86 417q-1 7 -1 15q0 18 4 33q5 21 22 37l-17 -5q8 39 15.5 79t18 79t24.5 76t36 71q28 45 63 77.5t77 56.5t88 41t95 31q23 6 48 10t51 5h17q17 0 34 -1q25 -2 49 -9q42 -12 70 -33t49 -49.5t36 -62.5t30 -70q4 -11 9.5 -23t9.5 -24.5t6 -25.5t-1 -25q-6 -22 -21.5 -38 t-32.5 -30q-12 -10 -23 -22q-12 -12 -24 -20q-27 -18 -57 -33q-31 -15 -61 -27q-9 -4 -22.5 -8t-28.5 -9.5t-30 -10t-27 -8.5q-56 -14 -112 -16q-28 -1 -56 -1l-56 1l-36 1q2 -20 6 -40t10 -39q6 -20 10 -40t10 -40q10 -33 26 -66.5t36.5 -62.5t46.5 -54q25 -25 57 -42 q26 -14 53 -21t55 -9.5t56 -0.5t56 5q24 21 42 46t34 52q60 19 120 37t120 37q-20 -32 -42 -61q-22 -28 -50 -54q-40 -36 -90 -63t-105 -46t-111.5 -31t-109.5 -18q-32 -4 -66 -6q-13 -1 -25 0q-21 0 -42 2q-33 2 -65.5 10t-62.5 24t-54.5 37.5t-44.5 47t-36 54.5t-28 59 q-7 18 -12.5 35.5t-9.5 35.5q-10 37 -19 74.5t-11 75.5zM338 582q28 2 56 1t54 -1h39t38 -1q31 -2 59 -4q19 -1 38 -1h20l22 20l6 6l3 6t2 7q1 7 1 14v11q-2 12 -6 24q-12 36 -26 71.5t-33 67.5q-12 22 -27.5 41.5t-34 34.5t-40.5 25t-48 14q-2 0 -3 1l-4 -5 q-14 -18 -26 -37t-22 -41q-14 -30 -24 -61t-17.5 -63t-14 -65t-12.5 -65zM498 956h2h-2zM672 604q2 2 4 5v2q-1 -3 -2 -4t-2 -3z" />
<glyph unicode="f" horiz-adv-x="837" d="M-58 6l180 93l4 3q22 22 42 46q19 24 41 46q-7 20 -8 44t0 49t4 49t3 44v432l1 4q-14 26 -27.5 53t-25.5 56q-16 14 -34 20t-37 7.5t-39 0.5t-40 -3q-12 -1 -24 -1.5t-24 -0.5l164 86q-10 41 -13 82q-1 13 -1 26q0 29 5 60q4 28 12 57q9 29 23 53q12 20 29.5 35t38 27 t42.5 21t42 16q45 16 94.5 29.5t99.5 17.5h27q36 0 71 -6q48 -10 91 -40q20 -14 34.5 -30t28.5 -36q-60 -24 -120 -46t-120 -46q-28 36 -59 60.5t-74 36.5q-9 -28 -14 -56.5t-6 -58.5v-14q0 -57 15 -111q16 -61 40 -118q24 13 50 23t56 19q42 12 83 17q27 4 54 4q15 0 31 -1 l30 -2q16 -1 30 -3h16h5t5 -0.5t3 -0.5h1h-1q-4 0 -7.5 -0.5t-6.5 -0.5l-193 -100q-13 0 -26 1l-26 2l-55 -55l-5 -6v-426q0 -22 -3 -46t-4 -47.5t0 -47t9 -45.5q4 -12 11.5 -21t17 -17l19 -16t17.5 -17q16 -17 31 -33.5t31.5 -30t35.5 -23t43 -12.5q18 -2 36 -2h35 l-194 -100h-36q-9 -1 -18 -1t-17 1q-18 0 -36 3t-35 9q-15 5 -28.5 13.5t-25.5 18.5t-23 22l-22 22l-10 11q-25 -18 -53.5 -32.5t-59.5 -26.5t-62 -20.5t-59 -13.5t-55 -5.5t-55 -0.5zM80 64v0v0h2h-2zM212 109q4 0 7 1h2h-1z" />
<glyph unicode="g" horiz-adv-x="1200" d="M68 -227q0 9 2 17q4 12 9 22t11 19l12 18q6 8 9 12.5t5.5 7t5 6t8.5 9.5q2 2 5 6t4 5l-1 -1l1 1v1h1l2 3q8 10 12 20.5t8 23.5q4 17 12 32.5t18 30t22.5 27.5t24.5 25q-8 6 -15.5 13t-17.5 11t-21 7l-22 6t-22 7t-20 10q-10 7 -17.5 17.5t-9.5 23.5q-1 7 0.5 14t5 14 t7.5 14q3 7 7 12l4 7q2 0 2 1q1 2 1.5 3.5t1.5 3.5q4 6 7.5 12t7.5 12q8 13 16 26.5t14 28.5q6 16 8 32.5t8 32.5q4 14 12 25l16 22l-2 7q-2 2 -2 4q-8 15 -21 27.5t-23 26.5q-11 15 -22.5 35.5t-21.5 43.5t-16 45.5t-6 41.5q0 15 4.5 33.5t12 37.5t16.5 36t15 30 q24 43 54 74t65.5 55t76.5 42q40 18 84 34q30 11 65 19.5t70 12.5q29 4 58 4h13q34 -1 66 -10q26 -7 48 -19.5t41 -28.5t36 -35t33 -38l33 13q8 8 20 18t25 20t25 20t19 18l230 61q-10 -10 -18 -22t-17 -23.5t-19 -21.5t-22 -19q-14 -10 -28 -18.5t-29.5 -15.5l-31 -14 t-30.5 -14q-6 -3 -13.5 -4t-13.5 -5q-20 -15 -36 -32q-16 -18 -34 -36q-1 -33 -4.5 -65t-12.5 -64q-9 -36 -24 -70.5t-37 -65.5q-28 -39 -66.5 -67t-82.5 -49t-90.5 -35t-91.5 -26q-52 -13 -105 -14q-6 -14 -14 -27t-16.5 -26t-16.5 -26q-9 -13 -15 -27q-4 -14 0 -24 t11.5 -17t19 -12t23 -8l23 -6t21.5 -7q12 -4 20 -11.5t18 -14.5q14 -5 28 -6t28 -0.5t28.5 1.5t28.5 1h47h46h42q20 0 41 -2q25 -2 54 -6t59 -12t58 -20t50 -30t35 -42t15 -56q0 -12 -3 -24t-7 -24l-10 -34l-5 -16h-1q-2 -6 -3 -12q-6 -21 -12.5 -40.5t-14.5 -37.5t-18 -35 q-12 -17 -26 -35q-4 -4 -8 -7t-8 -7q-16 -13 -29 -23.5t-26 -19t-28 -16.5t-33 -17q-82 -38 -170 -62t-178 -26h-31.5t-26.5 1t-26.5 3t-31.5 4q-29 4 -59.5 12t-59.5 21t-55.5 30.5t-47 40t-33.5 50.5q-17 34 -17 65zM130 -116l1 1zM139 -104h1l-1 -1v1zM312 -147 q4 -46 28 -80t59 -58t76 -38.5t81 -21.5q34 -6 67 -7q33 0 68 2q13 11 23 23.5t18 28.5q12 24 19 49t16 50q6 16 11 32q6 17 9 33q4 18 4.5 34.5t-5.5 33.5q-8 24 -27 41.5t-42.5 30t-49 20.5t-48.5 12q-38 7 -76 9.5t-76 2.5h-53q-4 -8 -6 -16l-4 -16t-5 -16t-7 -16 q-6 -12 -15 -21t-17 -20q-8 -10 -16.5 -20.5t-16 -22t-11.5 -24t-4 -25.5zM342 738v-9q0 -15 4 -33q6 -24 16 -49t23 -46.5t25 -35.5q10 -12 20 -22.5t18 -23.5q3 -4 4.5 -9.5t3.5 -9.5q0 -2 1 -3l3 -3q6 -3 10 -6q4 -2 10 -4q24 -10 52 -16q27 -6 53 -6q8 6 14.5 15 t12.5 20t11 21t9 19q21 47 29.5 96t10.5 99q-6 0 -8 2q-10 2 -12.5 8t1.5 13q-17 19 -33 39t-33 39t-37 35q-20 17 -42 29q-19 10 -37.5 15.5t-38.5 7.5q-12 -13 -24 -30q-8 -12 -19 -31t-21 -40.5t-17 -43t-9 -37.5zM460 494q0 -1 2 -1v1h-2zM1010 -116v-2v2z" />
<glyph unicode="h" horiz-adv-x="1368" d="M-71 0l183 94l20 22q10 12 22 22q10 10 20 18t20 18q8 9 11 20.5t3 23t-1 23.5t-1 23v840q0 12 1.5 23t0.5 23l-2 14v2q-1 2 -2.5 5.5t-3.5 5.5q-6 8 -11.5 14.5t-12.5 12.5q-9 8 -18.5 17t-17.5 17q-14 15 -28.5 30.5t-30.5 29.5q-10 9 -21.5 16.5t-24.5 12.5l-4 1 q-2 0 -8.5 2t-10.5 2q-15 1 -30 0h-30l194 101q28 1 51 1h6q20 0 37 -4q20 -4 40 -12q20 -10 42 -28q18 -14 32 -32l32 -32q8 -8 18 -16t19 -17t16 -19q7 -8 11 -20q5 -16 2.5 -32.5t-2.5 -32.5v-287h9h9q19 8 38.5 16.5t39.5 16.5q41 16 83.5 31t86.5 25.5t89 16.5t90 6 q28 -1 53.5 -5.5t48.5 -20.5q22 -15 35.5 -39.5t21.5 -48.5q22 -58 33 -118t15 -120q2 -28 3 -55t1 -55v-55v-55v-116q0 -12 1 -23t-1 -23q-1 -4 -2.5 -9t-3.5 -9l6 2q19 -19 38.5 -41.5t40 -44.5t43 -40t48.5 -28q19 -7 39 -8.5t40 -1.5l-194 -100h-59q-30 2 -58 12 q-34 13 -61 36.5t-52 50.5q-26 -18 -57.5 -33t-64.5 -27.5t-67 -21.5t-64 -13q-12 -2 -26 -3t-26 -1l178 91l-51 -19q-7 -4 -14 -7t-14 -7q1 0 2 1t3 2l4 2l2 2l2 1h-2q-2 -1 -0.5 -0.5t5.5 2.5l13 12q13 12 24.5 24t25.5 25q9 10 18.5 18t19.5 17l2.5 2.5t3.5 2.5 q2 4 5 7.5t5 7.5q6 12 5.5 25t-1.5 26q-1 27 -1 53v26q1 40 1 80v20v31v33t-1 26q-2 77 -12.5 150t-32.5 147q-4 14 -11 28.5t-15 28.5t-19 25t-25 18t-29.5 10t-31.5 3t-32 -2q-17 -2 -31 -4q-2 -1 -4 -1.5t-4 -1.5q-4 -2 -9 -3.5t-10 -3.5q-4 -2 -6 -2q-30 -20 -65.5 -38 t-73.5 -32v-478q0 -14 1 -27t1 -27q-2 -14 -8 -28l6 2q19 -19 38.5 -40.5t40.5 -43t43 -39.5q22 -19 47 -29q19 -8 37 -11t38 -5l-215 -100q-24 2 -47 6q-22 2 -44 12q-32 14 -58 36t-50 46v-2q-22 -16 -48 -30q-26 -13 -52 -22l-72 -24t-73 -18q-27 -4 -53 -4h-53zM10 1334 v0v0q1 0 2 -1zM208 1160v2v-2zM852 175l1 1z" />
<glyph unicode="i" horiz-adv-x="725" d="M-62 1l168 87q13 14 25 27.5t26 26.5q10 8 19 16q10 8 18 18q10 14 13 30t3 32t-2 33t-2 33v408q0 8 1 16l2 16t0.5 16t-3.5 16q-4 10 -10.5 18t-14 15t-16 13.5t-15.5 13.5q-8 8 -16 17t-17 17q-14 14 -27.5 27t-30.5 23q-4 2 -11.5 6t-11.5 6q-7 2 -12 4h-2.5h-2.5 q-16 2 -33 2h-7h-7q-2 0 -7 -1t-5 0h-7l189 98l-20 -3l3 1l19 3l3 2h8h1q7 1 15.5 0.5t15.5 -0.5q24 0 42.5 -1.5t34.5 -7t32 -14.5t34 -25q16 -14 31 -30q15 -18 30 -32q8 -7 16.5 -14t16.5 -14.5t14 -16.5t10 -19q6 -16 4 -33t-2 -35v-408q0 -15 2 -30.5t2 -30.5t-1.5 -30 t-7.5 -29l5 2q18 -18 37 -40.5t40 -45t43 -41.5t45 -29q21 -9 43 -10.5t45 -1.5l-194 -101h-31.5t-32 1.5t-32 4.5t-29.5 9q-31 14 -56.5 36t-48.5 48l-5 -4q-20 -14 -44 -26t-47 -21l-64.5 -21.5t-56.5 -15.5t-58 -8q-28 -3 -66 -3zM170 1358l298 146l-73 -362h-221z" />
<glyph unicode="j" horiz-adv-x="684" d="M-24 -394l112 66q-7 -4 -14 -5q-6 -1 -14 -1q-8 2 -6 5t10 6t19.5 7t22.5 9q-10 -3 -6.5 -2t12.5 5q3 1 5.5 2.5t5.5 1.5h-3q-2 0 -0.5 0t4.5 1l5 3q12 8 23 18t21 20q18 20 32.5 43t26 47t20 50t15.5 52q10 38 16 77t9.5 79t4.5 80q1 38 1 78q1 37 1 74q0 19 -1 38v111 v217q0 9 1 22.5l2 27t0 26t-5 19.5q-9 16 -22.5 28.5t-27.5 24.5q-9 8 -16 18q-8 10 -17 18q-10 11 -20.5 20.5t-22 18.5t-24.5 15q-12 6 -28 10l-15 2h-41h-7h-6h-4.5h-4.5l189 98l-18 -3l3 1q4 0 8 1t9 1l3 2h3.5h4.5h3t-1 0q3 0 6 0.5t6 0.5q21 0 41.5 0.5t40.5 -2.5 q22 -3 41 -13t35.5 -23t31 -29t29.5 -31q10 -10 21.5 -19.5t21.5 -20.5q15 -15 20.5 -30t6.5 -31v-11q0 -11 -1 -21q-2 -17 -2 -36v-364q0 -66 -1 -137t-9 -141.5t-27 -137.5q-19 -68 -54 -126q-27 -44 -65 -78q-38 -36 -82 -62q-36 -22 -76 -41t-82 -35t-85 -27t-85 -17z M94 -324l48 28l-6 -2t-5 -2q-10 -6 -18.5 -12t-18.5 -12zM152 -294h2h2h-4zM170 1360l298 146l-73 -362h-221z" />
<glyph unicode="k" horiz-adv-x="1347" d="M-60 -9l194 101q21 22 40.5 44t40.5 44q-1 2 -1 4q-2 4 -2 6q-4 16 -2 32q2 18 2 34v856q0 10 2 20q1 8 0 18l-2 14v1v1l-2 4q-6 11 -14 20q-9 10 -20 19t-21 19q-15 14 -30.5 28t-32 26t-34.5 22q-18 8 -39 14q-14 4 -29.5 4.5t-30.5 1.5l215 100q20 -1 39 -1.5t37 -6.5 q24 -6 45 -17t40 -25t36 -30l34 -32q7 -7 14.5 -13.5t14.5 -13.5t12.5 -15t9.5 -18q4 -14 2 -28t-2 -28v-601l178 -7l5 19q4 15 6.5 30t5.5 30t7 30t10 29q13 28 35 52q23 24 43 47l6 7q16 21 33 41t37 37q30 24 64 41q36 17 70 31q86 36 175 55t181 29q-42 -24 -83.5 -49 t-83.5 -49q-28 -3 -56.5 -6.5t-56.5 -9.5q-15 -15 -28.5 -31.5t-26.5 -32.5q-9 -10 -19 -20.5t-19 -21t-17 -22.5t-14 -24q-12 -25 -15.5 -53.5t-9.5 -54.5q-3 -14 -7 -29t-7 -29.5t-4 -29t2 -30.5q3 -14 9 -27t13 -25t15 -24t15 -23q12 -19 22 -39l20 -40q14 -27 29.5 -53 t33 -51t37.5 -48q19 -22 43 -42q20 -17 43 -30.5t47 -24.5t48.5 -20.5t49.5 -17.5q22 -7 45 -15t45 -14l-231 -98q-36 10 -74.5 22t-76.5 27.5t-73 34.5t-63 43q-24 20 -44 42.5t-37.5 47.5t-33 51.5t-29.5 53.5q-8 16 -16 31t-16 31q-8 14 -17 27.5t-18 27.5t-16 28.5 t-11 30.5l-170 6v-146q0 -16 -2 -33t2 -33q3 -13 10.5 -23.5t16.5 -19.5t19 -17t18 -17q12 -12 24 -25.5t24 -26t25 -23.5t29 -18q22 -10 46.5 -11t48.5 -1l-194 -101q-16 0 -33.5 -0.5t-34.5 1t-33 4.5t-32 10t-28.5 16.5t-24 21t-22.5 24t-23 24.5q-24 -16 -54 -32 t-62 -28.5t-64 -22t-59 -13.5q-28 -4 -56.5 -4.5t-56.5 -0.5zM214 1160v3v-3z" />
<glyph unicode="l" horiz-adv-x="725" d="M-58 1l190 98q7 7 13.5 14t13.5 15q12 12 25 23t25 23q6 10 8.5 19.5t2.5 19.5v20.5v20.5v834q0 23 2 45.5t-4 44.5q-2 5 -6 11.5t-10 12t-12 10.5q-6 4 -10 8q-14 12 -27 25.5t-27 26t-29 23.5t-32 19q-26 12 -50.5 15.5t-52.5 4.5l216 100q31 -1 60.5 -4.5t57.5 -17.5 q36 -18 64 -43q30 -25 58 -53q6 -6 12.5 -11t13 -11.5t11.5 -14t7 -15.5q4 -12 4 -23v-22.5t-1 -23t-1 -23.5v-834q0 -18 1 -37t-6 -37l5 2q18 -18 37 -41t39 -44t42 -39q22 -20 46 -30q22 -9 46 -9.5t46 -0.5l-194 -101q-16 -1 -32 -1h-12l-22 1q-16 1 -32 4t-32 9 q-32 14 -57 36t-49 48q-23 -16 -52.5 -30.5t-61 -27t-63 -21.5t-57.5 -13q-28 -4 -56 -4q-30 -1 -58 -1z" />
<glyph unicode="m" horiz-adv-x="2027" d="M-51 -5l183 95q23 22 44 46l44 48q-6 18 -7 37t0 38t3 38t2 38v345q-7 18 -8 38v17v18t-1 17t-5 16t-9.5 15t-12 13t-12.5 12l-12 12q-28 30 -62 54t-74 34q-14 4 -29 4t-29 1l216 101q36 -1 66 -7t55.5 -18.5t49 -31.5t47.5 -45q6 -6 13 -12t13.5 -12t12 -13t9.5 -15 l2 -4q39 22 81.5 41t86.5 34.5t88.5 27t86.5 19.5q28 5 59.5 9t62.5 2.5t60 -9.5q29 -10 53 -30q13 -12 21.5 -25t14.5 -28t10 -31t8 -33l20 12l22 11q39 29 81.5 49t88.5 36q48 17 97 30t100 19q23 3 47.5 3.5t48 -2.5t46 -11.5t41.5 -23.5q18 -14 30 -34.5t20 -44 t14 -47.5t10 -45q10 -45 16 -91t8 -92t2 -92.5v-92.5q0 -20 3 -42.5t4 -45t-1 -44.5t-10 -41l4 2q18 -18 39 -42t43 -47t46 -43q22 -20 46 -28q19 -7 39.5 -7.5t40.5 -0.5l-194 -101q-29 0 -59 0.5t-58 10.5q-32 12 -60.5 37t-54.5 53h-2q-1 -2 -2 -2q-27 -17 -58 -32 t-63.5 -27.5t-66 -21.5t-64.5 -13q-2 0 -9 -1t-15 -2t-15 -1.5t-11 -0.5l180 93q-2 0 -4 -1q-14 -6 -27 -10.5t-26 -9.5l-16 -8l-16 -8q-2 -1 -0.5 0t4 2t6 3t5.5 3q1 0 1 0.5t1 2.5l-2 -2q-2 -1 -1 0.5t5 2.5q22 19 41.5 39t40.5 40q8 8 16 15t16 16q11 15 14.5 38t2.5 48 t-4 49t-3 42v83q0 72 -5 143.5t-21 141.5q-7 32 -15.5 65t-24.5 61q-17 30 -45 46q-29 18 -63 20h-17.5t-19.5 -1q-13 -8 -27 -15.5t-28 -15.5q-41 -28 -75.5 -61t-69.5 -67v-334q0 -18 2 -38t3.5 -41t-0.5 -41.5t-10 -37.5l5 2q22 -22 43 -46t44 -45.5t48.5 -39t55.5 -26.5 q9 -2 15 -3.5t11.5 -2t11.5 -1t16 -0.5l-216 -101q-24 2 -47 5.5t-46 13.5q-32 14 -58.5 35t-50.5 47q-26 -18 -58 -34t-66.5 -28.5t-68 -22t-63.5 -12.5q-12 -2 -25 -2.5t-25 -1.5l174 89q-19 -8 -29.5 -11t-16 -5t-7.5 -2t-4.5 -1.5t-7 -5t-15.5 -10.5q4 2 8 5q4 2 6 4 q2 1 6 5t9 8.5t9 8.5t6 5q13 12 25.5 25.5t26.5 25.5q9 8 16.5 15t13.5 14t10 15q6 10 8 22q3 16 2.5 32t-1.5 32t-2.5 32.5t-1.5 32.5v337q-17 24 -25 52t-14.5 56.5t-16.5 54t-32 45.5q-16 14 -37.5 21.5t-43.5 8.5h-12h-14q-6 -1 -14 -2.5t-15 -2.5t-13.5 -2t-9.5 -2 q-16 -6 -32 -17t-30 -24t-27 -27q-13 -15 -25 -27t-25 -23.5t-25 -22.5v-336q0 -19 -2 -38.5t-3 -38.5t0 -38t7 -37q4 -10 9.5 -18t13 -15t15.5 -14t16 -13l28 -28l28 -28t30 -26t36 -18q16 -6 31 -8t31 -4l-216 -101q-20 2 -39.5 4.5t-38.5 10.5q-17 6 -32 16t-28.5 21 t-25.5 24q-14 13 -26 25q-26 -18 -55 -32.5t-60 -27t-63 -21.5t-60 -13q-27 -5 -54.5 -6t-54.5 -1zM218 98q4 0 7 1t1 1zM726 46h2h-2zM728 46l4 3q-1 -1 -2 -1.5t-2 -1.5z" />
<glyph unicode="n" horiz-adv-x="1368" d="M-56 -2l184 95q23 22 44 47q22 24 44 46l-2 4q-2 4 -2 6q-4 18 -4.5 35t1 35t3.5 36t2 36v347q-5 12 -6.5 24.5t-2 25.5t-1 25.5t-4.5 25.5q-7 18 -20.5 30t-26.5 24q-16 16 -31.5 29.5t-31.5 25t-34 20.5t-40 15q-14 4 -29 3.5t-28 0.5l215 100q18 -1 37 -1.5t37 -4.5 q22 -6 42 -15.5t37.5 -22t34 -27.5t32.5 -31q12 -12 25 -23t21 -27l2 -4q64 36 135 62q71 28 139 46q26 7 54.5 13.5t58.5 11t59.5 5t55.5 -4.5q36 -8 59.5 -26.5t39 -43.5t24.5 -56t17 -61q19 -78 23.5 -156.5t4.5 -157.5v-172q0 -14 2 -28t0 -28q-2 -12 -7 -21l5 2 q18 -18 37.5 -40.5t40 -44.5t42.5 -40t46 -28q21 -8 43.5 -10t44.5 -2l-194 -100h-31.5t-32.5 1t-32 4t-30 9q-32 14 -58 36.5t-50 48.5q-26 -17 -58 -32.5t-65 -28t-66.5 -21.5t-63.5 -13q-12 -2 -26 -3q-13 -1 -25 -1l176 92l-50 -20q-7 -4 -14 -7t-14 -7q-1 0 -0.5 0.5 t2.5 1.5l4 2l2 2q1 1 2.5 1.5t3.5 1.5q-2 -1 -4 -1l6 3l14 12q13 12 24.5 23.5t23.5 25.5q8 8 17 15t17 15l11 10h1q2 2 3 4t3 5q7 12 8 23v26q-1 26 -1.5 49t-0.5 46.5v49v55.5v35v35q-1 36 -3 70q0 11 -1 19.5t-1.5 15.5t-1.5 15t-3 20q-2 19 -4 34.5t-6 33.5 q-6 30 -14 63t-22 63t-36 52q-24 22 -58 30q-16 4 -33 2t-33 -4l-14 -4q-12 -4 -22 -8q-12 -4 -22 -10q-9 -6 -17.5 -12t-16.5 -13q-26 -26 -50 -51q-24 -26 -52 -50v-340q0 -18 -2 -35.5t-3.5 -35.5t-1 -36t4.5 -35q4 -12 10.5 -22t15 -19t17.5 -17q9 -6 18 -14 q13 -11 24 -23.5t23 -24.5q7 -6 16 -14q8 -6 15 -12q10 -7 20.5 -13.5t21.5 -10.5q16 -6 32 -8t33 -4l-216 -100q-21 1 -41 4q-19 3 -39 10q-14 6 -27 13t-25 16q-12 10 -23.5 20.5t-22.5 21.5l-16 17q-26 -18 -57 -34t-63.5 -29t-66 -22t-64.5 -13q-24 -4 -48.5 -4h-48.5z M214 102h5q2 0 -0.5 0h-4.5zM860 172q1 1 1 2h-1v0v-2z" />
<glyph unicode="o" horiz-adv-x="1154" d="M91 458q0 10 -0.5 20.5t0.5 21.5q4 56 19 117t40 120t60.5 110t80.5 86q28 22 60.5 39.5t66.5 31t69 24t69 20.5l-34 -30l66 34q30 2 53 4q13 1 26 1q9 -1 18 -1q21 -2 44 -7t53 -16q18 -7 36.5 -19t35 -27t31.5 -32t27 -33q17 -24 30 -48l24 -52q6 -16 14 -37t15.5 -45 t14 -50t11.5 -50q5 -26 8 -48q2 -17 3 -31q0 -5 -1 -9q-1 -40 -10 -79.5t-19 -78.5q-10 -37 -22 -73.5t-27 -71.5t-36 -67t-49 -60q-27 -27 -62 -50.5t-73.5 -42.5t-78.5 -33q-40 -12 -77 -20q-31 -6 -63 -10q-26 -3 -51 -3h-12q-31 1 -62 7t-61 20q-36 18 -66 46 q-28 28 -52 60q-18 25 -30 49t-24 52q-14 34 -25 68.5t-19 69.5q-5 21 -9.5 41t-7.5 41t-4 41zM334 546q0 -27 6 -61.5t15 -69.5t20 -68t21 -57q12 -30 29 -60t37 -57t45 -49t55 -36q22 -10 40 -16t40 -8q16 17 30 37t26 41q15 27 28.5 64t25.5 76.5t20 77.5t12 68 q3 21 3 41q0 27 -5 53q-8 46 -20 91q0 2 -1 5l-1 4l-1 4q-4 14 -7.5 28t-8.5 28q-8 26 -18.5 51.5t-24.5 48.5q-16 29 -36 56.5t-45 49.5t-53.5 38.5t-62.5 24.5l-25 5l-7 -9q-28 -34 -49 -72.5t-37 -78.5q-25 -58 -39 -122q-13 -56 -13 -112q1 -8 1 -16z" />
<glyph unicode="p" horiz-adv-x="1206" d="M-56 914l215 100h35q18 0 36 -4q22 -4 41 -13t37 -20.5t34 -26t32 -28.5q12 -12 24 -23t18 -27q4 -12 6 -26q74 48 156 80q83 30 169 52q28 7 63 12q31 6 62 6h6q34 -1 66 -10q32 -8 56 -30q20 -18 36 -44t27.5 -55t20 -58t14.5 -55q22 -86 22 -174q0 -40 -4 -83 t-13.5 -88t-25 -89t-36.5 -83.5t-48 -73t-61 -57.5q-59 -41 -126 -68.5t-136 -43.5q-53 -13 -108 -16h-17q-46 0 -91 11l-4 1q1 -15 1.5 -30.5t-0.5 -31.5t-4 -30t-8 -26l6 2q30 -30 58.5 -62t60.5 -59q8 -6 17 -12.5t17 -10.5q19 -9 39 -13.5t41 -6.5h8.5t13 -0.5 t11.5 -1.5h5h7h31t30 -2l-215 -101q-24 2 -47.5 2t-47.5 1.5t-47 4.5t-45 12q-32 13 -58 34t-50 47q-24 -16 -54 -31t-62 -27t-64 -21t-59 -12q-16 -2 -32.5 -3t-33.5 -2l-13 -2l136 92q5 1 9.5 2.5t10.5 1.5q8 9 16.5 18.5t17.5 18.5q10 11 22 21t22 20q6 8 9 16.5t4.5 18 t2 18.5t0.5 18q1 13 1 27q0 23 -3 46q-3 36 -3 72q0 12 -1.5 22t-1 19t3.5 17q4 10 12 20q2 3 6 5l-19 -7v587q-11 16 -15 31.5t-5.5 32t-2 33t-4.5 34.5q-6 15 -18 25.5t-24 21.5q-13 12 -25.5 24t-26.5 22.5t-30 18.5q-14 8 -32 13q-18 6 -37 6.5t-37 0.5zM243 52h1h-1z M445 152q17 2 33 -2q20 0 37 -5t32 -12t31 -16t32 -17q17 -8 37.5 -14t38.5 -9q14 -2 28 -4.5t30 -3.5q13 13 24.5 30t22 35t18.5 36q7 17 13 30q39 95 50 198q4 40 4 79q0 63 -10 125q-3 17 -5.5 30.5t-6 26.5t-6.5 27q-4 14 -10 30q-6 20 -14.5 43t-20.5 45t-27.5 41 t-33.5 31q-18 10 -37 14t-39 4q-1 0 -5.5 -1t-9 -1t-9 -1t-7.5 -1h-2h-2q-26 -16 -50.5 -34.5t-47.5 -39t-45 -41.5t-43 -43v-580zM628 891h-1h1q2 1 6 1q-2 0 -3 -0.5t-3 -0.5z" />
<glyph unicode="q" horiz-adv-x="1282" d="M97 373q-1 14 -1 28q0 25 2 49q4 39 13 77.5t22 77.5q11 34 24 66.5t30 63t38 58.5t48 52q35 32 76 53.5t83 41.5q35 16 78.5 29.5t89.5 21t90 7.5q46 0 84 -14q26 -8 46 -23t38 -32t35 -36t35 -37q10 -9 20 -17.5t20 -17.5t19 -18.5t15 -20.5q12 -20 16 -44t3 -50 t-4 -51t-4 -46q-1 -28 0 -55.5t0 -56.5q0 -62 -0.5 -123.5t-0.5 -123.5q0 -22 0.5 -44t0.5 -44v-117v-117q0 -13 1 -26.5t1.5 -26.5t-1.5 -26t-7 -25l6 2q19 -19 38 -41.5t39 -44.5t41 -40t47 -30q14 -6 28 -8t29 -3l30 -2t30 -4l-230 -97q2 0 3.5 -0.5t3.5 -1.5q2 0 -2 0 q-2 0 -6 1l-1 1h-3l-29 2q-21 1 -43 3.5t-42 10.5q-32 14 -57 36t-47 48q-22 -16 -47 -29t-51 -23q-12 -4 -23.5 -9t-23.5 -8q-19 -5 -36 -10t-34 -8.5t-35 -6.5l-36 -4q-12 -1 -24 -1q-12 -1 -24 -1h-2h-8h1q2 0 4.5 0.5t5.5 0.5q2 0 0.5 -0.5t-3.5 -0.5t-5 -0.5t-5 -0.5 l2 1h-6h-4h5h6l133 92l24 4t24 2q10 12 20 23l20 22q10 10 20 19t20 19q7 12 9.5 25.5t2.5 26.5t-1.5 27t-1.5 28v228h-17q-10 1 -18 2q-42 -19 -86 -30.5t-90 -21.5q-4 -1 -7 -2q-3 0 -9 -2l-4 -1l-2 -1q-1 0 -8.5 -2t-15.5 -4t-15.5 -4t-8.5 -2q-19 -4 -38.5 -8t-39.5 -7 t-40 -4q-18 -1 -38 1q-22 2 -43 8t-39 18q-26 18 -46 45t-36 58t-27 64t-17 63l-2 5q-6 15 -8 32t-6 33q-9 40 -11 79zM340 504q-1 -9 -1 -19q0 -25 4 -54q5 -41 14 -83t22 -82t27 -70q9 -19 20.5 -38.5t26.5 -36.5t33 -30q16 -13 38 -19q24 -6 45 -3t43 9q4 0 10 2t11 3 t8 2t-1 -1l-12 -4q-6 0 -12 -2q11 2 21.5 4t22.5 5l2 1q-4 -1 -10 -2q-6 0 -10 -2q6 2 13 4l14 4q24 12 48.5 22t50.5 18v132q0 64 1 130q0 28 -0.5 56t0.5 56q0 16 2.5 40t4.5 49v25v23q-2 23 -10 39q-8 17 -21 30.5t-27 26.5t-29 25t-28 26q-20 22 -37.5 40t-35.5 32 t-41 22t-55 11q-42 -44 -69 -96q-27 -51 -46 -109q-14 -46 -24.5 -92t-12.5 -94zM478 -464h-1h3q4 2 8 2zM576 10l3 2q1 0 -1 0zM583 12h1h1h-1h-1zM585 12l3 2zM588 14h4q1 0 -1 0h-3zM641 84h1h-1zM698 96l8 2l-6 -1z" />
<glyph unicode="r" horiz-adv-x="933" d="M-65 2l179 92l4 4q22 22 42 46t42 47q-6 17 -7 35t0 36t3 36t2 36v329q-6 22 -6 45v20v22.5t-1 21.5t-5 19q-8 18 -23.5 31.5t-29.5 26.5q-13 12 -25 26t-26 26.5t-29 21.5t-35 13q-18 4 -37 3t-37 -1l194 100q26 0 53 1h9q22 0 44 -4t39 -13.5t33 -22.5t30 -28t28 -29 q7 -7 15 -14t15.5 -14.5t13.5 -15.5t10 -17q2 -4 3 -8.5t3 -8.5q27 12 55.5 21t60.5 22q24 8 53 9.5t54 -0.5h4.5t6.5 1t8 1.5t6 1.5l65 12q39 6 79 10q18 2 37 2q21 0 43 -2l-215 -100q-14 1 -27.5 1.5t-26.5 -0.5q-28 -4 -57 -10q-28 -7 -56 -11q-12 -13 -22.5 -25.5 t-22.5 -24.5q-9 -8 -18 -17t-19 -17v-320q0 -18 -2 -37t-3 -39t1 -38q2 -20 10 -36q5 -10 11.5 -18t14.5 -15l16 -14t16 -13q24 -22 45.5 -46t48.5 -43q17 -8 34.5 -11.5t34.5 -4.5t35 -1h36l-194 -100q-20 0 -39 -1q-10 -1 -19 -1l-19 1q-19 1 -38.5 3t-38.5 8 q-16 4 -30 12.5t-26 19t-23.5 22.5t-22.5 24l-12 12q-25 -18 -56 -34t-64 -28t-65.5 -21t-60.5 -13q-26 -4 -50 -4h-49zM72 59v1v-1zM200 104h1q2 0 4 1t4 1h3.5t-0.5 0zM660 916l1 -1q1 0 3 1h-3t-1 0z" />
<glyph unicode="s" horiz-adv-x="975" d="M-56 302l244 84q6 -38 18 -72t23 -70q6 -18 11 -38t18 -36q18 -20 36 -35t38 -26t42 -19t48 -14t52 -9t52 -5q7 11 13 23q5 12 11 24q8 18 15 36.5t13 37.5q6 20 10.5 38.5t5 36.5t-3.5 36t-17 36q-10 14 -21.5 26.5t-25.5 23.5t-28 20.5t-30 17.5q-30 17 -60 31 t-61 27.5t-62 26.5t-61 29q-19 10 -38.5 22t-36.5 26t-29.5 32t-18.5 40q-4 14 -3 27t4 26.5t7.5 26.5t8.5 26q12 36 24 66t29 56t41 48t59 40q18 9 35.5 17.5t35.5 15.5q48 21 100 35t104 18q21 2 42 2l62 -4q54 -6 104 -24q16 -6 34.5 -15t36.5 -19.5t34 -23.5 q17 -12 27 -25q12 -16 18.5 -36.5t10 -42.5t5.5 -44t6 -42q-61 -21 -121.5 -41.5t-122.5 -42.5q-4 18 -6 39t-5 42t-9 41t-18 34q-4 4 -9.5 10t-12 11t-11.5 9t-7 6q-10 6 -19 12t-19 10q-10 6 -21 11t-23 9q-28 10 -55 16t-57 8q-15 -26 -25.5 -53t-20.5 -55q-4 -10 -8 -22 t-8 -23.5t-6 -23t0 -23.5q3 -26 17 -47t34 -37t43 -29q22 -13 44 -24q32 -16 66.5 -30.5t68 -29t66.5 -31t63 -36.5q16 -10 30.5 -23t27 -28t21.5 -32t13 -35q6 -27 0 -53q-6 -25 -14 -51q-8 -28 -18 -55t-24 -53q-14 -28 -34 -50t-44 -40t-51 -32t-55 -24q-1 0 -12.5 -4.5 t-26.5 -10t-31 -10.5t-26 -7q-68 -18 -137 -21q-13 -1 -26 -1l-112 11q-26 5 -50.5 11.5t-48 16t-45 22.5t-41.5 31q-17 16 -27.5 32t-16.5 38l-8 26q-1 4 -2.5 8.5t-0.5 3.5l-2 6q-2 8 -5 16q-4 10 -7 18q-8 26 -15.5 50.5t-11.5 51.5zM-12 150q0 -1 0 0.5v2.5v-1v-2z" />
<glyph unicode="t" horiz-adv-x="848" d="M-38 887l194 101q27 0 54.5 3t53.5 -2q14 48 28 95.5t28 95.5q62 22 122 42.5t122 41.5l-40 -136t-38 -136q4 0 8 -1t9 -3t8 -4q63 4 125.5 4h125.5l-194 -101h-46q-22 1 -46 1q-10 -14 -20 -29t-16 -27l2 -5q6 -18 8 -36.5t1 -37t-3 -37.5q-4 -18 -4 -36q-2 -74 -3 -148 v-17q0 -66 7 -132q2 -27 6.5 -55t11 -56t16.5 -55t24 -51q12 -21 29 -41.5t39 -30.5q27 -12 54 -13q28 -1 56 3q31 6 61.5 12t62.5 8l-192 -100q5 1 10 2.5t8.5 1.5h5.5t-1 -2l-9 -1q-10 -1 -22.5 -3t-24.5 -4t-17 -3q-22 -4 -47 -8.5t-50 -6.5q-14 -1 -28 -1q-10 1 -21 1 q-24 2 -47.5 7.5t-44 17t-38.5 31.5q-16 18 -27 39.5t-20 44t-15 46.5t-11 46q-8 38 -12.5 77t-5.5 77q-1 25 -1 51v26q0 39 2 77v37.5v37.5q1 24 3.5 47.5t2.5 47.5q0 12 -0.5 25t-5.5 23q-7 14 -18.5 23t-21.5 20q-13 14 -24.5 28.5t-24.5 28.5q-10 12 -21 22 q-12 10 -24 18q-5 3 -8.5 5.5t-9.5 4.5q-2 1 -5.5 1.5t-1.5 0.5q4 0 8.5 -1t9.5 -3l-7 2q-6 1 -11 1.5t-11 0.5q-18 0 -35 -1.5t-33 -1.5zM605 3h1l2 1q-3 0 -3 -1z" />
<glyph unicode="u" horiz-adv-x="1368" d="M-70 920l188 98l-18 -2h3q4 0 8.5 1t8.5 2l4 2h3h4h3q2 0 5 0.5t6 0.5h40.5t40.5 -4q19 -4 36 -12.5t32 -21t28.5 -26.5t26.5 -26q10 -11 21 -21l22 -20q10 -9 20 -19t14 -23q4 -12 5.5 -25.5t1 -26.5t-1.5 -26l-2 -26q-2 -21 -1.5 -42t0.5 -43v-32v-37v-37v-32 q0 -42 2 -81q1 -20 3.5 -41.5t4.5 -39.5q4 -26 10 -55.5t15 -58t22.5 -54.5t32.5 -46t44.5 -31t59.5 -9q39 24 73 52q35 28 69 56l24 20t24 22l6 7l6 7q2 2 3 4t3 5q4 8 5.5 16.5t1.5 17.5t-0.5 18t-0.5 17v340q0 13 1.5 26.5t0.5 26.5q0 8 -2 17v2q-2 2 -3 5t-1 5 q-2 3 -6 8.5t-6 6.5q-9 10 -19.5 18.5t-19.5 18.5q-17 18 -34.5 36t-37.5 32q-8 6 -17.5 12t-19.5 10q-4 2 -7 3l-6 2q-4 1 -10.5 2t-6.5 2l-4 1q-15 0 -30.5 -1t-29.5 -1l194 101q26 0 52 2q6 1 13 1l39 -5q22 -6 42.5 -16.5t38 -25t34 -31t31.5 -32.5q8 -8 17 -16l18 -16 t15 -18t8 -22q2 -18 1 -35t-1 -34v-341v-35t-6 -33h2q15 -17 19.5 -35t4.5 -36.5t-1 -38.5t3 -39q2 -12 8 -21t13 -17.5t15 -15.5t16 -15q18 -16 35.5 -33t38.5 -31q28 -17 60 -22q30 -4 62 -4l-215 -101q-19 0 -38 1.5t-37 5.5t-36 10t-34 16q-22 14 -40 31t-38 35 q-9 8 -17.5 16.5t-15.5 17.5t-12.5 19.5t-8.5 22.5q-2 8 -2.5 17t-0.5 17l-23 -15q-61 -38 -123.5 -65.5t-130.5 -49.5q-42 -14 -89 -23q-38 -7 -76 -7h-17q-46 2 -78 19.5t-53.5 45t-35 63t-22.5 75.5q-11 48 -16.5 102.5t-7.5 110.5q-2 45 -2 90q1 10 1 22q0 56 2 104 q1 26 3.5 51t-0.5 51q-2 14 -7.5 25t-13.5 20t-18 17t-20 18q-12 12 -22 23.5t-22 22.5l-24 22q-10 10 -24 18q-16 10 -31 13t-34 5q-6 0 -9.5 -0.5t-10.5 -0.5q-3 0 -8.5 -0.5t-4.5 -0.5h-8z" />
<glyph unicode="v" horiz-adv-x="1261" d="M-78 925l216 101q34 -2 64.5 -9.5t59 -19t56.5 -26.5q26 -15 56 -31l4 -2l8 6q32 18 64 30t66 25q26 10 52 14.5t54 8.5q8 1 19 1.5t18 1.5h9q2 0 4 1q4 0 2 -1l-8 -3q10 4 14 4l-118 -62l-3 -2q-6 -6 -11.5 -12t-11.5 -12q-15 -16 -29.5 -32t-28.5 -32q6 -10 8.5 -22 t3.5 -25t1.5 -25t2.5 -23q2 -20 8 -38.5t12 -37.5q10 -32 19 -70.5t19 -81.5t19 -87t19 -87t20 -81.5t20 -69.5q7 -22 15.5 -43t14.5 -43q6 16 9 31t8 31q4 13 8 26.5t8 25.5q10 30 20 67.5t20 78.5t19.5 84t19 84.5t18.5 78.5t17 68q7 28 12 55.5t9 54.5q2 10 3 21 q1 10 6 20q-20 19 -36.5 30.5t-34 18t-37 8.5t-47.5 2l194 101q28 0 51 -1t42.5 -5t37 -11t37.5 -21q8 2 15 4t13 4q42 12 85 20t87 10l-167 -87q-3 -8 -3 -17q0 -8 -2 -16q-6 -41 -15 -81.5t-21 -80t-24 -78.5q-14 -40 -26 -78q-6 -18 -11 -36t-11 -35q-3 -9 -6 -33t-6 -52 t-6.5 -52t-5.5 -34l-4 -8v-1v-1l-1 -4h-1q0 -2 -1 -5l-2 -6t-1 -5q-2 -2 -2 -3q-4 -16 -8 -34.5t-9 -36.5t-12 -35t-17 -31q-7 -9 -17 -17q-11 -8 -19 -15q-20 -16 -42 -28q-23 -10 -46 -22q-6 -3 -12 -8.5t-12 -5.5q-35 -22 -71.5 -41t-76.5 -32q-12 -4 -23 -7.5t-23 -6.5 q-6 -1 -18 -4t-26 -5q-11 -2 -22 -2h-6q-14 0 -22 7q-8 5 -13 13.5t-8 18t-5.5 19.5l-4.5 18q-14 38 -26.5 84t-25 95t-24 100.5t-23 101t-23 95.5t-23.5 84q-7 22 -13.5 44.5t-8.5 45.5q-1 9 -1.5 19t-1 19.5t-3 19t-6.5 17.5q-7 12 -18.5 19.5t-23.5 13.5q-8 4 -16 7 l-14 7l-36 20t-35 20q-10 6 -21.5 12t-21.5 10t-23 9t-23 9q-21 7 -40.5 10.5t-41.5 4.5zM578 976h2l1 1q-1 -1 -3 -1zM936 336v2q2 4 2 2zM1057 926h5q1 0 1 0.5t-1 0.5t-2.5 -0.5t-2.5 -0.5z" />
<glyph unicode="w" horiz-adv-x="1757" d="M-90 946l216 100q56 -2 104 -20t96 -48l10 -7q66 38 142 56.5t152 18.5l-138 -72l-32 -32q-14 -18 -32 -32q4 -12 5.5 -23t3 -22.5t2.5 -23t3 -23.5t4 -20t4 -19q8 -27 16 -62.5t17 -76t18.5 -82.5t18.5 -82t17.5 -76t16.5 -62q4 -16 9 -32.5t8 -32.5q5 -22 9 -43.5 t11 -42.5l1 -2q5 13 8 27q4 14 6 27q3 16 4.5 41.5t2.5 55.5t2.5 62.5t4 62t6 54.5t9.5 41q8 22 21.5 40t30.5 33t36 28t38 25q13 7 25 14q14 8 26 16l-4 118l244 85l4 -125q19 -18 31 -36t19.5 -37t13.5 -40t12 -45q4 -15 9 -39.5t10.5 -53.5t11 -59.5t11 -59t10.5 -52.5 l10 -40q8 -26 15.5 -51t14.5 -50l5 -21q7 25 12 50q5 24 13 50q8 28 14 65t13 78.5t13 85t12.5 85t13 78.5t12.5 65q8 34 12 67.5t9 67.5q-20 18 -37.5 27t-36 13.5t-39 5.5t-46.5 2l216 100h33t33.5 -2t32.5 -6t31 -11q13 -6 25 -14q47 15 94.5 24t96.5 9l-162 -84 q-4 -29 -7.5 -57.5t-10.5 -56.5q-19 -84 -41.5 -167t-45.5 -167q-4 -13 -6.5 -35.5t-4.5 -49.5t-4.5 -56t-5 -56t-6.5 -49t-8 -36q-2 -8 -8 -13t-12 -11q-12 -10 -32 -24t-43 -29t-45 -29t-38 -24v-48l-122 -42q-60 -20 -122 -42v55q-14 14 -22 30t-14 33.5t-11 35.5l-10 36 q-6 22 -13.5 53t-15 67t-15 74t-15.5 73t-15 66.5t-13 53.5q-4 16 -8 33t-10 33q-10 -32 -14 -66.5t-9 -67.5q-2 -9 -2.5 -27t-1.5 -40.5t-2 -47.5t-3 -47.5t-4 -40.5t-6 -26q-8 -20 -20 -35t-26 -26.5t-31 -21.5t-35 -21q-14 -9 -26 -19q-12 -9 -26 -19q-4 -2 -8 -5t-8 -5 v-36l-122 -42q-60 -22 -122 -43v47l-10 3q-8 2 -13.5 8t-10 13t-7.5 14.5t-7 13.5q-12 28 -17 57t-13 57q-8 32 -18 73t-20 86.5t-21 93t-21.5 92.5t-20.5 86q-11 41 -19 73q-3 12 -4.5 20t-3.5 20t-3 23.5t-2.5 23t-4 23.5t-5.5 24h1l-8 2l-8 2q-12 4 -22 10t-20.5 13.5 t-20 15t-19.5 14.5q-40 26 -84 42.5t-92 18.5z" />
<glyph unicode="x" horiz-adv-x="1220" d="M-52 0l194 101h4q0 4 2 11q8 34 25 62q17 30 35 58q12 20 24 36t24 31t25 30t29 33q15 18 31.5 34t33.5 31.5t35 30.5t35 31q-5 9 -5 21l-3 2q-10 4 -17.5 12t-13.5 18t-11 20t-9 20q-11 20 -23 36t-24.5 31t-24 31t-21.5 38q-5 10 -7 22l-4 24t-6 23t-10 19 q-8 9 -18 14.5t-20 9.5t-21 8t-21 8q-30 14 -58 26t-56 22t-58 16t-62 7l215 101q34 -2 64.5 -8t59.5 -15t58 -21t59 -26q47 27 100 45q52 17 104 23q12 2 24 2h24l-96 -58q14 9 26 15l-8 -5q-2 -1 -4 -2.5t-4 -3.5q-18 -16 -33 -34.5t-31 -35.5q9 -14 11.5 -31t6.5 -31 q2 -12 6 -22t10 -21q16 -32 35.5 -61.5t37.5 -60.5q5 8 10 15.5t11 15.5q13 18 25.5 35t24.5 35q8 12 15 24t11 26q5 20 8.5 33t11.5 27q-14 12 -28 22q-12 10 -30 15q-10 1 -20 1q-8 1 -18 1l194 101q20 0 36 -1t30 -3.5t27 -8t26 -15.5q52 14 104 21q53 7 107 7l-194 -101 h-7q-2 -10 -4.5 -19.5t-6.5 -19.5q-6 -14 -14.5 -28t-18 -27t-20 -26t-19.5 -25q-8 -12 -15 -24q-7 -10 -16 -22q-19 -24 -41 -47t-46 -43q-15 -14 -36 -26q-20 -12 -38 -24q2 -13 8 -23.5t14 -20.5l16 -20l16 -20q19 -29 36.5 -58.5t35.5 -57.5q9 -14 19.5 -25t19.5 -21.5 t17 -22t12 -28.5q2 -9 6 -18t7 -19t4 -20t-3 -19v-3h1q32 -10 62.5 -23t60.5 -26t61 -26t63 -21q22 -6 44.5 -9t45.5 -4l-216 -101q-76 3 -148 29q-29 10 -56.5 22.5t-55.5 24.5q-21 -12 -44.5 -22t-51.5 -21q-44 -18 -91 -25.5t-94 -7.5l107 56q14 14 29 26t29 27 q7 10 9.5 19t2.5 18t-3 18.5t-7 20.5q-3 8 -4.5 16.5t-5.5 16.5q-12 26 -29 51t-32 49q-8 12 -15.5 20t-14.5 15t-14 15t-15 20q-12 -16 -22 -30t-20.5 -27t-20.5 -27q-11 -13 -21 -30q-8 -14 -18 -29.5t-14 -31.5q-4 -18 -8 -37.5t-14 -35.5h3q15 -14 30 -23t37 -13h4 q5 0 10.5 -1t9.5 -1h4q2 0 5 -0.5t5 -0.5h2h6q-2 -1 -7 -1l-193 -100q-38 0 -70 5t-60 25q-52 -14 -105 -22t-107 -8zM238 108q4 1 8 1.5t2 0.5zM590 975l2 1l1 1q-1 -1 -3 -2z" />
<glyph unicode="y" horiz-adv-x="1261" d="M-60 904l216 100q34 -2 66 -9.5t63 -19.5t61 -27.5t58 -31.5l2 -1q13 8 26.5 16.5t27.5 14.5q63 28 124.5 43t129.5 15l-126 -66l-36 -38l-8 -8l-8 -8q-6 -8 -13.5 -15t-15.5 -14q5 -16 8 -33.5t6.5 -34l7 -33t9.5 -33.5q16 -50 34 -97.5t38 -95.5q10 -26 22 -51.5 t21 -51.5q5 -12 10 -24.5t9 -24.5q4 -14 8.5 -29t9.5 -29l1 2q12 33 21 65.5t20 65.5q24 69 48 137t42 138q8 32 13 63t14 63q-18 16 -33 26t-30.5 15t-33.5 7t-42 4l215 100q16 0 32.5 -1.5t32.5 -4.5t31 -8.5t29 -14.5l11 -7q46 16 92.5 25.5t95.5 10.5l-160 -83 q-7 -28 -11 -55.5t-12 -54.5q-14 -53 -31 -105q-17 -50 -35 -102q-8 -26 -17 -52t-18 -51q-8 -27 -16.5 -54t-17.5 -53q-6 -16 -12.5 -32.5t-16.5 -29.5q-13 -16 -31.5 -30t-40.5 -26t-44 -22t-40 -18q-2 -2 -4 -3t-4 -1v-2q-4 -14 -4.5 -27t0 -26t2 -27t1.5 -27 q1 -19 1 -38q0 -43 -4 -87q-4 -62 -18 -121q-8 -30 -19.5 -58.5t-34.5 -50.5q-18 -16 -40.5 -30.5t-47 -26.5t-49.5 -21.5t-47 -17.5l-12 -3q-11 -3 -24.5 -7.5t-25.5 -8t-14 -4.5l-18 -5q-2 0 -6 -1t-2 -1l-17 -4l-9 -2q-12 -4 -24 -6q-10 -2 -22 -5q-12 -2 -26 -4.5 t-28 -2.5t-28 2t-24 8q-8 5 -16 11q-8 7 -14 13q60 24 120 46t120 46q8 -6 15 -12t16 -10h2h3q15 22 21.5 48l12.5 50q10 54 13 109q2 41 2 82v27t-1.5 28t-2.5 28.5t0 28.5q1 13 5 27q-14 14 -24 31t-17 35t-13 37l-12 38q-4 12 -9 22.5t-9 22.5q-10 26 -20.5 50t-20.5 49 q-20 50 -39 100q-20 49 -36 101q-6 16 -10 34t-7 35l-6 34t-9 35h2q-16 3 -28 8t-23 11.5t-23 13.5q-10 7 -24 15q-26 14 -53.5 28.5t-55.5 26t-57.5 18.5t-59.5 9zM376 -358l4 2zM390 -352q1 0 2 0.5t2 0.5v0v0q-2 -1 -4 -1z" />
<glyph unicode="z" horiz-adv-x="1118" d="M-8 694q1 40 6.5 78t14.5 77q2 7 3.5 16t3.5 18.5t5 18t7 13.5q18 24 45 40q27 17 55 27q38 15 74 28q38 12 78 20q16 2 28 4t28 4q6 1 12 1.5t13 0.5q2 0 5.5 1t5.5 1h1q12 2 25 2q14 1 26 2q24 2 48 2h50h29t28 -2q13 0 26 2t27 2h9q9 0 18 -1q13 -1 25 -5t21.5 -11 t18 -15t16 -17t15.5 -17q14 -14 26 -24t18.5 -20t7.5 -23t-7 -35q0 -8 -5 -22t-11 -29t-13 -28t-11 -21l-14 -24l-8 -12l-1 -3q-1 -1 -1 -2q-1 -2 -2.5 -5.5t-1.5 -1.5l-2 -4q-7 -11 -13.5 -21.5t-13.5 -22.5q-19 -32 -39 -66t-39 -66q-15 -26 -29.5 -51t-29.5 -51 q-21 -34 -42.5 -69t-41.5 -71q-9 -16 -16.5 -33t-9.5 -35q-2 -19 4 -32.5t16 -24.5t23 -21.5t24 -22.5q6 -6 11.5 -12.5t11.5 -12.5q2 -2 6 -5t7 -5l1 -2q2 -1 4 -1.5t6 -0.5q6 -2 12 -3t12 -1q30 2 60 2h60h60.5t60.5 2q2 8 3.5 16.5t4.5 16.5q11 42 20 83.5t15 83.5 q62 22 122.5 43t121.5 42q-10 -67 -26 -131q-2 -10 -4 -18t-5 -18q-1 -4 -2 -8.5t-3 -8.5q0 -1 -1 -6t-1 -6l-5 -19q-2 -12 -7 -24q-4 -12 -12 -22q-12 -14 -30 -25.5t-37.5 -21t-39 -17t-33.5 -13.5q-15 -6 -30.5 -11t-31.5 -9q-34 -8 -69 -14t-70 -6q-68 -7 -135.5 -8 t-136.5 -1q-14 -2 -29.5 -3t-32 -1t-32 3t-27.5 11q-18 11 -32 27.5t-29 31.5q-8 8 -16.5 15.5t-15.5 16.5t-12 19t-5 22q-1 18 3.5 36t12.5 34t18 32t20 31v2q28 51 58 101l60 100q19 33 40 67q20 33 38 65q16 27 33 53.5t31 54.5q6 12 12 24.5t10 25.5q2 8 4.5 17t5.5 17 l4 12q2 7 2 13v5.5t-1 5.5q0 1 -1 2v2l4 -10l-2 3q-2 3 -4 7t-4 6t-5 6q-8 10 -18 18t-19 17q-8 8 -15 16.5t-15 16.5t-17 14t-19 9q-4 0 -7 0.5t-4.5 0.5h-4h-7.5h-6h-5t-6 -1l6 1h-2q-2 0 -4 -1t-5 -1h1l4 1q-2 0 -4 -0.5t-1 -0.5h-3q-10 -1 -20 -0.5t-20 0.5 q-26 0 -52 0.5t-52 -0.5q-3 -16 -7 -33q-5 -17 -7 -31q-10 -50 -10 -103zM276 992l4 4q1 1 -1.5 -0.5t-2.5 -3.5zM427 948h3h-3zM430 948l2 1h-1zM558 110l-1 1z" />
<glyph unicode="{" horiz-adv-x="602" d="M-48 490l124 58q4 5 9 9.5t9 8.5l17 14q2 2 5.5 6t5.5 7q4 7 7 13q3 4 7 12q12 24 19 49t12 50q4 20 3.5 40t-2.5 39.5t-5.5 39.5t-5.5 40q-4 34 -6.5 69t-1.5 69t7 68t18 68q10 26 26 47t36.5 38.5t44 31t48.5 24.5q24 10 47.5 19.5t49.5 17.5q23 6 44 11q20 5 44 9 q8 2 12 2t7.5 0.5t7.5 1.5h13q2 0 4 1t5 1q4 1 7 0.5t7 0.5q2 0 4 0.5t4.5 0.5h3.5t-1 0q-3 0 -7 -1t-8.5 -2t-8.5 -2t-6 -1l-119 -81q-6 -7 -10 -15l-8 -16q-17 -36 -23 -76t-6 -80q0 -30 3 -60q3 -32 6 -62q4 -28 8.5 -55t4.5 -55q0 -24 -4 -50t-12 -52t-19 -50t-25 -43 q-6 -8 -14 -14.5t-16 -13.5q-8 -8 -16 -16.5t-14 -18.5q-2 -16 3.5 -29t15 -24t20.5 -20.5t21 -19.5q22 -22 34 -51q12 -28 18 -58q8 -36 6 -72q0 -37 -4 -73q-3 -37 -7.5 -74.5t-5 -75t3.5 -74.5q5 -37 17 -73q8 -21 17 -38t21 -30.5t28 -23.5t38 -16q15 -5 30 -8 q16 -4 31 -6h4.5h4.5t4 -0.5t4 -0.5h3t-1 0h-14l-194 -101q-24 0 -48 5t-46 10q-41 10 -68.5 33.5t-44 54.5t-24 69t-9 77t1.5 77q2 38 6 70q2 18 4 34q1 16 2 34q2 29 2 58q0 30 -6 59q-6 28 -17 54.5t-32 46.5q-9 9 -19 18t-19 18.5t-16 19.5t-9 24l-48 2q-26 2 -50 2z M336 1247q-2 0 1 0.5t7 1.5z" />
<glyph unicode="|" horiz-adv-x="311" d="M14 42v1168l244 84v-1167l-122 -42q-60 -21 -122 -43z" />
<glyph unicode="}" horiz-adv-x="602" d="M-63 1256l194 100h25h2q23 -1 45.5 -3.5t44.5 -8.5q26 -7 50 -21t42 -35q16 -20 27 -46t17 -55t9 -60.5t3 -62t-3 -58.5t-6 -52q-6 -36 -9.5 -74t4.5 -75q8 -34 18.5 -66.5t32.5 -61.5q8 -9 18.5 -18t20.5 -18t17 -19t9 -24v-3l106 -4l-143 -67l-7 -6l-5 -4l-3 -4 l-15 -15t-13 -17q-14 -22 -24 -48q-9 -26 -13 -52q-6 -42 -2.5 -84.5t7.5 -84.5q4 -31 6.5 -62t2 -62t-4.5 -61q-4 -32 -13 -62q-10 -32 -25.5 -60t-41.5 -51q-18 -16 -38 -28.5t-42 -22.5q-36 -16 -68 -28t-68 -23t-76 -18t-77 -7l157 82q6 7 11 16.5t9 17.5q17 34 24.5 73 t8.5 77q1 34 -2 68t-7 68t-6.5 67t-1 66t9.5 66t26 65q9 16 20.5 31t25.5 28q6 6 12 11l12 12q8 12 11 23t1 25q-6 10 -13 18t-15 15.5t-16.5 15t-15.5 15.5q-12 15 -21 33.5t-16.5 38t-12.5 39.5q-4 21 -6 39t-2 36.5t2 37t4 36.5t4 37q6 50 7 100.5t-7 100.5 q-4 22 -10.5 43.5t-16.5 41t-24.5 35.5t-36.5 28q-21 12 -43 17q-21 5 -45 7h-14t-15 2h-2zM434 501l1 1q1 0 1 1zM449 514l3 2q1 1 -0.5 0.5t-2.5 -2.5z" />
<glyph unicode="~" horiz-adv-x="1097" d="M8 422q32 52 80 89t104 61q50 21 94.5 35t88 19.5t88.5 -0.5t97 -24q46 -16 89 -34t90 -30q11 -4 23 -6l23 26l241 74q-20 -24 -41 -46t-46 -42q-32 -24 -74.5 -45.5t-89.5 -38t-93.5 -25.5t-85.5 -9q-32 0 -64 7t-62 17q-26 8 -51 18.5t-50 20.5t-51 19t-52 15 q-10 -13 -17 -27q-60 -18 -120 -37q-61 -19 -121 -37z" />
<glyph horiz-adv-x="622" />
<glyph horiz-adv-x="975" />
<glyph horiz-adv-x="1409" />
<glyph unicode="&#xa1;" horiz-adv-x="520" d="M33 782q3 88 56 142.5t145 54.5q94 0 147 -54.5t53 -142.5t-54 -144t-146 -56q-93 0 -147 56t-54 144zM105 422q0 -155 0.5 -308.5t3.5 -308.5q62 22 122.5 42.5t121.5 42.5q-2 156 -2.5 309t-1.5 308z" />
<glyph unicode="&#xa8;" horiz-adv-x="893" d="M16 1270q0 62 45 109t123 47q76 0 120 -46.5t44 -109.5t-44 -107.5t-120 -44.5q-80 0 -124 45t-44 107zM496 1270q0 62 45 109t123 47q76 0 120 -47t44 -109t-44 -107t-120 -45q-78 0 -123 45t-45 107z" />
<glyph unicode="&#xa9;" horiz-adv-x="1470" d="M-32 644q1 62 13.5 123t36.5 118q40 93 104 164.5t143 124.5t170 89.5t185 58.5q36 8 72 14l72 12q-26 -15 -51 -29.5t-51 -30.5l102 60q40 4 79 2t79 -9q81 -14 153 -46t133 -80.5t109 -112t80 -138.5q28 -64 41.5 -132t13 -137t-15 -136.5t-42.5 -131.5 q-36 -81 -91 -145.5t-123 -115t-145 -87.5t-159 -63q-16 -6 -38 -12t-45 -11t-45 -9.5t-38 -7.5q-2 0 -9.5 -1t-16 -2t-16.5 -1l-8 -1q-87 -7 -174.5 8t-165.5 53q-56 27 -104 65t-88 85q-40 48 -70 102t-50.5 113.5t-30.5 122t-9 124.5zM212 728q-2 -76 13.5 -152t47 -146 t77.5 -131t106 -109q30 -24 54 -38.5t48 -25t51 -19.5l63 -21q16 -6 41 -9.5t53 -6t54 -2.5t43 4q10 2 20.5 4t20.5 5q12 2 21.5 8.5t19.5 14.5q18 12 33 23.5t28.5 24t27.5 26.5t28 30q58 68 93 149.5t47 169t0 175.5t-46 170q-22 52 -54 100q4 -11 6 -22.5t3 -23.5l2 -24 t3 -24q-61 -21 -121.5 -41.5t-122.5 -42.5q-4 22 -5 40t-4 34t-12 31t-28 29q-8 6 -16 11q-9 5 -17 9l-18 8q-8 4 -18 7q-18 6 -37 8q-19 1 -39 1q-32 -34 -51 -75t-31 -85q-10 -43 -12 -87.5t5 -87.5t22 -84t41 -77q32 -46 72 -72t95 -38q8 -2 17 -3l18 -2q0 1 1 2 q6 12 10.5 25.5t7.5 27.5t5 28q4 14 6 28l244 84q-3 -14 -6.5 -33t-8.5 -38.5t-11 -36.5q-7 -18 -17 -28q-36 -38 -81.5 -64t-95.5 -45q-40 -14 -76.5 -25.5t-73 -17.5t-74.5 -7t-80 5q-24 4 -47 10t-45 16q-28 14 -52 36t-44 48t-34.5 57t-24 63t-14.5 64t-5 63 q0 46 10 91.5t29 88t47 79.5t64 65q26 20 55 35.5t59 27.5t61 22t63 20q34 10 74 16t81 7t80 -7t71 -27q10 -7 21 -13t20 -14q-54 70 -124.5 122.5t-156.5 81.5q-33 12 -65.5 18.5t-66.5 10.5q-24 2 -46 3h-14h-6q-10 -2 -22.5 -3.5t-25.5 -3.5t-25.5 -5.5t-22.5 -7.5 q-40 -18 -76 -48t-66.5 -66t-54.5 -76t-41 -79q-24 -55 -35 -114t-13 -119zM580.5 1248q-0.5 0 1.5 0h1h-2.5zM602 1250q3 0 5.5 1t6.5 1h-5q-3 -2 -7 -2z" />
<glyph unicode="&#xaa;" horiz-adv-x="848" d="M26 958q18 13 32.5 28.5t30.5 29.5q12 10 24.5 20t26.5 19l28 16q15 7 30 13q30 12 61 23t62 20t63 14t65 5q17 0 34 -1.5t33.5 -5t32 -10.5t29.5 -18q18 -15 31 -37t22 -47t13.5 -51t5.5 -48l-62 -27l65 23q0 -20 2.5 -40.5t4 -41t1 -40.5t-6.5 -40q-2 -4 -3 -8l-3 -6 l5 2q10 -19 14.5 -39.5t14.5 -40.5q12 -23 30.5 -34.5t40 -15.5t44.5 -2.5t45 4.5q-42 -24 -83 -49t-83 -49q-26 -4 -56 -7t-60 -1t-57 11t-47 29q-7 7 -11.5 15.5t-7.5 16.5q-28 -12 -56.5 -21t-57.5 -18q-21 -6 -51 -13.5t-62.5 -11.5t-63 -2t-50.5 14q-16 10 -27 27 t-16 36t-4 39q1 18 7 36q9 28 25.5 52t37.5 45t46 37t50 28q18 8 35.5 16.5t35.5 16.5q6 2 15.5 6t20 7.5t19.5 7.5q9 2 15 4q10 4 20 7t21 5q-4 21 -12 41.5t-19.5 37.5t-26.5 31q-15 12 -36 20l-10.5 3.5t-10.5 2.5q-10 -10 -20 -19t-22 -17zM293 708.5q1 -15.5 6 -30 t13.5 -26.5t21.5 -21q7 -5 16.5 -6.5t17.5 -2.5q6 6 11.5 11t10 10.5t8.5 11.5t8 14q8 14 9.5 34.5t0 43.5t-3.5 45t-3 40h-31q-14 -1 -30 -2q-20 -18 -35 -42t-19 -50q-2 -14 -1 -29.5z" />
<glyph unicode="&#xab;" horiz-adv-x="893" d="M52 488q0 21 7 40.5t16.5 38.5t21 37t22.5 34q30 48 60.5 96t61.5 94l241 74q-32 -47 -62 -94.5t-60 -95.5q-10 -16 -21 -32t-20 -34t-15 -36q-8 -18 -8 -38q0 -18 4.5 -35.5t12 -34t16.5 -32.5t19 -31q34 -54 68 -106.5t69 -105.5q-60 -24 -120.5 -46.5t-120.5 -46.5 q-35 53 -69.5 105.5t-68.5 106.5q-10 15 -19 32.5t-17 35.5t-13 36q-5 20 -5 38zM454 488q1 24 10 46q8 24 20 44q27 47 57.5 91.5t60.5 90.5l44 72l241 74l-45 -72q-24 -39 -50 -77.5t-51 -76.5q-8 -12 -15.5 -25t-13.5 -26t-10 -27.5t-4 -29.5q0 -13 2 -25.5t7 -24.5 t10.5 -24t11.5 -23q10 -19 22.5 -37t23.5 -36q16 -24 30.5 -48t28.5 -48q14 -22 29 -42.5t31 -40.5q-60 -24 -120 -47q-62 -22 -122 -46q-16 20 -30 41l-28 42l-30 48l-30 48q-12 18 -24 36.5t-22 36.5l-12.5 25t-11 26t-7.5 27t-3 28z" />
<glyph unicode="&#xac;" horiz-adv-x="1097" d="M-20 704l194 101h754q13 0 26.5 0.5t26.5 -0.5q6 0 11 -1.5t9 -4.5q4 -2 9.5 -5t7.5 -7q8 -10 11 -24.5t3 -29.5t-2 -31t-2 -28v-310q-61 -21 -121.5 -42.5t-122.5 -42.5v311q0 12 1.5 24t2 24t0 24t-4.5 24q-2 6 -7 10q-5 6 -11 8h-15.5h-15.5h-754z" />
<glyph unicode="&#xad;" horiz-adv-x="807" d="M110 418v217h537v-217h-537z" />
<glyph unicode="&#xae;" horiz-adv-x="1470" d="M-30 704q10 94 46 180q28 67 69 122.5t92 100.5t109 81t121 64t130 48t135 34q22 4 44 7t44 7l-100 -58l100 58q42 4 87 2t87 -12q25 -6 40.5 -10t26.5 -7t19.5 -6t19 -7t24.5 -10q14 -7 38 -17q22 -10 43 -23.5t40 -27.5q70 -51 122.5 -118.5t86.5 -147.5 q36 -83 49 -172q13 -88 1 -178q-2 -23 -8 -46q-4 -22 -10 -45q-6 -26 -16 -49l-20 -48q-36 -82 -91 -146t-122 -114t-144 -88t-159 -64q-16 -6 -38.5 -11t-45.5 -10.5t-44.5 -10t-37.5 -7.5q-2 0 -10 -1t-16.5 -1.5t-15.5 -1.5l-8 -1q-87 -7 -174.5 7.5t-167.5 52.5 q-56 27 -104 66q-46 38 -86 85q-60 71 -98.5 157.5t-53 179t-4.5 186.5zM210 728q-1 -56 6.5 -112t24.5 -110t42 -104t57 -94l85 65q-6 17 -6.5 35t0.5 37t2.5 38t1.5 37v362q-9 8 -18 17.5t-17 18t-18 16.5t-20 14q-8 4 -17.5 6t-19 3t-19.5 1t-19 2l215 101q12 -2 26 -2.5 t27.5 -1.5t25.5 -5t22 -12q5 -4 12 -9t15 -9q30 11 59 19.5t63 12.5q18 2 38 1t38 -1q24 0 48.5 -4t47.5 -11.5t43.5 -20.5t36.5 -33q8 -10 15 -22.5t11 -24.5q8 -23 8 -43.5t-6 -39.5t-16 -37.5t-24 -36.5q-8 -10 -16 -20.5t-16 -21.5t-14 -23t-9 -24q-3 -14 2 -27.5 t14 -26t19 -24.5t16 -22q10 -14 17 -30t13 -32q10 -22 20 -42.5t22.5 -38.5t27.5 -34q16 -15 38 -29q10 -5 21 -8.5t23 -5.5q20 50 31 103t14 107t-3 108t-21 108q-17 60 -46 117t-68.5 107t-88.5 91t-105 70q-42 22 -88.5 37.5t-94.5 21.5l-38 4q-19 4 -38 4h-16 q-2 0 -5 -1t-7 -1q-10 -2 -22 -3t-24 -3t-23 -5t-21 -7q-40 -18 -76 -48t-66 -66.5t-54 -77t-40 -78.5q-24 -56 -36 -114q-10 -58 -12 -118zM358 284q30 -38 67 -71t79 -59t88 -45t98 -29q18 -4 40.5 -7t45 -4.5t44.5 -1t40 4.5q10 2 20.5 4t20.5 4q12 2 21.5 9t19.5 13 q18 12 33 24t29 24.5t27.5 26t27.5 30.5q59 71 94 153l-210 -90h1h-2h-1q-2 0 -5 1t-5 1t-2 1l-20 5q-19 6 -35 14t-30 22q-14 12 -24 24t-18 26l-194 -90q-19 0 -37 2q-19 3 -37 7q-14 3 -27 8t-25 12l-16 11q-26 -10 -53 -17t-55 -13zM594 1250l4 2zM662.5 488 q2.5 -26 15 -49t42.5 -41q10 -7 22 -10.5t24 -6.5q14 -3 29 -5q-16 30 -28.5 62t-30.5 62q-7 11 -16.5 22.5t-18.5 23.5t-15 24q-6 14 -6 28l-4 -2q-2 1 -4.5 1t-4.5 1q0 -28 -3.5 -56t-1 -54zM667 709l38 2t39 1q10 12 18 25.5t13 27t7 28.5t-1 31q-2 14 -5.5 24t-10.5 22 q-13 24 -31 40q-14 13 -31 21.5t-36 14.5v-237zM944 270h1h1h-2zM946 270h2h-2zM948 270h1h-1z" />
<glyph unicode="&#xaf;" horiz-adv-x="954" />
<glyph unicode="&#xb0;" horiz-adv-x="581" d="M-41 1292.5q-1 19.5 1 37.5t8 37q4 19 12 35q18 36 47 61t64 44t72 32.5t73 24.5l-12 -32l81 48q40 6 77.5 3t70.5 -17t57.5 -41.5t36.5 -70.5q6 -18 7.5 -38t-0.5 -39q-2 -21 -7 -44t-15 -41q-4 -8 -8 -17t-10 -16q-22 -30 -57 -52.5t-75 -39.5t-81 -29t-76 -21 q-4 -1 -10.5 -2t-14 -2t-14 -1h-8.5q-40 -4 -75 3t-63 24.5t-47.5 46t-28.5 69.5q-4 18 -5 37.5zM202.5 1404.5q-1.5 -34.5 5.5 -64.5q8 -38 30 -69t57 -46q6 16 10 32.5t5 34.5q4 58 -19 105.5t-73 71.5q-14 -30 -15.5 -64.5z" />
<glyph unicode="&#xb1;" horiz-adv-x="1097" d="M-6 681l194 101h215v242l244 85v-327h389l-194 -101h-195v-241q-61 -21 -122 -42.5t-122 -42.5v326h-409zM-3 29l194 101h842l-194 -101h-842z" />
<glyph unicode="&#xb2;" horiz-adv-x="807" d="M30 1080q11 12 21 25t19.5 26t19.5 26t22 25q14 14 31 25t35 21t36 18l36 16q22 10 45 16t47 13q26 8 54 12.5t55.5 2.5t53.5 -11t48 -29q16 -13 27.5 -28.5t21.5 -33.5q6 -11 13 -25.5t13 -29.5t8 -30t-2 -28q-12 -36 -26 -63t-33 -50t-42 -43.5t-52 -42.5 q-16 -12 -32.5 -24.5t-32.5 -24.5q-6 -4 -8 -5.5t-4.5 -3.5l-5 -4t-8.5 -6l-2 -2q-28 -26 -45 -56t-30 -64q-4 -10 -8.5 -21t-3.5 -22q0 -4 2.5 -7.5t4.5 -5.5h236q3 5 5.5 9.5t4.5 10.5q60 19 120 37q60 19 121 37q-18 -36 -40.5 -60.5t-49 -43t-58 -32.5t-66.5 -28 q-25 -10 -53 -18t-54 -12q-24 -3 -45.5 -1.5t-44.5 1.5h-273h-12.5t-14 1t-12.5 3q-6 4 -10 8q-5 8 -5.5 15t1.5 14.5t5 15t6 14.5q10 26 19.5 49.5t25.5 45.5q22 29 49 52.5t56 44.5t57 43q28 20 54 46q10 10 21 25.5t20 32t15 34.5t6 32q0 12 -4.5 28t-11.5 32t-15.5 30 t-14.5 24q-10 16 -23 28t-28 22q-8 -12 -16.5 -23t-18.5 -22z" />
<glyph unicode="&#xb3;" horiz-adv-x="766" d="M12 600q60 24 120 46q62 22 122 46q11 -13 23.5 -28.5t27.5 -30.5t31 -27t32 -18q12 20 19 42t11 46q2 14 -1.5 27.5t-10 26t-15.5 24t-15 21.5q-9 12 -15.5 23.5t-10.5 22.5t-7 23t-4 26q-24 -4 -57.5 -5t-66 0t-58 1.5t-33.5 0.5l194 101h26q5 14 13.5 25.5t15.5 23 t11 25.5q6 14 2 34q-1 6 -8 19t-15.5 26t-16.5 24t-12 15q-7 7 -16.5 14.5t-17.5 13.5l-10 -16l-241 -74q29 45 62 76t71 53.5t82 38t96 30.5q17 4 36 7.5t38.5 4t37.5 -1.5t36 -9q36 -14 60.5 -39.5t42.5 -57.5q7 -13 14 -27t7 -29q0 -20 -10 -38.5t-20 -34.5 q-8 -11 -15 -25q-1 0 -1 -2t-1 -7t-1 -7q-1 -8 -1 -16q1 -8 -1 -16q-2 -12 -6 -20t-10 -13l15 5q0 -8 1.5 -18.5t3.5 -21t5 -19.5t8 -17q8 -14 17.5 -27t18.5 -26.5t16 -28t11 -30.5q3 -14 0 -29q-2 -15 -6 -29q-7 -30 -23.5 -56.5t-38.5 -48.5t-48 -39.5t-54 -29.5 q-24 -11 -51 -22.5t-57.5 -22t-62 -18t-63 -9.5t-61 2t-55.5 17q-17 8 -31.5 20t-28 25.5t-26 28.5t-24.5 29zM199.5 1201.5q0.5 0.5 4.5 0.5h-1.5h-1.5q-2 -1 -1.5 -0.5zM564 1038.5q0 -0.5 0 1.5v-1.5zM566 1044q0 2 1.5 6t0.5 2t-1.5 -4t-0.5 -4z" />
<glyph unicode="&#xb4;" horiz-adv-x="602" d="M-16 1148l336 268l214 48l-337 -269z" />
<glyph unicode="&#xb5;" horiz-adv-x="1368" d="M-64 912l188 97q-7 -1 -14 -1h-8.5t4.5 1q4 1 22 3l2 1h6q2 1 4 1q11 2 26 2t30.5 -1t30.5 -3.5t25 -6.5q18 -7 34 -18t30 -24t28 -27q12 -14 26 -28q8 -8 17.5 -15t18 -15t16 -17t11.5 -21t5 -24t0.5 -24t-2 -25t-1.5 -25v-376q0 -16 2 -33q1 -17 -3 -33l-2 -8 q0 -4 -2 -7q1 1 2.5 1t2.5 2q13 -13 27 -26t27 -26.5t25 -27.5t22 -30l12 -20q8 -10 16 -18l4.5 -4.5l3.5 -3.5q1 -1 2.5 -1.5t2.5 -0.5q9 -3 19 -5q12 -1 24 -1q6 6 13 10t14 10q4 4 8.5 7t8.5 5q36 26 70 52t66 57q8 8 18 16q10 9 18 19q5 8 6.5 16t1.5 16t-1 17t-1 17 v310q0 20 2 39.5t-2 38.5q-2 8 -8 15.5t-12.5 14t-14 12.5t-13.5 12q-16 14 -31.5 29.5t-31.5 30t-33 26.5q-18 12 -40 18q-10 1 -19 1.5t-19 0.5q-4 0 -7 -0.5t-6 -0.5q-4 0 -9.5 -0.5t-4.5 -0.5h-8l189 98q-4 0 -9 -1t-9 -1h2q4 0 9 1t9 3l3 1q2 0 5.5 0.5t4.5 0.5h1 q10 2 21 1t21 -1h26t26 -3q26 -7 49.5 -21t42.5 -32q14 -13 27.5 -27.5t27.5 -26.5q13 -12 25 -23t22 -25q6 -10 9 -22t2.5 -24t-2 -25t-1.5 -24v-311q0 -16 1 -32t-5 -32h1q14 -18 18.5 -36t4.5 -36.5t-1 -38t4 -39.5q5 -22 19.5 -37t30.5 -30q19 -17 36.5 -34t39.5 -31 q28 -17 59.5 -21.5t63.5 -5.5l-216 -101q-28 1 -55 4t-53 12q-16 6 -32 15t-29.5 19.5t-26.5 23t-25 24.5q-9 9 -17 16.5t-15 15.5t-13 17t-9 22q-4 12 -4.5 23.5t-0.5 23.5h-2q-3 -2 -5.5 -4t-5.5 -4l-1 -2l-6 -4q-32 -30 -72.5 -53t-85 -41t-90.5 -30t-88 -21 q-16 -4 -38 -6.5t-46 -3.5t-46 1t-37 10q-12 6 -19.5 15t-13.5 19v-7v-5q0 -38 1.5 -72t5 -67.5t10.5 -67t21 -69.5q-60 -24 -120 -46t-121 -46q-6 15 -11.5 29.5t-9.5 29.5q-8 28 -11.5 55.5t-5 55.5t-2.5 56.5t-1 56.5q0 24 -2.5 48t2.5 47q4 16 12.5 30t20 25t25.5 21 t26 20q6 4 9 7t5.5 5t5.5 5q2 3 8 9l3 2l4 6q3 5 5 10q2 4 4 9q4 16 2.5 33.5t-1.5 33.5v376q0 12 1 24t1.5 24t0.5 24q0 10 -4 22q-2 8 -8 15t-13 14t-14 13t-13 10q-21 18 -38.5 39t-39.5 38q-16 13 -34 22t-38 10h-18h-18q-2 0 -7 -1h-5h-8zM186 200l1.5 1.5t-0.5 0.5z M580 126v1q4 -3 1 -1h-1zM600 108h2h-2zM756 1008z" />
<glyph unicode="&#xb6;" horiz-adv-x="1036" d="M149.5 858q-0.5 20 2.5 40.5t10 44.5l244 85q-7 -24 -10 -45t-2.5 -41t4.5 -40t12 -44q-61 -21 -121.5 -42.5t-122.5 -42.5q-8 24 -12 44.5t-4.5 40.5zM386 -216h1h1l166 97q12 2 23 3l22 2q1 14 0 28.5t-1 28.5v1183q0 18 -1.5 32t0 26t7.5 24t20 27q6 6 13 11t13 9 q17 10 33.5 20.5t34.5 18.5q48 19 96 34.5t99 22.5q19 2 37.5 2.5t37.5 1.5l22 2q-5 -1 -9.5 -2t-8.5 -1l-136 -93l-16 -3q0 -12 1 -24t1 -24v-1182q0 -16 1 -31t-1 -29t-7 -27t-19 -26l-4 -4q-5 -4 -10.5 -8.5t-10.5 -8.5t-5 -5q-18 -13 -39 -23t-41 -20q-46 -24 -99 -37 t-105 -19q-37 -4 -73 -4h-12h-11h-4t-4 -1q-4 0 -7 -0.5t-5 -1.5l2 1h-2zM578 -152h2h-2zM1012 1357q2 0 5.5 0.5t1.5 0.5t-3.5 -0.5t-3.5 -0.5z" />
<glyph unicode="&#xb8;" horiz-adv-x="479" d="M-63 -424l194 101h10q6 11 13 28q5 15 6.5 29t-0.5 29q-2 26 -15 47.5t-33 36.5q-11 8 -21.5 11.5t-18.5 11.5l-81 -14l71 42q0 10 5 21t11 21.5t12 19.5q6 10 11 16l19 24l4 4l8 10l3 4l3 2l230 62q-7 -7 -14 -16l-12 -16q-9 -12 -19 -26q-9 -14 -13 -30q-1 -6 -2.5 -14 t1.5 -14q1 -2 3 -4q2 0 4 -2v-1q2 -1 5 -2t6 -3q10 -5 19 -10.5t17 -11.5q24 -21 34.5 -52t6.5 -62t-18 -57.5t-36 -48.5t-49 -38t-54 -28q-28 -12 -56.5 -23t-58.5 -21q-46 -16 -96 -21t-99 -5z" />
<glyph unicode="&#xb9;" horiz-adv-x="622" d="M-70 501l194 101l14 12l10 10q0 1 2 4q6 12 8 25q2 16 1 32.5t-1 33.5v311v19v19q0 4 -1 7t-3 7q0 2 -1 4.5t0 1.5l3 -10l-2 4v1q-4 7 -8.5 13t-9.5 12q-8 10 -18 19.5t-21 16.5q-18 12 -36.5 17.5t-38.5 8t-40.5 2.5h-40.5l194 100h51.5t51.5 -2q18 -2 36 -5t34 -11 q13 -6 26.5 -14.5t23.5 -18.5q16 -15 25 -26t13 -22t5 -24.5t1 -33.5v-311q0 -12 0.5 -24t0.5 -24t-1.5 -23.5t-6.5 -22.5l7 2q12 -12 24 -26t24.5 -27t25.5 -25q14 -12 30 -18q23 -10 47.5 -11.5t49.5 -2.5h24.5t4 0h-8.5h-12h-6t8 0l-194 -101q-2 0 -4.5 -0.5t-5.5 1.5 h-36.5t-37.5 2t-37 6q-18 6 -34 14t-29 19t-25 23q-34 -16 -68 -27t-68 -19t-70 -13t-74 -6zM144 620l2 1z" />
<glyph unicode="&#xba;" horiz-adv-x="848" d="M48 780v16q2 18 7.5 38.5t13 41t15.5 39.5t17 34q21 37 50.5 65t64.5 48.5t73.5 35t78.5 26.5l70 15q29 3 55.5 5t56.5 -5q46 -10 83 -38.5t64 -68.5t40.5 -86t10.5 -90q-1 -18 -5.5 -40t-11.5 -43t-16 -41t-17 -37q-15 -30 -31.5 -50.5t-37 -37t-44 -30t-53.5 -27.5 q-28 -14 -58 -25t-62 -18q-26 -5 -53 -9t-54 -4.5t-53 4.5q-26 4 -52 16q-32 14 -57 37.5t-43 52.5t-30 61.5t-18 66.5q-1 6 -1.5 14t-1.5 17t-1 17zM292 881q-4 -27 1.5 -58t17 -62t27.5 -58t34 -47q17 -18 35.5 -31t41.5 -21q8 14 14.5 28t11.5 29q8 22 14.5 41.5t10 39.5 t4 41t-3.5 45q-4 20 -9.5 40t-14.5 38q-21 42 -54 76t-76 50q-10 -18 -18 -37t-15 -38l-12 -38q-7 -19 -9 -38z" />
<glyph unicode="&#xbb;" horiz-adv-x="893" d="M-58 142q36 48 68 99t64 103q10 16 20.5 33t19 35t14.5 37t5 39q0 22 -7.5 43t-18.5 41.5t-24 40t-23 35.5q-28 44 -56 87t-58 85l240 93q30 -42 59 -85t56 -87q11 -18 24 -38.5t24.5 -42t19 -44t8.5 -44.5q0 -21 -5.5 -41.5t-14.5 -40t-21 -38t-22 -34.5l-64 -102 q-31 -52 -67 -100l-120 -36q-61 -18 -121 -38zM348 142q26 44 54 86l56 84q13 20 26.5 40t25 41t19.5 44q7 23 9 47q2 18 -3 36t-14 35t-19 33l-20 30q-16 25 -31 50.5t-31 51t-32.5 50t-36.5 46.5l241 93q20 -22 37 -46.5t32 -50l30 -51t31 -51.5q10 -16 21.5 -32t20.5 -34 t14.5 -37t3.5 -39q-2 -26 -10 -50t-20 -46t-26 -44t-28 -42l-56 -84t-54 -86l-120 -36t-120 -38z" />
<glyph unicode="&#xbc;" horiz-adv-x="1593" d="M-76 501l190 99q2 2 4 2q1 2 3.5 4t4.5 4l1 1q1 1 2.5 2t3 2.5t3.5 2.5l7 8h1v2q4 6 5.5 12.5t2.5 12.5q2 16 0 32.5t-2 33.5v311q0 10 1 21t-1 22q-2 10 -8.5 19t-12.5 16q-20 24 -41.5 37t-45.5 19t-50 7t-54 1l194 100h63t62 -6q45 -8 75 -31t56 -59q7 -10 8 -24 q0 -12 -1 -24q0 -2 -0.5 -4t-0.5 -3q1 1 0.5 -2t-0.5 -4v-311q0 -12 1 -24l2 -24t-1 -24t-6 -22l4 2q12 -12 24 -25.5t25 -26.5t27 -24q12 -12 28 -18q24 -10 50 -12l52 -4h13.5h14.5l-216 -101q-18 2 -37 2t-37 1.5t-36 4.5t-35 11q-18 8 -33.5 20t-29.5 26 q-34 -16 -68 -27t-68.5 -19t-70 -13t-73.5 -6zM137 618.5q0 -0.5 1 0.5v1q-1 -1 -1 -1.5zM393 8l527 1192l240 74l-526 -1192q-60 -18 -120 -37t-121 -37zM787 212.5q1 8.5 3 17t4 14.5q6 18 15 35t20 33l22 32t21 32q18 27 37 53.5t37 52.5q8 12 15 25.5t15 26t17.5 24 t21.5 20.5q21 16 44.5 30t48 25t50 20t50.5 17q11 4 28.5 9t36.5 9.5t37 6t29 -2.5q18 -6 30.5 -14t20.5 -18l42 14l-14 -44l-9 -4q5 -15 7 -31.5t2.5 -34.5t0 -36t-0.5 -34v-214h165l-167 -87q1 -2 1.5 -4.5t2.5 -5.5q5 -14 15.5 -23.5t20.5 -18.5q19 -18 38 -33 q18 -16 44 -24q18 -6 37 -7t37 -2l-215 -101q-23 0 -45.5 3t-44.5 9q-21 6 -37 17t-32 24q-20 -9 -42 -17t-43.5 -14.5t-42 -11t-38.5 -6.5q-27 -3 -53.5 -3.5t-53.5 -0.5l186 96l12 14q7 8 13 14q-6 20 -5 40t2 41h-326q-6 0 -13 -0.5t-14 0.5t-14 3q-6 2 -10 6q-6 6 -8 13 t-1 15.5zM1030.5 301.5q-0.5 -6.5 0.5 -13.5q1 -5 3 -8l4 -4h136v129q0 32 1 63.5t-7 63.5q-26 -37 -51 -73.5t-49 -74.5q-10 -16 -20 -33.5t-15 -36.5q-2 -6 -2.5 -12.5z" />
<glyph unicode="&#xbd;" horiz-adv-x="1695" d="M-71 501l194 101h1q8 8 15 14.5t11 11.5q6 10 7.5 21.5t1 23t-1.5 23.5t-1 23v311q0 6 1 12.5t1 13v12.5l-4 12q-10 18 -25 35t-33 28q-26 18 -58 24q-24 4 -47 4.5t-47 0.5l194 100h63t61 -6q45 -8 75.5 -31t56.5 -59q7 -10 7 -24q-1 -12 -1 -24v-4v-3q1 1 0.5 -2 t-0.5 -4v-311q0 -12 1 -24t1 -24t-1.5 -23.5t-6.5 -22.5l6 2q12 -12 24 -25.5t24.5 -26.5t26 -24.5t29.5 -17.5q24 -10 50 -12l52 -4h13.5h13.5l-215 -101q-18 2 -37 2t-37 1.5t-36 4.5t-36 11t-33 20t-30 26q-34 -16 -68 -27t-68.5 -19t-70 -13t-73.5 -6zM398 4l527 1196 l241 74l-527 -1196q-60 -18 -120 -37q-61 -19 -121 -37zM969 564q1 2 3 4l4 4t2 4q5 6 9.5 12t8.5 12q15 21 31 42q15 20 35 38q18 16 39 28t43 22t44.5 18t43.5 17q25 10 55.5 17.5t58.5 9.5q18 2 37 2q19 2 37 -2q24 -5 45.5 -18.5t39 -31.5t30.5 -40t21 -44l8 -18t7 -18 t5 -18.5t0 -19.5q-1 -9 -5 -20q-5 -10 -7 -16q-12 -35 -33 -64.5t-47 -54.5t-56 -48t-58 -43q-16 -12 -31 -23t-29 -25t-23 -29t-17 -32t-14 -34t-14 -35q-1 -3 -2 -7t-1.5 -8.5t0.5 -8.5t3 -7q2 -1 5 -1t6 -1q58 0 114.5 0.5t114.5 0.5q3 5 5.5 9.5t5.5 10.5l120 38 q61 18 121 36q-30 -58 -79 -95t-111 -59q-14 -4 -30 -11t-33 -12t-35 -10t-33 -7q-24 -2 -45.5 -2h-45.5h-276q-10 0 -22 1t-21 7q-8 6 -8.5 16t2 20t7 20t6.5 16q7 19 13.5 37.5t17.5 36.5q20 34 49.5 59t60.5 47q22 16 44.5 32t42.5 34.5t38 39t32 44.5q8 16 16 34 q8 20 8 38t-6.5 32.5t-12.5 30.5q-14 30 -32.5 57t-44.5 45q-8 -12 -17 -23.5t-19 -23.5l-230 -61v-1q-2 -2 -1 0z" />
<glyph unicode="&#xbe;" horiz-adv-x="1675" d="M11 620q60 24 121 46q60 22 120 46q11 -14 23 -28t25 -27.5t27.5 -25t31.5 -18.5q2 -1 3.5 -2t3.5 -1q12 21 19.5 41.5t11.5 44.5q2 18 -4.5 35.5t-17.5 34.5t-23 32.5t-20 30.5q-8 14 -10 29.5t-4 31.5q-29 -4 -56.5 -3.5t-56.5 0.5h-60q-29 1 -59 7l232 98l6 -2 q7 17 18.5 32.5t19.5 31.5q5 12 3.5 26t-7 27.5t-13 26t-13.5 21.5q-22 33 -56 51l-8 -14l-240 -74q20 33 40.5 56t44.5 40.5t52.5 32.5t63.5 31q39 18 81 30t86 16q68 6 117 -22t79 -90q7 -14 13.5 -29t4.5 -31q-2 -13 -8 -24.5t-12.5 -21.5t-13.5 -20q-6 -10 -12 -22 q-2 -9 -2 -18.5t-1 -19t-3 -18.5t-6 -17q-1 -1 -2 -2.5t-2 -2.5l11 4q4 -16 5 -32q0 -16 8 -32t18 -31t20 -29t18.5 -30t11.5 -34q2 -15 0 -28.5t-6 -27.5q-9 -38 -32.5 -71t-54.5 -58.5t-68 -44t-71 -30.5q-28 -9 -57 -17.5t-58 -17.5q-13 -4 -30 -6.5t-31 -2.5 q-40 -2 -71 6t-56.5 24t-48 39.5t-45.5 52.5zM485 4l266 600t265 600l240 74q-132 -301 -265 -600.5t-265 -599.5q-60 -18 -120 -37t-121 -37zM881 198q-1 12 2 26t7 27q6 13 8 19t6 14l6 12t7 13q3 7 7 13q14 22 29 42t28 43q23 39 44 72t46.5 60t57 49t76.5 39 q37 17 75 32t79 22q8 2 17 3.5t18.5 2.5t19.5 1q8 0 16 -4t15 -9t14 -11l65 23q-12 -42 -16.5 -84.5t-5 -85.5t0.5 -86t3 -87v-23.5v-23.5v-11q0 -4 1 -10h165l-166 -86q-1 -4 -2.5 -8.5t-2.5 -8.5l5 2q12 -12 23 -24.5t23 -24.5t24 -23t28 -19q11 -6 22.5 -8t24.5 -3t26 -1 t25 -1l-216 -101q-30 4 -50.5 6t-34 4t-22.5 4t-17 7t-16.5 13t-21.5 20q-24 -10 -48 -18q-24 -10 -50 -18q-42 -14 -85 -16t-87 -2l187 98q14 16 20 34q6 17 5 36.5t-2 36.5h-328q-11 0 -23 0.5t-22 5.5q-9 5 -10 17zM1124 284q2 -4 4 -6q2 0 4 -1t4 -1h124v11v11 q-2 58 -2.5 115t7.5 115l-4 -2l-8 8q-8 -13 -15.5 -26.5t-15.5 -26.5q-12 -19 -24.5 -37t-24.5 -36q-10 -16 -19 -31.5t-16 -32.5q-2 -5 -3 -10.5t-3 -9.5l-2 -6v-1v-1l-4 -10q-2 -6 -2 -11v-11zM1126 308l2 4z" />
<glyph unicode="&#xbf;" horiz-adv-x="995" d="M168 -150q0 -12 3 -22.5t8.5 -21t10.5 -20.5l12 -20q6 -14 14 -29t18 -28q18 -26 39 -42.5t45 -25.5t52 -11t58 -2l122 63l123 -1q36 17 64.5 37.5t53 45t46 53t43.5 60.5q-60 -18 -120 -36.5t-120 -37.5q-14 -21 -29 -41.5t-31 -39.5q-27 4 -46.5 15t-35.5 27.5 t-29.5 38.5t-27.5 48q-6 10 -11.5 20.5t-9.5 21t-6 21.5t0 23q2 18 10 35t18 32q19 34 41.5 62.5t50.5 54.5q27 23 50.5 49.5t40.5 56.5q10 18 18 37t18 38t17.5 36.5t9.5 34.5t-5 34t-25 35q-20 20 -44 30.5t-51 14.5t-55 2q-26 -2 -52 -6q-12 -2 -20 -3t-14 -2.5t-14 -3 t-21 -3.5q-4 -1 -6.5 -1.5t-6.5 -0.5l-20 -4v-1q20 3 28.5 4t10 2t-2.5 0t-10 -1.5t-13 -1.5q-7 -2 -11 -2h-2q-2 0 -3 -1t2 0h1l-165 -97q26 3 50 8q23 6 49 10q6 1 14 1.5t16 1.5h2q6 0 10 -0.5l8 -1l8 -1t10 -1.5q22 -6 38 -16q7 -4 12.5 -8.5t11.5 -10.5q11 -10 18 -22 q8 -14 8.5 -28t-4 -27t-11 -26l-12.5 -25q-12 -28 -25.5 -54t-31.5 -51q-16 -18 -34 -34.5t-36 -34.5q-26 -27 -48 -55.5t-41 -61.5q-12 -20 -21.5 -42.5t-11.5 -46.5zM282 782q3 88 57.5 142.5t144.5 54.5q94 0 149 -54.5t55 -142.5t-56 -144q-54 -56 -148 -56 q-90 0 -146 56t-56 144zM296.5 396h3.5h-3t-0.5 0z" />
<glyph unicode="&#xc0;" horiz-adv-x="1450" d="M-62 0l178 92q1 8 3 16q1 10 3 18q4 22 8 43t10 41q8 32 19 63t21 63q6 20 11 40q5 18 11 38q5 17 10 30t14 26l1 1l6 7l4 5l1 1q6 12 8 29t2 31q2 17 4 32t6 31q14 53 32.5 104t34.5 103q11 36 22 71.5t21 71.5l8 30t12 27t18 22.5t22 19t25 15.5l26 14l6 3 q24 16 48.5 31t50.5 30q-2 2 -2 3l17 6l22 12t23 11h22l160 55q2 -7 7 -12l10 -10t10 -9.5t8 -11.5q4 -8 7.5 -18t7 -20.5t6.5 -20.5q4 -12 6 -20q10 -30 18 -58q10 -29 18 -59q14 -50 27.5 -100.5t23.5 -101.5q5 -27 7 -55t9 -54q2 -10 8.5 -16t12.5 -14q4 -6 7.5 -16 t5.5 -16q8 -21 12.5 -42.5t10.5 -43.5q7 -26 14.5 -50t14.5 -48q7 -26 13 -52q8 -26 10 -52q1 -10 1 -22t0.5 -23t3.5 -22t9 -21q11 -16 27.5 -24t32.5 -18q26 -12 50 -27t50 -29q47 -24 94.5 -36t99.5 -13l-216 -101q-45 2 -81 9t-69 19t-65.5 29t-70.5 39q-25 -18 -56 -33 t-64.5 -28t-66.5 -21t-63 -12t-58 -3t-56 1l194 101h13q14 16 28.5 32.5t29.5 32.5q-4 10 -6 20.5t-2.5 22t-1.5 22.5t-1 21q-4 34 -13 67t-19 66q-5 18 -10.5 34.5t-9.5 34.5q-4 12 -6 24q-4 12 -6 24q-34 -15 -69 -26.5t-71 -19.5q-16 -4 -32 -4q-14 0 -30 1h-9t-9 1 q1 0 -0.5 0h-3.5t-4 0.5t-4 0.5h-126l-2 -8q0 -4 -2 -8q-10 -36 -23 -71.5t-23 -72.5q-6 -22 -10 -42.5t-8 -42.5q-2 -14 -5 -26t-3 -23t5 -22t19 -22q12 -10 31 -13.5t41 -4.5t43 0.5t36 1.5l-194 -101q-24 0 -46.5 -1.5t-45.5 -0.5q-14 0 -28.5 2t-27.5 4q-13 3 -26 7.5 t-25 12.5q-6 4 -8 8q-48 -14 -96 -22t-98 -10zM361 1598l231 98l403 -162l-231 -98zM481 564l5 2q4 -4 8 -6h2q6 -2 11 -3t11 -2q1 -1 5 -1h5q4 1 6 1q2 1 5 1h5h172l7 8q6 8 12.5 15t14.5 15q-1 2 -1.5 4t-1.5 4q-4 14 -5.5 28t-3.5 28.5t-3 29t-5 28.5q-22 94 -47 185 t-57 182q-5 -10 -7.5 -20.5t-6.5 -20.5q-5 -17 -10.5 -34.5t-10.5 -34.5q-9 -30 -17 -59.5t-18 -59.5q-13 -41 -28 -81q-14 -39 -26 -81q-4 -16 -6 -32l-4 -32t-3 -33t-8 -31zM554 456.5q-1 0.5 0 0.5q0 -1 2 -1q-1 0 -2 0.5zM896 102h3h-3zM899 102q3 0 3 1q-1 0 -1.5 -0.5 t-1.5 -0.5z" />
<glyph unicode="&#xc1;" horiz-adv-x="1450" d="M-66 1l178 92q2 15 6 29q2 10 4 21t4 21q5 26 12.5 51t15.5 50.5t16 50.5q8 24 16 50q4 16 7.5 32t9 31t12.5 29.5t19 26.5q6 11 8 23.5t3 26t1 26.5q2 13 4 25q6 28 14 54t17 52.5t18.5 53t17.5 52.5q12 39 23.5 78.5t23.5 77.5q5 16 9 33t14 32q16 22 39.5 38t47.5 29 q24 16 51 32.5t54 31.5h-1v2l14 4q12 6 24 12.5t24 12.5h22l160 55q2 -6 7 -11t9.5 -9t9.5 -9t8 -11q5 -9 8.5 -19t7.5 -21t7 -21.5t5 -20.5q26 -79 48 -158.5t40 -159.5q3 -14 4 -28t2.5 -28.5t3.5 -28t6 -27.5q2 -8 7.5 -13t10.5 -11q4 -6 7 -13t5 -13q12 -31 20 -63 q7 -31 16 -63q11 -38 23.5 -78t16.5 -78q2 -12 2 -26t1 -27.5t3 -26.5q2 -12 10 -24q6 -10 16 -17t21 -13t22 -11t21 -10l40 -24q20 -13 40 -23q47 -24 94 -36q48 -10 100 -12l-215 -101q-56 2 -108 14q-52 11 -102 37q-20 10 -38.5 22t-38.5 22q-24 -17 -54 -32t-62 -27.5 t-64 -20.5t-60 -12q-32 -4 -62 -4q-30 1 -62 1l194 101h14l16 16q6 10 14 18q6 8 13 15l15 15q-6 12 -8 24.5t-3 25t-1 25.5t-2 26q-4 32 -13 64t-19 63q-5 16 -9.5 32.5t-9.5 32.5q-3 10 -5 21q-4 10 -6 20q-46 -22 -98 -34q-8 -2 -19 -4l-22 -4t-19 -3t-9 -1 q-18 -3 -36.5 -0.5t-36.5 2.5h-118v-5l-12 -40q-8 -20 -14 -40q-8 -27 -16 -53q-10 -26 -16 -54q-4 -14 -5 -29t-5 -29q-2 -6 -4 -14t-3.5 -16t-1.5 -16q-1 -8 3 -15q3 -6 5 -9.5t4.5 -6t4.5 -5.5q4 -2 8 -6q12 -10 31 -14t41 -4.5t44 0.5q22 2 36 2l-194 -101 q-19 0 -37.5 -0.5t-37.5 -1t-37 0.5t-37 5q-16 4 -31.5 9.5t-27.5 17.5q-47 -14 -95.5 -22t-98.5 -9zM477 564l5 2q4 -3 8 -5l2 -1q10 -4 22 -4q2 0 6 -1q2 0 5 0.5t5 0.5q45 8 91 5t92 -5l3 4l14 16q8 10 16 18l-2 6q-4 14 -6 27.5t-3 28t-3 28.5t-4 27q-22 95 -48 188 t-58 185q-4 -8 -6 -15.5t-5 -16.5l-3 -10v-1v-2q-1 -2 -2 -5q-1 -4 -2 -6l-16 -52q-8 -26 -14 -51l-16 -50q-16 -50 -35 -101.5t-29 -103.5q-2 -12 -3 -24.5l-2 -25t-3 -24.5t-6 -24zM477 1500l409 167q14 -8 29 -16.5t29 -16.5l-410 -167zM896 103q2 0 4 1q-2 0 -4 -1z" />
<glyph unicode="&#xc2;" horiz-adv-x="1450" d="M-58 1l178 92q1 8 3.5 17.5t4.5 18.5q4 21 8 41q2 20 8 40q10 36 22 70t22 70q6 18 10 36q4 16 10 34q4 14 9 26t13 24l2 2l6 6l2 4l2 2q4 5 6 13t3 16.5t1 17t1 13.5q2 22 5.5 39t8.5 38q14 52 32.5 101.5t32.5 101.5q10 33 20 65.5t20 64.5q4 12 7 23t6.5 20.5t9 19 t15.5 19.5q14 16 32 27t38 21l12 8h1q4 2 9.5 5.5t9.5 5.5l16 9q14 10 29 20t31 18q0 1 -0.5 1t-0.5 1l12 4q12 7 24 13q13 6 25 12h22l161 55q2 -6 6.5 -11t9.5 -9t9.5 -9t7.5 -11q4 -8 8 -18t8 -21.5t7 -22.5l5 -20q26 -78 47 -156t39 -158q4 -14 5.5 -28t3 -28.5t3.5 -29 t6 -28.5q2 -9 8 -15t12 -13q4 -6 6 -12l4 -12q12 -32 20 -67t18 -67q13 -40 24.5 -82t15.5 -84q2 -10 2 -21.5t1 -23t3 -21.5t8 -20q7 -10 16.5 -17t20.5 -12.5l22 -11l21 -10.5l40 -24q20 -13 40 -23q47 -24 94 -36q48 -10 100 -12l-215 -101q-56 2 -108 14q-52 11 -102 37 q-20 10 -38.5 22t-38.5 22q-28 -20 -63.5 -37t-74 -30t-76.5 -21q-38 -6 -72 -8q-20 -1 -39 0t-39 1l194 101h7t7 -1l30 35q6 8 13 15l15 15q-4 10 -6 20t-3 21t-1 21.5t-2 20.5q-4 35 -12.5 69t-18.5 68q-5 18 -11 34t-10 34q-3 12 -5.5 23t-4.5 23q-25 -12 -50 -20 q-26 -8 -50 -14q-18 -4 -33 -6t-36 -6q-18 -3 -36.5 -0.5t-36.5 2.5h-118q-2 -10 -6 -22q-5 -16 -9.5 -31.5t-10.5 -31.5l-19 -61q-7 -24 -12 -48t-9 -48q-3 -15 -6.5 -27.5t-3.5 -24t6 -22.5q4 -10 18 -22q6 -5 14 -8.5t16 -5t16 -2.5q8 -2 14 -2h7.5h9h7t2.5 -1q16 0 32 1 q18 2 34 2l-194 -101q-24 0 -47 -1.5t-45 -1.5q-14 0 -28 2t-28 5q-10 2 -19 4.5t-17 6.5q-16 8 -24 16q-47 -14 -95.5 -22t-98.5 -9zM348 1496q36 16 68.5 38t66.5 42q50 29 103 52.5t109 38.5q18 5 36.5 10t37.5 8t38 4.5t37 -0.5t35 -8.5t33 -12.5q32 -13 61 -28.5 t57 -32.5t55.5 -34t57.5 -32l-231 -98q-26 14 -50 28.5t-49 29.5t-49 29t-50 26q-16 8 -33 14t-33 12q-2 1 -5 1.5t-7 2.5l-19 -13q-42 -27 -84.5 -50.5t-88.5 -44.5zM486 564l4 2q4 -3 8 -5l2 -1q6 -2 12 -3q4 -1 10 -1q2 0 6 -1q2 0 5 0.5t5 0.5q45 8 91 5t92 -5l7 8 q6 8 13 15t13 15q-2 4 -2 8q-4 14 -6 28t-3.5 29t-3 29t-5.5 28q-22 94 -48 186q-25 90 -56 182q-4 -8 -6 -15.5t-4 -15.5l-2 -5q0 1 0 0.5v-2.5t-1 -4t-1 -3q-5 -16 -9.5 -32.5t-10.5 -32.5l-20 -66q-17 -58 -36.5 -114t-35.5 -114q-3 -12 -4 -27t-2.5 -30.5t-3.5 -30.5 q-2 -16 -8 -28zM614 1036l1 2q-1 -4 -1 -2zM618 1048zM898 102q2 0 4 0.5l4 1t3 0.5t-1 0z" />
<glyph unicode="&#xc3;" horiz-adv-x="1450" d="M-64 0l178 93q1 8 3.5 17.5t4.5 18.5q4 21 8 41q2 20 8 40q8 32 19 63t21 63q6 19 11 38l10 38q6 19 11 34q6 16 19 30l3 3q1 1 4 5q4 6 6 13t3 16t1 17t1 14q2 22 5 39t9 38q17 58 37 115q18 57 36 115l32 105q4 12 7 22.5t6.5 20t9 18.5t15.5 19q16 16 35.5 28t39.5 22 l7 4q24 16 48 31t48 29q-1 1 -1 2l11 4q24 14 50 25h22l161 55q2 -7 6.5 -12t9.5 -10t10 -9.5t9 -11.5t7 -17t7 -21t7 -22t5 -19q26 -80 47 -159t41 -161q4 -14 5 -27.5t2 -27.5t3 -27.5t6 -27.5q2 -5 5 -8.5t6 -7.5l6 -8t5 -8t4 -9t4 -9q8 -19 12 -39t10 -40q6 -22 12 -43 q7 -20 13 -42q10 -34 18.5 -68t12.5 -69q2 -11 2 -23t1 -24t5 -23q2 -11 10 -21q8 -9 17.5 -15t20 -11.5t20.5 -9.5t20 -10q36 -21 67 -38t62 -29.5t65 -19.5t78 -8l-215 -101q-45 2 -81 9t-69 19t-66 29t-71 39q-24 -18 -55 -33t-65 -28t-67 -21t-62 -12q-30 -4 -58 -3 t-57 1l194 101h14q8 8 16 17q6 8 14 17q6 8 13 15.5t15 15.5q-4 10 -6 20t-3 20.5t-1 21t-2 20.5q-4 35 -12.5 69.5t-18.5 67.5q-6 22 -13 43q-6 20 -12 42q-2 7 -4 14.5t-4 15.5q-37 -17 -76 -29q-38 -11 -71 -15q-25 -2 -47 -1.5t-46 0.5h-118q-2 -1 -2 -7 q-8 -27 -16 -53.5t-17 -53.5t-16 -54t-13 -55q-3 -16 -6.5 -31t-4.5 -29.5t4 -28t19 -26.5q6 -5 14 -8t16 -5t16 -3t14 -1h7.5h9h7.5l2 -2q16 0 32 2q18 1 34 1l-194 -101q-24 0 -47 -1.5t-45 -0.5q-14 0 -28 2l-28 4q-10 2 -19 5t-17 7q-14 7 -24 16q-48 -14 -96 -22 t-98 -10zM218 1455q26 34 48 58t47 42.5t55 33.5t68 33q22 10 44 18t46 13q45 11 89 17t90 0q27 -4 53 -11t51.5 -15t50.5 -16q26 -8 52 -14l5 -2q6 8 11 16t9 16l241 74q-12 -24 -30 -45t-39 -40t-45 -34t-48 -25q-30 -14 -62 -27t-65 -23t-66.5 -15t-67.5 -4 q-19 0 -37.5 3.5t-36.5 7.5q-42 9 -81 23q-40 15 -82 25q-14 4 -29 6q-8 -10 -16 -20.5t-15 -20.5q-60 -18 -120 -36.5t-120 -37.5zM480 564l4 2q4 -4 8 -6h2q6 -2 12 -3q4 -1 10 -2q2 -1 6 -1q2 0 5 0.5t5 0.5q45 8 90.5 5.5t91.5 -4.5q8 10 17 19t17 18q-1 3 -2 7 q-4 14 -6 27.5t-3 27t-3 27.5l-4 28q-22 96 -48 188q-26 94 -58 186q-2 -2 -4 -8q-16 -51 -30 -101q-14 -51 -30 -101l-28 -84t-27 -84q-6 -20 -8.5 -38.5t-5.5 -39.5q-2 -16 -3.5 -33t-7.5 -31zM895 102h3h-3zM898 102q2 0 2 1q-1 0 -1 -0.5t-1 -0.5z" />
<glyph unicode="&#xc4;" horiz-adv-x="1450" d="M-60 2q50 1 98 9.5t96 22.5q12 -13 27 -19q15 -5 32 -9q18 -4 36.5 -5t37.5 -1t37 1t38 1l194 100q-15 0 -36.5 -1t-43.5 -1t-41 4t-31 14t-17.5 21t-6 21t2 22t5.5 26q2 7 3 13.5t1 12.5q8 46 23 90t29 90q4 10 6 21q4 11 6 21h118q14 0 27 -1t26 -1t27 1q12 1 26 4 q34 8 68 18.5t66 24.5q8 -30 16.5 -61t17.5 -61q8 -28 16 -57t12 -59q2 -12 2 -24t1 -25t3 -25t8 -23q-9 -10 -18 -19q-8 -8 -16 -18l-25 -28h-13l-194 -100q19 0 38.5 -1t38.5 -1q35 2 73 10t76 20.5t73 29.5q35 18 65 38q38 -22 70.5 -40t66 -30t69.5 -18t81 -8l215 100 q-42 2 -76 8.5t-65 18.5t-62 28.5t-65 36.5q-10 6 -21 11t-22 11t-21 13t-18 15q-8 10 -11.5 23t-5 27t-1.5 28t-2 26q-5 37 -15.5 73t-20.5 72t-19.5 72t-21.5 72q-2 6 -5 12q-2 5 -6 11t-10 12t-8 14q-4 14 -6 27.5t-3 27.5t-3 28q0 13 -4 27q-19 81 -40 161 q-22 79 -48 159q-2 8 -5 19t-6.5 22t-7.5 21q-3 10 -7 18q-3 6 -8.5 11t-10.5 9t-10 9t-7 13l-168 -59l-14 3q-13 -6 -26.5 -12.5t-25.5 -13.5l-10 -3q0 -2 1 -2q-27 -15 -53 -31q-24 -16 -50 -34l-8 -4q-18 -9 -35 -19.5t-32 -23.5q-10 -9 -15.5 -19t-9.5 -20.5t-7 -22 t-6 -23.5q-4 -15 -6.5 -23t-4.5 -15t-5 -15.5t-7 -23.5q-22 -70 -46 -139.5t-43 -141.5q-4 -14 -5 -28t-2.5 -28t-3.5 -28t-6 -28q-12 -12 -20.5 -27t-14 -32t-9.5 -34l-8 -34q-7 -26 -15 -51.5t-16.5 -51.5t-15.5 -51.5t-13 -52.5q-2 -14 -6 -28t-5 -29zM295 1576 q0 65 46 112t122 47q53 0 90 -22.5t55 -58.5t18 -78q0 -62 -42.5 -107t-120.5 -45q-75 0 -121.5 46t-46.5 106zM482 564q2 4 3 8t1 3l2 5q2 8 3 17t3 18q1 13 1.5 26t2.5 25q3 18 8.5 37t11.5 37q14 50 31 98t33 98q12 36 22 73t20 73q1 4 3 6q32 -93 57.5 -186.5 t49.5 -189.5q3 -14 4.5 -28t2.5 -27.5t3 -27.5q2 -13 6 -27q1 -4 2 -6q-7 -8 -13.5 -16t-13.5 -16l-7 -6q-23 0 -46 1.5t-46 2t-46 -0.5q-24 -1 -46 -5h-6h-8h-1q-6 1 -11 2q-4 0 -10 2q-2 1 -6 3.5t-2 0.5t5 -4q3 0 6 -2q2 -1 0.5 -0.5t-4 2.5t-5.5 4q-2 0 -4 2zM482 564 q0 2 1 4zM794 1576q0 66 44 112q44 47 120 47q52 0 90 -22t56 -58.5t18 -78.5q0 -60 -43 -106t-121 -46q-75 0 -119.5 46t-44.5 106zM894 103q2 0 5.5 0.5t6.5 1.5q2 0 0 -0.5t-4 -0.5t-4 -0.5t-4 -0.5z" />
<glyph unicode="&#xc5;" horiz-adv-x="1450" d="M-67 4l177 92q2 14 5.5 31.5t7 34t6.5 28.5t5 16l10 36q12 42 25 83.5t25 83.5q4 14 9 28.5t12 27.5l6 9l1 1v-1h-1l7 8l4 4l-6 -6l2 2q4 6 6 14q4 15 6 29.5t4 30.5q5 46 19.5 89t30.5 87q18 52 34 104q14 52 32 103q6 16 9 31.5t10 29.5q10 22 25.5 36t34.5 26q5 4 7 5 l4 2t4 3q4 2 10 6l5 2l-16 -11q4 2 12.5 7t17.5 10t16 9t8 4.5t-6 -2.5t-27 -13q2 2 3 2l9 5l14 8l8 4l22 12q14 8 26 16t24 18q0 1 -1 1.5t-1 1.5q-24 24 -48 46t-43 48q-7 10 -13 20t-11 22q-1 4 -3 6q-2 6 -4 10v2l-2 4q0 2 -1 5t-1 2q-11 26 -22.5 51.5t-19.5 53.5 t-7 58t10 60t25 56t40 44q25 19 51.5 33.5t54.5 26t57 21t59 19.5q33 10 69.5 13t70.5 -3q36 -6 66 -24q8 -4 13.5 -8l11 -8t10.5 -8t11 -11q28 -32 37 -66.5t5 -71t-16.5 -73t-26.5 -70.5q-10 -22 -18.5 -44t-24.5 -42q-20 -24 -42 -44t-44 -42q4 -12 12 -20t14 -18 q7 -10 11 -24q3 -14 7 -25q10 -32 18 -63q10 -32 18 -64q13 -49 28.5 -96.5t27.5 -96.5q4 -17 8 -32t6 -31q4 -22 5 -43t7 -43q4 -12 13 -21t14 -22q14 -34 22.5 -68.5t20.5 -69.5q14 -42 24 -85.5t18 -87.5q2 -10 2 -20t1 -21t3 -21q4 -9 10 -17q8 -10 18 -17.5t21.5 -13.5 t22.5 -12q12 -6 23 -12q34 -20 65 -36t62 -28t64.5 -18t75.5 -8l-216 -100q-44 2 -81 8t-70.5 18.5t-66 30t-70.5 39.5q-28 -20 -64 -37t-74 -30t-76 -21t-72 -10q-20 -1 -40 0q-18 2 -38 2l194 100h14l26 28q8 10 16 19t16 17q-4 8 -5.5 18t-2 20t-0.5 19t-2 19 q-7 44 -17.5 87t-24.5 85q-7 21 -12.5 42.5t-11.5 43.5q-32 -14 -66 -23.5t-67 -17.5q-16 -4 -34 -4.5t-35 -0.5h-8.5t-8.5 2h-1q1 0 0 -0.5t-3 0t-4.5 0.5h-3.5h-127l-2 -10q-5 -18 -10.5 -34.5t-11.5 -33.5l-16 -54l-10 -36l-5 -18q-6 -24 -11 -49t-9 -51q-1 -6 -1 -12 t2 -12q11 -24 32 -33.5t45.5 -12t50.5 -0.5t46 2l-194 -100q-22 0 -51 -2t-58 0t-55 9q-28 7 -44 25q-47 -14 -94.5 -23t-98.5 -9zM232 486l1 2h-1v-2zM452 1317q1 -3 3 -8l1 -5v2zM469 1080h1l1 2q-1 -2 -2 -2zM473 566q3 0 7 2l8 -4l2 -2q6 -2 11 -2t11 -2h1h8h7 q45 8 90 6l92 -4l32 34l-2 4q-7 21 -8 42.5t-4 42.5q-2 16 -6 31.5t-8 31.5q-12 50 -28 97.5t-28 96.5q-8 32 -17 64q-9 30 -19 62q-1 2 -1.5 4t-0.5 4q-4 -10 -7 -20q-3 -12 -5 -22q-12 -42 -27 -84t-27 -84q-14 -46 -31 -90t-29 -92q-3 -13 -4.5 -26t-2.5 -26.5t-3 -26.5 t-6 -25q-2 -6 -5 -12zM548 460h3h-2.5t-0.5 0zM648 1543q2 -26 11 -49t19 -46q10 -24 18 -48t22 -46l16 44t12 44t5 45t-5 47q-8 34 -31 60t-54 41q-8 -22 -11.5 -45.5t-1.5 -46.5zM887 105q2 0 5 0.5t6 1.5q2 0 -3 -0.5t-8 -1.5z" />
<glyph unicode="&#xc6;" horiz-adv-x="1884" d="M-92 -28l194 101h10q2 10 5 20.5t5 22.5q10 52 30 102l8 20q4 8 8 18q8 18 16 35t15 33l16 36q7 18 15 36q22 52 42 103.5t45 101.5q8 16 16.5 31t22.5 28q4 4 8.5 7t8.5 6l2 4q3 6 5 12.5t2 14.5q2 14 4.5 26.5t5 24.5t6.5 24.5t10 25.5q14 32 30 64.5t31.5 64.5t30 64 t27.5 66q14 38 23.5 76t16.5 77q-8 3 -15.5 7.5t-15.5 8.5q-8 3 -15 5l-5 2q-8 1 -16 1.5t-16 0.5h-56h-5t-5.5 -0.5t-4.5 -0.5l-2 1h-4.5h-5.5l187 96h-7t-7 -2h2q0 2 1 2q4 0 7 0.5t7 1.5l4 2h6.5h6.5h8h6q12 0 30.5 1t38 0.5t38 -2t31.5 -7.5q7 -2 13 -5.5t12 -7.5 q12 3 24.5 5.5t26.5 4.5q12 2 30 3.5t37 2t37 -1.5q16 -1 28 -7q27 -13 49.5 -32.5t42.5 -42.5q26 16 55.5 28.5t60 22.5t60.5 17t57 9q19 2 38 2t37 -1h7q5 -1 8 -1q4 0 7.5 0.5t7.5 0.5q49 1 98 1l96 -4q10 -1 21 -1.5t21 -1.5l20 -3h7q1 0 3.5 -0.5t1.5 -0.5q6 0 11 -1 t11 -2q12 -2 24 -4.5t24 -6.5t23 -10t20 -15q6 -6 9 -14t4.5 -17t2.5 -18t3 -16q6 -22 9.5 -44.5t7 -45.5t7.5 -45t9 -44q-61 -21 -122 -42.5t-122 -42.5q-6 22 -9.5 44.5t-7 45.5t-7.5 45q-3 22 -9 44q-2 12 -4 23t-5 23q-4 10 -12.5 17t-19 11t-21.5 7t-21 5q-7 1 -15 1.5 t-15 1.5q-12 -1 -22.5 2t-20.5 3q-21 2 -42 3t-42 1h-56h-54h-8h-8q-14 -16 -29 -32t-29 -32q0 -106 1 -211t1 -211h295q4 27 7.5 53.5t7.5 52.5l244 85q-4 -32 -8 -62.5t-10 -62.5q-4 -18 -11 -36t-7 -36t7 -35t10 -33q6 -32 10.5 -63t8.5 -63q-61 -21 -121.5 -41.5 t-122.5 -42.5q-5 32 -9 63t-10 62q-3 15 -9 29t-8 30h-273q0 -32 0.5 -63t0.5 -63v-190q0 -12 0.5 -24t0.5 -24t-1.5 -24t-5.5 -24l6 2q18 -18 34.5 -37t35 -37t38.5 -33t44 -25q12 -4 23 -6t23 -3l24 -2t24 -3q24 0 47 -2t47 -2h56t61 2q4 16 7.5 33t7.5 33q10 50 20 98 t22 96l244 85q-13 -54 -24 -107l-24 -108q-2 -12 -4 -25t-5.5 -25t-8 -24t-12.5 -22q-8 -11 -21.5 -20.5t-29 -18.5t-31.5 -17t-28 -13q-69 -31 -142 -45q-72 -16 -147 -18h-7l-15 -1q-11 -1 -22 -1t-21 -1q-66 -2 -132 0q-22 0 -46.5 1t-49 3.5t-47.5 8.5t-42 16 q-20 10 -37.5 24t-33.5 30q-22 -14 -45.5 -26t-47.5 -22q-36 -14 -66.5 -23t-60.5 -14t-62 -8t-68 -3l194 101h2q9 10 17.5 19t18.5 18q8 8 17 16t17 16q8 12 11 24t3 25t-1 26.5t-1 26.5v190v104q-2 52 -2 106h-346l-1 -4q-17 -38 -32 -76t-31 -76q-14 -36 -30.5 -71 t-32 -71t-28.5 -72t-21 -74q-2 -12 -6 -23.5t-6 -23t-0.5 -23.5t9.5 -22q3 -4 10 -10q7 -8 13 -10q16 -8 34 -11.5t36.5 -4t37 0t36.5 0.5l-194 -101q-28 0 -55 -1t-55 3q-19 2 -38 6q-20 4 -38 12q-8 4 -15 10q-3 2 -5 4l-6 6q-53 -16 -106.5 -27t-109.5 -13zM574 1336z M614 748l3 1l-2 1zM616 751l5 -3q4 -2 6.5 -2t6.5 -2q10 -2 20 -1t20 1h214q-1 86 -1.5 170t-0.5 170q-13 13 -25.5 27.5t-24.5 28.5l-24 28t-26 26q-8 -30 -19 -58t-23 -56l-53 -113l-19 -39l-2 -4t-1.5 -4t-2.5 -4q-1 -4 -3 -8q-8 -17 -16.5 -34.5t-12.5 -35.5 q-4 -21 -6 -42q-2 -20 -10 -40q0 -2 -1 -3t-1 -2zM627 1260h1h-1zM750 24q0 1 1 1h-1v-1zM887 76h3q2 0 1 0h-4zM1419 -10h1h-1zM1422 1224h1h1h-1h-1z" />
<glyph unicode="&#xc7;" horiz-adv-x="1302" d="M92 588q-4 42 2 83t14 81q8 36 16.5 73t19 72.5t24.5 70t32 67.5q30 53 71 96t89 76.5t102 58.5q56 26 112 44q42 14 84 25t84 18t84.5 9t87.5 -1q36 -3 77 -11t80 -23t74 -36.5t59 -51.5q6 -8 9 -16.5t5 -17.5t3 -18.5t3 -18.5q10 -44 16.5 -87t14.5 -87 q-61 -21 -122 -42.5t-122 -42.5q-8 44 -15 87q-6 44 -16 88q-2 13 -4 25.5t-6 24.5q-7 17 -21.5 30.5t-29.5 23.5q-24 16 -50.5 29t-55 22t-57.5 14q-30 5 -58 7q-31 2 -60.5 1.5t-59.5 -5.5l-12 -8l-12 -8q-28 -21 -52 -46q-24 -24 -43 -54q-18 -28 -32.5 -58t-25.5 -60.5 t-19 -61.5l-16 -64q-8 -34 -15 -69t-12 -69q-4 -26 -3.5 -52.5t3.5 -52.5t8 -51.5t11 -51.5q10 -44 20.5 -86t26.5 -84q12 -32 26.5 -61t32.5 -57q22 -33 47 -63t57 -54q23 -18 48.5 -30t52.5 -20.5t55 -16t56 -15.5q33 0 65 0.5t65 4.5q6 0 12 0.5t12 1.5l9 6q8 6 15.5 12 t15.5 13q12 19 16 39.5t10 41.5q6 24 11.5 48t11 48.5t11.5 48.5q5 23 12 47l244 85q-7 -24 -12.5 -48t-11 -48.5t-11 -48.5t-11.5 -48q-6 -22 -10 -44t-16 -42q-12 -19 -35 -37.5t-49.5 -35.5t-53 -30.5t-43.5 -22.5q-64 -32 -127 -50q-64 -18 -129 -28l-3 -36l2 -1 q2 -1 4 -3t4 -3l2 -1l20 -12t18 -13q22 -18 34 -45q14 -28 16 -56q2 -29 -6 -55t-23.5 -48.5t-37 -40.5t-45.5 -32q-56 -30 -116 -53t-123 -32q-30 -4 -60.5 -5.5t-60.5 -1.5l194 101h15q8 14 12.5 27.5t6.5 29.5q1 12 -0.5 26t-3.5 26q-5 22 -13.5 36t-19.5 23t-25 17 t-28 18l-81 -14l73 44q3 24 6.5 47t1.5 47l-4 2q-5 1 -11.5 3t-13.5 3.5t-11 3.5q-42 11 -85 25q-53 19 -95 52t-76 78q-42 54 -69 117.5t-45 129.5q-6 22 -12.5 49t-12 54t-10.5 54t-7 51zM572 -402h1h1h-2z" />
<glyph unicode="&#xc8;" horiz-adv-x="1266" d="M-76 -19l194 101h9q24 24 47 49t47 49l-1 6q-3 14 -2 27.5t1 27.5v769q0 16 1.5 31.5t-2.5 30.5q-2 8 -9 16t-16 16l-18 16q-9 6 -15 12q-16 15 -31 32.5t-31 32.5t-34 27.5t-40 19.5q-12 4 -25 5t-25.5 1h-25.5l-24 4l215 100l11 -1q26 0 53 -1.5t53 -9.5 q20 -6 36.5 -16.5t32 -24t29.5 -27.5t28 -29q18 12 35 21.5t35 17.5t37 15t41 16q30 12 63 18t65 7h43h4.5h4.5h3h9h2l2 -1q48 0 95 0.5t95 -1.5q12 -1 20 -1.5t14.5 -0.5t13.5 -1t17 -3l21 -2q2 0 7 -1l5 -1q7 0 12.5 -1.5t12.5 -2.5q10 -2 22.5 -4t24.5 -6t23 -10t17 -15 q5 -6 8.5 -14t5 -16t2.5 -16.5t3 -16.5q6 -22 9.5 -44.5t7.5 -45.5t8 -45.5t9 -44.5q-61 -21 -122 -42.5t-122 -42.5q-7 28 -12 56t-9 56.5t-9 56.5t-13 55q-5 13 -16 20.5t-24.5 11.5t-27.5 6q-15 3 -27 5h-5h-6q-6 0 -11 1.5t-9 2.5q-10 1 -17 1.5t-14 1.5t-15 1t-20 2 q-40 2 -79 1.5t-77 -0.5q-2 0 -5 -0.5t-5 -0.5l-36 -40t-37 -40q5 -16 3.5 -32t-1.5 -32v-342h311q4 26 7 52t7 52l244 84q-5 -35 -9 -70t-11 -70q-2 -7 -4.5 -13.5t-5 -13.5t-4.5 -13t-2 -14t2 -15t4.5 -15t5 -15t4.5 -15q6 -32 10 -64t10 -65l-122 -42q-60 -21 -122 -43 q-5 32 -9.5 65t-10.5 65q-2 13 -8 24q-6 12 -8 26h-289v-326q0 -8 -0.5 -16.5l-1 -17t0.5 -16.5t5 -15q5 -10 12 -18.5t15.5 -16l17 -15t16.5 -15.5q20 -20 39 -40t43 -34q20 -12 46 -19.5t53 -11t55 -3.5h50q24 1 49 4t49 3l3 1h3h4h5q2 0 4.5 0.5t4.5 0.5q4 13 6 27t6 26 q13 50 24 99t20 99q62 22 122.5 42.5t121.5 41.5q-2 -14 -4 -22t-3 -17t-4 -20t-7 -29l-4 -22q-4 -12 -6 -22q-2 -11 -5 -22.5t-5 -21.5q-6 -25 -12 -50.5t-14 -50.5q-2 -8 -6 -17q-4 -8 -11 -14q-16 -14 -33.5 -25.5t-36.5 -21t-38 -17.5t-39 -16q-18 -8 -37 -13.5 t-39 -10.5q-44 -10 -88 -15t-90 -8l-6 -1h-5h-7h-4h-4q-3 -1 -2.5 -1t-3.5 0q-16 -3 -34 -3.5t-34 -1.5q-34 -2 -68 -3t-67 3q-18 2 -37.5 4t-38.5 6t-37 10t-34 16q-22 12 -39 30t-34 35q-33 -27 -73 -43q-46 -20 -90 -35t-92 -25q-30 -6 -60 -6.5t-60 -0.5zM210 85 q2 0 3 0.5t-1 0.5zM218 1582l232 98q102 -42 202.5 -85t202.5 -85l-231 -98q-102 43 -203 85.5t-203 84.5zM770 1232l1 -1z" />
<glyph unicode="&#xc9;" horiz-adv-x="1302" d="M0 -2l194 101h10q24 24 46 49q22 26 46 50v6q-2 14 -1 28t1 28v769v21v20v7t-1 7l-1 6l-1 2q-7 12 -17 22q-17 18 -34.5 34t-34.5 33q-13 14 -26 27.5t-28 25t-31 20.5q-18 8 -36 12q-22 4 -43 4q-21 -2 -43 2l216 101q3 0 8 -0.5t10.5 -1t10.5 -0.5h5h2h9q5 -1 9 -1 q21 -1 41.5 -4.5t40.5 -13.5q16 -8 29.5 -18t26 -22l25 -24t24.5 -24q35 24 76 43t85 31t88.5 17t86.5 3h143q72 0 143 -10q12 0 29.5 -3t36 -8t34.5 -13t24 -17q6 -6 8.5 -13.5t4.5 -16t3 -17t3 -16.5q6 -22 9.5 -44.5l7 -45t7.5 -44.5q4 -24 10 -46l-122 -42 q-60 -20 -122 -42q-7 28 -12 56t-9.5 56t-9.5 56t-13 55q-6 14 -17 21.5t-25 11.5t-29 6t-27 4q-30 4 -59 6t-57 3t-57 1.5t-60 0.5h-27q-18 -20 -36 -40.5t-36 -40.5q5 -14 3.5 -31t-1.5 -31v-344h310q4 26 7 52t7 52l244 84q-5 -36 -9.5 -71t-10.5 -69q-1 -7 -4 -13.5 t-5.5 -13.5t-4.5 -13t-2 -14t2 -15t5 -15t5 -15t4 -15q6 -32 10.5 -64t9.5 -65q-61 -21 -121.5 -42t-122.5 -43q-5 32 -9.5 65t-10.5 65q-2 13 -7 24.5t-8 25.5h-289v-326q0 -14 -2 -28q0 -14 2 -28q2 -10 11.5 -22t22 -24t24.5 -23t20 -19t16 -17t17 -17.5t19 -15.5 q8 -8 18 -12q37 -16 74 -22.5t74 -8t74 0.5q38 4 77 6l25 1q4 14 7 27.5t5 25.5q13 50 24.5 99t19.5 99q62 22 123 42.5t121 41.5q-10 -56 -23 -111t-27 -111q-5 -21 -9.5 -42t-16.5 -39q-8 -11 -24.5 -23t-36 -22t-37.5 -18q-19 -10 -31 -14q-9 -3 -21 -7.5t-25 -8.5 t-26.5 -8.5t-25.5 -7.5q-44 -10 -88.5 -15t-90.5 -8l-6 -1h-5q-6 -1 -12.5 -0.5t-12.5 -0.5q-59 -6 -117.5 -7.5t-116.5 6.5q-31 4 -63 12t-58 26q-18 12 -33 28t-30 31q-26 -20 -59 -37t-68.5 -31t-71.5 -23q-37 -10 -69 -14q-28 -4 -54.5 -5t-53.5 -1zM490 1502 q101 41 200.5 81.5t200.5 81.5q14 -8 28.5 -16.5t28.5 -16.5l-401 -164z" />
<glyph unicode="&#xca;" horiz-adv-x="1241" d="M-64 -4l194 100h10q24 24 46 50q23 26 47 50q0 1 -1 2v2q-3 14 -2 28t1 28v769q0 16 1.5 31.5t-2.5 30.5q-2 8 -9.5 16.5t-16 16t-17.5 15t-15 13.5q-17 16 -33.5 34t-34 34t-37.5 29q-21 13 -45 17q-22 4 -44 3t-42 3l215 101l11 -1q28 0 53 -2t47.5 -8.5t44 -19 t42.5 -32.5q12 -12 22.5 -23t20.5 -23q34 24 72 39.5t78 30.5q30 12 63 18t65 7h43h4.5t4.5 -0.5t3 -0.5h9h2h2q48 0 95 1t95 -2q12 -1 20 -1t14.5 -1t13.5 -1q6 0 17 -2l22 -4h7l4 -1q7 0 13 -1q7 -2 13 -3q10 -2 22 -4.5t24 -6.5t23 -10t17 -14q10 -13 13 -29.5t6 -32.5 q9 -46 16 -91t17 -91q-61 -21 -121.5 -41.5t-122.5 -42.5q-6 26 -10 51t-8 51q-2 20 -6 39q-2 19 -8 39q-2 8 -3 15.5t-3 15.5t-5 15.5t-9 12.5q-8 8 -18 12.5t-21 7t-23 4t-22 3.5h-4t-5 2q-6 0 -12 1q-5 1 -11 2q-10 2 -17 2.5l-14 1t-15 1t-20 0.5q-40 2 -79 2h-77 l-11 -2q-18 -20 -35.5 -40t-36.5 -38q5 -16 3 -32q-1 -16 -1 -32v-343h311q4 26 6.5 51.5t6.5 51.5l244 85q-5 -35 -9 -70t-10 -70q-1 -7 -4 -13.5t-5.5 -13t-4.5 -13.5t-2 -13q0 -8 2 -16t5 -15t5 -15t4 -15q6 -32 10 -64.5t9 -64.5l-122 -42q-61 -20 -122 -42 q-4 32 -8.5 64t-10.5 64q-2 13 -8 26q-6 12 -8 24h-289v-326q0 -16 -1.5 -33t5.5 -31q10 -18 23.5 -30.5t28.5 -25.5q11 -10 21 -21.5t21 -23t22.5 -21.5t24.5 -17q21 -12 45.5 -18.5t48.5 -10.5q36 -6 72 -6q36 2 73 4q6 0 14.5 1t17.5 1.5l18 1t15 0.5q3 1 2.5 0.5 t3.5 -0.5q2 0 4 0.5t4 0.5q5 1 9 1q2 8 3.5 16t3.5 17q16 54 27 108.5t23 108.5q62 22 122.5 43t121.5 42q-2 -9 -5 -24.5t-6.5 -32t-6.5 -30.5q-2 -14 -4 -21q-2 -11 -5 -22t-5 -21l-2 -9q-3 -9 -6 -20t-6 -23l-5 -20q-4 -20 -9 -42q-6 -22 -18 -39q-6 -8 -15 -15.5 t-19.5 -14.5t-21 -13t-20.5 -9q-18 -8 -37 -16t-37 -16t-37.5 -13.5t-38.5 -10.5q-44 -10 -88 -15q-44 -6 -90 -8q-6 -1 -6 -0.5t-6 0.5q-2 0 -6 -1q-2 0 -4 -0.5t-4 -0.5q-3 -1 -3 -0.5t-4 0.5q-16 -3 -33.5 -3.5t-34.5 -1.5q-34 -2 -67.5 -2.5t-67.5 1.5q-20 2 -40 4.5 t-40 7t-39 12.5q-19 6 -35 18q-19 13 -34.5 28.5t-30.5 31.5q-26 -20 -57.5 -36t-64.5 -29t-67 -23t-67 -16q-30 -6 -59.5 -6h-59.5zM220 100h4q2 1 0 1zM242.5 1488q3.5 2 9.5 4q-2 0 -0.5 1t4.5 2.5t6.5 3.5t7.5 4q14 8 27 16.5t25 16.5q46 30 92 55q48 25 98 45 q28 11 57 21t59.5 17t61.5 10q30 4 60 0q38 -4 78 -22t78 -40.5t75 -47t69 -44.5q-60 -24 -120 -46t-120 -46q-30 18 -64 40.5t-69 43.5t-71 37.5t-72 22.5l-20 -14q-42 -27 -84 -51.5t-88 -43.5l-57 33q-7 -4 -14 -7t-15 -5l-13 -6q-4 -2 -0.5 0zM783 1246h1h-1zM1047 120 q2 0 1 1z" />
<glyph unicode="&#xcb;" horiz-adv-x="1241" d="M-65 -14h60q29 0 59 6q33 6 67 16t67 23t64 29t58 36q16 -16 31.5 -32t34.5 -28q16 -10 35 -17.5t39 -12t40 -7.5t40 -5q34 -3 67 -2.5t67 3.5q16 1 34 1.5t34 3.5h4h3h4.5t4.5 1q4 1 6 1q5 0 5.5 -0.5t5.5 0.5q46 2 90 7q45 5 89 16q19 5 37.5 11t37.5 13 q20 8 39.5 16.5t38 17.5t36 20t33.5 25q8 7 13 18.5t8 24t5 25t5 22.5q14 55 26.5 109.5t24.5 109.5l-122 -42q-60 -21 -122 -43q-12 -56 -25 -110l-26 -108q-2 -8 -3.5 -16t-3.5 -16q-4 0 -8 -1h-4q-2 -1 -4 -1q-4 0 -4 0.5t-3 -0.5q-24 0 -48.5 -3t-48.5 -3q-52 -2 -103 4 t-99 27q-12 5 -23.5 14t-22 20t-20.5 22t-20 21q-8 8 -16 15t-16 14.5t-15 16t-13 18.5q-7 15 -5.5 31.5t1.5 32.5v326h290q2 -13 8 -24.5t8 -25.5q6 -32 10 -64l8 -64q62 22 123 42.5t121 41.5q-4 32 -8 64.5t-10 64.5q-2 8 -4.5 15.5t-5.5 14.5t-5.5 15t-2.5 16 q0 7 2 13.5t5 13l6 13t4 13.5q7 35 11 70l8 70l-244 -85q-4 -26 -6.5 -51.5t-6.5 -51.5h-311v343q0 16 1.5 32t-3.5 32q19 19 36 39q18 19 37 39l10 2h78t79 -2q12 -1 20 -1t14.5 -0.5t13 -1.5t17.5 -2q6 -1 11.5 -2t10.5 -1h1q2 -1 5 -1.5t6 -0.5q12 -2 25.5 -4t26.5 -6 t24 -12t16 -20q8 -28 12.5 -56t9.5 -56t9.5 -56t11.5 -56q62 22 122.5 43t121.5 41q-6 22 -10 45t-7 46t-7 45q-4 24 -10 46q-2 8 -3 17t-3 18t-6 17t-10 14q-13 12 -30.5 18.5t-36.5 10.5t-38 6.5t-37 4.5q-22 2 -43 3.5t-44 2.5q-33 1 -66 0.5t-65 -0.5h-15h-15h-4h-2 h-4.5h-6.5h-5q-42 2 -86 -3t-86 -17t-82 -30q-41 -20 -76 -44q-14 14 -28 29t-29 28t-32 23.5t-37 16.5q-26 8 -52 9.5t-52 1.5l-12 1l-215 -101q12 -2 24.5 -2h25.5t25.5 -1.5t24.5 -5.5q22 -7 40 -19.5t34.5 -28t31.5 -32.5t31 -31q6 -6 14.5 -13t17 -15t15.5 -16.5 t9 -16.5q4 -15 3 -31t-1 -31v-769q0 -14 -1.5 -28t2.5 -28l1 -4q-24 -24 -46 -50t-47 -50h-10zM184 1552q0 65 46 112.5t122 47.5q53 0 90.5 -22t55.5 -59t18 -79q0 -62 -43 -106.5t-121 -44.5q-75 0 -122 46q-46 45 -46 105zM220 90l4 1q2 0 0 -1h-4zM684 1552q0 66 44 113 t120 47q53 0 90 -22t55.5 -59t18.5 -79q0 -62 -43 -106.5t-121 -44.5q-75 0 -119.5 45.5t-44.5 105.5zM782 1236h1h-1z" />
<glyph unicode="&#xcc;" horiz-adv-x="766" d="M-58 1270l216 100q4 0 12 -1t16 -1.5t13 -1t1 -0.5h10h10q20 -1 39 -5t36 -13q32 -16 57 -38t49 -47q38 26 78 43q40 18 84 34q34 12 69 18q14 2 28 4.5t28 3.5q16 2 33 2t33 2q-42 -24 -83.5 -49t-83.5 -49q-2 0 -6.5 -1t-8.5 -1h-4h-1h-1q-24 -24 -44.5 -49t-43.5 -49 v-804q0 -20 -2 -39t2 -39q3 -12 10.5 -22t16.5 -19t19 -17t18 -16q12 -11 25 -25.5t27 -29.5t28 -27t28 -18q22 -10 47 -12t49 -2l-194 -101h-36t-36.5 1.5t-36 6.5t-33.5 13q-14 8 -26.5 18.5t-24 22t-22.5 23.5l-22 24q-16 -12 -34 -22q-19 -10 -37 -18q-21 -10 -41.5 -20 t-43.5 -16q-27 -8 -52.5 -15t-51 -11t-51.5 -5.5t-54 -1.5l193 100q24 24 46.5 49.5t46.5 50.5l-2 5q-4 20 -2 39t2 39v806q-16 16 -31 33t-30 33.5t-31 32.5q-14 16 -32 30q-14 12 -30 21.5t-32 16.5l-12 3q-2 0 -5 1t-7 2l-4 1l-15 1q-16 1 -31 1zM17 1594l231 98 q50 -20 83 -33.5l55 -22.5t36 -15t27 -11t27 -11t36.5 -15.5t56 -23t85.5 -34.5l-232 -98q-52 21 -85 34.5t-56 23t-37 15.5t-27 11t-27 11t-36 15t-54.5 22.5t-82.5 33.5z" />
<glyph unicode="&#xcd;" horiz-adv-x="766" d="M-51 1268l215 101q4 0 13 -1t16.5 -1.5t12.5 -0.5q6 -1 2 -1q4 0 9 -0.5t11 -0.5q20 -1 38 -4q18 -4 36 -13q31 -16 56.5 -37.5t49.5 -47.5q25 17 53.5 32t58.5 27.5t60.5 21.5t59.5 15l28 4t28 3q16 2 32 2q18 0 34 2q-42 -24 -84 -48.5t-84 -49.5q-6 -1 -10 -1 q-4 -2 -10 -2q-23 -24 -44.5 -48t-43.5 -48v-804q0 -20 -2 -40t2 -38q3 -12 10.5 -23t17 -20t20 -17.5t18.5 -16.5q12 -12 24.5 -26t25.5 -27.5t26 -25.5q14 -14 30 -20q22 -10 47 -12t49 -2l-194 -100h-33.5t-35 1.5t-34.5 5t-31 9.5q-16 8 -30 19t-26 23t-24 26t-24 26 q-26 -20 -58 -37t-67 -31t-70.5 -23t-67.5 -13q-26 -4 -51 -5q-24 -1 -50 -1l192 100q24 24 47 50t47 50l-2 5q-4 20 -2 39.5t2 38.5v806q-22 22 -43 46.5t-43 47t-47 42t-54 31.5q-12 5 -25.5 6.5t-27 2.5t-27 1t-26.5 2zM162 1500q100 41 199 81.5t199 80.5q14 -8 29 -16 q15 -10 29 -18l-398 -162z" />
<glyph unicode="&#xce;" horiz-adv-x="848" d="M-6 1270l215 100q3 0 10 -1t14 -1h11q6 -1 4 -1h3q4 0 8.5 -0.5t9.5 -0.5q22 -1 43 -5q20 -5 40 -15q30 -16 54 -37.5t47 -45.5q50 34 106.5 57.5t115.5 36.5q32 7 64.5 8t65.5 5q-42 -24 -83.5 -49t-83.5 -49q-2 0 -6 -1q-6 -1 -10 -1h-2h-1.5h-1.5q-24 -23 -44.5 -48.5 t-43.5 -49.5v-804q0 -20 -2 -39q-1 -19 3 -39q3 -12 10 -22t16.5 -19t19.5 -17t18 -16q12 -12 25 -26.5t27 -29t29 -27.5t30 -19q22 -8 45.5 -10t46.5 -2l-194 -101h-32.5t-33.5 1.5t-33 4.5t-30 9q-16 7 -31 18t-28 23.5t-25 26.5t-24 26q-16 -12 -34 -22t-36 -18 q-21 -10 -42.5 -20t-43.5 -16q-27 -8 -52.5 -15t-51 -11t-51.5 -5.5t-54 -1.5l193 100q24 24 46.5 49.5t46.5 50.5l-1 5q-4 20 -2.5 39t1.5 39v806q-21 22 -41 45t-41 46t-45 42.5t-52 32.5q-13 6 -26.5 8t-28.5 3t-29 1t-28 2zM8 1475l1 1h2zM11 1476l3 2zM14 1478l6 4 l12 6l10 6q16 9 32 19l32 20q92 59 191 101q24 10 53.5 20.5t60.5 18t61.5 12t56.5 1.5q14 -2 33 -7.5t38 -13t36.5 -15.5t29.5 -14q30 -14 58 -31t55 -35q9 -6 20 -12t19 -12q4 -2 7 -4t7 -5q2 -1 4 -3t1 0l-7 2l-230 -97q-26 14 -51.5 31.5t-51.5 32.5q-32 19 -64.5 35 t-66.5 29q-10 4 -21 8q-11 3 -21 7q-20 -12 -40 -25t-40 -25q-28 -18 -57 -33t-60 -29l-95 17l-9 -4.5zM826 1540q-2 1 1 -1z" />
<glyph unicode="&#xcf;" horiz-adv-x="913" d="M-1 -4h59q30 0 60 6q32 6 65.5 15t66 22t63.5 29t57 35l24 -26t24.5 -25t27 -22t30.5 -18t34 -11t37 -4t37 -1h36l194 100q-22 0 -44 1q-20 1 -42 6q-20 5 -37 16t-32 25.5t-29 30t-27 29.5q-9 10 -20 19t-20.5 18.5t-17 20.5t-11.5 25q-4 18 -1 36t3 36v813 q22 22 42.5 47t43.5 47l186 96h-40t-40 -2q-34 -4 -69 -13t-70 -22t-68 -29t-61 -36q-14 14 -29.5 29t-33 29t-36.5 24t-38 14q-31 7 -63 6.5t-63 -0.5l-194 -100h24.5h25.5t25 -1.5t24 -5.5q29 -10 54.5 -29t48.5 -42.5t44 -48.5t43 -46v-815q0 -18 -3 -36t1 -36 q0 -3 1 -5.5t3 -4.5q-23 -24 -45 -48q-21 -24 -45 -48h-11zM8 1572q0 66 45 113t123 47q76 0 120 -47t44 -113q0 -60 -44 -105.5t-120 -45.5q-78 0 -123 45.5t-45 105.5zM284 100l3 1q2 0 0.5 -0.5t-3.5 -0.5zM508 1572q0 66 44.5 113t123.5 47q76 0 120 -46q44 -48 44 -114 q0 -60 -44.5 -105.5t-119.5 -45.5q-78 0 -123 45.5t-45 105.5z" />
<glyph unicode="&#xd0;" horiz-adv-x="1409" d="M109 693q5 77 23 153t52 145q8 18 16 31.5t14 24.5t13 20t14 19t17 22q10 10 22 26q11 14 24 27t26 25q40 36 87 61t95 47q122 54 244 72t254 -3q30 -5 60 -14.5t58 -23t53 -32.5t45 -41q6 -8 10 -17t6 -19t3 -20t3 -19q8 -44 15 -87.5t17 -86.5q-61 -21 -121.5 -42 t-122.5 -43q-11 44 -18 88q-6 42 -14 86q-3 16 -5 32t-10 30q-13 21 -35 36.5t-42 27.5q-32 18 -66 30q-26 9 -52 14.5t-54 7.5q-38 4 -75 5t-75 -7q-34 -20 -64 -52t-55.5 -70t-45 -79t-31.5 -77q-21 -62 -31.5 -127t-11.5 -131.5t8 -132.5q9 -67 27 -129q10 -38 24 -74 t32 -71t41 -67t50 -60q47 -48 106 -78t125 -39q8 -1 16 -1q8 -2 16 -2q14 20 29 41t28 43t23 45t15 45q4 14 4.5 28t0.5 29q0 16 2 33q2 16 -2 31q-12 19 -27 33t-31 28q-15 14 -28.5 30t-28.5 31t-31.5 27t-36.5 20q-16 6 -33.5 8t-35.5 2.5t-35 0t-35 -0.5l194 100 q22 0 44 1t45 0.5t45 -3.5q22 -2 42 -10q18 -6 33.5 -16.5t29 -23t26.5 -25.5t25 -27q34 24 74.5 43.5t83 33t86 20.5t84.5 7l-127 -66q-18 -14 -32.5 -29t-29.5 -31t-29 -32l-28 -32q6 -14 4 -30t-3 -30q-1 -10 -1 -20t-1 -21q-3 -27 -12 -52.5t-21 -49.5q-14 -27 -32 -52 t-36 -51q-18 -24 -37 -48t-45 -40q-42 -26 -84 -42t-88 -32q-27 -9 -57.5 -13.5t-59.5 -4.5q-10 0 -21.5 -0.5t-21.5 0.5q0 -1 -1.5 -1t-4 0.5t-5.5 0.5h-4l-30 2q-15 0 -30 2q-18 2 -36.5 6t-36.5 8q-53 14 -99.5 43t-84.5 69q-28 29 -51 61.5t-41.5 68.5t-33 74t-24.5 76 q-21 74 -29.5 152t-3.5 155zM339 1592l241 93q17 -14 30.5 -31.5t29.5 -31.5t38 -24t45.5 -16.5t47 -10t44.5 -3.5l12 12l7 7l2 3q5 6 10.5 12t11.5 10q24 17 50 30t54 23l18 -49q-2 0 -4 -1l-2 -1l6 2l34 14l23 11l35 19q1 0 -0.5 -1t-3.5 -2t-3 -2l-1 -1q4 4 8.5 8t9.5 7 q-4 -3 -6 -5q-4 -4 -7.5 -9t-7.5 -10q-11 -12 -23 -22.5t-24 -20.5q-39 -32 -85.5 -53t-94.5 -38q-53 -19 -106 -30.5t-105.5 -12.5t-104.5 10.5t-103 40.5q-12 6 -21.5 15.5t-18.5 19.5t-17.5 20t-18.5 18zM604.5 -20.5q-0.5 0.5 0.5 -0.5h1q-1 0 -1.5 0.5zM892 78q2 0 4 1 t0 1zM1082 1669l1 1zM1263 590h1h-1zM1268 592q2 1 2.5 1.5t-0.5 -0.5z" />
<glyph unicode="&#xd1;" horiz-adv-x="1450" d="M-50 -22l155 80q0 14 -1.5 28t-1.5 28v868q0 11 -1 22.5t-1 22.5t2 21.5t9 20.5q14 21 33 37q18 18 36 34q-16 14 -30 31t-30 32t-34 27t-40 16q-20 4 -40 3q-22 -1 -42 -1l194 101q23 0 46.5 0.5t45.5 -1.5t42 -9.5t37 -19t33 -25.5t31 -30q7 -8 14 -16.5t15 -15.5 q17 1 35.5 2.5t36.5 2t35 -2t30 -8.5q12 -6 20 -14t14.5 -17t12.5 -20t12 -21q22 -35 42 -69.5t42 -70.5q60 -102 122 -200t124 -198q13 -21 24.5 -45.5t24 -48t26.5 -46.5q13 -22 31 -40q5 24 5.5 48t-0.5 49t-3 50q-4 25 -4 49q-2 80 -2 160q1 80 5 160q1 18 1 36v34 q-1 11 -2.5 21.5t-1.5 22.5q-1 16 -0.5 31t0.5 31v63q0 4 -1 9q-1 1 -2 3.5t-3 4.5q-2 3 -5 6q-3 4 -5 6q-9 8 -20 12q-10 4 -21 8q-18 6 -37 7.5t-38 1.5t-38 1q-20 0 -38 2l216 101q24 -4 51 -4t53 -1.5t51 -6.5t46 -18q42 13 85.5 19.5t85.5 6.5l-136 -71q2 -8 2 -18v-19 t-1 -17t-1 -12v-31v-31q0 -11 1 -21.5t3 -21.5q1 -18 0.5 -35.5t-1.5 -35.5q-4 -80 -4 -160q-1 -80 1 -160q0 -21 2 -41.5t3.5 -41.5t2 -42t-1.5 -41t-6 -41t-16 -37q-14 -20 -35 -37t-41 -33q-8 -8 -15 -16t-13 -18q0 -6 3 -21t7 -33t7 -33t5 -19l14 -64 q-61 -21 -121.5 -41.5t-122.5 -42.5q-14 52 -24 105q-1 4 -1.5 8.5t-1.5 8.5q0 1 -1 3.5t-1.5 5t-0.5 3t0 -1.5q-2 4 -2 8q-2 7 -3.5 14.5t-0.5 15.5l-6 -3q-13 6 -26.5 10.5t-26.5 10.5t-25 13t-23 17q-21 20 -36.5 43t-29 48t-25.5 51q-14 26 -28 49q-58 94 -115 186.5 t-115 186.5l-16 26q-6 13 -14 26l-34 57l-34 57l-16 28t-18 25v-1q0 -12 1 -24t1 -23v-869q0 -10 1 -20t1 -19.5t-0.5 -19t-3.5 -18.5q48 -24 96 -33t102 -9l-194 -101q-53 0 -101.5 5t-95.5 23q-10 -4 -21 -6q-11 -4 -22 -6q-40 -8 -78 -12q-40 -4 -80 -4zM92 32 q-2 -1 1 0.5l5 2.5zM246 1433q18 34 39 58.5t46 43.5t55 34t64 31q34 15 69.5 26t72 17t73.5 6q37 -1 73 -7q25 -4 49.5 -10.5t49 -13.5t49 -13.5t48.5 -12.5q2 -1 5 -1q3 -1 5 -1q6 8 11 18q5 8 11 18l240 74l-18 -32q-10 -16 -22 -30q-18 -22 -41 -38t-47.5 -30t-50.5 -25 t-51 -21q-40 -16 -77.5 -25t-74 -12t-74.5 1t-80 14q-40 10 -78 22t-79 19q-3 0 -5 1q-12 -18 -22 -37q-60 -18 -120 -36.5t-120 -37.5zM941 240l1 -3q0 -1 0 0.5t-1 2.5zM1196 1247h2h-2zM1296 1285q4 2 2 1z" />
<glyph unicode="&#xd2;" horiz-adv-x="1470" d="M136 586q-4 50 1.5 98t14.5 96q10 56 26 113t40 110t56 101t75 88q36 34 78 59t87.5 44.5t93 33.5t94.5 25l-51 -44l83 49q32 4 65 5.5t66 -1.5t65 -10q34 -7 64 -21q48 -22 85 -53t65 -70t50 -83t37 -91t27 -95t20 -96q6 -30 11 -60t6 -62q2 -44 -4.5 -88t-14.5 -88 q-11 -56 -27.5 -112.5t-39.5 -110t-55 -101.5t-74 -88q-36 -34 -81 -61t-94.5 -47t-100.5 -34q-52 -14 -98 -23q-34 -6 -71 -7.5t-75 1.5t-74 12t-67 25q-30 14 -56.5 35t-48.5 46q-36 40 -63 88.5t-46.5 102t-32.5 108t-21 106.5q-4 25 -8.5 49.5t-6.5 50.5zM327 1574 l231 98q102 -44 204 -85t206 -83l-232 -98q-104 41 -205.5 82.5t-203.5 85.5zM378 712q0 -36 6 -71t11 -70q10 -67 27.5 -133t46.5 -128q18 -38 40.5 -75t51.5 -67.5t64 -54t77 -35.5q28 -8 57.5 -12t59.5 -4l21 2l4 4q4 2 6 4q25 22 44.5 48t36.5 54q23 39 41 81.5 t31.5 87.5t23 90t15.5 91q4 28 7 57t2 57q-1 24 -5 48l-8 48q-6 35 -12 69q-8 35 -16 69q-13 52 -31 101.5t-45 95.5q-60 100 -146 150.5t-198 43.5q-13 -10 -23 -20.5t-23 -25.5q-40 -48 -68 -103.5t-46 -113.5q-22 -69 -36 -142t-16 -146zM628 1284q2 0 3 1t2 1h-1z" />
<glyph unicode="&#xd3;" horiz-adv-x="1470" d="M127 647q1 31 5 63t10.5 63t13.5 62q12 50 28 98.5t38 94.5t52 87.5t67 76.5q36 34 78 59t87.5 44.5t93 33.5t94.5 25l-51 -44l83 49q32 4 65 5.5t66.5 -1.5t66 -10t62.5 -21q47 -22 83.5 -53t65.5 -69t50 -81t37 -89.5t27 -94t19 -94.5q6 -32 12 -63.5t7 -63.5 q2 -44 -4 -89q-7 -45 -15 -89q-11 -56 -26.5 -112t-39.5 -109.5t-56 -102t-74 -88.5q-36 -34 -81 -61t-94 -47t-100 -34t-98 -23q-45 -8 -93 -8.5t-94 8.5t-89 27t-79 48q-42 36 -73 81.5t-54 96t-38 104.5t-25 106q-8 38 -15.5 76t-10.5 76q-2 32 -1 63zM370 712 q0 -33 4.5 -66.5t11.5 -65.5q4 -16 6 -33q4 -17 6 -31q11 -54 25.5 -105t37.5 -101q18 -38 40.5 -75t51.5 -67.5t64 -54t77 -35.5q28 -8 58 -12t60 -4l20 2q19 14 35 32q15 18 29 36q28 39 49.5 83t38 90t27.5 93.5t19 93.5q6 36 10 73t3 75q-2 45 -10.5 89.5t-17.5 88.5 q-13 65 -34 129t-55 122q-60 100 -146 150.5t-198 43.5q-13 -10 -22.5 -20t-23.5 -26q-40 -48 -68 -103q-28 -54 -46 -114q-22 -70 -36 -142t-16 -146zM552 1475l404 171l58 -34l-404 -170q-14 8 -29 16t-29 17zM619 1284q4 2 5.5 2.5t-0.5 -0.5z" />
<glyph unicode="&#xd4;" horiz-adv-x="1470" d="M140 588q-6 56 1.5 111t19.5 109q12 53 28 105.5t38.5 101.5t53.5 94t71 83q36 34 78 59t88 44.5t93.5 33.5t94.5 25l-52 -44l84 49q32 4 65 5.5t66 -1.5t65.5 -10t62.5 -21q47 -22 84 -53t65.5 -69t50 -81t36.5 -89t27 -94t20 -95q6 -32 12 -63.5t7 -63.5 q2 -44 -4.5 -89t-14.5 -89q-11 -56 -27.5 -112t-39.5 -109.5t-55 -102t-74 -88.5q-18 -18 -39 -32.5t-44 -27.5q-68 -39 -140.5 -65.5t-149.5 -39.5q-34 -6 -69 -7.5t-69 1.5q-39 3 -77 11.5t-74 25.5q-55 27 -95.5 71.5t-70.5 96.5q-22 38 -38 79t-29 83.5t-22 85.5t-15 86 q-4 22 -7 43t-5 43zM314 1454q33 18 64.5 39t63.5 40q56 32 116 59q60 26 122 42q1 0 2 1t2 1t2 1q20 7 41 13t43 10t44 5t43 -3q42 -6 79.5 -23t73.5 -38.5t71 -45.5q35 -25 69 -45q-60 -24 -120 -46t-120 -46q-44 26 -86.5 55t-88.5 53q-24 12 -50.5 23t-53.5 13 q-40 -21 -76.5 -45.5t-76.5 -46.5zM382 726q-1 -36 3.5 -70t10.5 -70q11 -72 28 -142q18 -68 48 -134q18 -39 41 -75.5t52 -67t64 -53.5q35 -24 77 -36q34 -10 68 -13t70 -1q2 2 5 4t5 4q24 22 44 48t37 54q23 40 41 82.5t31 87t23 89.5t16 91q4 28 7 57t2 59q-1 32 -7 64 q-6 30 -12 62q-8 40 -16.5 79t-20 77t-26.5 75t-35 72q-59 100 -145.5 150.5t-198.5 43.5q-13 -10 -23.5 -20.5t-22.5 -25.5q-40 -48 -68 -103.5t-46 -113.5q-21 -66 -35.5 -135.5t-16.5 -138.5zM630 1284q4 2 6 2.5t0 -0.5z" />
<glyph unicode="&#xd5;" horiz-adv-x="1470" d="M120.5 647q0.5 27 4 54.5t8.5 54.5t11 53q12 53 28 106t39 102t53 94t72 83q36 34 78 59t87 45t93 34t95 24l-51 -44l82 50q32 4 66 5t67 -1.5t65 -10t62 -21.5q48 -22 85 -53t65.5 -69t49.5 -82t36.5 -90t26.5 -94.5t20 -95.5q6 -34 12.5 -67t6.5 -68q0 -58 -9 -115.5 t-24 -112.5q-12 -50 -28.5 -97.5t-37.5 -91.5t-50 -85t-66 -77q-34 -32 -80 -59.5t-96.5 -48t-101.5 -35.5t-95 -23q-34 -6 -69 -7t-69 3q-39 3 -77.5 11.5t-72.5 24.5t-62 40t-52 52t-43 60t-34 65q-30 68 -49 139q-18 70 -30 143q-4 24 -8 46.5t-6 45.5q-2 27 -1.5 54z M216 1432q14 20 30 39.5t33 36.5q22 22 48.5 39.5t55 32t58 25.5t59.5 21q46 14 93 22t95 4q24 -2 46 -7.5t44 -13t44 -15.5t44 -15q25 -7 50 -13l4 4q6 8 10 17t10 16l240 74q-11 -14 -19.5 -30t-20.5 -30q-7 -8 -10 -11t-8 -7l-3 -3t-3 -2l-16 -14q-10 -8 -24 -16 q-12 -8 -24 -14q-18 -10 -39.5 -19.5t-44 -18t-44.5 -15.5t-42 -11q-16 -5 -35 -10.5t-37.5 -9t-37 -5t-36.5 -1.5q-40 2 -77 14t-75 24q-23 8 -46.5 17t-47.5 13q-9 -10 -18 -22q-8 -12 -16 -22l-120 -36t-120 -38zM364 728q-1 -36 4.5 -71t11.5 -71q12 -70 29 -140 q17 -68 47 -134q18 -38 41 -75t51.5 -67t63.5 -53.5t77 -35.5q34 -10 68 -13q35 -4 69 -3q3 2 5.5 4.5t5.5 4.5q25 22 44.5 48t36.5 54q23 40 41 83t31.5 87t23.5 90q10 45 16 90q4 26 6 52t2 52q0 22 -3 46t-7 49t-9 49.5t-10 46.5q-13 65 -33.5 129t-54.5 122 q-60 100 -146.5 150t-197.5 44q-13 -10 -23 -21q-12 -11 -24 -25q-40 -48 -67 -104t-46 -115q-21 -66 -35 -135q-16 -68 -18 -138zM614 1286q4 2 5.5 2.5t-0.5 -0.5zM801 50l4 1zM1104 1606l2 2z" />
<glyph unicode="&#xd6;" horiz-adv-x="1470" d="M125.5 709.5q-8.5 -68.5 0.5 -138.5q6 -50 15.5 -100.5t23 -100.5t31.5 -98t44 -92q29 -52 70.5 -97t95.5 -72q35 -17 73.5 -25.5t76.5 -11.5q34 -3 70 -2q34 2 68 8q44 8 95 22.5t102 35t97 47.5t80 60q38 36 66 77t49.5 85.5t37.5 92.5q17 46 29 96q15 59 24 120 q10 62 8 122q-1 31 -7 60q-5 30 -11 61q-8 46 -19 94.5t-27 95t-38 90.5t-50.5 82.5t-65.5 69.5q-38 31 -84 53q-30 14 -62 21t-65 9t-66.5 1t-65.5 -5l-144 -84l-5 -2l118 81q-47 -10 -95 -24.5t-93.5 -33.5t-87.5 -45q-42 -24 -78 -58q-38 -36 -67 -78t-51 -87.5 t-38.5 -94t-28.5 -98.5q-17 -68 -25.5 -136.5zM295 1552q0 66 45 113t123 47q76 0 119 -46q44 -48 44 -114q0 -60 -44 -105.5t-119 -45.5q-78 0 -123 45.5t-45 105.5zM365 737q2 69 17 139q14 68 35 134q20 59 46.5 114.5t67.5 103.5q12 14 22.5 25t23.5 21q21 1 42 0t43 -3 q43 -6 82 -23.5t73 -44.5q48 -38 82.5 -88t57.5 -106.5t38 -116.5t25 -118l12 -60t6 -61q1 -30 -1.5 -59.5t-6.5 -58.5q-6 -45 -16 -90t-23 -90t-31 -87t-42 -82q-17 -28 -36.5 -54t-43.5 -48q-2 -2 -6 -4q-3 -4 -6 -6q-34 -2 -68 2t-68 14q-42 12 -77.5 35t-64 53.5 t-51.5 67t-41 74.5q-30 66 -48 136q-16 70 -28 141q-6 35 -11 69.5t-4 70.5zM794 1552q0 66 43 113t121 47q76 0 120 -47t44 -113q0 -60 -44 -105.5t-120 -45.5q-77 0 -120.5 45.5t-43.5 105.5zM802 60h4h-4z" />
<glyph unicode="&#xd7;" horiz-adv-x="2027" d="M92 678q4 58 14 114q10 47 25 94.5t36 91.5t49 84t62 75q39 39 86 67q48 30 98 52q86 38 174 61t182 31q38 3 76 5.5t75 0.5t73 -13t69 -35q14 -10 27 -22l24 -24q46 30 98 50t104 32q28 6 54 8q28 2 56 2h32h2.5t-0.5 0h29h100.5t100.5 -5q18 -2 41 -4.5t46 -7t44 -12 t34 -19.5q6 -6 8.5 -13.5t4.5 -14.5q2 -8 3 -18t4 -18q4 -14 7.5 -29t5.5 -29q1 -6 2.5 -13.5t3.5 -16t3 -17.5t3 -15q2 -16 3.5 -31t2.5 -31q-61 -21 -121.5 -42.5t-122.5 -42.5q-2 32 -7 62.5t-11 61.5q-2 10 -4 19.5t-4 19.5q-1 3 -1.5 5.5t-0.5 5.5l-2 5v2l-1 2 q0 2 -0.5 4.5t-0.5 3.5q-1 8 -2.5 16t-4.5 16q-4 10 -12 17t-17.5 11t-20.5 7t-21 5l-16 2q-8 0 -16 2q-12 0 -23 3t-23 3q-44 4 -89 5h-90q-2 0 -12.5 -0.5t-20.5 -0.5l-36 -40l-36 -38q0 -102 1 -204l2 -204h311q4 26 7 52t7 52l244 84q-6 -36 -8.5 -58.5t-4 -36.5 t-3.5 -23t-5 -18.5t-8 -23.5t-15 -38q-6 -2 -11.5 -5t-11.5 -5l29 10q10 -46 19 -92t19 -93q-61 -21 -121.5 -42t-122.5 -43l-38 182q-14 -2 -26 -2h-26h-30h-35h-169v-26v-262q0 -22 3 -44t-2 -42q-2 -10 -7 -22q1 1 2.5 1t3.5 1q17 -17 32.5 -34.5t31.5 -34.5t34 -33 q16 -16 36 -30q21 -15 51.5 -22.5t62.5 -11.5t64.5 -4t57.5 2q26 2 52.5 3t53.5 3q2 8 3 16t4 15q12 36 20 73.5t15 74.5q4 20 7 40.5t8 38.5l244 85q-5 -20 -8 -40q-3 -19 -7 -39q-7 -38 -15.5 -75t-19.5 -73q-3 -10 -5 -21t-5 -22t-7 -21q-4 -12 -10 -20q-14 -17 -36 -30 q-21 -14 -41 -22q-50 -22 -100.5 -40t-105.5 -28q-22 -4 -44 -6t-44 -3q-10 -1 -19 -1t-18 -1q-3 0 -9 -1h-5l-17 -1q-2 -1 -4 -1h-11h-4h2h-2h-2q-8 -1 -16 -1.5t-16 -1.5q-34 -2 -67 -3.5t-65 0.5q-22 1 -46.5 3.5t-48 7.5t-45.5 13t-42 21t-36 28t-32 32q-8 -5 -16 -9 q-6 -4 -14 -8q-22 -12 -46 -21.5t-48 -19.5q-32 -13 -66 -22t-68 -14q-46 -7 -92 -7t-92 2t-93 9t-90 21t-83 37t-76 55q-43 40 -75.5 89.5t-56.5 105t-38 115t-19.5 120t-2.5 120.5zM335 692q2 -48 10 -100.5t23.5 -104t38.5 -101.5t54 -93.5t70 -79t86 -57.5 q30 -14 61.5 -24t64 -15.5t65.5 -8t66 -3.5q12 0 23 -0.5t23 -0.5q11 10 22 20.5t21 21.5t18.5 22.5t12.5 23.5q5 12 6.5 24t0.5 25t-2 25.5t-1 24.5v262q0 134 -2 267.5t-2 269.5q-24 24 -45.5 48.5t-45 46t-50.5 38.5t-63 27q-24 6 -52 5t-52 -3l-20 -2q-5 0 -9.5 -0.5 t-8.5 -0.5l-2 -1q-6 0 -10.5 -0.5t-9.5 -0.5q-18 -2 -34 -4.5t-34 -4.5q-28 -15 -50 -38.5t-40 -47.5q-27 -36 -48.5 -76.5t-37 -83.5t-26 -87.5t-15.5 -88.5q-4 -34 -5.5 -62t-0.5 -62zM1550 1243v1v-1zM1816 118h2h-2z" />
<glyph unicode="&#xd8;" horiz-adv-x="1470" d="M110 -66q18 32 29 52t18.5 33t14 22t15.5 19t23 24t37 36q0 28 -2 56q-3 28 -17 52q-4 8 -9.5 11.5l-11 7t-11.5 9.5t-10 19q-16 44 -30 92.5t-23 98.5t-13 100t2 98q2 19 5 38l6 38q8 58 22 117t35.5 115t51.5 107t72 95q30 32 66 56q37 22 76 42q85 44 175 65t185 20 q35 0 69 -3t68 -13q22 -7 45.5 -18t45.5 -25l228 70q-6 -10 -11 -21.5t-9 -23t-9 -22.5t-11 -21q-8 -12 -20 -23.5t-23 -24t-19 -25.5q-6 -13 -8 -29q-2 -25 3.5 -41t15 -29.5t21.5 -26.5t22 -32q6 -11 11 -24.5t10 -28t8.5 -28.5l6.5 -26q16 -58 25 -118t9 -120 q0 -32 -4.5 -64.5t-11.5 -62.5q-4 -16 -6 -33.5t-6 -32.5q-8 -42 -20 -81.5t-26 -79.5q-12 -34 -29 -70t-40 -68.5t-50 -61t-57 -50.5q-56 -38 -123 -68t-138 -48t-144 -23t-141 8q-39 7 -72 21q-34 14 -66 34l-9 -16l-120 -36q-61 -19 -121 -38zM363 716q-2 -74 11 -148 q14 -74 34 -144q4 -13 7 -21.5t6 -16.5q23 28 41 60q20 34 40 64q30 44 58 89t57 90t59.5 89t63.5 86q18 24 33 38t31.5 24t37 19.5t48.5 22.5q1 0 3.5 1t4.5 2l2 3l20 20q8 10 18 20q-12 18 -17 38.5t-3 41.5q0 8 2 15t5 13l-9 -3q-24 22 -52 44.5t-60 41.5t-65 32t-67 17 q-24 2 -47 2.5t-47 -0.5h-6h-6q-16 -13 -30 -29.5t-26 -32.5q-24 -32 -43 -68t-33.5 -74t-25 -77t-18.5 -79q-4 -21 -9 -44t-9 -46.5t-6 -46.5t-3 -43zM468 322q2 -2 4 -6q2 -2 4 -6q12 -24 13.5 -50.5t1.5 -53.5h4.5h4.5q10 0 10 -4t-6 -10q26 -24 53.5 -45t57.5 -38 t62.5 -28t68.5 -16q24 -3 48.5 -3t48.5 2q26 22 46.5 47t38.5 53q22 38 39 78t30 82t22 84.5t15 85.5q6 32 11 63t5 63q0 70 -12 137t-32 133l-8 28t-10 28q-28 -34 -53.5 -69t-50 -71.5t-47.5 -73.5t-47 -74l-60 -92q-13 -20 -24.5 -41t-25.5 -41q-16 -23 -31.5 -39.5 t-33 -29.5t-37.5 -23t-46 -22l-30 -14q-8 -8 -16 -17q-10 -9 -18 -17zM602 1280l6 2zM873.5 951.5l1.5 1.5t3 2t3 2h1l-8 -5q-1 -1 -0.5 -0.5z" />
<glyph unicode="&#xd9;" horiz-adv-x="1552" d="M-76 1258l215 101q8 -1 15 -1q8 -2 14 -2h4h4h3t-1 0h4q20 0 39 -2t39 -8t36 -16t31 -23t29 -27.5t28 -28.5q60 42 130 67t142 35q22 3 43 3t43 3q-42 -24 -83.5 -48.5t-83.5 -49.5q-2 0 -6.5 -0.5t-8.5 -1.5h-4q-2 -1 -5 -1q-22 -23 -43 -48l-44 -48l2 -2q4 -16 2.5 -32 t-1.5 -32v-151q0 -54 -0.5 -108.5t-0.5 -108.5q0 -52 3 -104t9 -104q5 -40 13.5 -85t21.5 -88t32 -84t46 -75t61 -60q36 -26 80 -40q34 -10 68 -13.5t68 -2.5q9 9 18.5 17.5t17.5 18.5q28 34 48 74t34 84t22 90t13 93t7 92t2 88q1 91 0 181v180q0 8 1 20t2 25t0 24t-4 17 q-11 18 -26 31t-29 28q-18 19 -36 39t-38 37q-10 9 -21 17t-23 14q-3 2 -9.5 4t-10.5 3q-6 2 -12 3.5t-3 0.5q4 -1 8.5 -2t9.5 -1h-4t-4 1q-8 1 -15 2t-14 1q-21 1 -40.5 2t-39.5 5l231 98q12 -2 22.5 -2.5t22.5 -1.5q18 0 36 -1.5t34 -6.5q20 -6 37 -16.5t32 -23.5t29 -28 t27 -29q39 27 81.5 45.5t87.5 34.5q30 10 62 17t64 7q10 0 20 0.5t20 1.5q3 0 8 1t9.5 1.5t6.5 0.5q2 -1 -1 -1q-8 -2 -15.5 -3t-15.5 -2l-134 -92q-6 -2 -12 -2.5t-12 -1.5q-23 -24 -44.5 -48.5t-44.5 -48.5q6 -21 3.5 -42.5t-2.5 -43.5v-224v-125t-4 -132t-14.5 -133 t-31 -127t-54.5 -115t-84 -96q-10 -8 -21 -15.5t-23 -14.5q-18 -12 -32 -20t-26.5 -15t-24 -12t-25.5 -10t-32 -11.5t-41 -14.5q-60 -20 -122 -31q-61 -10 -125 -6q-42 2 -83 10t-79 28q-34 18 -62 43t-49.5 56t-38 66t-28.5 72t-21 74t-14 73q-9 58 -13 116t-4.5 116.5 t0.5 117t1 116.5q0 41 -1 82q0 42 1 82q0 10 1 18v18l-2 12q-2 2 -3 5t-2 7q-2 4 -5 6q-2 4 -4 6q-13 16 -28.5 28t-28.5 26q-12 14 -25.5 28t-27.5 27t-29 23t-33 18q-14 6 -27.5 7.5t-28 2t-28.5 0.5t-28 2zM320 1584l232 98q104 -43 206 -85.5t206 -82.5l-231 -98 q-105 40 -207 82t-206 86z" />
<glyph unicode="&#xda;" horiz-adv-x="1552" d="M-78 1248l216 101q8 -1 15 -1q7 -2 15 -2h3.5h3.5h3q-14 0 -19.5 -0.5t-4 -0.5t7 0.5t13 0.5h14h9.5q29 -1 51.5 -7.5t42.5 -17.5t38 -27t37 -36l8 -8t8 -9q24 16 51.5 31.5t56 27.5t58 21t57.5 14q19 4 38 6.5t38 4.5q15 1 29.5 1t30.5 2q-42 -24 -84 -48.5t-84 -49.5 q-6 -1 -12 -1q-6 -2 -12 -2q-22 -23 -43 -47.5t-44 -47.5q6 -16 4 -33q-2 -18 -2 -34v-151q0 -64 -0.5 -127t0.5 -127q1 -43 4 -85t7 -85q5 -41 13.5 -85t22 -88t33 -85t46 -75t61 -60t79.5 -40q34 -10 68 -14q35 -3 69 -2q9 9 18.5 17t17.5 18q41 52 65.5 116t37.5 133.5 t17 139.5t5 133q1 91 1 181q-1 90 -1 180q0 8 1 20t1.5 25t0.5 24t-4 17q-12 20 -30 36t-35 32q-16 17 -31.5 34.5t-33.5 33.5q-20 20 -44 30q-3 2 -8.5 4t-9.5 3q-6 2 -12 3.5t-4 0.5q4 -1 9 -2t9 -1h-4t-4 1q-8 1 -15 2t-14 1q-21 1 -41 2t-40 5l232 98q12 -2 23 -2.5 t22 -1.5q18 0 35.5 -1.5t34.5 -6.5q20 -6 36.5 -16.5t31.5 -23.5t29 -28t28 -29q39 27 81.5 45.5t87.5 34.5q30 10 62 17q31 7 63 7q10 0 21 0.5t21 1.5q3 0 7.5 1t9 1.5t7.5 0.5q2 -1 -2 -1q-8 -2 -15 -3t-15 -2l-134 -92q-6 -2 -12 -3q-8 0 -14 -1q-23 -24 -43.5 -48.5 t-44.5 -48.5q6 -21 3.5 -42.5t-2.5 -43.5v-224v-113.5t-2.5 -114t-9.5 -113.5t-21 -112q-14 -59 -38 -117t-62 -106q-12 -14 -26 -27t-28 -25q-10 -8 -22 -16q-10 -7 -22 -14q-18 -12 -32.5 -20t-27 -15t-24 -12t-25 -10t-31.5 -11.5t-42 -14.5q-60 -20 -122 -30.5 t-125 -6.5q-42 2 -83 10q-40 8 -78 28q-48 24 -82.5 62t-58.5 84t-39.5 97t-25.5 99q-12 56 -18 113.5t-8 115t-1 115.5t1 114q1 51 1 101.5v100.5q0 12 1.5 22.5t0.5 21.5q0 4 -1 8v6l-2 6v2q-1 2 -3.5 6t-4.5 6q-9 12 -20.5 22t-22.5 20q-16 14 -31.5 31t-31.5 32t-33 29 t-39 22q-13 6 -26.5 7.5t-28 2t-29 0.5t-28.5 2zM642 1479q102 40 202 80.5t200 82.5l28 -16q16 -10 30 -18q-100 -42 -200 -82t-202 -80z" />
<glyph unicode="&#xdb;" horiz-adv-x="1552" d="M-80 1248l216 101q8 -1 15 -1q7 -2 14 -2h3.5h3.5h3q-14 0 -19.5 -0.5t-4 -0.5t7 0.5t13 0.5h14h10.5q28 -1 51 -7.5t42.5 -17.5t38 -27t36.5 -36l17 -18q60 42 130 68q71 26 143 36q22 3 43 2.5t43 2.5q-42 -24 -84 -48.5t-84 -49.5q-6 -1 -12 -1q-6 -2 -12 -2 q-22 -22 -43 -47t-43 -48q6 -16 4 -33q-2 -18 -2 -34v-151q0 -54 -1 -107.5t-1 -107.5q0 -53 3 -105.5t9 -104.5q5 -41 13.5 -85t22 -87.5t33 -84.5t45.5 -75t61 -60t80 -40q34 -10 67.5 -13.5t67.5 -2.5q9 9 18.5 17.5t17.5 18.5q36 45 58 97.5t36 106.5q14 56 21 112.5 t9 113t2 113.5v114v225q0 8 1 20l2 24t1 24t-4 18q-8 14 -19.5 24t-22.5 21q-12 12 -23 24.5t-23 24.5t-24.5 25t-26 24t-28.5 19t-33 13q-27 4 -53.5 4.5t-53.5 5.5l231 98q11 -2 22.5 -2.5t21.5 -1.5q18 0 36 -1.5t34 -6.5q20 -6 37 -16.5t32 -23.5t29 -28t28 -29 q38 28 81 46.5t89 33.5q30 10 62 16q30 6 62 8q10 0 20.5 0.5t20.5 1.5l15 2h3.5t1.5 0l-28 -5l-135 -92q-6 -1 -11.5 -2t-11.5 -1q-24 -24 -45.5 -49t-43.5 -49q6 -21 3 -42.5t-3 -43.5v-224v-125t-4 -132t-14 -133t-31 -127t-54.5 -115t-83.5 -96q-10 -8 -21.5 -15.5 t-23.5 -14.5q-18 -12 -32 -20t-26 -15t-24 -12t-26 -10t-32 -11q-16 -7 -40 -15q-60 -20 -122 -31q-60 -10 -124 -6q-42 2 -84 10t-79 28q-52 26 -88.5 69t-61.5 95t-39 109t-24 111q-10 58 -13 116t-4 117t0 117t1 116v152q0 12 1 22.5t1 21.5v8q-1 2 -2 6l-2 6v2 q-2 5 -5 8.5t-7 7.5q-9 12 -19.5 21t-21.5 19q-16 14 -31 30t-30.5 31.5t-32.5 28.5q-17 14 -38 22q-14 6 -27.5 7.5t-28.5 2t-29 0.5t-28 2zM343 1454q22 13 43 27q22 13 45 27q28 16 55.5 31t55.5 30q19 10 39 19q19 8 39 16l8 2q28 12 60 24.5t65.5 21t66.5 12.5t62 -1 q40 -7 76 -24t70.5 -38.5t68 -44t69.5 -40.5l-232 -98q-26 13 -50 28.5t-48 30.5l-48 30t-50 28q-16 8 -32 14t-34 11l-10 2q-40 -22 -78 -46t-78 -46zM1276 1242q-1 0 1 0h4h-5zM1281 1242h1v1v-1h-1z" />
<glyph unicode="&#xdc;" horiz-adv-x="1552" d="M-72 1242h43q21 -2 43 -4q17 -4 31.5 -11t28.5 -17q21 -15 39 -33.5t36 -37.5q10 -10 19.5 -18.5t19.5 -17.5t22 -21q11 -12 14 -26q4 -16 1.5 -32t-2.5 -33v-160q0 -33 -0.5 -66t-0.5 -67q0 -66 1.5 -132t9 -132t22.5 -130t41 -126q14 -30 31 -60t39 -55.5t48.5 -46 t58.5 -33.5q27 -10 54 -14.5t56 -8.5q46 -5 96.5 -2t101 12.5t98 25.5t89.5 37q37 18 68.5 36.5t58.5 40.5t49 50t41 66q30 60 47.5 130t26.5 142t12 144q3 74 3 140v135v135q0 12 1 23t2 23t0.5 24t-3.5 23v1q21 22 40.5 45t40.5 45l9 10l186 96h-39t-39 -2q-34 -4 -71 -13 t-73 -23t-70 -31t-64 -38q-14 14 -27 28.5t-28 27.5t-31 24t-35 17q-16 6 -33.5 8t-34.5 2.5t-34.5 0t-34.5 -0.5l-194 -100h42.5t42.5 -4q22 -4 41.5 -16t36 -28t32 -33t30.5 -33q6 -6 16 -14t19.5 -17t17.5 -19t10 -18q2 -12 3 -23t0 -23t-2 -23.5t-1 -23.5v-219 q0 -56 -1 -113t-4 -113.5t-10.5 -113t-20.5 -111.5q-8 -32 -18 -64.5t-24 -62.5t-32 -58t-42 -52q-44 -2 -88 1.5t-86 19.5q-46 18 -80.5 54.5t-60 81.5t-42.5 94t-27 94q-14 63 -20 126.5t-7.5 128t-0.5 128.5t1 128v160q0 16 2.5 32.5t-1.5 32.5l-2 9q23 23 43.5 47.5 t43.5 48.5l187 96h-36t-36 -1q-34 -2 -72 -11.5t-75 -23.5t-73 -32q-36 -17 -64 -37l-24 25l-21.5 21.5t-22.5 19.5q-12 8 -25 15.5t-26 12.5q-16 6 -34.5 8.5t-36.5 3t-36 0t-36 -0.5zM336 1552q0 66 44.5 113t123.5 47q76 0 120 -46q44 -48 44 -114q0 -60 -44.5 -105.5 t-119.5 -45.5q-78 0 -123 45.5t-45 105.5zM836 1552q0 66 45 113t123 47q76 0 120 -47t44 -113q0 -60 -44 -105.5t-120 -45.5q-78 0 -123 45.5t-45 105.5z" />
<glyph unicode="&#xdd;" horiz-adv-x="766" d="M-63 1268q20 -4 39.5 -5t41.5 -2q6 0 11 -0.5t11 -1.5q2 0 4 -0.5t4 -1.5t4 -1q13 -4 23 -10q12 -6 23.5 -14t22.5 -17q18 -14 33.5 -30t30.5 -32.5t29.5 -33.5t30.5 -33v-806q0 -10 -1 -21t-1.5 -21t0.5 -21t4 -21q-24 -25 -46.5 -50.5t-46.5 -49.5l-193 -100q26 0 51 2 q24 1 50 4q31 4 66.5 14t70.5 24t68 31t59 36q12 -12 24 -25.5t24 -26t26 -23.5q14 -10 30 -18q15 -7 31.5 -10.5t33.5 -5.5t34 -2h34l194 101q-24 0 -48.5 2.5t-47.5 12.5q-16 7 -29 18.5t-25.5 24.5t-24 27t-23.5 26q-8 8 -18.5 16t-20 17t-17.5 18.5t-12 21.5 q-4 10 -4.5 20.5t0 20.5t1.5 21t1 21v804q23 24 44 49t45 49h2h2q4 0 8 1q6 1 8 1q42 24 83 49t83 49q-22 -2 -44 -2q-24 0 -46 -4q-70 -10 -137 -35t-125 -66q-24 25 -49 47t-57 38q-18 9 -36 12.5t-37 5.5h-10.5h-8.5q3 0 -2.5 0.5t-14.5 1t-17 1.5q-10 1 -12 1zM152 1638 q0 49 26 89.5t73 63.5t109 23q96 0 153 -50t57 -126q0 -79 -57 -129.5t-153 -50.5q-94 0 -151 51t-57 129zM498 1260h2h-2z" />
<glyph unicode="&#xde;" horiz-adv-x="1118" d="M-58 392l244 84q6 -44 17 -86t24 -85q6 -20 9.5 -35.5t8.5 -29.5t13 -27.5t24 -29.5q7 -8 14.5 -14.5t15.5 -12.5t15 -11t15 -10q28 -16 58 -27t61 -19q36 -10 72.5 -14.5t74.5 -6.5q8 1 15 1.5t15 1.5q22 26 34 57q12 30 24 62q8 24 18 50t17 52t9 52.5t-4 52.5 q-4 15 -11 29t-15 27q-10 15 -22 29q-12 12 -26 24q-39 36 -83.5 61.5t-92.5 46t-96 40.5q-49 20 -95 42q-31 15 -58.5 31t-51 36t-43.5 45q-20 24 -34 56q-2 4 -3.5 11t-3 13t-2.5 11t-1 7q-2 10 -0.5 24t5 28t8.5 28t7 24q1 4 2.5 11t3.5 15t4 14.5t4 10.5 q13 42 31.5 81.5t50.5 71.5q14 15 31.5 28t37 24.5t39.5 21.5q20 8 38 16q48 20 96 35t97 23.5t99 9.5t102 -8q28 -5 62 -15.5t67.5 -25.5t63 -34.5t48.5 -43.5q5 -6 10 -22.5t8.5 -35t7 -36l5.5 -27.5q2 -9 4 -17.5t3 -18.5q4 -18 6 -35t3 -35q-61 -21 -121.5 -42.5 t-122.5 -42.5q-1 18 -3.5 35.5t-5.5 35.5q-2 9 -3 18q-2 10 -4 18t-5 24.5t-7 34t-8 33.5q-4 14 -8 20q-16 20 -38.5 37t-48 29.5t-51.5 22t-50 15.5q-31 8 -63 12t-64 2q-23 -28 -38 -59t-25 -65q-1 -4 -3.5 -11t-4 -15t-3.5 -15t-3 -10q-2 -10 -7 -24t-8.5 -28t-5.5 -27 q-1 -14 1 -25q2 -8 4 -17q2 -8 4 -17q9 -25 24.5 -46.5t34.5 -40t42 -33.5t45 -27q44 -25 91 -43.5t94 -38.5q40 -18 79 -37q38 -19 76 -43q24 -16 49 -35t46 -42t35 -49q14 -28 18 -58q2 -20 0 -40t-7 -40t-11 -40q-8 -20 -14 -38q-8 -20 -14.5 -41t-15 -41.5t-18.5 -40 t-23 -37.5q-16 -21 -36 -37.5t-42.5 -30.5t-46.5 -25t-48 -21q-32 -13 -65 -25q-6 -18 -15.5 -34.5t-18.5 -34.5q-5 -10 -9 -19q-2 -9 -6 -19l-4 -10l-2 -4q-1 -2 -1.5 -5t-2.5 -5q9 -7 19.5 -12.5t20.5 -11t19 -12t16 -16.5q22 -34 26.5 -67t-4.5 -64t-31 -58t-53 -47 q-22 -14 -46 -26t-49 -22q-36 -14 -70 -24t-68 -17t-68.5 -10t-73.5 -3l194 100h12q8 14 11 30t5 32q0 12 -1 23t-5 23q-8 26 -24 42q-18 18 -40 30l-11 5.5t-11 6.5l-50 -9l39 27q7 14 11 28t10 27q8 18 18 34.5t18 34.5q5 12 5.5 24t-7.5 24q-42 2 -84 7t-82 16 q-32 8 -64 20q-32 13 -60 29q-27 16 -52.5 37.5t-41.5 48.5q-10 18 -13.5 37.5t-9.5 38.5q-15 47 -28 93.5t-19 96.5zM388 -454l2 2zM430 -30l5 1q-2 0 -4.5 -0.5t-0.5 -0.5zM591 -106l1 1v1z" />
<glyph unicode="&#xdf;" horiz-adv-x="1450" d="M-49 -14l179 92q6 6 15.5 16l19 20t18.5 19.5t16 16t10 9.5t-1 -1l3 2q2 2 5 6q4 2 7 4l1 1v541q0 64 2 132.5t12 136t31 131.5t57 120q26 38 56 67t64 52t72 40t82 33q30 10 60.5 18.5t62 15t62.5 8.5t63 0q15 -1 29.5 -2.5t29.5 -5.5q36 -7 71 -21.5t65.5 -36t54.5 -50 t38 -63.5q6 -16 10.5 -29.5t5 -25.5t-2 -24.5t-9.5 -26.5q-5 -10 -10.5 -19.5t-11.5 -19.5l-4 -10q-1 -2 -2 -5t-1 -2l-1 -1l-4 -13q-6 -16 -10 -31.5t-8 -30.5q-7 -22 -17 -43.5t-20.5 -42.5t-20.5 -42q-12 -21 -20 -42l-5 -13l-2 -4l-2 -4q-6 -12 -10 -24q-5 -11 -7 -24 q-3 -18 0.5 -34.5t10.5 -32.5t17 -30.5t20 -27.5q24 -28 51 -52l54 -48q32 -28 63.5 -56.5t59.5 -60.5q10 -11 20 -23t19.5 -24.5t16.5 -26.5q8 -14 12 -28q5 -18 3.5 -37t-7.5 -38t-14 -38t-14 -35l-4 -13l-4 -10q-1 -1 -1 -2l-1 -3q-10 -36 -25.5 -62t-37 -46t-49.5 -34 t-64 -28q-31 -11 -61.5 -21t-62.5 -16.5t-64 -8.5t-65 2q-22 2 -41.5 6t-37.5 11t-34 17q-16 12 -33 26l-7 5q-20 -10 -42.5 -19.5t-45.5 -16.5t-45 -12t-41 -7t-38.5 -2t-39.5 2t-38 8q-20 6 -36 17q-20 12 -36 28.5t-32 34.5l-14 13q-20 -13 -41.5 -24t-43.5 -21 q-63 -28 -127 -42q-64 -12 -133 -14zM195 140.5q0 0.5 11 13.5l1 2l-7 -8l8 9l-1 -1l1 2q2 2 -2 -3t-7.5 -10t-3.5 -4.5zM198 144l2 4l-2 -2v-2zM462 249q16 -4 26 -15.5t24 -26.5q21 -22 41.5 -45.5t44.5 -42.5q16 -12 32 -20q42 25 88 43t93 26q16 2 35 5t36 -1 q14 -2 27 -9.5t24 -17t22 -20t22 -18.5q8 -6 21 -11q12 -6 20 -8q4 -1 7.5 -2t7.5 -2q7 16 14 33t13 34t11 31t7 25q2 9 5 19t4 21t0 21t-5 19q-11 26 -27.5 46.5t-34.5 41.5q-20 23 -42 44t-45 41l-46 40t-45 41q-16 15 -34.5 34t-34 40t-25.5 45q-10 22 -10 46q0 20 7 40 t15 38q14 34 32 67t34 67q8 16 13.5 33t10 34t9.5 34t12 33q4 10 11 22t13.5 24t10.5 24t2 22q-4 14 -6 27t-8 27q-16 40 -46 71.5t-68 53t-81 32.5t-85 9q-35 -33 -59.5 -75.5t-40.5 -90.5t-25 -100t-14 -104t-6 -102q-1 -52 -1 -96v-544zM1114 1132v2v-2zM1114 1134l2 4 q0 1 -1 -1t-1 -3zM1134 78h2.5t-0.5 0h-2z" />
<glyph unicode="&#xe0;" horiz-adv-x="1232" d="M81 734q15 12 29 24t28 26l48 48q22 25 50 46q37 28 83.5 52.5t97 42.5t102 28.5t97.5 10.5q32 0 64 -2t62 -16q24 -10 43.5 -26t35 -36t27.5 -43t21 -46q18 -46 28 -92.5t15 -94.5t5.5 -96t0.5 -97q0 -20 -0.5 -40t0.5 -40q2 -26 2 -51q2 -26 -8 -50l6 2q12 -21 17 -42 t9 -41.5t12 -40.5t27 -38q10 -10 20 -17t22 -13q24 -10 51.5 -15t53.5 -3q8 0 16 0.5t17 1.5q4 0 12 2t14.5 3t10.5 1t0 -2q-3 -2 -6.5 -3t-7.5 -1l-130 -90q-32 -6 -70.5 -10t-78 -3t-76.5 9t-65 27q-15 10 -24.5 20.5t-19.5 24.5q-7 10 -11.5 22t-8.5 26q-64 -34 -133 -57 t-139 -41q-24 -6 -52 -12.5t-57.5 -10t-58 -2.5t-52.5 11q-26 10 -46 30t-34 42q-16 25 -27 54.5t-14 58.5q-2 26 4.5 50.5t16.5 47.5q48 115 147 192q6 4 15.5 10.5t20.5 13.5t20 12.5t12 7.5q38 22 79 38t82 31q86 32 176 47q-6 32 -14 63.5t-20 63.5q-4 10 -7.5 17.5 t-7 14.5t-7.5 14.5t-10 16.5q-32 50 -72 73q-38 22 -90 24q-8 -7 -15 -14.5t-14 -13.5q-28 -28 -54 -52q-27 -24 -57 -50zM196 1350l240 93q42 -34 69.5 -56.5t46 -37.5t30 -25t22 -18t22.5 -17.5t30.5 -24t46.5 -36.5q29 -22 71 -54q-60 -24 -120 -47q-62 -23 -122 -46 l-70 55t-47 36t-30.5 24t-22 18t-22.5 18l-30 25t-46 37q-26 22 -68 56zM333 284q-2 -34 9 -67q12 -33 30 -62q18 -27 40 -47t53 -26q10 -2 20.5 -2t19.5 3q4 0 10.5 2t12 3.5t8 2.5t-0.5 -1l-7 -2l22 6q10 8 19 13t21 15l20 20t22 20q8 7 15 13.5t14 13.5l1 1q3 4 6 10 q4 8 6 20q4 17 3 34.5t-2 33.5q-2 28 -1.5 56t0.5 56v72t-3 72q-46 -1 -91 -4q-44 -4 -90 -16q-7 -4 -12.5 -7t-11 -7l-11 -8t-11.5 -11q-18 -18 -37 -42.5t-35 -52.5t-27 -57t-12 -55zM490 78q2 0 4.5 1t6 2t5.5 1l-8 -2zM671 201l1 1z" />
<glyph unicode="&#xe1;" horiz-adv-x="1213" d="M62 739q15 12 29 24.5t28 26.5q24 24 47.5 48t51.5 45q37 28 83.5 52.5t96.5 42.5t101 28q51 12 99 12q32 0 64 -3t62 -15q24 -10 43 -27t35 -37t28 -42t20 -46q20 -50 30 -101t15 -103.5t5 -105t-1 -105.5q0 -18 1.5 -36.5t2.5 -37.5t-1 -37t-9 -36l6 3q12 -20 17 -41 t9.5 -41.5t12.5 -40.5t26 -40q10 -10 20 -17t22 -11q24 -10 52 -16t54 -4q8 0 16 1l16 2q4 0 12 1.5t15 3t10 1.5t-1 -2q-3 -2 -6 -3q-2 0 -6 -2l-130 -88q-32 -6 -71 -10.5t-78 -3.5t-76 9t-66 27q-8 6 -13.5 10.5t-10.5 10t-9.5 11.5t-10.5 13q-7 10 -12 22t-8 26 q-64 -34 -133 -57q-68 -23 -138 -41q-24 -6 -52.5 -12.5t-58 -10.5t-58 -2.5t-52.5 11.5q-26 10 -45 30q-20 21 -34 43q-16 25 -28 53.5t-14 58.5t7 60t23 58q18 38 42 73t54 65q24 23 53 42.5t57 35.5q38 22 79 38t82 31q44 16 87.5 27.5t88.5 19.5q-6 32 -14 64t-20 62 q-11 27 -25 52.5t-32 46.5t-42 36t-54 22q-22 4 -41 4q-8 -7 -15 -14l-14 -14q-28 -28 -54 -52.5t-56 -50.5zM314 289q-2 -34 9 -67.5t29 -61.5q18 -27 40 -46.5t54 -27.5q10 -2 20 -1t20 3q4 0 10.5 2t12 3.5t8.5 2t-1 0.5q-3 0 -7 -2l23 6q10 7 19 12.5t20 15.5 q14 12 26.5 24.5t26.5 24.5l18 17l4 5q2 4 4.5 9.5t3.5 9.5q5 20 4.5 40t-2.5 40q-2 27 -1 54t1 54q0 36 -1 71t-3 71q-46 -1 -91 -4.5t-91 -13.5q-7 -4 -12.5 -8t-10.5 -7.5t-10 -8t-12 -10.5q-18 -18 -36.5 -42.5t-34.5 -53t-27 -57.5t-13 -54zM347 1106q90 63 174 130.5 t167 139.5l230 62q-87 -75 -175 -146q-89 -72 -183 -138zM471 84q1 0 4 0.5t6 1.5q3 2 5 2q-4 -1 -7 -2t-7 -2q-2 0 -1 0zM652 206z" />
<glyph unicode="&#xe2;" horiz-adv-x="1232" d="M81 734q17 14 33 28t32 30q22 22 43 45t47 41q38 28 84 53t96 43t101 28t99 10q32 0 64 -2t62 -16q24 -10 43.5 -26t35 -36t27.5 -43t21 -46q18 -46 28 -93.5t14.5 -95.5t5.5 -96t1 -97q0 -20 -0.5 -39.5t0.5 -38.5q2 -26 2 -51q2 -26 -8 -50l6 2q12 -20 17 -41t9.5 -42 t12 -41t25.5 -38q10 -10 20 -17t22 -13q24 -10 52 -15t54 -3q8 0 16 0.5t17 1.5q4 0 12 2t14.5 3t10.5 1t0 -2q-3 -2 -6.5 -3t-7.5 -1l-130 -90q-32 -6 -70.5 -10t-78 -3t-76.5 9t-65 27q-8 5 -14 10t-11 10t-9 11t-10 14q-7 9 -11.5 21.5t-8.5 26.5q-64 -34 -133 -57 t-139 -41q-24 -6 -52 -12.5t-57.5 -10t-58 -2.5t-52.5 11q-26 10 -46 30t-34 42q-16 25 -27 54.5t-14 58.5q-2 26 4.5 50.5t16.5 47.5q48 115 147 192q6 4 15.5 10.5t20.5 13.5t20 12.5t12 7.5q38 22 79 38t82 31q44 16 88 28q44 11 88 19q-7 42 -18.5 81.5t-29.5 77.5 q-10 20 -22 38.5t-27 34t-33 27.5q-18 14 -40 20q-14 4 -29 6t-30 2l-13 -13q-31 -30 -61.5 -59.5t-64.5 -57.5zM112 1110q32 28 64 54t66 53q32 26 62 50.5t64 44.5t69 34t73 28q18 6 38.5 12t42 9t43 3t40.5 -6t36.5 -15t33.5 -20t31 -23q15 -14 31 -26l76 -64 q36 -32 76 -62q-60 -24 -120 -46t-120 -46q-27 20 -52.5 42t-51.5 44t-52 43t-52 41q-6 4 -15.5 10t-19.5 12q-34 -28 -67.5 -55t-65.5 -55zM333 284q-2 -34 9 -67q12 -33 30 -62q18 -27 40 -47t53 -26q10 -2 20.5 -2t19.5 3q4 0 10.5 2t12 3.5t8 2.5t-0.5 -1l-7 -2 q6 1 11 2.5t11 3.5l20 14q10 6 20 14q11 10 20.5 20t21.5 20q8 7 15 13.5t14 13.5q2 3 7 11q4 8 6 20q4 17 3 34.5t-2 33.5q-2 22 -1.5 44t0.5 44v43v43q0 20 -1 40t-2 42q-46 -1 -91 -4q-44 -4 -90 -16q-7 -4 -12.5 -7t-11 -7l-11 -8t-11.5 -11q-18 -18 -37 -42.5 t-35 -52.5t-27 -57t-12 -55zM490 78q2 0 4.5 1t6 2t5.5 1l-8 -2zM671 201l1 1z" />
<glyph unicode="&#xe3;" horiz-adv-x="1264" d="M80 1120q1 2 3.5 6t4.5 6l4 6q6 8 10 14.5t10 14.5q12 15 24 29t28 25q47 32 100.5 53.5t109.5 34.5l3 1l6 2t7 2l38 10q19 4 38.5 8t38.5 4q28 0 54.5 -4t52.5 -11t52 -16l52 -18q28 -11 56 -15q8 9 15 18.5t13 19.5l240 74q-20 -28 -40 -50t-43 -40t-49 -34 q-27 -16 -58 -30q-21 -10 -42.5 -18t-44.5 -15q-22 -6 -45.5 -12.5t-47 -10.5t-47 -6t-47.5 1q-30 3 -59 11t-57 18t-56 19t-58 14l-14 -21q-2 -4 -6 -8t-6 -8q-60 -18 -120 -36.5t-120 -37.5zM114 734q17 14 32.5 28t31.5 30q22 22 44 45q20 23 46 41q38 28 84 53t96 43 t102 28q50 10 98 10q32 0 64.5 -2t62.5 -16q24 -10 43.5 -26t34.5 -36t27 -43t22 -46q18 -46 28 -92.5t14 -94.5t5 -96t1 -97v-38.5v-38.5q2 -26 3 -53t-9 -51l6 2q12 -20 17 -41t9.5 -42t12.5 -41t26 -38q10 -10 20 -17t22 -13q24 -10 51.5 -15t54.5 -3h16q9 1 17 2 q4 0 12 2t14.5 3t10 1t-0.5 -2q-3 -2 -6.5 -2.5t-5.5 -1.5l-131 -90q-32 -6 -70.5 -10t-78.5 -3t-77 9t-65 27q-8 5 -14 10t-10.5 10t-9 11l-10.5 14q-8 10 -12 22t-8 26q-64 -34 -133 -57t-139 -41q-24 -6 -52 -12.5t-57.5 -10t-58 -2.5t-52.5 11q-26 10 -46 30t-34 42 q-16 25 -27 54.5t-14 58.5q-2 26 4.5 50.5t16.5 47.5q48 115 147 192q6 4 15.5 10.5t20.5 13.5t20 12.5t12 7.5q38 22 79 38t82 31q44 16 88 28q44 11 88 19q-6 33 -14 65q-8 30 -20 62q-6 15 -14 32q-10 18 -18 31q-32 50 -71.5 72.5t-91.5 24.5l-13 -13 q-31 -30 -61.5 -59.5t-63.5 -57.5zM365 284q-2 -34 9 -67q12 -33 30 -62q18 -27 40 -47t53 -26q10 -2 20.5 -2t19.5 3q4 0 10.5 2t12 3.5t8 2.5t-0.5 -1t-7 -2l23 6q10 7 19.5 13.5t19.5 14.5q18 16 36 33t35 34q8 12 11.5 26t4.5 28.5t0 28.5q-1 16 -3 30q-1 20 -0.5 38.5 t0.5 37.5v82.5t-4 83.5q-46 -1 -90 -4q-44 -4 -90 -16q-46 -28 -77 -69t-54 -89q-9 -19 -17 -39.5t-9 -42.5zM388 1312zM390 1313zM522 78q2 0 4.5 1t6 2t5.5 1l-8 -2z" />
<glyph unicode="&#xe4;" horiz-adv-x="1230" d="M80 739l214 47q32 27 60 55.5t58 58.5q4 4 8 9t9 9q12 0 24.5 -1t24.5 -4q24 -6 43 -16.5t34.5 -25t28 -33t24.5 -40.5q21 -40 33.5 -82t19.5 -86q-42 -8 -83 -19q-42 -11 -82 -24q-36 -12 -70 -26q-34 -15 -69 -31q-82 -39 -143 -95q-60 -55 -98 -137q-6 -14 -11.5 -28 t-9.5 -29t-6 -30t-1 -31q2 -29 14 -58q10 -28 26 -52q11 -17 25.5 -33t30.5 -28q21 -15 45.5 -20.5t50.5 -5t51.5 5t48.5 9.5q82 18 164 44t156 66q4 -14 9 -27t11 -22q6 -8 11 -13.5t9.5 -10.5t10 -10t13.5 -11q29 -19 66 -26.5t76.5 -8.5t77.5 3q40 4 72 10l130 89l6 2 l6 2q4 2 1 1.5t-10 -1.5t-15 -2t-12 -2q-8 -1 -16 -1t-16 -1q-27 -1 -54.5 4t-51.5 15q-12 5 -23 12.5t-19 15.5q-18 19 -26 39.5t-13 41t-9 41.5q-6 20 -18 41l-5 -2q5 13 7 26.5t2 27t-1 27.5t-2 29q-1 20 -1 39q1 18 1 38q0 46 -0.5 92t-5 91t-13.5 89q-8 44 -24 88 q-10 26 -23 53t-30 49.5t-39 40t-50 27.5q-24 8 -49 12t-50 4t-50.5 -3t-49.5 -7q-40 -7 -80.5 -18.5t-80 -28t-76.5 -37t-69 -46.5q-20 -16 -38.5 -34t-36 -36l-35 -36t-37.5 -35zM162 1230q0 62 45 109t123 47q76 0 120 -47t44 -109t-44 -107t-120 -45q-79 0 -123.5 45 t-44.5 107zM335 308q7 36 23.5 70t38.5 64q23 31 45 53q6 6 12 10.5t11 8.5t11 8t14 8q45 11 89.5 14.5t90.5 3.5q4 -48 3.5 -95.5t-1.5 -94.5v-26.5t2 -26.5q2 -14 2.5 -28.5t-0.5 -28.5t-4.5 -28t-11.5 -26q-17 -18 -35.5 -34t-36.5 -32q-10 -9 -19.5 -15.5t-19.5 -13.5 q-16 -4 -31.5 -7.5t-30.5 -6.5h-7q-2 1 -6 1q-12 1 -25 4.5t-24 11.5q-33 25 -56 61q-23 37 -33 77q-8 32 -1 68zM642 1230q0 62 45 109t123 47q76 0 120 -47t44 -109t-44 -107t-120 -45q-78 0 -123 45t-45 107z" />
<glyph unicode="&#xe5;" horiz-adv-x="1215" d="M80 736q20 20 38.5 41t38.5 40q41 40 88.5 74.5t101.5 55.5q34 14 69.5 26.5t71.5 21.5t73 14t75 4q23 -1 45.5 -3.5t44.5 -10.5q27 -10 48.5 -26.5t37.5 -38.5t29 -46t23 -50q18 -46 28 -90.5t14.5 -89t5 -90.5t0.5 -94v-40q-1 -22 0 -42q1 -14 2 -27.5t1 -27t-2 -27.5 q-2 -12 -7 -26l6 2q10 -16 15 -32.5t8 -32t7 -30.5t10 -30t18 -29q11 -12 30 -26q10 -7 24 -12.5t24 -8.5q16 -4 32 -6t32 -3q18 -1 37 0.5t37 5.5l-136 -93q-32 -6 -71 -10.5t-78 -3.5t-75.5 9t-65.5 28q-8 6 -14 11t-10.5 10t-9.5 11q-4 6 -10 14q-8 11 -12.5 22.5 t-7.5 25.5q-44 -24 -90 -42t-96 -34q-56 -18 -111.5 -32t-113.5 -16q-12 -1 -27 -0.5t-30 3.5t-28 7q-14 4 -25 12q-24 18 -39.5 44t-25.5 53q-4 11 -9 22t-9 23t-7 24t-3 24q0 18 5 36t11.5 35t15 34t18.5 32q16 28 35.5 53.5t43.5 48.5q34 32 77.5 59.5t92 49.5t98 38.5 t93.5 27.5q21 5 41.5 9.5t42.5 8.5q-6 37 -17 73t-26 71q-12 26 -25.5 48t-30.5 40t-39 31t-50 19q-10 2 -21 3l-22 2q-32 -26 -59 -56t-56 -59zM227 1253.5q-1 17.5 1 38.5q2 20 6 38t12 36q16 36 45 63t64 46t73 32q36 13 72 25l-11 -32l81 47q24 4 48.5 4.5t48 -3.5 t46 -12.5t42.5 -23.5q21 -16 35 -38t21 -47t8 -52.5t-3 -54t-14.5 -51.5t-25.5 -45q-14 -18 -33 -34t-39 -26q-30 -16 -55.5 -27t-50 -20t-50.5 -17t-58 -16q-24 -6 -53 -7t-57.5 3t-54 15t-44.5 31q-18 18 -29.5 42t-17.5 48q-6 20 -7 37.5zM326 278q0 -14 5 -29t9 -28 q6 -14 14 -33.5t18 -37.5t22 -33t25 -22q13 -6 29 -10t31 -3l19 2h1h-1h1h1l10 4q6 2 8 0l27 8q22 14 41 32q18 16 38 34q12 12 24 23t18 27q4 12 5 23.5t1 24t-2 24.5t-2 24q-2 27 -1 54t1 54v64t-3 63q-46 -1 -91 -4t-90 -13q-8 -4 -13 -7.5l-10 -7t-10 -7.5t-11 -11 q-19 -18 -39 -43.5t-36.5 -54.5t-26.5 -59q-12 -30 -12 -58zM471 1368.5q-1 -36.5 7 -68.5q10 -36 30 -64t51 -43q10 24 14.5 49.5t2.5 51.5q-2 24 -9 45t-19 40t-28 34q-14 15 -34 24q-14 -32 -15 -68.5z" />
<glyph unicode="&#xe6;" horiz-adv-x="1675" d="M82 784q34 34 68 70t74 65q33 25 73.5 47t83.5 39.5t87 29.5t86 17q27 4 52 3t52 -3h3q4 0 13.5 -1t15.5 -3q24 -5 45 -16q21 -10 39 -28q16 -16 27 -37t22 -41q4 -6 7 -12t7 -12q10 12 20.5 23t23.5 21q20 14 41 28q20 14 44 22l78 30q20 8 44.5 13t50 9t50.5 5.5 t48 1.5q20 0 37.5 -1.5t35.5 -9.5q27 -10 49.5 -27t39.5 -39t31 -47t24 -50q6 -14 14 -31.5t15 -37t11 -38t2 -31.5q-2 -15 -10 -27t-18 -22t-22 -19.5t-21 -19.5q-12 -12 -23 -22.5t-24 -20.5q-28 -20 -60.5 -36t-67.5 -28t-71 -19t-70 -11q-17 -2 -34 -0.5t-33 1.5h-134 q-1 -16 -1.5 -36.5t0.5 -40.5t4 -38t9 -29q8 -13 19.5 -23t19.5 -23q10 -16 18.5 -33.5t17.5 -34.5t18 -33t21 -32q26 -34 60 -55t72.5 -31.5t79.5 -11.5q42 0 82 6q14 11 24 22.5t18.5 23.5t16 25t15.5 29q60 19 120 37q60 19 120 37q-6 -13 -10.5 -22t-9 -16.5t-9.5 -15.5 t-15 -19q-17 -20 -37 -37t-42 -31.5t-45 -26.5l-48 -24q-72 -36 -150 -56t-158 -28q-33 -3 -66.5 -4t-66.5 2.5t-64 13.5t-59 28q-24 16 -42 33t-31.5 37t-25 41t-23.5 44q-12 -14 -24 -27.5t-29 -25.5q-24 -16 -51 -30t-55.5 -25t-58.5 -19q-28 -9 -56 -15q-18 -5 -35 -9 t-35 -8q-22 -5 -46 -9.5t-48 -6.5t-48 0t-46 9q-24 8 -40 24t-28 35.5t-21 42.5t-17 43q-3 8 -6.5 17t-6.5 19t-4 19t1 18q6 26 14 49.5t17.5 45t23 42t31.5 40.5l20 22t20 21q42 39 96 71t112 58t118 45t115 31l17 4v50q-1 0 -1 1q-7 3 -14 9t-14 14t-13.5 15t-11.5 13 q-20 24 -33 50.5t-28 50t-36 42.5t-55 27q-5 0 -11.5 0.5t-12.5 1.5h-9.5t-10.5 1q-6 -4 -10.5 -9t-9.5 -10l-44 -44l-44 -44zM330 327q0 -12 2 -23t6 -22t8 -21.5t8 -20.5q4 -12 11.5 -28t16.5 -31t20 -27q12 -13 24 -19t25 -10t27 -3h6h6q4 0 6 1q2 0 4 1q7 8 14.5 17 t15.5 17q35 36 70.5 71t71.5 69q-1 2 -1 4q-10 42 -8.5 84.5t4.5 84.5v13t0.5 14t2 13.5t5.5 11.5q4 4 7.5 8.5t8.5 8.5l-21 -8v58q-24 0 -48 1t-48 1q-4 -1 -12 -2.5t-17 -3t-17 -3.5q-8 -3 -14 -5q-29 -14 -55 -33.5t-47.5 -44t-38.5 -53.5t-28 -58q-2 -4 -4.5 -11.5 t-4.5 -16.5l-4 -18t-2 -16zM596 147q2 0 2.5 0.5t-1.5 0.5zM914 620q32 2 63 1t62 -1h183q6 5 10 8t10 9v1l6 9q5 10 4.5 22.5t-3.5 26t-8 26t-9 21.5q-14 34 -28.5 66.5t-34 60.5t-45.5 49t-65 33q-10 -14 -20.5 -28t-22.5 -26q-4 -4 -7.5 -7l-7 -6t-6.5 -6t-8 -7 q-2 -2 -4.5 -3t-4.5 -3q-2 -1 -4 -3.5t-2 -1.5l-2 -3q-14 -14 -27 -30t-29 -26v-182zM1119 1010l5 3zM1236 628l2 4zM1244 639l3 3l1 2z" />
<glyph unicode="&#xe7;" horiz-adv-x="1033" d="M82 482q4 49 14.5 98t27 95.5t36.5 86.5q18 35 42 67q24 31 52 59q20 20 45 38t52 33t55 27t55 20q26 8 53.5 16t55.5 13t57 7t57 -4q13 -2 24.5 -7t23.5 -9q6 -2 13 -6t13 -7q24 -14 43 -32.5t36.5 -38.5t34.5 -41t36 -40q-60 -24 -120 -46.5t-121 -46.5 q-18 18 -33.5 37.5t-31.5 38.5t-33 36.5t-38 31.5q-15 10 -30 15t-32 11q-41 -46 -67 -98t-44 -111q-18 -61 -27 -122t-4.5 -120t23 -118t52.5 -115q14 -24 31 -46t37 -41t43 -35t49 -26q14 -6 28 -9t29 -7q20 -6 43 -3t43 6q2 1 4 1l11 10q20 19 34 41.5t28 46.5l240 74 q-12 -21 -24 -40.5t-28 -37.5q-23 -27 -50.5 -49t-58 -40t-63 -32.5t-64.5 -25.5q-24 -8 -58 -17.5t-72 -17.5q0 -12 1 -23t0 -22q0 -8 -1.5 -13.5t-1.5 -10.5t2.5 -9.5t9.5 -9.5l30 -15t25 -21q24 -28 29.5 -61t-2.5 -64t-28 -59t-48 -48q-8 -6 -20.5 -13t-26 -14 t-24.5 -12t-14 -7q-22 -10 -44.5 -19t-44.5 -15q-19 -6 -37.5 -11t-38.5 -9q-34 -8 -69 -10t-69 -2l194 100q2 0 5 0.5t5 0.5l10 19q8 18 10.5 37t-1 37t-12.5 35t-23 30q-6 6 -14 10.5t-16 8.5l-16 8q-6 4 -10 10h-9t-9 -2l14 9q-4 11 -2 21q3 10 3 20q0 19 -1.5 37.5 t4.5 36.5q2 10 9 19t11 18q-45 10 -83.5 31.5t-70.5 51.5t-57 67t-43.5 78t-30 85t-16.5 87q-5 44 -1 93z" />
<glyph unicode="&#xe8;" horiz-adv-x="1132" d="M106 460.5q0 20.5 8 38.5q2 6 8 11q4 6 10 10l-17 -6q8 39 15.5 79t17.5 79t24.5 76.5t35.5 71.5q28 46 63 78t77 56t88 40t96 31q22 6 47 10.5t51 5.5t51.5 -1t48.5 -9q23 -6 44 -17q22 -12 40 -26q22 -17 38.5 -40.5t30 -49.5t23.5 -53t20 -53q3 -8 6.5 -17t6 -19 t3.5 -20q0 -10 -2 -18q-6 -20 -18.5 -35t-28.5 -29q-3 -3 -6 -5.5t-7 -4.5q-33 -33 -74.5 -56.5t-84.5 -39.5q-46 -16 -85.5 -27.5t-78.5 -18t-80 -8.5t-90 1l-35 1q2 -20 7 -39t9 -38q8 -38 20 -76t29 -73.5t39.5 -67.5t53.5 -58q10 -8 21 -16q11 -10 24 -16 q26 -14 53.5 -21t55 -9t55.5 0q29 2 57 6q22 21 40 45.5t34 50.5q60 19 120 37.5t120 36.5q-16 -28 -34.5 -54t-42.5 -48q-42 -40 -93.5 -69t-107.5 -49.5t-115 -33t-115 -18.5q-33 -4 -66.5 -5.5t-66.5 1t-65 10.5t-62 24t-54.5 37t-44.5 47t-35.5 55t-27.5 59 q-7 18 -13 35.5t-11 35.5q-9 34 -16.5 68.5t-11.5 68.5q-2 18 -2 38.5zM198 1378l241 92q84 -67 166.5 -132.5t166.5 -132.5q-60 -24 -120 -47q-62 -22 -122 -46q-84 67 -166 133q-82 67 -166 133zM359 600q15 1 32 1.5t32 0t27.5 -1t17.5 -0.5q22 0 43 -0.5t43 -1.5 q28 -2 55 -4t55 0l3 3t3 1l8 8l8 8q4 4 5 6q6 8 6.5 17t-1.5 18q-4 30 -16 58.5t-23 55.5q-10 24 -22.5 47.5t-28.5 43.5t-36 36q-20 18 -44 28q-12 5 -24 8t-24 5l-4 -5q-14 -18 -25.5 -37t-21.5 -41q-14 -30 -24.5 -61t-18 -63t-13.5 -65t-12 -65zM519 974h1h-1zM812 93 l2 1z" />
<glyph unicode="&#xe9;" horiz-adv-x="1130" d="M105.5 438.5q-0.5 13.5 1 25.5t6.5 24t14 22l5 6l-16 -6q8 39 15 78.5t17.5 78.5t25.5 77q14 38 35 72q28 46 63.5 78t76.5 55t87.5 40t95.5 31q22 6 47.5 10t51.5 5.5t51.5 -1t47.5 -8.5q40 -12 69.5 -33t51 -50t37 -63t28.5 -70q7 -19 14 -36.5t9.5 -35t-2.5 -34.5 q-5 -18 -21 -34l-25 -22l-5 -4q-34 -34 -77 -59t-88 -42q-46 -16 -85.5 -27.5t-78.5 -18t-80 -8t-89 0.5l-36 2l2 -11q10 -53 24 -107t36 -103q10 -22 23 -43.5t27 -40.5q28 -36 60 -59.5t67.5 -35.5t74.5 -14q40 -2 84 2h12q8 1 14 2q23 21 40.5 45.5t33.5 52.5 q60 19 120 37q60 19 120 37q-16 -28 -34 -54q-18 -28 -42 -50q-41 -40 -93 -68.5t-108.5 -49t-115.5 -32.5t-114 -18q-33 -4 -66.5 -6t-67 0t-65.5 10t-62 24t-54 38t-44 47.5t-36 54t-28 59.5q-8 20 -16 46t-15 53.5t-13 54.5t-8 49q-2 13 -2.5 26.5zM349 1124 q86 68 170.5 135t170.5 134l214 47q-86 -68 -171 -134t-171 -134zM360 595h2h106q34 0 67.5 -1.5t67.5 -3.5q16 -1 30.5 -1.5t30.5 -0.5q11 10 22 21l2 3l2 3l6 13q2 10 0 20l-4 20q-3 13 -7.5 25.5t-9.5 24.5q-8 21 -15.5 41.5t-17.5 39.5q-20 38 -48 70q-28 31 -68 49 q-24 10 -46 14l-5 -6q-14 -18 -25.5 -36.5t-21.5 -40.5q-14 -30 -24 -61.5t-18 -63.5t-14 -64.5t-12 -64.5zM520 969l1 1zM692 616l5 6q2 2 -0.5 -1t-4.5 -5zM812 88q2 1 6 2.5t7 2.5t4 1t-1 0z" />
<glyph unicode="&#xea;" horiz-adv-x="1126" d="M106 450.5q0 21.5 8 38.5q2 6 7 11.5t11 9.5l-18 -6q8 39 16 79t18 79t25 76.5t35 71.5q28 46 63.5 78t77 56t88 40t95.5 31q22 6 47.5 10.5t51 5.5t51 -1t48.5 -9q40 -11 68.5 -32t50 -49.5t36.5 -62t29 -68.5q4 -10 9.5 -23t10 -26.5t7 -27.5t-0.5 -24 q-6 -22 -21.5 -38t-32.5 -30q-12 -10 -23.5 -21t-24.5 -21q-27 -19 -56.5 -33.5t-60.5 -26.5q-46 -16 -86 -27.5t-78.5 -18t-79.5 -8.5t-91 1l-34 1q2 -18 6 -34t8 -33q9 -40 20.5 -79t28.5 -75.5t40 -69.5t55 -61q10 -8 21 -16q11 -10 23 -16q25 -14 52.5 -21t55.5 -9.5 t57 -1t57 5.5q23 21 40.5 46.5t33.5 51.5q60 19 120 37.5t120 36.5q-16 -28 -34.5 -54t-42.5 -48q-41 -40 -92.5 -69t-108 -49.5t-115.5 -33t-114 -18.5q-33 -4 -67 -5.5t-67 1t-65.5 10.5t-62.5 24t-54.5 37t-44 47t-35 55t-28.5 59q-7 18 -13 36t-10 35q-9 34 -16.5 67.5 t-11.5 68.5q-2 18 -2 39.5zM125 1130q31 23 60.5 48.5t59 50.5t60.5 49t65 44q36 21 72.5 36.5t75.5 29.5q16 6 35 12t39 10t40 5t37 -3q14 -3 26.5 -8.5t25.5 -11.5q22 -10 40 -22t34.5 -25t32.5 -27t34 -30q26 -22 52 -42t50 -44q-60 -24 -120 -46t-120 -46q-24 24 -50 44 t-52 42q-20 18 -40 35.5t-42 33.5q-13 10 -27.5 17.5t-28.5 14.5l-1 -1q-36 -30 -71.5 -60t-73.5 -58zM358 590h4h106q22 0 43 -0.5t42 -1.5q28 -2 55.5 -4t55.5 0l12 10l11 12h1l6 10q4 9 3 18.5t-3 19.5q-2 13 -7.5 29t-12 32.5t-13.5 32.5t-12 28q-10 22 -22 42.5 t-27.5 38.5t-33.5 32.5t-40 24.5q-24 10 -47 13l-5 -5q-14 -18 -25 -37t-21 -41q-14 -30 -25 -61t-18.5 -63.5t-14 -65t-12.5 -64.5zM520 964zM820 86q5 2 8.5 3t-0.5 0z" />
<glyph unicode="&#xeb;" horiz-adv-x="1138" d="M124 434q1 -24 6.5 -48t11.5 -48q6 -21 10 -42.5t12 -42.5q10 -32 24 -63.5t32 -60.5t42 -54t52 -44q32 -20 66.5 -31.5t71 -17.5t73.5 -6t73 4q60 5 118.5 21.5t115.5 36.5q30 12 58 26t56 30t51 33.5t42 38t36 43.5t34 49l-120 -36q-61 -18 -121 -38q-18 -29 -37 -56 q-19 -26 -47 -48q-30 -2 -57 -2q-27 -2 -57 4q-22 4 -44 10t-43 16q-16 8 -29 16q-12 8 -26 20q-30 25 -51 54.5t-37.5 62.5t-28 69t-21.5 72l-12 48t-8 50h130q30 0 59 -1t59 5q28 6 59 14.5t62 20t59 26.5t51 33q13 10 25 22l24 24q2 2 5 4t6 5q10 9 21.5 19t18.5 22 q9 16 9.5 32t-4 32t-10.5 32l-12 30q-13 36 -29.5 70t-38.5 62.5t-52 50t-70 30.5q-47 12 -97.5 8.5t-96.5 -17.5q-48 -14 -94 -30.5t-87.5 -40t-77 -55.5t-63.5 -77q-21 -34 -35.5 -71.5t-24.5 -76.5t-18 -79t-15 -80l18 6q-13 -10 -19 -21q-8 -14 -8 -32q-1 -17 0 -33z M169 1270q0 62 44.5 109t122.5 47q76 0 120 -47t44 -109t-44 -107t-120 -45q-79 0 -123 45t-44 107zM377 600q6 32 12.5 65t14 65t18 63t24.5 61q10 21 21 40.5t25 37.5l2.5 2.5t1.5 3.5q4 -1 8 -1.5t6 -1.5q36 -10 64 -29q30 -19 52 -48q23 -30 37.5 -63t26.5 -67l8 -20 q4 -12 8 -22q4 -12 7 -23t2 -24q-1 -10 -7 -19q-2 -2 -2 -3q-4 -4 -7 -7.5t-7 -7.5q-2 -2 -4 -2h-202h-16t-28 0.5t-33 0.5q-17 -1 -32 -1zM648 1270q0 62 45 109t123 47q76 0 120 -47t44 -109t-44 -107t-120 -45q-78 0 -123 45t-45 107zM707 618l8 10q2 2 -1 -2 q-2 -4 -4 -6z" />
<glyph unicode="&#xec;" horiz-adv-x="745" d="M-52 -2l186 96q22 22 43 46t43 46q-6 18 -7 36t0 36t3 36.5t2 36.5v303q0 18 1.5 36t2 36t-0.5 36q-1 16 -5 34q-4 10 -10 17.5t-13 14t-15 13.5t-15 13q-16 16 -31.5 30t-32.5 27t-35 22t-40 15q-14 4 -30 4.5t-30 1.5l216 100q31 -1 59.5 -4.5t56.5 -17.5 q24 -12 45 -28t40 -34q7 -6 14 -14t15 -14t15.5 -12.5t14.5 -14t12.5 -15.5t7.5 -18q5 -18 6 -36t0.5 -36t-2.5 -36t-2 -36q0 -78 2 -155q0 -77 -2 -155q0 -20 -2 -40q-2 -18 -2 -38q0 -28 4.5 -47t15 -34t25.5 -28t35 -31q11 -10 22 -21t22 -22.5t22.5 -21t25.5 -15.5 q21 -8 43.5 -10t45.5 -2l-194 -100q-32 0 -64.5 1t-62.5 13q-12 5 -23 13t-21 17.5t-20 19.5l-18 18q-9 8 -20 18q-26 -18 -57 -33.5t-63.5 -28t-66 -20.5t-63.5 -13q-24 -4 -48 -5h-50zM6 1418l240 92q44 -36 72.5 -60t47.5 -39.5t31.5 -25.5t22.5 -18.5t22 -17.5 t29.5 -22.5t44 -34t67.5 -51.5q-60 -24 -120.5 -46.5t-120.5 -46.5q-41 32 -67.5 52t-44.5 34t-29 23t-22 17t-23 18t-31 26t-47 40t-72 60z" />
<glyph unicode="&#xed;" horiz-adv-x="725" d="M-66 -2l171 88q10 10 20 22q11 12 21 22q4 4 11 10t15 11l-11 -7l2 2l3 3l16 15q6 6 11 12.5t9 14.5q4 13 5 27t0 28l-2 28q-1 12 -1 26v410q0 13 1 25.5t0 26.5q-1 13 -9 23q-8 11 -16 19q-9 10 -19 17.5t-19 16.5q-14 14 -27 28.5t-29 27.5q-10 8 -20 15.5t-21 13.5 q-8 4 -11 5q-4 2 -10 4l-34 3q-6 0 -10 -0.5t-10 -0.5h-8t-5 0h-7l189 98l-19 -3l2 1l19 3l3 1h8l2 1q7 1 14.5 1h15.5q24 0 42 -2t34.5 -7t32 -15t35.5 -26q16 -14 30 -30t30 -30q8 -7 16 -14.5l16 -15t15 -16t11 -18.5q6 -16 4 -34t-2 -34v-409q0 -15 1 -30t1.5 -30.5 t-1 -30.5t-7.5 -29l6 2q18 -18 37 -40.5t39.5 -44.5t42.5 -41t45 -30q21 -10 43.5 -11.5t45.5 -1.5l-194 -100q-30 0 -59.5 1t-57.5 11q-32 11 -60 34.5t-54 52.5q-4 -2 -7 -4.5t-7 -4.5q-78 -46 -158 -68t-170 -22zM66 1169l338 269l213 48q-85 -68 -169 -135t-168 -135z " />
</font>
</defs>
</svg>
